M48
; DRILL file {KiCad 7.0.5} date Tue Jun 27 15:21:35 2023
; FORMAT={-:-/ absolute / inch / decimal}
; #@! TF.CreationDate,2023-06-27T15:21:35+05:30
; #@! TF.GenerationSoftware,Kicad,Pcbnew,7.0.5
; #@! TF.FileFunction,Plated,1,2,PTH
FMAT,2
INCH
; #@! TA.AperFunction,Plated,PTH,ViaDrill
T1C0.0098
; #@! TA.AperFunction,Plated,PTH,ComponentDrill
T2C0.0394
; #@! TA.AperFunction,Plated,PTH,ComponentDrill
T3C0.0402
%
G90
G05
T1
X4.4343Y-4.1654
X4.4366Y-4.5091
X4.6181Y-3.8807
X4.6239Y-4.1565
X4.6264Y-4.7106
X4.7029Y-4.4988
X6.1071Y-4.3209
T2
X4.0531Y-4.0886
X4.0531Y-4.1886
X4.0531Y-4.2886
X4.0531Y-4.3886
X4.0531Y-4.4886
X4.3031Y-4.725
X4.3031Y-4.825
X4.3031Y-4.925
X4.3429Y-3.6752
X4.3429Y-3.7752
X4.3429Y-3.8752
T3
X5.1912Y-3.775
X5.1912Y-3.8931
X5.2106Y-4.73
X5.2106Y-4.8481
X5.3093Y-3.775
X5.3093Y-3.8931
X5.3287Y-4.73
X5.3287Y-4.8481
X5.4274Y-3.775
X5.4274Y-3.8931
X5.4468Y-4.73
X5.4468Y-4.8481
X5.5455Y-3.775
X5.5455Y-3.8931
X5.5649Y-4.73
X5.5649Y-4.8481
X5.6636Y-3.775
X5.6636Y-3.8931
X5.683Y-4.73
X5.683Y-4.8481
X5.7817Y-3.775
X5.7817Y-3.8931
X5.8011Y-4.73
X5.8011Y-4.8481
X5.8998Y-3.775
X5.8998Y-3.8931
X5.9192Y-4.73
X5.9192Y-4.8481
X6.0179Y-3.775
X6.0179Y-3.8931
X6.0373Y-4.73
X6.0373Y-4.8481
X6.6835Y-3.7767
X6.6835Y-3.8948
X6.6835Y-4.7317
X6.6835Y-4.8498
X6.8016Y-3.7767
X6.8016Y-3.8948
X6.8016Y-4.7317
X6.8016Y-4.8498
X6.9198Y-3.7767
X6.9198Y-3.8948
X6.9198Y-4.7317
X6.9198Y-4.8498
X7.0379Y-3.7767
X7.0379Y-3.8948
X7.0379Y-4.7317
X7.0379Y-4.8498
X7.156Y-3.7767
X7.156Y-3.8948
X7.156Y-4.7317
X7.156Y-4.8498
X7.2741Y-3.7767
X7.2741Y-3.8948
X7.2741Y-4.7317
X7.2741Y-4.8498
X7.3922Y-3.7767
X7.3922Y-3.8948
X7.3922Y-4.7317
X7.3922Y-4.8498
X7.5103Y-3.7767
X7.5103Y-3.8948
X7.5103Y-4.7317
X7.5103Y-4.8498
T0
M30
