<?xml version="1.0" standalone="no"?>
 <!DOCTYPE svg PUBLIC "-//W3C//DTD SVG 1.1//EN" 
 "http://www.w3.org/Graphics/SVG/1.1/DTD/svg11.dtd"> 
<svg
  xmlns:svg="http://www.w3.org/2000/svg"
  xmlns="http://www.w3.org/2000/svg"
  xmlns:xlink="http://www.w3.org/1999/xlink"
  version="1.1"
  width="297.0022mm" height="210.0072mm" viewBox="0.0000 0.0000 297.0022 210.0072">
<title>SVG Image created as NTC reader-PTH-drl_map.svg date 2023/06/27 15:21:41 </title>
  <desc>Image generated by PCBNEW </desc>
<g style="fill:#000000; fill-opacity:1.0000;stroke:#000000; stroke-opacity:1.0000;
stroke-linecap:round; stroke-linejoin:round;"
 transform="translate(0 0) scale(1 1)">
</g>
<g style="fill:#000000; fill-opacity:0.0; 
stroke:#000000; stroke-width:0.0000; stroke-opacity:1; 
stroke-linecap:round; stroke-linejoin:round;">
</g>
<g style="fill:#000000; fill-opacity:0.0; 
stroke:#000000; stroke-width:0.4146; stroke-opacity:1; 
stroke-linecap:round; stroke-linejoin:round;">
<path style="fill:#000000; fill-opacity:0.0; 
stroke:#000000; stroke-width:0.4146; stroke-opacity:1; 
stroke-linecap:round; stroke-linejoin:round;fill:none"
d="M 10.2073,7.6764
286.7949,7.6764
286.7949,118.3280
10.2073,118.3280
Z" /> 
</g>
<g style="fill:#000000; fill-opacity:0.0; 
stroke:#000000; stroke-width:0.5528; stroke-opacity:1; 
stroke-linecap:round; stroke-linejoin:round;">
</g>
<g style="fill:#000000; fill-opacity:0.0; 
stroke:#000000; stroke-width:0.0691; stroke-opacity:1; 
stroke-linecap:round; stroke-linejoin:round;">
<path d="M48.2015 52.4705
L48.8925 53.1615
" />
<path d="M48.8925 52.4705
L48.2015 53.1615
" />
<path d="M48.3673 76.6021
L49.0584 77.2932
" />
<path d="M49.0584 76.6021
L48.3673 77.2932
" />
<path d="M61.1104 32.4852
L61.8014 33.1763
" />
<path d="M61.8014 32.4852
L61.1104 33.1763
" />
<path d="M61.5184 51.8497
L62.2094 52.5408
" />
<path d="M62.2094 51.8497
L61.5184 52.5408
" />
<path d="M61.6909 90.7549
L62.3819 91.4460
" />
<path d="M62.3819 90.7549
L61.6909 91.4460
" />
<path d="M67.0654 75.8803
L67.7564 76.5714
" />
<path d="M67.7564 75.8803
L67.0654 76.5714
" />
<path d="M165.6531 63.3891
L166.3441 64.0802
" />
<path d="M166.3441 63.3891
L165.6531 64.0802
" />
</g>
<g style="fill:#000000; fill-opacity:0.0; 
stroke:#000000; stroke-width:0.2764; stroke-opacity:1; 
stroke-linecap:round; stroke-linejoin:round;">
<circle cx="21.7894" cy="47.4258" r="1.3821" /> 
<circle cx="21.7894" cy="54.4469" r="1.3821" /> 
<circle cx="21.7894" cy="61.4680" r="1.3821" /> 
<circle cx="21.7894" cy="68.4891" r="1.3821" /> 
<circle cx="21.7894" cy="75.5102" r="1.3821" /> 
<circle cx="39.3422" cy="92.1094" r="1.3821" /> 
<circle cx="39.3422" cy="99.1305" r="1.3821" /> 
<circle cx="39.3422" cy="106.1516" r="1.3821" /> 
<circle cx="42.1340" cy="18.4015" r="1.3821" /> 
<circle cx="42.1340" cy="25.4226" r="1.3821" /> 
<circle cx="42.1340" cy="32.4437" r="1.3821" /> 
</g>
<g style="fill:#000000; fill-opacity:0.0; 
stroke:#000000; stroke-width:0.2820; stroke-opacity:1; 
stroke-linecap:round; stroke-linejoin:round;">
<path d="M101.6903 24.0005
L101.6903 26.8200
" />
<path d="M100.2805 25.4103
L103.1000 25.4103
" />
<path d="M101.6903 32.2932
L101.6903 35.1127
" />
<path d="M100.2805 33.7029
L103.1000 33.7029
" />
<path d="M103.0532 91.0517
L103.0532 93.8712
" />
<path d="M101.6435 92.4614
L104.4630 92.4614
" />
<path d="M103.0532 99.3443
L103.0532 102.1638
" />
<path d="M101.6435 100.7541
L104.4630 100.7541
" />
<path d="M109.9829 24.0005
L109.9829 26.8200
" />
<path d="M108.5732 25.4103
L111.3927 25.4103
" />
<path d="M109.9829 32.2932
L109.9829 35.1127
" />
<path d="M108.5732 33.7029
L111.3927 33.7029
" />
<path d="M111.3459 91.0517
L111.3459 93.8712
" />
<path d="M109.9361 92.4614
L112.7556 92.4614
" />
<path d="M111.3459 99.3443
L111.3459 102.1638
" />
<path d="M109.9361 100.7541
L112.7556 100.7541
" />
<path d="M118.2756 24.0005
L118.2756 26.8200
" />
<path d="M116.8658 25.4103
L119.6853 25.4103
" />
<path d="M118.2756 32.2932
L118.2756 35.1127
" />
<path d="M116.8658 33.7029
L119.6853 33.7029
" />
<path d="M119.6385 91.0517
L119.6385 93.8712
" />
<path d="M118.2288 92.4614
L121.0483 92.4614
" />
<path d="M119.6385 99.3443
L119.6385 102.1638
" />
<path d="M118.2288 100.7541
L121.0483 100.7541
" />
<path d="M126.5682 24.0005
L126.5682 26.8200
" />
<path d="M125.1585 25.4103
L127.9780 25.4103
" />
<path d="M126.5682 32.2932
L126.5682 35.1127
" />
<path d="M125.1585 33.7029
L127.9780 33.7029
" />
<path d="M127.9312 91.0517
L127.9312 93.8712
" />
<path d="M126.5214 92.4614
L129.3409 92.4614
" />
<path d="M127.9312 99.3443
L127.9312 102.1638
" />
<path d="M126.5214 100.7541
L129.3409 100.7541
" />
<path d="M134.8609 24.0005
L134.8609 26.8200
" />
<path d="M133.4511 25.4103
L136.2706 25.4103
" />
<path d="M134.8609 32.2932
L134.8609 35.1127
" />
<path d="M133.4511 33.7029
L136.2706 33.7029
" />
<path d="M136.2238 91.0517
L136.2238 93.8712
" />
<path d="M134.8141 92.4614
L137.6336 92.4614
" />
<path d="M136.2238 99.3443
L136.2238 102.1638
" />
<path d="M134.8141 100.7541
L137.6336 100.7541
" />
<path d="M143.1535 24.0005
L143.1535 26.8200
" />
<path d="M141.7438 25.4103
L144.5633 25.4103
" />
<path d="M143.1535 32.2932
L143.1535 35.1127
" />
<path d="M141.7438 33.7029
L144.5633 33.7029
" />
<path d="M144.5165 91.0517
L144.5165 93.8712
" />
<path d="M143.1067 92.4614
L145.9262 92.4614
" />
<path d="M144.5165 99.3443
L144.5165 102.1638
" />
<path d="M143.1067 100.7541
L145.9262 100.7541
" />
<path d="M151.4462 24.0005
L151.4462 26.8200
" />
<path d="M150.0364 25.4103
L152.8559 25.4103
" />
<path d="M151.4462 32.2932
L151.4462 35.1127
" />
<path d="M150.0364 33.7029
L152.8559 33.7029
" />
<path d="M152.8091 91.0517
L152.8091 93.8712
" />
<path d="M151.3994 92.4614
L154.2189 92.4614
" />
<path d="M152.8091 99.3443
L152.8091 102.1638
" />
<path d="M151.3994 100.7541
L154.2189 100.7541
" />
<path d="M159.7388 24.0005
L159.7388 26.8200
" />
<path d="M158.3291 25.4103
L161.1486 25.4103
" />
<path d="M159.7388 32.2932
L159.7388 35.1127
" />
<path d="M158.3291 33.7029
L161.1486 33.7029
" />
<path d="M161.1018 91.0517
L161.1018 93.8712
" />
<path d="M159.6920 92.4614
L162.5115 92.4614
" />
<path d="M161.1018 99.3443
L161.1018 102.1638
" />
<path d="M159.6920 100.7541
L162.5115 100.7541
" />
<path d="M206.4716 24.1207
L206.4716 26.9402
" />
<path d="M205.0618 25.5305
L207.8813 25.5305
" />
<path d="M206.4716 32.4134
L206.4716 35.2329
" />
<path d="M205.0618 33.8231
L207.8813 33.8231
" />
<path d="M206.4716 91.1684
L206.4716 93.9879
" />
<path d="M205.0618 92.5782
L207.8813 92.5782
" />
<path d="M206.4716 99.4611
L206.4716 102.2806
" />
<path d="M205.0618 100.8708
L207.8813 100.8708
" />
<path d="M214.7642 24.1207
L214.7642 26.9402
" />
<path d="M213.3545 25.5305
L216.1740 25.5305
" />
<path d="M214.7642 32.4134
L214.7642 35.2329
" />
<path d="M213.3545 33.8231
L216.1740 33.8231
" />
<path d="M214.7642 91.1684
L214.7642 93.9879
" />
<path d="M213.3545 92.5782
L216.1740 92.5782
" />
<path d="M214.7642 99.4611
L214.7642 102.2806
" />
<path d="M213.3545 100.8708
L216.1740 100.8708
" />
<path d="M223.0569 24.1207
L223.0569 26.9402
" />
<path d="M221.6471 25.5305
L224.4666 25.5305
" />
<path d="M223.0569 32.4134
L223.0569 35.2329
" />
<path d="M221.6471 33.8231
L224.4666 33.8231
" />
<path d="M223.0569 91.1684
L223.0569 93.9879
" />
<path d="M221.6471 92.5782
L224.4666 92.5782
" />
<path d="M223.0569 99.4611
L223.0569 102.2806
" />
<path d="M221.6471 100.8708
L224.4666 100.8708
" />
<path d="M231.3495 24.1207
L231.3495 26.9402
" />
<path d="M229.9398 25.5305
L232.7593 25.5305
" />
<path d="M231.3495 32.4134
L231.3495 35.2329
" />
<path d="M229.9398 33.8231
L232.7593 33.8231
" />
<path d="M231.3495 91.1684
L231.3495 93.9879
" />
<path d="M229.9398 92.5782
L232.7593 92.5782
" />
<path d="M231.3495 99.4611
L231.3495 102.2806
" />
<path d="M229.9398 100.8708
L232.7593 100.8708
" />
<path d="M239.6422 24.1207
L239.6422 26.9402
" />
<path d="M238.2324 25.5305
L241.0519 25.5305
" />
<path d="M239.6422 32.4134
L239.6422 35.2329
" />
<path d="M238.2324 33.8231
L241.0519 33.8231
" />
<path d="M239.6422 91.1684
L239.6422 93.9879
" />
<path d="M238.2324 92.5782
L241.0519 92.5782
" />
<path d="M239.6422 99.4611
L239.6422 102.2806
" />
<path d="M238.2324 100.8708
L241.0519 100.8708
" />
<path d="M247.9348 24.1207
L247.9348 26.9402
" />
<path d="M246.5251 25.5305
L249.3446 25.5305
" />
<path d="M247.9348 32.4134
L247.9348 35.2329
" />
<path d="M246.5251 33.8231
L249.3446 33.8231
" />
<path d="M247.9348 91.1684
L247.9348 93.9879
" />
<path d="M246.5251 92.5782
L249.3446 92.5782
" />
<path d="M247.9348 99.4611
L247.9348 102.2806
" />
<path d="M246.5251 100.8708
L249.3446 100.8708
" />
<path d="M256.2275 24.1207
L256.2275 26.9402
" />
<path d="M254.8177 25.5305
L257.6372 25.5305
" />
<path d="M256.2275 32.4134
L256.2275 35.2329
" />
<path d="M254.8177 33.8231
L257.6372 33.8231
" />
<path d="M256.2275 91.1684
L256.2275 93.9879
" />
<path d="M254.8177 92.5782
L257.6372 92.5782
" />
<path d="M256.2275 99.4611
L256.2275 102.2806
" />
<path d="M254.8177 100.8708
L257.6372 100.8708
" />
<path d="M264.5201 24.1207
L264.5201 26.9402
" />
<path d="M263.1104 25.5305
L265.9299 25.5305
" />
<path d="M264.5201 32.4134
L264.5201 35.2329
" />
<path d="M263.1104 33.8231
L265.9299 33.8231
" />
<path d="M264.5201 91.1684
L264.5201 93.9879
" />
<path d="M263.1104 92.5782
L265.9299 92.5782
" />
<path d="M264.5201 99.4611
L264.5201 102.2806
" />
<path d="M263.1104 100.8708
L265.9299 100.8708
" />
</g>
<g style="fill:#000000; fill-opacity:0.0; 
stroke:#000000; stroke-width:0.5528; stroke-opacity:1; 
stroke-linecap:round; stroke-linejoin:round;">
</g>
<g style="fill:#000000; fill-opacity:0.0; 
stroke:#000000; stroke-width:0.2000; stroke-opacity:1; 
stroke-linecap:round; stroke-linejoin:round;">
<text x="12.0000" y="121.7353"
textLength="14.7667" font-size="2.6667" lengthAdjust="spacingAndGlyphs"
text-anchor="start" opacity="0">Drill Map:</text>
<g class="stroked-text"><desc>Drill Map:</desc>
<path d="M12.6078 121.6501
L12.6078 119.6501
" />
<path d="M12.6078 119.6501
L13.0840 119.6501
" />
<path d="M13.0840 119.6501
L13.3697 119.7454
" />
<path d="M13.3697 119.7454
L13.5601 119.9358
" />
<path d="M13.5601 119.9358
L13.6554 120.1263
" />
<path d="M13.6554 120.1263
L13.7506 120.5073
" />
<path d="M13.7506 120.5073
L13.7506 120.7930
" />
<path d="M13.7506 120.7930
L13.6554 121.1739
" />
<path d="M13.6554 121.1739
L13.5601 121.3644
" />
<path d="M13.5601 121.3644
L13.3697 121.5549
" />
<path d="M13.3697 121.5549
L13.0840 121.6501
" />
<path d="M13.0840 121.6501
L12.6078 121.6501
" />
<path d="M14.6078 121.6501
L14.6078 120.3168
" />
<path d="M14.6078 120.6977
L14.7030 120.5073
" />
<path d="M14.7030 120.5073
L14.7982 120.4120
" />
<path d="M14.7982 120.4120
L14.9887 120.3168
" />
<path d="M14.9887 120.3168
L15.1792 120.3168
" />
<path d="M15.8459 121.6501
L15.8459 120.3168
" />
<path d="M15.8459 119.6501
L15.7506 119.7454
" />
<path d="M15.7506 119.7454
L15.8459 119.8406
" />
<path d="M15.8459 119.8406
L15.9411 119.7454
" />
<path d="M15.9411 119.7454
L15.8459 119.6501
" />
<path d="M15.8459 119.6501
L15.8459 119.8406
" />
<path d="M17.0840 121.6501
L16.8935 121.5549
" />
<path d="M16.8935 121.5549
L16.7982 121.3644
" />
<path d="M16.7982 121.3644
L16.7982 119.6501
" />
<path d="M18.1316 121.6501
L17.9411 121.5549
" />
<path d="M17.9411 121.5549
L17.8459 121.3644
" />
<path d="M17.8459 121.3644
L17.8459 119.6501
" />
<path d="M20.4173 121.6501
L20.4173 119.6501
" />
<path d="M20.4173 119.6501
L21.0840 121.0787
" />
<path d="M21.0840 121.0787
L21.7506 119.6501
" />
<path d="M21.7506 119.6501
L21.7506 121.6501
" />
<path d="M23.5601 121.6501
L23.5601 120.6025
" />
<path d="M23.5601 120.6025
L23.4649 120.4120
" />
<path d="M23.4649 120.4120
L23.2744 120.3168
" />
<path d="M23.2744 120.3168
L22.8935 120.3168
" />
<path d="M22.8935 120.3168
L22.7030 120.4120
" />
<path d="M23.5601 121.5549
L23.3697 121.6501
" />
<path d="M23.3697 121.6501
L22.8935 121.6501
" />
<path d="M22.8935 121.6501
L22.7030 121.5549
" />
<path d="M22.7030 121.5549
L22.6078 121.3644
" />
<path d="M22.6078 121.3644
L22.6078 121.1739
" />
<path d="M22.6078 121.1739
L22.7030 120.9834
" />
<path d="M22.7030 120.9834
L22.8935 120.8882
" />
<path d="M22.8935 120.8882
L23.3697 120.8882
" />
<path d="M23.3697 120.8882
L23.5601 120.7930
" />
<path d="M24.5125 120.3168
L24.5125 122.3168
" />
<path d="M24.5125 120.4120
L24.7030 120.3168
" />
<path d="M24.7030 120.3168
L25.0840 120.3168
" />
<path d="M25.0840 120.3168
L25.2744 120.4120
" />
<path d="M25.2744 120.4120
L25.3697 120.5073
" />
<path d="M25.3697 120.5073
L25.4649 120.6977
" />
<path d="M25.4649 120.6977
L25.4649 121.2692
" />
<path d="M25.4649 121.2692
L25.3697 121.4596
" />
<path d="M25.3697 121.4596
L25.2744 121.5549
" />
<path d="M25.2744 121.5549
L25.0840 121.6501
" />
<path d="M25.0840 121.6501
L24.7030 121.6501
" />
<path d="M24.7030 121.6501
L24.5125 121.5549
" />
<path d="M26.3220 121.4596
L26.4173 121.5549
" />
<path d="M26.4173 121.5549
L26.3220 121.6501
" />
<path d="M26.3220 121.6501
L26.2268 121.5549
" />
<path d="M26.2268 121.5549
L26.3220 121.4596
" />
<path d="M26.3220 121.4596
L26.3220 121.6501
" />
<path d="M26.3220 120.4120
L26.4173 120.5073
" />
<path d="M26.4173 120.5073
L26.3220 120.6025
" />
<path d="M26.3220 120.6025
L26.2268 120.5073
" />
<path d="M26.2268 120.5073
L26.3220 120.4120
" />
<path d="M26.3220 120.4120
L26.3220 120.6025
" />
</g></g>
<g style="fill:#000000; fill-opacity:0.0; 
stroke:#000000; stroke-width:0.0691; stroke-opacity:1; 
stroke-linecap:round; stroke-linejoin:round;">
<path d="M9.3089 124.5898
L10.0000 125.2808
" />
<path d="M10.0000 124.5898
L9.3089 125.2808
" />
</g>
<g style="fill:#000000; fill-opacity:0.0; 
stroke:#000000; stroke-width:0.5528; stroke-opacity:1; 
stroke-linecap:round; stroke-linejoin:round;">
</g>
<g style="fill:#000000; fill-opacity:0.0; 
stroke:#000000; stroke-width:0.2000; stroke-opacity:1; 
stroke-linecap:round; stroke-linejoin:round;">
<text x="12.0000" y="125.9353"
textLength="46.7666" font-size="2.6667" lengthAdjust="spacingAndGlyphs"
text-anchor="start" opacity="0">0.250mm / 0.0098" (7 holes)</text>
<g class="stroked-text"><desc>0.250mm / 0.0098" (7 holes)</desc>
<path d="M12.9887 123.8501
L13.1792 123.8501
" />
<path d="M13.1792 123.8501
L13.3697 123.9454
" />
<path d="M13.3697 123.9454
L13.4649 124.0406
" />
<path d="M13.4649 124.0406
L13.5601 124.2311
" />
<path d="M13.5601 124.2311
L13.6554 124.6120
" />
<path d="M13.6554 124.6120
L13.6554 125.0882
" />
<path d="M13.6554 125.0882
L13.5601 125.4692
" />
<path d="M13.5601 125.4692
L13.4649 125.6596
" />
<path d="M13.4649 125.6596
L13.3697 125.7549
" />
<path d="M13.3697 125.7549
L13.1792 125.8501
" />
<path d="M13.1792 125.8501
L12.9887 125.8501
" />
<path d="M12.9887 125.8501
L12.7982 125.7549
" />
<path d="M12.7982 125.7549
L12.7030 125.6596
" />
<path d="M12.7030 125.6596
L12.6078 125.4692
" />
<path d="M12.6078 125.4692
L12.5125 125.0882
" />
<path d="M12.5125 125.0882
L12.5125 124.6120
" />
<path d="M12.5125 124.6120
L12.6078 124.2311
" />
<path d="M12.6078 124.2311
L12.7030 124.0406
" />
<path d="M12.7030 124.0406
L12.7982 123.9454
" />
<path d="M12.7982 123.9454
L12.9887 123.8501
" />
<path d="M14.5125 125.6596
L14.6078 125.7549
" />
<path d="M14.6078 125.7549
L14.5125 125.8501
" />
<path d="M14.5125 125.8501
L14.4173 125.7549
" />
<path d="M14.4173 125.7549
L14.5125 125.6596
" />
<path d="M14.5125 125.6596
L14.5125 125.8501
" />
<path d="M15.3697 124.0406
L15.4649 123.9454
" />
<path d="M15.4649 123.9454
L15.6554 123.8501
" />
<path d="M15.6554 123.8501
L16.1316 123.8501
" />
<path d="M16.1316 123.8501
L16.3220 123.9454
" />
<path d="M16.3220 123.9454
L16.4173 124.0406
" />
<path d="M16.4173 124.0406
L16.5125 124.2311
" />
<path d="M16.5125 124.2311
L16.5125 124.4215
" />
<path d="M16.5125 124.4215
L16.4173 124.7073
" />
<path d="M16.4173 124.7073
L15.2744 125.8501
" />
<path d="M15.2744 125.8501
L16.5125 125.8501
" />
<path d="M18.3220 123.8501
L17.3697 123.8501
" />
<path d="M17.3697 123.8501
L17.2744 124.8025
" />
<path d="M17.2744 124.8025
L17.3697 124.7073
" />
<path d="M17.3697 124.7073
L17.5601 124.6120
" />
<path d="M17.5601 124.6120
L18.0363 124.6120
" />
<path d="M18.0363 124.6120
L18.2268 124.7073
" />
<path d="M18.2268 124.7073
L18.3220 124.8025
" />
<path d="M18.3220 124.8025
L18.4173 124.9930
" />
<path d="M18.4173 124.9930
L18.4173 125.4692
" />
<path d="M18.4173 125.4692
L18.3220 125.6596
" />
<path d="M18.3220 125.6596
L18.2268 125.7549
" />
<path d="M18.2268 125.7549
L18.0363 125.8501
" />
<path d="M18.0363 125.8501
L17.5601 125.8501
" />
<path d="M17.5601 125.8501
L17.3697 125.7549
" />
<path d="M17.3697 125.7549
L17.2744 125.6596
" />
<path d="M19.6554 123.8501
L19.8459 123.8501
" />
<path d="M19.8459 123.8501
L20.0363 123.9454
" />
<path d="M20.0363 123.9454
L20.1316 124.0406
" />
<path d="M20.1316 124.0406
L20.2268 124.2311
" />
<path d="M20.2268 124.2311
L20.3220 124.6120
" />
<path d="M20.3220 124.6120
L20.3220 125.0882
" />
<path d="M20.3220 125.0882
L20.2268 125.4692
" />
<path d="M20.2268 125.4692
L20.1316 125.6596
" />
<path d="M20.1316 125.6596
L20.0363 125.7549
" />
<path d="M20.0363 125.7549
L19.8459 125.8501
" />
<path d="M19.8459 125.8501
L19.6554 125.8501
" />
<path d="M19.6554 125.8501
L19.4649 125.7549
" />
<path d="M19.4649 125.7549
L19.3697 125.6596
" />
<path d="M19.3697 125.6596
L19.2744 125.4692
" />
<path d="M19.2744 125.4692
L19.1792 125.0882
" />
<path d="M19.1792 125.0882
L19.1792 124.6120
" />
<path d="M19.1792 124.6120
L19.2744 124.2311
" />
<path d="M19.2744 124.2311
L19.3697 124.0406
" />
<path d="M19.3697 124.0406
L19.4649 123.9454
" />
<path d="M19.4649 123.9454
L19.6554 123.8501
" />
<path d="M21.1792 125.8501
L21.1792 124.5168
" />
<path d="M21.1792 124.7073
L21.2744 124.6120
" />
<path d="M21.2744 124.6120
L21.4649 124.5168
" />
<path d="M21.4649 124.5168
L21.7506 124.5168
" />
<path d="M21.7506 124.5168
L21.9411 124.6120
" />
<path d="M21.9411 124.6120
L22.0363 124.8025
" />
<path d="M22.0363 124.8025
L22.0363 125.8501
" />
<path d="M22.0363 124.8025
L22.1316 124.6120
" />
<path d="M22.1316 124.6120
L22.3220 124.5168
" />
<path d="M22.3220 124.5168
L22.6078 124.5168
" />
<path d="M22.6078 124.5168
L22.7982 124.6120
" />
<path d="M22.7982 124.6120
L22.8935 124.8025
" />
<path d="M22.8935 124.8025
L22.8935 125.8501
" />
<path d="M23.8459 125.8501
L23.8459 124.5168
" />
<path d="M23.8459 124.7073
L23.9411 124.6120
" />
<path d="M23.9411 124.6120
L24.1316 124.5168
" />
<path d="M24.1316 124.5168
L24.4173 124.5168
" />
<path d="M24.4173 124.5168
L24.6078 124.6120
" />
<path d="M24.6078 124.6120
L24.7030 124.8025
" />
<path d="M24.7030 124.8025
L24.7030 125.8501
" />
<path d="M24.7030 124.8025
L24.7982 124.6120
" />
<path d="M24.7982 124.6120
L24.9887 124.5168
" />
<path d="M24.9887 124.5168
L25.2744 124.5168
" />
<path d="M25.2744 124.5168
L25.4649 124.6120
" />
<path d="M25.4649 124.6120
L25.5601 124.8025
" />
<path d="M25.5601 124.8025
L25.5601 125.8501
" />
<path d="M29.4649 123.7549
L27.7506 126.3263
" />
<path d="M32.0363 123.8501
L32.2268 123.8501
" />
<path d="M32.2268 123.8501
L32.4173 123.9454
" />
<path d="M32.4173 123.9454
L32.5125 124.0406
" />
<path d="M32.5125 124.0406
L32.6078 124.2311
" />
<path d="M32.6078 124.2311
L32.7030 124.6120
" />
<path d="M32.7030 124.6120
L32.7030 125.0882
" />
<path d="M32.7030 125.0882
L32.6078 125.4692
" />
<path d="M32.6078 125.4692
L32.5125 125.6596
" />
<path d="M32.5125 125.6596
L32.4173 125.7549
" />
<path d="M32.4173 125.7549
L32.2268 125.8501
" />
<path d="M32.2268 125.8501
L32.0363 125.8501
" />
<path d="M32.0363 125.8501
L31.8459 125.7549
" />
<path d="M31.8459 125.7549
L31.7506 125.6596
" />
<path d="M31.7506 125.6596
L31.6554 125.4692
" />
<path d="M31.6554 125.4692
L31.5601 125.0882
" />
<path d="M31.5601 125.0882
L31.5601 124.6120
" />
<path d="M31.5601 124.6120
L31.6554 124.2311
" />
<path d="M31.6554 124.2311
L31.7506 124.0406
" />
<path d="M31.7506 124.0406
L31.8459 123.9454
" />
<path d="M31.8459 123.9454
L32.0363 123.8501
" />
<path d="M33.5601 125.6596
L33.6554 125.7549
" />
<path d="M33.6554 125.7549
L33.5601 125.8501
" />
<path d="M33.5601 125.8501
L33.4649 125.7549
" />
<path d="M33.4649 125.7549
L33.5601 125.6596
" />
<path d="M33.5601 125.6596
L33.5601 125.8501
" />
<path d="M34.8935 123.8501
L35.0839 123.8501
" />
<path d="M35.0839 123.8501
L35.2744 123.9454
" />
<path d="M35.2744 123.9454
L35.3697 124.0406
" />
<path d="M35.3697 124.0406
L35.4649 124.2311
" />
<path d="M35.4649 124.2311
L35.5601 124.6120
" />
<path d="M35.5601 124.6120
L35.5601 125.0882
" />
<path d="M35.5601 125.0882
L35.4649 125.4692
" />
<path d="M35.4649 125.4692
L35.3697 125.6596
" />
<path d="M35.3697 125.6596
L35.2744 125.7549
" />
<path d="M35.2744 125.7549
L35.0839 125.8501
" />
<path d="M35.0839 125.8501
L34.8935 125.8501
" />
<path d="M34.8935 125.8501
L34.7030 125.7549
" />
<path d="M34.7030 125.7549
L34.6078 125.6596
" />
<path d="M34.6078 125.6596
L34.5125 125.4692
" />
<path d="M34.5125 125.4692
L34.4173 125.0882
" />
<path d="M34.4173 125.0882
L34.4173 124.6120
" />
<path d="M34.4173 124.6120
L34.5125 124.2311
" />
<path d="M34.5125 124.2311
L34.6078 124.0406
" />
<path d="M34.6078 124.0406
L34.7030 123.9454
" />
<path d="M34.7030 123.9454
L34.8935 123.8501
" />
<path d="M36.7982 123.8501
L36.9887 123.8501
" />
<path d="M36.9887 123.8501
L37.1792 123.9454
" />
<path d="M37.1792 123.9454
L37.2744 124.0406
" />
<path d="M37.2744 124.0406
L37.3697 124.2311
" />
<path d="M37.3697 124.2311
L37.4649 124.6120
" />
<path d="M37.4649 124.6120
L37.4649 125.0882
" />
<path d="M37.4649 125.0882
L37.3697 125.4692
" />
<path d="M37.3697 125.4692
L37.2744 125.6596
" />
<path d="M37.2744 125.6596
L37.1792 125.7549
" />
<path d="M37.1792 125.7549
L36.9887 125.8501
" />
<path d="M36.9887 125.8501
L36.7982 125.8501
" />
<path d="M36.7982 125.8501
L36.6078 125.7549
" />
<path d="M36.6078 125.7549
L36.5125 125.6596
" />
<path d="M36.5125 125.6596
L36.4173 125.4692
" />
<path d="M36.4173 125.4692
L36.3220 125.0882
" />
<path d="M36.3220 125.0882
L36.3220 124.6120
" />
<path d="M36.3220 124.6120
L36.4173 124.2311
" />
<path d="M36.4173 124.2311
L36.5125 124.0406
" />
<path d="M36.5125 124.0406
L36.6078 123.9454
" />
<path d="M36.6078 123.9454
L36.7982 123.8501
" />
<path d="M38.4173 125.8501
L38.7982 125.8501
" />
<path d="M38.7982 125.8501
L38.9887 125.7549
" />
<path d="M38.9887 125.7549
L39.0839 125.6596
" />
<path d="M39.0839 125.6596
L39.2744 125.3739
" />
<path d="M39.2744 125.3739
L39.3697 124.9930
" />
<path d="M39.3697 124.9930
L39.3697 124.2311
" />
<path d="M39.3697 124.2311
L39.2744 124.0406
" />
<path d="M39.2744 124.0406
L39.1792 123.9454
" />
<path d="M39.1792 123.9454
L38.9887 123.8501
" />
<path d="M38.9887 123.8501
L38.6078 123.8501
" />
<path d="M38.6078 123.8501
L38.4173 123.9454
" />
<path d="M38.4173 123.9454
L38.3220 124.0406
" />
<path d="M38.3220 124.0406
L38.2268 124.2311
" />
<path d="M38.2268 124.2311
L38.2268 124.7073
" />
<path d="M38.2268 124.7073
L38.3220 124.8977
" />
<path d="M38.3220 124.8977
L38.4173 124.9930
" />
<path d="M38.4173 124.9930
L38.6078 125.0882
" />
<path d="M38.6078 125.0882
L38.9887 125.0882
" />
<path d="M38.9887 125.0882
L39.1792 124.9930
" />
<path d="M39.1792 124.9930
L39.2744 124.8977
" />
<path d="M39.2744 124.8977
L39.3697 124.7073
" />
<path d="M40.5125 124.7073
L40.3220 124.6120
" />
<path d="M40.3220 124.6120
L40.2268 124.5168
" />
<path d="M40.2268 124.5168
L40.1316 124.3263
" />
<path d="M40.1316 124.3263
L40.1316 124.2311
" />
<path d="M40.1316 124.2311
L40.2268 124.0406
" />
<path d="M40.2268 124.0406
L40.3220 123.9454
" />
<path d="M40.3220 123.9454
L40.5125 123.8501
" />
<path d="M40.5125 123.8501
L40.8935 123.8501
" />
<path d="M40.8935 123.8501
L41.0839 123.9454
" />
<path d="M41.0839 123.9454
L41.1792 124.0406
" />
<path d="M41.1792 124.0406
L41.2744 124.2311
" />
<path d="M41.2744 124.2311
L41.2744 124.3263
" />
<path d="M41.2744 124.3263
L41.1792 124.5168
" />
<path d="M41.1792 124.5168
L41.0839 124.6120
" />
<path d="M41.0839 124.6120
L40.8935 124.7073
" />
<path d="M40.8935 124.7073
L40.5125 124.7073
" />
<path d="M40.5125 124.7073
L40.3220 124.8025
" />
<path d="M40.3220 124.8025
L40.2268 124.8977
" />
<path d="M40.2268 124.8977
L40.1316 125.0882
" />
<path d="M40.1316 125.0882
L40.1316 125.4692
" />
<path d="M40.1316 125.4692
L40.2268 125.6596
" />
<path d="M40.2268 125.6596
L40.3220 125.7549
" />
<path d="M40.3220 125.7549
L40.5125 125.8501
" />
<path d="M40.5125 125.8501
L40.8935 125.8501
" />
<path d="M40.8935 125.8501
L41.0839 125.7549
" />
<path d="M41.0839 125.7549
L41.1792 125.6596
" />
<path d="M41.1792 125.6596
L41.2744 125.4692
" />
<path d="M41.2744 125.4692
L41.2744 125.0882
" />
<path d="M41.2744 125.0882
L41.1792 124.8977
" />
<path d="M41.1792 124.8977
L41.0839 124.8025
" />
<path d="M41.0839 124.8025
L40.8935 124.7073
" />
<path d="M42.0363 123.8501
L42.0363 124.2311
" />
<path d="M42.7982 123.8501
L42.7982 124.2311
" />
<path d="M45.7506 126.6120
L45.6554 126.5168
" />
<path d="M45.6554 126.5168
L45.4649 126.2311
" />
<path d="M45.4649 126.2311
L45.3697 126.0406
" />
<path d="M45.3697 126.0406
L45.2744 125.7549
" />
<path d="M45.2744 125.7549
L45.1792 125.2787
" />
<path d="M45.1792 125.2787
L45.1792 124.8977
" />
<path d="M45.1792 124.8977
L45.2744 124.4215
" />
<path d="M45.2744 124.4215
L45.3697 124.1358
" />
<path d="M45.3697 124.1358
L45.4649 123.9454
" />
<path d="M45.4649 123.9454
L45.6554 123.6596
" />
<path d="M45.6554 123.6596
L45.7506 123.5644
" />
<path d="M46.3220 123.8501
L47.6554 123.8501
" />
<path d="M47.6554 123.8501
L46.7982 125.8501
" />
<path d="M49.9411 125.8501
L49.9411 123.8501
" />
<path d="M50.7982 125.8501
L50.7982 124.8025
" />
<path d="M50.7982 124.8025
L50.7030 124.6120
" />
<path d="M50.7030 124.6120
L50.5125 124.5168
" />
<path d="M50.5125 124.5168
L50.2268 124.5168
" />
<path d="M50.2268 124.5168
L50.0363 124.6120
" />
<path d="M50.0363 124.6120
L49.9411 124.7073
" />
<path d="M52.0363 125.8501
L51.8458 125.7549
" />
<path d="M51.8458 125.7549
L51.7506 125.6596
" />
<path d="M51.7506 125.6596
L51.6554 125.4692
" />
<path d="M51.6554 125.4692
L51.6554 124.8977
" />
<path d="M51.6554 124.8977
L51.7506 124.7073
" />
<path d="M51.7506 124.7073
L51.8458 124.6120
" />
<path d="M51.8458 124.6120
L52.0363 124.5168
" />
<path d="M52.0363 124.5168
L52.3220 124.5168
" />
<path d="M52.3220 124.5168
L52.5125 124.6120
" />
<path d="M52.5125 124.6120
L52.6077 124.7073
" />
<path d="M52.6077 124.7073
L52.7030 124.8977
" />
<path d="M52.7030 124.8977
L52.7030 125.4692
" />
<path d="M52.7030 125.4692
L52.6077 125.6596
" />
<path d="M52.6077 125.6596
L52.5125 125.7549
" />
<path d="M52.5125 125.7549
L52.3220 125.8501
" />
<path d="M52.3220 125.8501
L52.0363 125.8501
" />
<path d="M53.8458 125.8501
L53.6554 125.7549
" />
<path d="M53.6554 125.7549
L53.5601 125.5644
" />
<path d="M53.5601 125.5644
L53.5601 123.8501
" />
<path d="M55.3696 125.7549
L55.1792 125.8501
" />
<path d="M55.1792 125.8501
L54.7982 125.8501
" />
<path d="M54.7982 125.8501
L54.6077 125.7549
" />
<path d="M54.6077 125.7549
L54.5125 125.5644
" />
<path d="M54.5125 125.5644
L54.5125 124.8025
" />
<path d="M54.5125 124.8025
L54.6077 124.6120
" />
<path d="M54.6077 124.6120
L54.7982 124.5168
" />
<path d="M54.7982 124.5168
L55.1792 124.5168
" />
<path d="M55.1792 124.5168
L55.3696 124.6120
" />
<path d="M55.3696 124.6120
L55.4649 124.8025
" />
<path d="M55.4649 124.8025
L55.4649 124.9930
" />
<path d="M55.4649 124.9930
L54.5125 125.1834
" />
<path d="M56.2268 125.7549
L56.4173 125.8501
" />
<path d="M56.4173 125.8501
L56.7982 125.8501
" />
<path d="M56.7982 125.8501
L56.9887 125.7549
" />
<path d="M56.9887 125.7549
L57.0839 125.5644
" />
<path d="M57.0839 125.5644
L57.0839 125.4692
" />
<path d="M57.0839 125.4692
L56.9887 125.2787
" />
<path d="M56.9887 125.2787
L56.7982 125.1834
" />
<path d="M56.7982 125.1834
L56.5125 125.1834
" />
<path d="M56.5125 125.1834
L56.3220 125.0882
" />
<path d="M56.3220 125.0882
L56.2268 124.8977
" />
<path d="M56.2268 124.8977
L56.2268 124.8025
" />
<path d="M56.2268 124.8025
L56.3220 124.6120
" />
<path d="M56.3220 124.6120
L56.5125 124.5168
" />
<path d="M56.5125 124.5168
L56.7982 124.5168
" />
<path d="M56.7982 124.5168
L56.9887 124.6120
" />
<path d="M57.7506 126.6120
L57.8458 126.5168
" />
<path d="M57.8458 126.5168
L58.0363 126.2311
" />
<path d="M58.0363 126.2311
L58.1316 126.0406
" />
<path d="M58.1316 126.0406
L58.2268 125.7549
" />
<path d="M58.2268 125.7549
L58.3220 125.2787
" />
<path d="M58.3220 125.2787
L58.3220 124.8977
" />
<path d="M58.3220 124.8977
L58.2268 124.4215
" />
<path d="M58.2268 124.4215
L58.1316 124.1358
" />
<path d="M58.1316 124.1358
L58.0363 123.9454
" />
<path d="M58.0363 123.9454
L57.8458 123.6596
" />
<path d="M57.8458 123.6596
L57.7506 123.5644
" />
</g><circle cx="9.0000" cy="127.5753" r="1.0000" /> 
</g>
<g style="fill:#000000; fill-opacity:0.0; 
stroke:#000000; stroke-width:0.5528; stroke-opacity:1; 
stroke-linecap:round; stroke-linejoin:round;">
</g>
<g style="fill:#000000; fill-opacity:0.0; 
stroke:#000000; stroke-width:0.2000; stroke-opacity:1; 
stroke-linecap:round; stroke-linejoin:round;">
<text x="12.0000" y="128.5753"
textLength="48.6714" font-size="2.6667" lengthAdjust="spacingAndGlyphs"
text-anchor="start" opacity="0">1.000mm / 0.0394" (11 holes)</text>
<g class="stroked-text"><desc>1.000mm / 0.0394" (11 holes)</desc>
<path d="M13.6554 128.4901
L12.5125 128.4901
" />
<path d="M13.0840 128.4901
L13.0840 126.4901
" />
<path d="M13.0840 126.4901
L12.8935 126.7758
" />
<path d="M12.8935 126.7758
L12.7030 126.9663
" />
<path d="M12.7030 126.9663
L12.5125 127.0615
" />
<path d="M14.5125 128.2996
L14.6078 128.3949
" />
<path d="M14.6078 128.3949
L14.5125 128.4901
" />
<path d="M14.5125 128.4901
L14.4173 128.3949
" />
<path d="M14.4173 128.3949
L14.5125 128.2996
" />
<path d="M14.5125 128.2996
L14.5125 128.4901
" />
<path d="M15.8459 126.4901
L16.0363 126.4901
" />
<path d="M16.0363 126.4901
L16.2268 126.5854
" />
<path d="M16.2268 126.5854
L16.3220 126.6806
" />
<path d="M16.3220 126.6806
L16.4173 126.8711
" />
<path d="M16.4173 126.8711
L16.5125 127.2520
" />
<path d="M16.5125 127.2520
L16.5125 127.7282
" />
<path d="M16.5125 127.7282
L16.4173 128.1092
" />
<path d="M16.4173 128.1092
L16.3220 128.2996
" />
<path d="M16.3220 128.2996
L16.2268 128.3949
" />
<path d="M16.2268 128.3949
L16.0363 128.4901
" />
<path d="M16.0363 128.4901
L15.8459 128.4901
" />
<path d="M15.8459 128.4901
L15.6554 128.3949
" />
<path d="M15.6554 128.3949
L15.5601 128.2996
" />
<path d="M15.5601 128.2996
L15.4649 128.1092
" />
<path d="M15.4649 128.1092
L15.3697 127.7282
" />
<path d="M15.3697 127.7282
L15.3697 127.2520
" />
<path d="M15.3697 127.2520
L15.4649 126.8711
" />
<path d="M15.4649 126.8711
L15.5601 126.6806
" />
<path d="M15.5601 126.6806
L15.6554 126.5854
" />
<path d="M15.6554 126.5854
L15.8459 126.4901
" />
<path d="M17.7506 126.4901
L17.9411 126.4901
" />
<path d="M17.9411 126.4901
L18.1316 126.5854
" />
<path d="M18.1316 126.5854
L18.2268 126.6806
" />
<path d="M18.2268 126.6806
L18.3220 126.8711
" />
<path d="M18.3220 126.8711
L18.4173 127.2520
" />
<path d="M18.4173 127.2520
L18.4173 127.7282
" />
<path d="M18.4173 127.7282
L18.3220 128.1092
" />
<path d="M18.3220 128.1092
L18.2268 128.2996
" />
<path d="M18.2268 128.2996
L18.1316 128.3949
" />
<path d="M18.1316 128.3949
L17.9411 128.4901
" />
<path d="M17.9411 128.4901
L17.7506 128.4901
" />
<path d="M17.7506 128.4901
L17.5601 128.3949
" />
<path d="M17.5601 128.3949
L17.4649 128.2996
" />
<path d="M17.4649 128.2996
L17.3697 128.1092
" />
<path d="M17.3697 128.1092
L17.2744 127.7282
" />
<path d="M17.2744 127.7282
L17.2744 127.2520
" />
<path d="M17.2744 127.2520
L17.3697 126.8711
" />
<path d="M17.3697 126.8711
L17.4649 126.6806
" />
<path d="M17.4649 126.6806
L17.5601 126.5854
" />
<path d="M17.5601 126.5854
L17.7506 126.4901
" />
<path d="M19.6554 126.4901
L19.8459 126.4901
" />
<path d="M19.8459 126.4901
L20.0363 126.5854
" />
<path d="M20.0363 126.5854
L20.1316 126.6806
" />
<path d="M20.1316 126.6806
L20.2268 126.8711
" />
<path d="M20.2268 126.8711
L20.3220 127.2520
" />
<path d="M20.3220 127.2520
L20.3220 127.7282
" />
<path d="M20.3220 127.7282
L20.2268 128.1092
" />
<path d="M20.2268 128.1092
L20.1316 128.2996
" />
<path d="M20.1316 128.2996
L20.0363 128.3949
" />
<path d="M20.0363 128.3949
L19.8459 128.4901
" />
<path d="M19.8459 128.4901
L19.6554 128.4901
" />
<path d="M19.6554 128.4901
L19.4649 128.3949
" />
<path d="M19.4649 128.3949
L19.3697 128.2996
" />
<path d="M19.3697 128.2996
L19.2744 128.1092
" />
<path d="M19.2744 128.1092
L19.1792 127.7282
" />
<path d="M19.1792 127.7282
L19.1792 127.2520
" />
<path d="M19.1792 127.2520
L19.2744 126.8711
" />
<path d="M19.2744 126.8711
L19.3697 126.6806
" />
<path d="M19.3697 126.6806
L19.4649 126.5854
" />
<path d="M19.4649 126.5854
L19.6554 126.4901
" />
<path d="M21.1792 128.4901
L21.1792 127.1568
" />
<path d="M21.1792 127.3473
L21.2744 127.2520
" />
<path d="M21.2744 127.2520
L21.4649 127.1568
" />
<path d="M21.4649 127.1568
L21.7506 127.1568
" />
<path d="M21.7506 127.1568
L21.9411 127.2520
" />
<path d="M21.9411 127.2520
L22.0363 127.4425
" />
<path d="M22.0363 127.4425
L22.0363 128.4901
" />
<path d="M22.0363 127.4425
L22.1316 127.2520
" />
<path d="M22.1316 127.2520
L22.3220 127.1568
" />
<path d="M22.3220 127.1568
L22.6078 127.1568
" />
<path d="M22.6078 127.1568
L22.7982 127.2520
" />
<path d="M22.7982 127.2520
L22.8935 127.4425
" />
<path d="M22.8935 127.4425
L22.8935 128.4901
" />
<path d="M23.8459 128.4901
L23.8459 127.1568
" />
<path d="M23.8459 127.3473
L23.9411 127.2520
" />
<path d="M23.9411 127.2520
L24.1316 127.1568
" />
<path d="M24.1316 127.1568
L24.4173 127.1568
" />
<path d="M24.4173 127.1568
L24.6078 127.2520
" />
<path d="M24.6078 127.2520
L24.7030 127.4425
" />
<path d="M24.7030 127.4425
L24.7030 128.4901
" />
<path d="M24.7030 127.4425
L24.7982 127.2520
" />
<path d="M24.7982 127.2520
L24.9887 127.1568
" />
<path d="M24.9887 127.1568
L25.2744 127.1568
" />
<path d="M25.2744 127.1568
L25.4649 127.2520
" />
<path d="M25.4649 127.2520
L25.5601 127.4425
" />
<path d="M25.5601 127.4425
L25.5601 128.4901
" />
<path d="M29.4649 126.3949
L27.7506 128.9663
" />
<path d="M32.0363 126.4901
L32.2268 126.4901
" />
<path d="M32.2268 126.4901
L32.4173 126.5854
" />
<path d="M32.4173 126.5854
L32.5125 126.6806
" />
<path d="M32.5125 126.6806
L32.6078 126.8711
" />
<path d="M32.6078 126.8711
L32.7030 127.2520
" />
<path d="M32.7030 127.2520
L32.7030 127.7282
" />
<path d="M32.7030 127.7282
L32.6078 128.1092
" />
<path d="M32.6078 128.1092
L32.5125 128.2996
" />
<path d="M32.5125 128.2996
L32.4173 128.3949
" />
<path d="M32.4173 128.3949
L32.2268 128.4901
" />
<path d="M32.2268 128.4901
L32.0363 128.4901
" />
<path d="M32.0363 128.4901
L31.8459 128.3949
" />
<path d="M31.8459 128.3949
L31.7506 128.2996
" />
<path d="M31.7506 128.2996
L31.6554 128.1092
" />
<path d="M31.6554 128.1092
L31.5601 127.7282
" />
<path d="M31.5601 127.7282
L31.5601 127.2520
" />
<path d="M31.5601 127.2520
L31.6554 126.8711
" />
<path d="M31.6554 126.8711
L31.7506 126.6806
" />
<path d="M31.7506 126.6806
L31.8459 126.5854
" />
<path d="M31.8459 126.5854
L32.0363 126.4901
" />
<path d="M33.5601 128.2996
L33.6554 128.3949
" />
<path d="M33.6554 128.3949
L33.5601 128.4901
" />
<path d="M33.5601 128.4901
L33.4649 128.3949
" />
<path d="M33.4649 128.3949
L33.5601 128.2996
" />
<path d="M33.5601 128.2996
L33.5601 128.4901
" />
<path d="M34.8935 126.4901
L35.0839 126.4901
" />
<path d="M35.0839 126.4901
L35.2744 126.5854
" />
<path d="M35.2744 126.5854
L35.3697 126.6806
" />
<path d="M35.3697 126.6806
L35.4649 126.8711
" />
<path d="M35.4649 126.8711
L35.5601 127.2520
" />
<path d="M35.5601 127.2520
L35.5601 127.7282
" />
<path d="M35.5601 127.7282
L35.4649 128.1092
" />
<path d="M35.4649 128.1092
L35.3697 128.2996
" />
<path d="M35.3697 128.2996
L35.2744 128.3949
" />
<path d="M35.2744 128.3949
L35.0839 128.4901
" />
<path d="M35.0839 128.4901
L34.8935 128.4901
" />
<path d="M34.8935 128.4901
L34.7030 128.3949
" />
<path d="M34.7030 128.3949
L34.6078 128.2996
" />
<path d="M34.6078 128.2996
L34.5125 128.1092
" />
<path d="M34.5125 128.1092
L34.4173 127.7282
" />
<path d="M34.4173 127.7282
L34.4173 127.2520
" />
<path d="M34.4173 127.2520
L34.5125 126.8711
" />
<path d="M34.5125 126.8711
L34.6078 126.6806
" />
<path d="M34.6078 126.6806
L34.7030 126.5854
" />
<path d="M34.7030 126.5854
L34.8935 126.4901
" />
<path d="M36.2268 126.4901
L37.4649 126.4901
" />
<path d="M37.4649 126.4901
L36.7982 127.2520
" />
<path d="M36.7982 127.2520
L37.0839 127.2520
" />
<path d="M37.0839 127.2520
L37.2744 127.3473
" />
<path d="M37.2744 127.3473
L37.3697 127.4425
" />
<path d="M37.3697 127.4425
L37.4649 127.6330
" />
<path d="M37.4649 127.6330
L37.4649 128.1092
" />
<path d="M37.4649 128.1092
L37.3697 128.2996
" />
<path d="M37.3697 128.2996
L37.2744 128.3949
" />
<path d="M37.2744 128.3949
L37.0839 128.4901
" />
<path d="M37.0839 128.4901
L36.5125 128.4901
" />
<path d="M36.5125 128.4901
L36.3220 128.3949
" />
<path d="M36.3220 128.3949
L36.2268 128.2996
" />
<path d="M38.4173 128.4901
L38.7982 128.4901
" />
<path d="M38.7982 128.4901
L38.9887 128.3949
" />
<path d="M38.9887 128.3949
L39.0839 128.2996
" />
<path d="M39.0839 128.2996
L39.2744 128.0139
" />
<path d="M39.2744 128.0139
L39.3697 127.6330
" />
<path d="M39.3697 127.6330
L39.3697 126.8711
" />
<path d="M39.3697 126.8711
L39.2744 126.6806
" />
<path d="M39.2744 126.6806
L39.1792 126.5854
" />
<path d="M39.1792 126.5854
L38.9887 126.4901
" />
<path d="M38.9887 126.4901
L38.6078 126.4901
" />
<path d="M38.6078 126.4901
L38.4173 126.5854
" />
<path d="M38.4173 126.5854
L38.3220 126.6806
" />
<path d="M38.3220 126.6806
L38.2268 126.8711
" />
<path d="M38.2268 126.8711
L38.2268 127.3473
" />
<path d="M38.2268 127.3473
L38.3220 127.5377
" />
<path d="M38.3220 127.5377
L38.4173 127.6330
" />
<path d="M38.4173 127.6330
L38.6078 127.7282
" />
<path d="M38.6078 127.7282
L38.9887 127.7282
" />
<path d="M38.9887 127.7282
L39.1792 127.6330
" />
<path d="M39.1792 127.6330
L39.2744 127.5377
" />
<path d="M39.2744 127.5377
L39.3697 127.3473
" />
<path d="M41.0839 127.1568
L41.0839 128.4901
" />
<path d="M40.6078 126.3949
L40.1316 127.8234
" />
<path d="M40.1316 127.8234
L41.3697 127.8234
" />
<path d="M42.0363 126.4901
L42.0363 126.8711
" />
<path d="M42.7982 126.4901
L42.7982 126.8711
" />
<path d="M45.7506 129.2520
L45.6554 129.1568
" />
<path d="M45.6554 129.1568
L45.4649 128.8711
" />
<path d="M45.4649 128.8711
L45.3697 128.6806
" />
<path d="M45.3697 128.6806
L45.2744 128.3949
" />
<path d="M45.2744 128.3949
L45.1792 127.9187
" />
<path d="M45.1792 127.9187
L45.1792 127.5377
" />
<path d="M45.1792 127.5377
L45.2744 127.0615
" />
<path d="M45.2744 127.0615
L45.3697 126.7758
" />
<path d="M45.3697 126.7758
L45.4649 126.5854
" />
<path d="M45.4649 126.5854
L45.6554 126.2996
" />
<path d="M45.6554 126.2996
L45.7506 126.2044
" />
<path d="M47.5601 128.4901
L46.4173 128.4901
" />
<path d="M46.9887 128.4901
L46.9887 126.4901
" />
<path d="M46.9887 126.4901
L46.7982 126.7758
" />
<path d="M46.7982 126.7758
L46.6077 126.9663
" />
<path d="M46.6077 126.9663
L46.4173 127.0615
" />
<path d="M49.4649 128.4901
L48.3220 128.4901
" />
<path d="M48.8935 128.4901
L48.8935 126.4901
" />
<path d="M48.8935 126.4901
L48.7030 126.7758
" />
<path d="M48.7030 126.7758
L48.5125 126.9663
" />
<path d="M48.5125 126.9663
L48.3220 127.0615
" />
<path d="M51.8458 128.4901
L51.8458 126.4901
" />
<path d="M52.7030 128.4901
L52.7030 127.4425
" />
<path d="M52.7030 127.4425
L52.6077 127.2520
" />
<path d="M52.6077 127.2520
L52.4173 127.1568
" />
<path d="M52.4173 127.1568
L52.1316 127.1568
" />
<path d="M52.1316 127.1568
L51.9411 127.2520
" />
<path d="M51.9411 127.2520
L51.8458 127.3473
" />
<path d="M53.9411 128.4901
L53.7506 128.3949
" />
<path d="M53.7506 128.3949
L53.6554 128.2996
" />
<path d="M53.6554 128.2996
L53.5601 128.1092
" />
<path d="M53.5601 128.1092
L53.5601 127.5377
" />
<path d="M53.5601 127.5377
L53.6554 127.3473
" />
<path d="M53.6554 127.3473
L53.7506 127.2520
" />
<path d="M53.7506 127.2520
L53.9411 127.1568
" />
<path d="M53.9411 127.1568
L54.2268 127.1568
" />
<path d="M54.2268 127.1568
L54.4173 127.2520
" />
<path d="M54.4173 127.2520
L54.5125 127.3473
" />
<path d="M54.5125 127.3473
L54.6077 127.5377
" />
<path d="M54.6077 127.5377
L54.6077 128.1092
" />
<path d="M54.6077 128.1092
L54.5125 128.2996
" />
<path d="M54.5125 128.2996
L54.4173 128.3949
" />
<path d="M54.4173 128.3949
L54.2268 128.4901
" />
<path d="M54.2268 128.4901
L53.9411 128.4901
" />
<path d="M55.7506 128.4901
L55.5601 128.3949
" />
<path d="M55.5601 128.3949
L55.4649 128.2044
" />
<path d="M55.4649 128.2044
L55.4649 126.4901
" />
<path d="M57.2744 128.3949
L57.0839 128.4901
" />
<path d="M57.0839 128.4901
L56.7030 128.4901
" />
<path d="M56.7030 128.4901
L56.5125 128.3949
" />
<path d="M56.5125 128.3949
L56.4173 128.2044
" />
<path d="M56.4173 128.2044
L56.4173 127.4425
" />
<path d="M56.4173 127.4425
L56.5125 127.2520
" />
<path d="M56.5125 127.2520
L56.7030 127.1568
" />
<path d="M56.7030 127.1568
L57.0839 127.1568
" />
<path d="M57.0839 127.1568
L57.2744 127.2520
" />
<path d="M57.2744 127.2520
L57.3696 127.4425
" />
<path d="M57.3696 127.4425
L57.3696 127.6330
" />
<path d="M57.3696 127.6330
L56.4173 127.8234
" />
<path d="M58.1316 128.3949
L58.3220 128.4901
" />
<path d="M58.3220 128.4901
L58.7030 128.4901
" />
<path d="M58.7030 128.4901
L58.8935 128.3949
" />
<path d="M58.8935 128.3949
L58.9887 128.2044
" />
<path d="M58.9887 128.2044
L58.9887 128.1092
" />
<path d="M58.9887 128.1092
L58.8935 127.9187
" />
<path d="M58.8935 127.9187
L58.7030 127.8234
" />
<path d="M58.7030 127.8234
L58.4173 127.8234
" />
<path d="M58.4173 127.8234
L58.2268 127.7282
" />
<path d="M58.2268 127.7282
L58.1316 127.5377
" />
<path d="M58.1316 127.5377
L58.1316 127.4425
" />
<path d="M58.1316 127.4425
L58.2268 127.2520
" />
<path d="M58.2268 127.2520
L58.4173 127.1568
" />
<path d="M58.4173 127.1568
L58.7030 127.1568
" />
<path d="M58.7030 127.1568
L58.8935 127.2520
" />
<path d="M59.6554 129.2520
L59.7506 129.1568
" />
<path d="M59.7506 129.1568
L59.9411 128.8711
" />
<path d="M59.9411 128.8711
L60.0363 128.6806
" />
<path d="M60.0363 128.6806
L60.1316 128.3949
" />
<path d="M60.1316 128.3949
L60.2268 127.9187
" />
<path d="M60.2268 127.9187
L60.2268 127.5377
" />
<path d="M60.2268 127.5377
L60.1316 127.0615
" />
<path d="M60.1316 127.0615
L60.0363 126.7758
" />
<path d="M60.0363 126.7758
L59.9411 126.5854
" />
<path d="M59.9411 126.5854
L59.7506 126.2996
" />
<path d="M59.7506 126.2996
L59.6554 126.2044
" />
</g><path d="M9.0000 129.7753
L9.0000 131.7753
" />
<path d="M8.0000 130.7753
L10.0000 130.7753
" />
</g>
<g style="fill:#000000; fill-opacity:0.0; 
stroke:#000000; stroke-width:0.5528; stroke-opacity:1; 
stroke-linecap:round; stroke-linejoin:round;">
</g>
<g style="fill:#000000; fill-opacity:0.0; 
stroke:#000000; stroke-width:0.2000; stroke-opacity:1; 
stroke-linecap:round; stroke-linejoin:round;">
<text x="12.0000" y="131.7753"
textLength="48.6714" font-size="2.6667" lengthAdjust="spacingAndGlyphs"
text-anchor="start" opacity="0">1.020mm / 0.0402" (64 holes)</text>
<g class="stroked-text"><desc>1.020mm / 0.0402" (64 holes)</desc>
<path d="M13.6554 131.6901
L12.5125 131.6901
" />
<path d="M13.0840 131.6901
L13.0840 129.6901
" />
<path d="M13.0840 129.6901
L12.8935 129.9758
" />
<path d="M12.8935 129.9758
L12.7030 130.1663
" />
<path d="M12.7030 130.1663
L12.5125 130.2615
" />
<path d="M14.5125 131.4996
L14.6078 131.5949
" />
<path d="M14.6078 131.5949
L14.5125 131.6901
" />
<path d="M14.5125 131.6901
L14.4173 131.5949
" />
<path d="M14.4173 131.5949
L14.5125 131.4996
" />
<path d="M14.5125 131.4996
L14.5125 131.6901
" />
<path d="M15.8459 129.6901
L16.0363 129.6901
" />
<path d="M16.0363 129.6901
L16.2268 129.7853
" />
<path d="M16.2268 129.7853
L16.3220 129.8806
" />
<path d="M16.3220 129.8806
L16.4173 130.0711
" />
<path d="M16.4173 130.0711
L16.5125 130.4520
" />
<path d="M16.5125 130.4520
L16.5125 130.9282
" />
<path d="M16.5125 130.9282
L16.4173 131.3092
" />
<path d="M16.4173 131.3092
L16.3220 131.4996
" />
<path d="M16.3220 131.4996
L16.2268 131.5949
" />
<path d="M16.2268 131.5949
L16.0363 131.6901
" />
<path d="M16.0363 131.6901
L15.8459 131.6901
" />
<path d="M15.8459 131.6901
L15.6554 131.5949
" />
<path d="M15.6554 131.5949
L15.5601 131.4996
" />
<path d="M15.5601 131.4996
L15.4649 131.3092
" />
<path d="M15.4649 131.3092
L15.3697 130.9282
" />
<path d="M15.3697 130.9282
L15.3697 130.4520
" />
<path d="M15.3697 130.4520
L15.4649 130.0711
" />
<path d="M15.4649 130.0711
L15.5601 129.8806
" />
<path d="M15.5601 129.8806
L15.6554 129.7853
" />
<path d="M15.6554 129.7853
L15.8459 129.6901
" />
<path d="M17.2744 129.8806
L17.3697 129.7853
" />
<path d="M17.3697 129.7853
L17.5601 129.6901
" />
<path d="M17.5601 129.6901
L18.0363 129.6901
" />
<path d="M18.0363 129.6901
L18.2268 129.7853
" />
<path d="M18.2268 129.7853
L18.3220 129.8806
" />
<path d="M18.3220 129.8806
L18.4173 130.0711
" />
<path d="M18.4173 130.0711
L18.4173 130.2615
" />
<path d="M18.4173 130.2615
L18.3220 130.5473
" />
<path d="M18.3220 130.5473
L17.1792 131.6901
" />
<path d="M17.1792 131.6901
L18.4173 131.6901
" />
<path d="M19.6554 129.6901
L19.8459 129.6901
" />
<path d="M19.8459 129.6901
L20.0363 129.7853
" />
<path d="M20.0363 129.7853
L20.1316 129.8806
" />
<path d="M20.1316 129.8806
L20.2268 130.0711
" />
<path d="M20.2268 130.0711
L20.3220 130.4520
" />
<path d="M20.3220 130.4520
L20.3220 130.9282
" />
<path d="M20.3220 130.9282
L20.2268 131.3092
" />
<path d="M20.2268 131.3092
L20.1316 131.4996
" />
<path d="M20.1316 131.4996
L20.0363 131.5949
" />
<path d="M20.0363 131.5949
L19.8459 131.6901
" />
<path d="M19.8459 131.6901
L19.6554 131.6901
" />
<path d="M19.6554 131.6901
L19.4649 131.5949
" />
<path d="M19.4649 131.5949
L19.3697 131.4996
" />
<path d="M19.3697 131.4996
L19.2744 131.3092
" />
<path d="M19.2744 131.3092
L19.1792 130.9282
" />
<path d="M19.1792 130.9282
L19.1792 130.4520
" />
<path d="M19.1792 130.4520
L19.2744 130.0711
" />
<path d="M19.2744 130.0711
L19.3697 129.8806
" />
<path d="M19.3697 129.8806
L19.4649 129.7853
" />
<path d="M19.4649 129.7853
L19.6554 129.6901
" />
<path d="M21.1792 131.6901
L21.1792 130.3568
" />
<path d="M21.1792 130.5473
L21.2744 130.4520
" />
<path d="M21.2744 130.4520
L21.4649 130.3568
" />
<path d="M21.4649 130.3568
L21.7506 130.3568
" />
<path d="M21.7506 130.3568
L21.9411 130.4520
" />
<path d="M21.9411 130.4520
L22.0363 130.6425
" />
<path d="M22.0363 130.6425
L22.0363 131.6901
" />
<path d="M22.0363 130.6425
L22.1316 130.4520
" />
<path d="M22.1316 130.4520
L22.3220 130.3568
" />
<path d="M22.3220 130.3568
L22.6078 130.3568
" />
<path d="M22.6078 130.3568
L22.7982 130.4520
" />
<path d="M22.7982 130.4520
L22.8935 130.6425
" />
<path d="M22.8935 130.6425
L22.8935 131.6901
" />
<path d="M23.8459 131.6901
L23.8459 130.3568
" />
<path d="M23.8459 130.5473
L23.9411 130.4520
" />
<path d="M23.9411 130.4520
L24.1316 130.3568
" />
<path d="M24.1316 130.3568
L24.4173 130.3568
" />
<path d="M24.4173 130.3568
L24.6078 130.4520
" />
<path d="M24.6078 130.4520
L24.7030 130.6425
" />
<path d="M24.7030 130.6425
L24.7030 131.6901
" />
<path d="M24.7030 130.6425
L24.7982 130.4520
" />
<path d="M24.7982 130.4520
L24.9887 130.3568
" />
<path d="M24.9887 130.3568
L25.2744 130.3568
" />
<path d="M25.2744 130.3568
L25.4649 130.4520
" />
<path d="M25.4649 130.4520
L25.5601 130.6425
" />
<path d="M25.5601 130.6425
L25.5601 131.6901
" />
<path d="M29.4649 129.5949
L27.7506 132.1663
" />
<path d="M32.0363 129.6901
L32.2268 129.6901
" />
<path d="M32.2268 129.6901
L32.4173 129.7853
" />
<path d="M32.4173 129.7853
L32.5125 129.8806
" />
<path d="M32.5125 129.8806
L32.6078 130.0711
" />
<path d="M32.6078 130.0711
L32.7030 130.4520
" />
<path d="M32.7030 130.4520
L32.7030 130.9282
" />
<path d="M32.7030 130.9282
L32.6078 131.3092
" />
<path d="M32.6078 131.3092
L32.5125 131.4996
" />
<path d="M32.5125 131.4996
L32.4173 131.5949
" />
<path d="M32.4173 131.5949
L32.2268 131.6901
" />
<path d="M32.2268 131.6901
L32.0363 131.6901
" />
<path d="M32.0363 131.6901
L31.8459 131.5949
" />
<path d="M31.8459 131.5949
L31.7506 131.4996
" />
<path d="M31.7506 131.4996
L31.6554 131.3092
" />
<path d="M31.6554 131.3092
L31.5601 130.9282
" />
<path d="M31.5601 130.9282
L31.5601 130.4520
" />
<path d="M31.5601 130.4520
L31.6554 130.0711
" />
<path d="M31.6554 130.0711
L31.7506 129.8806
" />
<path d="M31.7506 129.8806
L31.8459 129.7853
" />
<path d="M31.8459 129.7853
L32.0363 129.6901
" />
<path d="M33.5601 131.4996
L33.6554 131.5949
" />
<path d="M33.6554 131.5949
L33.5601 131.6901
" />
<path d="M33.5601 131.6901
L33.4649 131.5949
" />
<path d="M33.4649 131.5949
L33.5601 131.4996
" />
<path d="M33.5601 131.4996
L33.5601 131.6901
" />
<path d="M34.8935 129.6901
L35.0839 129.6901
" />
<path d="M35.0839 129.6901
L35.2744 129.7853
" />
<path d="M35.2744 129.7853
L35.3697 129.8806
" />
<path d="M35.3697 129.8806
L35.4649 130.0711
" />
<path d="M35.4649 130.0711
L35.5601 130.4520
" />
<path d="M35.5601 130.4520
L35.5601 130.9282
" />
<path d="M35.5601 130.9282
L35.4649 131.3092
" />
<path d="M35.4649 131.3092
L35.3697 131.4996
" />
<path d="M35.3697 131.4996
L35.2744 131.5949
" />
<path d="M35.2744 131.5949
L35.0839 131.6901
" />
<path d="M35.0839 131.6901
L34.8935 131.6901
" />
<path d="M34.8935 131.6901
L34.7030 131.5949
" />
<path d="M34.7030 131.5949
L34.6078 131.4996
" />
<path d="M34.6078 131.4996
L34.5125 131.3092
" />
<path d="M34.5125 131.3092
L34.4173 130.9282
" />
<path d="M34.4173 130.9282
L34.4173 130.4520
" />
<path d="M34.4173 130.4520
L34.5125 130.0711
" />
<path d="M34.5125 130.0711
L34.6078 129.8806
" />
<path d="M34.6078 129.8806
L34.7030 129.7853
" />
<path d="M34.7030 129.7853
L34.8935 129.6901
" />
<path d="M37.2744 130.3568
L37.2744 131.6901
" />
<path d="M36.7982 129.5949
L36.3220 131.0234
" />
<path d="M36.3220 131.0234
L37.5601 131.0234
" />
<path d="M38.7030 129.6901
L38.8935 129.6901
" />
<path d="M38.8935 129.6901
L39.0839 129.7853
" />
<path d="M39.0839 129.7853
L39.1792 129.8806
" />
<path d="M39.1792 129.8806
L39.2744 130.0711
" />
<path d="M39.2744 130.0711
L39.3697 130.4520
" />
<path d="M39.3697 130.4520
L39.3697 130.9282
" />
<path d="M39.3697 130.9282
L39.2744 131.3092
" />
<path d="M39.2744 131.3092
L39.1792 131.4996
" />
<path d="M39.1792 131.4996
L39.0839 131.5949
" />
<path d="M39.0839 131.5949
L38.8935 131.6901
" />
<path d="M38.8935 131.6901
L38.7030 131.6901
" />
<path d="M38.7030 131.6901
L38.5125 131.5949
" />
<path d="M38.5125 131.5949
L38.4173 131.4996
" />
<path d="M38.4173 131.4996
L38.3220 131.3092
" />
<path d="M38.3220 131.3092
L38.2268 130.9282
" />
<path d="M38.2268 130.9282
L38.2268 130.4520
" />
<path d="M38.2268 130.4520
L38.3220 130.0711
" />
<path d="M38.3220 130.0711
L38.4173 129.8806
" />
<path d="M38.4173 129.8806
L38.5125 129.7853
" />
<path d="M38.5125 129.7853
L38.7030 129.6901
" />
<path d="M40.1316 129.8806
L40.2268 129.7853
" />
<path d="M40.2268 129.7853
L40.4173 129.6901
" />
<path d="M40.4173 129.6901
L40.8935 129.6901
" />
<path d="M40.8935 129.6901
L41.0839 129.7853
" />
<path d="M41.0839 129.7853
L41.1792 129.8806
" />
<path d="M41.1792 129.8806
L41.2744 130.0711
" />
<path d="M41.2744 130.0711
L41.2744 130.2615
" />
<path d="M41.2744 130.2615
L41.1792 130.5473
" />
<path d="M41.1792 130.5473
L40.0363 131.6901
" />
<path d="M40.0363 131.6901
L41.2744 131.6901
" />
<path d="M42.0363 129.6901
L42.0363 130.0711
" />
<path d="M42.7982 129.6901
L42.7982 130.0711
" />
<path d="M45.7506 132.4520
L45.6554 132.3568
" />
<path d="M45.6554 132.3568
L45.4649 132.0711
" />
<path d="M45.4649 132.0711
L45.3697 131.8806
" />
<path d="M45.3697 131.8806
L45.2744 131.5949
" />
<path d="M45.2744 131.5949
L45.1792 131.1187
" />
<path d="M45.1792 131.1187
L45.1792 130.7377
" />
<path d="M45.1792 130.7377
L45.2744 130.2615
" />
<path d="M45.2744 130.2615
L45.3697 129.9758
" />
<path d="M45.3697 129.9758
L45.4649 129.7853
" />
<path d="M45.4649 129.7853
L45.6554 129.4996
" />
<path d="M45.6554 129.4996
L45.7506 129.4044
" />
<path d="M47.3697 129.6901
L46.9887 129.6901
" />
<path d="M46.9887 129.6901
L46.7982 129.7853
" />
<path d="M46.7982 129.7853
L46.7030 129.8806
" />
<path d="M46.7030 129.8806
L46.5125 130.1663
" />
<path d="M46.5125 130.1663
L46.4173 130.5473
" />
<path d="M46.4173 130.5473
L46.4173 131.3092
" />
<path d="M46.4173 131.3092
L46.5125 131.4996
" />
<path d="M46.5125 131.4996
L46.6077 131.5949
" />
<path d="M46.6077 131.5949
L46.7982 131.6901
" />
<path d="M46.7982 131.6901
L47.1792 131.6901
" />
<path d="M47.1792 131.6901
L47.3697 131.5949
" />
<path d="M47.3697 131.5949
L47.4649 131.4996
" />
<path d="M47.4649 131.4996
L47.5601 131.3092
" />
<path d="M47.5601 131.3092
L47.5601 130.8330
" />
<path d="M47.5601 130.8330
L47.4649 130.6425
" />
<path d="M47.4649 130.6425
L47.3697 130.5473
" />
<path d="M47.3697 130.5473
L47.1792 130.4520
" />
<path d="M47.1792 130.4520
L46.7982 130.4520
" />
<path d="M46.7982 130.4520
L46.6077 130.5473
" />
<path d="M46.6077 130.5473
L46.5125 130.6425
" />
<path d="M46.5125 130.6425
L46.4173 130.8330
" />
<path d="M49.2744 130.3568
L49.2744 131.6901
" />
<path d="M48.7982 129.5949
L48.3220 131.0234
" />
<path d="M48.3220 131.0234
L49.5601 131.0234
" />
<path d="M51.8458 131.6901
L51.8458 129.6901
" />
<path d="M52.7030 131.6901
L52.7030 130.6425
" />
<path d="M52.7030 130.6425
L52.6077 130.4520
" />
<path d="M52.6077 130.4520
L52.4173 130.3568
" />
<path d="M52.4173 130.3568
L52.1316 130.3568
" />
<path d="M52.1316 130.3568
L51.9411 130.4520
" />
<path d="M51.9411 130.4520
L51.8458 130.5473
" />
<path d="M53.9411 131.6901
L53.7506 131.5949
" />
<path d="M53.7506 131.5949
L53.6554 131.4996
" />
<path d="M53.6554 131.4996
L53.5601 131.3092
" />
<path d="M53.5601 131.3092
L53.5601 130.7377
" />
<path d="M53.5601 130.7377
L53.6554 130.5473
" />
<path d="M53.6554 130.5473
L53.7506 130.4520
" />
<path d="M53.7506 130.4520
L53.9411 130.3568
" />
<path d="M53.9411 130.3568
L54.2268 130.3568
" />
<path d="M54.2268 130.3568
L54.4173 130.4520
" />
<path d="M54.4173 130.4520
L54.5125 130.5473
" />
<path d="M54.5125 130.5473
L54.6077 130.7377
" />
<path d="M54.6077 130.7377
L54.6077 131.3092
" />
<path d="M54.6077 131.3092
L54.5125 131.4996
" />
<path d="M54.5125 131.4996
L54.4173 131.5949
" />
<path d="M54.4173 131.5949
L54.2268 131.6901
" />
<path d="M54.2268 131.6901
L53.9411 131.6901
" />
<path d="M55.7506 131.6901
L55.5601 131.5949
" />
<path d="M55.5601 131.5949
L55.4649 131.4044
" />
<path d="M55.4649 131.4044
L55.4649 129.6901
" />
<path d="M57.2744 131.5949
L57.0839 131.6901
" />
<path d="M57.0839 131.6901
L56.7030 131.6901
" />
<path d="M56.7030 131.6901
L56.5125 131.5949
" />
<path d="M56.5125 131.5949
L56.4173 131.4044
" />
<path d="M56.4173 131.4044
L56.4173 130.6425
" />
<path d="M56.4173 130.6425
L56.5125 130.4520
" />
<path d="M56.5125 130.4520
L56.7030 130.3568
" />
<path d="M56.7030 130.3568
L57.0839 130.3568
" />
<path d="M57.0839 130.3568
L57.2744 130.4520
" />
<path d="M57.2744 130.4520
L57.3696 130.6425
" />
<path d="M57.3696 130.6425
L57.3696 130.8330
" />
<path d="M57.3696 130.8330
L56.4173 131.0234
" />
<path d="M58.1316 131.5949
L58.3220 131.6901
" />
<path d="M58.3220 131.6901
L58.7030 131.6901
" />
<path d="M58.7030 131.6901
L58.8935 131.5949
" />
<path d="M58.8935 131.5949
L58.9887 131.4044
" />
<path d="M58.9887 131.4044
L58.9887 131.3092
" />
<path d="M58.9887 131.3092
L58.8935 131.1187
" />
<path d="M58.8935 131.1187
L58.7030 131.0234
" />
<path d="M58.7030 131.0234
L58.4173 131.0234
" />
<path d="M58.4173 131.0234
L58.2268 130.9282
" />
<path d="M58.2268 130.9282
L58.1316 130.7377
" />
<path d="M58.1316 130.7377
L58.1316 130.6425
" />
<path d="M58.1316 130.6425
L58.2268 130.4520
" />
<path d="M58.2268 130.4520
L58.4173 130.3568
" />
<path d="M58.4173 130.3568
L58.7030 130.3568
" />
<path d="M58.7030 130.3568
L58.8935 130.4520
" />
<path d="M59.6554 132.4520
L59.7506 132.3568
" />
<path d="M59.7506 132.3568
L59.9411 132.0711
" />
<path d="M59.9411 132.0711
L60.0363 131.8806
" />
<path d="M60.0363 131.8806
L60.1316 131.5949
" />
<path d="M60.1316 131.5949
L60.2268 131.1187
" />
<path d="M60.2268 131.1187
L60.2268 130.7377
" />
<path d="M60.2268 130.7377
L60.1316 130.2615
" />
<path d="M60.1316 130.2615
L60.0363 129.9758
" />
<path d="M60.0363 129.9758
L59.9411 129.7853
" />
<path d="M59.9411 129.7853
L59.7506 129.4996
" />
<path d="M59.7506 129.4996
L59.6554 129.4044
" />
</g></g> 
</svg>
