<?xml version="1.0" standalone="no"?>
 <!DOCTYPE svg PUBLIC "-//W3C//DTD SVG 1.1//EN" 
 "http://www.w3.org/Graphics/SVG/1.1/DTD/svg11.dtd"> 
<svg
  xmlns:svg="http://www.w3.org/2000/svg"
  xmlns="http://www.w3.org/2000/svg"
  xmlns:xlink="http://www.w3.org/1999/xlink"
  version="1.1"
  width="297.0022mm" height="210.0072mm" viewBox="0.0000 0.0000 297.0022 210.0072">
<title>SVG Image created as NTC reader-NPTH-drl_map.svg date 2023/06/27 15:21:41 </title>
  <desc>Image generated by PCBNEW </desc>
<g style="fill:#000000; fill-opacity:1.0000;stroke:#000000; stroke-opacity:1.0000;
stroke-linecap:round; stroke-linejoin:round;"
 transform="translate(0 0) scale(1 1)">
</g>
<g style="fill:#000000; fill-opacity:0.0; 
stroke:#000000; stroke-width:0.0000; stroke-opacity:1; 
stroke-linecap:round; stroke-linejoin:round;">
</g>
<g style="fill:#000000; fill-opacity:0.0; 
stroke:#000000; stroke-width:0.4146; stroke-opacity:1; 
stroke-linecap:round; stroke-linejoin:round;">
<path style="fill:#000000; fill-opacity:0.0; 
stroke:#000000; stroke-width:0.4146; stroke-opacity:1; 
stroke-linecap:round; stroke-linejoin:round;fill:none"
d="M 10.2073,7.6764
286.7949,7.6764
286.7949,118.3280
10.2073,118.3280
Z" /> 
</g>
<g style="fill:#000000; fill-opacity:0.0; 
stroke:#000000; stroke-width:0.5528; stroke-opacity:1; 
stroke-linecap:round; stroke-linejoin:round;">
</g>
<g style="fill:#000000; fill-opacity:0.0; 
stroke:#000000; stroke-width:0.8293; stroke-opacity:1; 
stroke-linecap:round; stroke-linejoin:round;">
<path d="M103.5146 9.3226
L111.8073 17.6152
" />
<path d="M111.8073 9.3226
L103.5146 17.6152
" />
<path d="M104.8776 108.5492
L113.1703 116.8418
" />
<path d="M113.1703 108.5492
L104.8776 116.8418
" />
<path d="M149.6218 9.3226
L157.9144 17.6152
" />
<path d="M157.9144 9.3226
L149.6218 17.6152
" />
<path d="M150.9848 108.5492
L159.2774 116.8418
" />
<path d="M159.2774 108.5492
L150.9848 116.8418
" />
<path d="M208.2960 9.4427
L216.5886 17.7354
" />
<path d="M216.5886 9.4427
L208.2960 17.7354
" />
<path d="M208.2960 108.6659
L216.5886 116.9586
" />
<path d="M216.5886 108.6659
L208.2960 116.9586
" />
<path d="M254.4031 9.4427
L262.6957 17.7354
" />
<path d="M262.6957 9.4427
L254.4031 17.7354
" />
<path d="M254.4031 108.6659
L262.6957 116.9586
" />
<path d="M262.6957 108.6659
L254.4031 116.9586
" />
</g>
<g style="fill:#000000; fill-opacity:0.0; 
stroke:#000000; stroke-width:0.5528; stroke-opacity:1; 
stroke-linecap:round; stroke-linejoin:round;">
</g>
<g style="fill:#000000; fill-opacity:0.0; 
stroke:#000000; stroke-width:0.2000; stroke-opacity:1; 
stroke-linecap:round; stroke-linejoin:round;">
<text x="12.0000" y="121.7353"
textLength="14.7667" font-size="2.6667" lengthAdjust="spacingAndGlyphs"
text-anchor="start" opacity="0">Drill Map:</text>
<g class="stroked-text"><desc>Drill Map:</desc>
<path d="M12.6078 121.6501
L12.6078 119.6501
" />
<path d="M12.6078 119.6501
L13.0840 119.6501
" />
<path d="M13.0840 119.6501
L13.3697 119.7454
" />
<path d="M13.3697 119.7454
L13.5601 119.9358
" />
<path d="M13.5601 119.9358
L13.6554 120.1263
" />
<path d="M13.6554 120.1263
L13.7506 120.5073
" />
<path d="M13.7506 120.5073
L13.7506 120.7930
" />
<path d="M13.7506 120.7930
L13.6554 121.1739
" />
<path d="M13.6554 121.1739
L13.5601 121.3644
" />
<path d="M13.5601 121.3644
L13.3697 121.5549
" />
<path d="M13.3697 121.5549
L13.0840 121.6501
" />
<path d="M13.0840 121.6501
L12.6078 121.6501
" />
<path d="M14.6078 121.6501
L14.6078 120.3168
" />
<path d="M14.6078 120.6977
L14.7030 120.5073
" />
<path d="M14.7030 120.5073
L14.7982 120.4120
" />
<path d="M14.7982 120.4120
L14.9887 120.3168
" />
<path d="M14.9887 120.3168
L15.1792 120.3168
" />
<path d="M15.8459 121.6501
L15.8459 120.3168
" />
<path d="M15.8459 119.6501
L15.7506 119.7454
" />
<path d="M15.7506 119.7454
L15.8459 119.8406
" />
<path d="M15.8459 119.8406
L15.9411 119.7454
" />
<path d="M15.9411 119.7454
L15.8459 119.6501
" />
<path d="M15.8459 119.6501
L15.8459 119.8406
" />
<path d="M17.0840 121.6501
L16.8935 121.5549
" />
<path d="M16.8935 121.5549
L16.7982 121.3644
" />
<path d="M16.7982 121.3644
L16.7982 119.6501
" />
<path d="M18.1316 121.6501
L17.9411 121.5549
" />
<path d="M17.9411 121.5549
L17.8459 121.3644
" />
<path d="M17.8459 121.3644
L17.8459 119.6501
" />
<path d="M20.4173 121.6501
L20.4173 119.6501
" />
<path d="M20.4173 119.6501
L21.0840 121.0787
" />
<path d="M21.0840 121.0787
L21.7506 119.6501
" />
<path d="M21.7506 119.6501
L21.7506 121.6501
" />
<path d="M23.5601 121.6501
L23.5601 120.6025
" />
<path d="M23.5601 120.6025
L23.4649 120.4120
" />
<path d="M23.4649 120.4120
L23.2744 120.3168
" />
<path d="M23.2744 120.3168
L22.8935 120.3168
" />
<path d="M22.8935 120.3168
L22.7030 120.4120
" />
<path d="M23.5601 121.5549
L23.3697 121.6501
" />
<path d="M23.3697 121.6501
L22.8935 121.6501
" />
<path d="M22.8935 121.6501
L22.7030 121.5549
" />
<path d="M22.7030 121.5549
L22.6078 121.3644
" />
<path d="M22.6078 121.3644
L22.6078 121.1739
" />
<path d="M22.6078 121.1739
L22.7030 120.9834
" />
<path d="M22.7030 120.9834
L22.8935 120.8882
" />
<path d="M22.8935 120.8882
L23.3697 120.8882
" />
<path d="M23.3697 120.8882
L23.5601 120.7930
" />
<path d="M24.5125 120.3168
L24.5125 122.3168
" />
<path d="M24.5125 120.4120
L24.7030 120.3168
" />
<path d="M24.7030 120.3168
L25.0840 120.3168
" />
<path d="M25.0840 120.3168
L25.2744 120.4120
" />
<path d="M25.2744 120.4120
L25.3697 120.5073
" />
<path d="M25.3697 120.5073
L25.4649 120.6977
" />
<path d="M25.4649 120.6977
L25.4649 121.2692
" />
<path d="M25.4649 121.2692
L25.3697 121.4596
" />
<path d="M25.3697 121.4596
L25.2744 121.5549
" />
<path d="M25.2744 121.5549
L25.0840 121.6501
" />
<path d="M25.0840 121.6501
L24.7030 121.6501
" />
<path d="M24.7030 121.6501
L24.5125 121.5549
" />
<path d="M26.3220 121.4596
L26.4173 121.5549
" />
<path d="M26.4173 121.5549
L26.3220 121.6501
" />
<path d="M26.3220 121.6501
L26.2268 121.5549
" />
<path d="M26.2268 121.5549
L26.3220 121.4596
" />
<path d="M26.3220 121.4596
L26.3220 121.6501
" />
<path d="M26.3220 120.4120
L26.4173 120.5073
" />
<path d="M26.4173 120.5073
L26.3220 120.6025
" />
<path d="M26.3220 120.6025
L26.2268 120.5073
" />
<path d="M26.2268 120.5073
L26.3220 120.4120
" />
<path d="M26.3220 120.4120
L26.3220 120.6025
" />
</g><path d="M8.0000 123.9353
L10.0000 125.9353
" />
<path d="M10.0000 123.9353
L8.0000 125.9353
" />
</g>
<g style="fill:#000000; fill-opacity:0.0; 
stroke:#000000; stroke-width:0.5528; stroke-opacity:1; 
stroke-linecap:round; stroke-linejoin:round;">
</g>
<g style="fill:#000000; fill-opacity:0.0; 
stroke:#000000; stroke-width:0.2000; stroke-opacity:1; 
stroke-linecap:round; stroke-linejoin:round;">
<text x="12.0000" y="125.9353"
textLength="66.5762" font-size="2.6667" lengthAdjust="spacingAndGlyphs"
text-anchor="start" opacity="0">3.000mm / 0.1181" (8 holes) (not plated)</text>
<g class="stroked-text"><desc>3.000mm / 0.1181" (8 holes) (not plated)</desc>
<path d="M12.4173 123.8501
L13.6554 123.8501
" />
<path d="M13.6554 123.8501
L12.9887 124.6120
" />
<path d="M12.9887 124.6120
L13.2744 124.6120
" />
<path d="M13.2744 124.6120
L13.4649 124.7073
" />
<path d="M13.4649 124.7073
L13.5601 124.8025
" />
<path d="M13.5601 124.8025
L13.6554 124.9930
" />
<path d="M13.6554 124.9930
L13.6554 125.4692
" />
<path d="M13.6554 125.4692
L13.5601 125.6596
" />
<path d="M13.5601 125.6596
L13.4649 125.7549
" />
<path d="M13.4649 125.7549
L13.2744 125.8501
" />
<path d="M13.2744 125.8501
L12.7030 125.8501
" />
<path d="M12.7030 125.8501
L12.5125 125.7549
" />
<path d="M12.5125 125.7549
L12.4173 125.6596
" />
<path d="M14.5125 125.6596
L14.6078 125.7549
" />
<path d="M14.6078 125.7549
L14.5125 125.8501
" />
<path d="M14.5125 125.8501
L14.4173 125.7549
" />
<path d="M14.4173 125.7549
L14.5125 125.6596
" />
<path d="M14.5125 125.6596
L14.5125 125.8501
" />
<path d="M15.8459 123.8501
L16.0363 123.8501
" />
<path d="M16.0363 123.8501
L16.2268 123.9454
" />
<path d="M16.2268 123.9454
L16.3220 124.0406
" />
<path d="M16.3220 124.0406
L16.4173 124.2311
" />
<path d="M16.4173 124.2311
L16.5125 124.6120
" />
<path d="M16.5125 124.6120
L16.5125 125.0882
" />
<path d="M16.5125 125.0882
L16.4173 125.4692
" />
<path d="M16.4173 125.4692
L16.3220 125.6596
" />
<path d="M16.3220 125.6596
L16.2268 125.7549
" />
<path d="M16.2268 125.7549
L16.0363 125.8501
" />
<path d="M16.0363 125.8501
L15.8459 125.8501
" />
<path d="M15.8459 125.8501
L15.6554 125.7549
" />
<path d="M15.6554 125.7549
L15.5601 125.6596
" />
<path d="M15.5601 125.6596
L15.4649 125.4692
" />
<path d="M15.4649 125.4692
L15.3697 125.0882
" />
<path d="M15.3697 125.0882
L15.3697 124.6120
" />
<path d="M15.3697 124.6120
L15.4649 124.2311
" />
<path d="M15.4649 124.2311
L15.5601 124.0406
" />
<path d="M15.5601 124.0406
L15.6554 123.9454
" />
<path d="M15.6554 123.9454
L15.8459 123.8501
" />
<path d="M17.7506 123.8501
L17.9411 123.8501
" />
<path d="M17.9411 123.8501
L18.1316 123.9454
" />
<path d="M18.1316 123.9454
L18.2268 124.0406
" />
<path d="M18.2268 124.0406
L18.3220 124.2311
" />
<path d="M18.3220 124.2311
L18.4173 124.6120
" />
<path d="M18.4173 124.6120
L18.4173 125.0882
" />
<path d="M18.4173 125.0882
L18.3220 125.4692
" />
<path d="M18.3220 125.4692
L18.2268 125.6596
" />
<path d="M18.2268 125.6596
L18.1316 125.7549
" />
<path d="M18.1316 125.7549
L17.9411 125.8501
" />
<path d="M17.9411 125.8501
L17.7506 125.8501
" />
<path d="M17.7506 125.8501
L17.5601 125.7549
" />
<path d="M17.5601 125.7549
L17.4649 125.6596
" />
<path d="M17.4649 125.6596
L17.3697 125.4692
" />
<path d="M17.3697 125.4692
L17.2744 125.0882
" />
<path d="M17.2744 125.0882
L17.2744 124.6120
" />
<path d="M17.2744 124.6120
L17.3697 124.2311
" />
<path d="M17.3697 124.2311
L17.4649 124.0406
" />
<path d="M17.4649 124.0406
L17.5601 123.9454
" />
<path d="M17.5601 123.9454
L17.7506 123.8501
" />
<path d="M19.6554 123.8501
L19.8459 123.8501
" />
<path d="M19.8459 123.8501
L20.0363 123.9454
" />
<path d="M20.0363 123.9454
L20.1316 124.0406
" />
<path d="M20.1316 124.0406
L20.2268 124.2311
" />
<path d="M20.2268 124.2311
L20.3220 124.6120
" />
<path d="M20.3220 124.6120
L20.3220 125.0882
" />
<path d="M20.3220 125.0882
L20.2268 125.4692
" />
<path d="M20.2268 125.4692
L20.1316 125.6596
" />
<path d="M20.1316 125.6596
L20.0363 125.7549
" />
<path d="M20.0363 125.7549
L19.8459 125.8501
" />
<path d="M19.8459 125.8501
L19.6554 125.8501
" />
<path d="M19.6554 125.8501
L19.4649 125.7549
" />
<path d="M19.4649 125.7549
L19.3697 125.6596
" />
<path d="M19.3697 125.6596
L19.2744 125.4692
" />
<path d="M19.2744 125.4692
L19.1792 125.0882
" />
<path d="M19.1792 125.0882
L19.1792 124.6120
" />
<path d="M19.1792 124.6120
L19.2744 124.2311
" />
<path d="M19.2744 124.2311
L19.3697 124.0406
" />
<path d="M19.3697 124.0406
L19.4649 123.9454
" />
<path d="M19.4649 123.9454
L19.6554 123.8501
" />
<path d="M21.1792 125.8501
L21.1792 124.5168
" />
<path d="M21.1792 124.7073
L21.2744 124.6120
" />
<path d="M21.2744 124.6120
L21.4649 124.5168
" />
<path d="M21.4649 124.5168
L21.7506 124.5168
" />
<path d="M21.7506 124.5168
L21.9411 124.6120
" />
<path d="M21.9411 124.6120
L22.0363 124.8025
" />
<path d="M22.0363 124.8025
L22.0363 125.8501
" />
<path d="M22.0363 124.8025
L22.1316 124.6120
" />
<path d="M22.1316 124.6120
L22.3220 124.5168
" />
<path d="M22.3220 124.5168
L22.6078 124.5168
" />
<path d="M22.6078 124.5168
L22.7982 124.6120
" />
<path d="M22.7982 124.6120
L22.8935 124.8025
" />
<path d="M22.8935 124.8025
L22.8935 125.8501
" />
<path d="M23.8459 125.8501
L23.8459 124.5168
" />
<path d="M23.8459 124.7073
L23.9411 124.6120
" />
<path d="M23.9411 124.6120
L24.1316 124.5168
" />
<path d="M24.1316 124.5168
L24.4173 124.5168
" />
<path d="M24.4173 124.5168
L24.6078 124.6120
" />
<path d="M24.6078 124.6120
L24.7030 124.8025
" />
<path d="M24.7030 124.8025
L24.7030 125.8501
" />
<path d="M24.7030 124.8025
L24.7982 124.6120
" />
<path d="M24.7982 124.6120
L24.9887 124.5168
" />
<path d="M24.9887 124.5168
L25.2744 124.5168
" />
<path d="M25.2744 124.5168
L25.4649 124.6120
" />
<path d="M25.4649 124.6120
L25.5601 124.8025
" />
<path d="M25.5601 124.8025
L25.5601 125.8501
" />
<path d="M29.4649 123.7549
L27.7506 126.3263
" />
<path d="M32.0363 123.8501
L32.2268 123.8501
" />
<path d="M32.2268 123.8501
L32.4173 123.9454
" />
<path d="M32.4173 123.9454
L32.5125 124.0406
" />
<path d="M32.5125 124.0406
L32.6078 124.2311
" />
<path d="M32.6078 124.2311
L32.7030 124.6120
" />
<path d="M32.7030 124.6120
L32.7030 125.0882
" />
<path d="M32.7030 125.0882
L32.6078 125.4692
" />
<path d="M32.6078 125.4692
L32.5125 125.6596
" />
<path d="M32.5125 125.6596
L32.4173 125.7549
" />
<path d="M32.4173 125.7549
L32.2268 125.8501
" />
<path d="M32.2268 125.8501
L32.0363 125.8501
" />
<path d="M32.0363 125.8501
L31.8459 125.7549
" />
<path d="M31.8459 125.7549
L31.7506 125.6596
" />
<path d="M31.7506 125.6596
L31.6554 125.4692
" />
<path d="M31.6554 125.4692
L31.5601 125.0882
" />
<path d="M31.5601 125.0882
L31.5601 124.6120
" />
<path d="M31.5601 124.6120
L31.6554 124.2311
" />
<path d="M31.6554 124.2311
L31.7506 124.0406
" />
<path d="M31.7506 124.0406
L31.8459 123.9454
" />
<path d="M31.8459 123.9454
L32.0363 123.8501
" />
<path d="M33.5601 125.6596
L33.6554 125.7549
" />
<path d="M33.6554 125.7549
L33.5601 125.8501
" />
<path d="M33.5601 125.8501
L33.4649 125.7549
" />
<path d="M33.4649 125.7549
L33.5601 125.6596
" />
<path d="M33.5601 125.6596
L33.5601 125.8501
" />
<path d="M35.5601 125.8501
L34.4173 125.8501
" />
<path d="M34.9887 125.8501
L34.9887 123.8501
" />
<path d="M34.9887 123.8501
L34.7982 124.1358
" />
<path d="M34.7982 124.1358
L34.6078 124.3263
" />
<path d="M34.6078 124.3263
L34.4173 124.4215
" />
<path d="M37.4649 125.8501
L36.3220 125.8501
" />
<path d="M36.8935 125.8501
L36.8935 123.8501
" />
<path d="M36.8935 123.8501
L36.7030 124.1358
" />
<path d="M36.7030 124.1358
L36.5125 124.3263
" />
<path d="M36.5125 124.3263
L36.3220 124.4215
" />
<path d="M38.6078 124.7073
L38.4173 124.6120
" />
<path d="M38.4173 124.6120
L38.3220 124.5168
" />
<path d="M38.3220 124.5168
L38.2268 124.3263
" />
<path d="M38.2268 124.3263
L38.2268 124.2311
" />
<path d="M38.2268 124.2311
L38.3220 124.0406
" />
<path d="M38.3220 124.0406
L38.4173 123.9454
" />
<path d="M38.4173 123.9454
L38.6078 123.8501
" />
<path d="M38.6078 123.8501
L38.9887 123.8501
" />
<path d="M38.9887 123.8501
L39.1792 123.9454
" />
<path d="M39.1792 123.9454
L39.2744 124.0406
" />
<path d="M39.2744 124.0406
L39.3697 124.2311
" />
<path d="M39.3697 124.2311
L39.3697 124.3263
" />
<path d="M39.3697 124.3263
L39.2744 124.5168
" />
<path d="M39.2744 124.5168
L39.1792 124.6120
" />
<path d="M39.1792 124.6120
L38.9887 124.7073
" />
<path d="M38.9887 124.7073
L38.6078 124.7073
" />
<path d="M38.6078 124.7073
L38.4173 124.8025
" />
<path d="M38.4173 124.8025
L38.3220 124.8977
" />
<path d="M38.3220 124.8977
L38.2268 125.0882
" />
<path d="M38.2268 125.0882
L38.2268 125.4692
" />
<path d="M38.2268 125.4692
L38.3220 125.6596
" />
<path d="M38.3220 125.6596
L38.4173 125.7549
" />
<path d="M38.4173 125.7549
L38.6078 125.8501
" />
<path d="M38.6078 125.8501
L38.9887 125.8501
" />
<path d="M38.9887 125.8501
L39.1792 125.7549
" />
<path d="M39.1792 125.7549
L39.2744 125.6596
" />
<path d="M39.2744 125.6596
L39.3697 125.4692
" />
<path d="M39.3697 125.4692
L39.3697 125.0882
" />
<path d="M39.3697 125.0882
L39.2744 124.8977
" />
<path d="M39.2744 124.8977
L39.1792 124.8025
" />
<path d="M39.1792 124.8025
L38.9887 124.7073
" />
<path d="M41.2744 125.8501
L40.1316 125.8501
" />
<path d="M40.7030 125.8501
L40.7030 123.8501
" />
<path d="M40.7030 123.8501
L40.5125 124.1358
" />
<path d="M40.5125 124.1358
L40.3220 124.3263
" />
<path d="M40.3220 124.3263
L40.1316 124.4215
" />
<path d="M42.0363 123.8501
L42.0363 124.2311
" />
<path d="M42.7982 123.8501
L42.7982 124.2311
" />
<path d="M45.7506 126.6120
L45.6554 126.5168
" />
<path d="M45.6554 126.5168
L45.4649 126.2311
" />
<path d="M45.4649 126.2311
L45.3697 126.0406
" />
<path d="M45.3697 126.0406
L45.2744 125.7549
" />
<path d="M45.2744 125.7549
L45.1792 125.2787
" />
<path d="M45.1792 125.2787
L45.1792 124.8977
" />
<path d="M45.1792 124.8977
L45.2744 124.4215
" />
<path d="M45.2744 124.4215
L45.3697 124.1358
" />
<path d="M45.3697 124.1358
L45.4649 123.9454
" />
<path d="M45.4649 123.9454
L45.6554 123.6596
" />
<path d="M45.6554 123.6596
L45.7506 123.5644
" />
<path d="M46.7982 124.7073
L46.6077 124.6120
" />
<path d="M46.6077 124.6120
L46.5125 124.5168
" />
<path d="M46.5125 124.5168
L46.4173 124.3263
" />
<path d="M46.4173 124.3263
L46.4173 124.2311
" />
<path d="M46.4173 124.2311
L46.5125 124.0406
" />
<path d="M46.5125 124.0406
L46.6077 123.9454
" />
<path d="M46.6077 123.9454
L46.7982 123.8501
" />
<path d="M46.7982 123.8501
L47.1792 123.8501
" />
<path d="M47.1792 123.8501
L47.3697 123.9454
" />
<path d="M47.3697 123.9454
L47.4649 124.0406
" />
<path d="M47.4649 124.0406
L47.5601 124.2311
" />
<path d="M47.5601 124.2311
L47.5601 124.3263
" />
<path d="M47.5601 124.3263
L47.4649 124.5168
" />
<path d="M47.4649 124.5168
L47.3697 124.6120
" />
<path d="M47.3697 124.6120
L47.1792 124.7073
" />
<path d="M47.1792 124.7073
L46.7982 124.7073
" />
<path d="M46.7982 124.7073
L46.6077 124.8025
" />
<path d="M46.6077 124.8025
L46.5125 124.8977
" />
<path d="M46.5125 124.8977
L46.4173 125.0882
" />
<path d="M46.4173 125.0882
L46.4173 125.4692
" />
<path d="M46.4173 125.4692
L46.5125 125.6596
" />
<path d="M46.5125 125.6596
L46.6077 125.7549
" />
<path d="M46.6077 125.7549
L46.7982 125.8501
" />
<path d="M46.7982 125.8501
L47.1792 125.8501
" />
<path d="M47.1792 125.8501
L47.3697 125.7549
" />
<path d="M47.3697 125.7549
L47.4649 125.6596
" />
<path d="M47.4649 125.6596
L47.5601 125.4692
" />
<path d="M47.5601 125.4692
L47.5601 125.0882
" />
<path d="M47.5601 125.0882
L47.4649 124.8977
" />
<path d="M47.4649 124.8977
L47.3697 124.8025
" />
<path d="M47.3697 124.8025
L47.1792 124.7073
" />
<path d="M49.9411 125.8501
L49.9411 123.8501
" />
<path d="M50.7982 125.8501
L50.7982 124.8025
" />
<path d="M50.7982 124.8025
L50.7030 124.6120
" />
<path d="M50.7030 124.6120
L50.5125 124.5168
" />
<path d="M50.5125 124.5168
L50.2268 124.5168
" />
<path d="M50.2268 124.5168
L50.0363 124.6120
" />
<path d="M50.0363 124.6120
L49.9411 124.7073
" />
<path d="M52.0363 125.8501
L51.8458 125.7549
" />
<path d="M51.8458 125.7549
L51.7506 125.6596
" />
<path d="M51.7506 125.6596
L51.6554 125.4692
" />
<path d="M51.6554 125.4692
L51.6554 124.8977
" />
<path d="M51.6554 124.8977
L51.7506 124.7073
" />
<path d="M51.7506 124.7073
L51.8458 124.6120
" />
<path d="M51.8458 124.6120
L52.0363 124.5168
" />
<path d="M52.0363 124.5168
L52.3220 124.5168
" />
<path d="M52.3220 124.5168
L52.5125 124.6120
" />
<path d="M52.5125 124.6120
L52.6077 124.7073
" />
<path d="M52.6077 124.7073
L52.7030 124.8977
" />
<path d="M52.7030 124.8977
L52.7030 125.4692
" />
<path d="M52.7030 125.4692
L52.6077 125.6596
" />
<path d="M52.6077 125.6596
L52.5125 125.7549
" />
<path d="M52.5125 125.7549
L52.3220 125.8501
" />
<path d="M52.3220 125.8501
L52.0363 125.8501
" />
<path d="M53.8458 125.8501
L53.6554 125.7549
" />
<path d="M53.6554 125.7549
L53.5601 125.5644
" />
<path d="M53.5601 125.5644
L53.5601 123.8501
" />
<path d="M55.3696 125.7549
L55.1792 125.8501
" />
<path d="M55.1792 125.8501
L54.7982 125.8501
" />
<path d="M54.7982 125.8501
L54.6077 125.7549
" />
<path d="M54.6077 125.7549
L54.5125 125.5644
" />
<path d="M54.5125 125.5644
L54.5125 124.8025
" />
<path d="M54.5125 124.8025
L54.6077 124.6120
" />
<path d="M54.6077 124.6120
L54.7982 124.5168
" />
<path d="M54.7982 124.5168
L55.1792 124.5168
" />
<path d="M55.1792 124.5168
L55.3696 124.6120
" />
<path d="M55.3696 124.6120
L55.4649 124.8025
" />
<path d="M55.4649 124.8025
L55.4649 124.9930
" />
<path d="M55.4649 124.9930
L54.5125 125.1834
" />
<path d="M56.2268 125.7549
L56.4173 125.8501
" />
<path d="M56.4173 125.8501
L56.7982 125.8501
" />
<path d="M56.7982 125.8501
L56.9887 125.7549
" />
<path d="M56.9887 125.7549
L57.0839 125.5644
" />
<path d="M57.0839 125.5644
L57.0839 125.4692
" />
<path d="M57.0839 125.4692
L56.9887 125.2787
" />
<path d="M56.9887 125.2787
L56.7982 125.1834
" />
<path d="M56.7982 125.1834
L56.5125 125.1834
" />
<path d="M56.5125 125.1834
L56.3220 125.0882
" />
<path d="M56.3220 125.0882
L56.2268 124.8977
" />
<path d="M56.2268 124.8977
L56.2268 124.8025
" />
<path d="M56.2268 124.8025
L56.3220 124.6120
" />
<path d="M56.3220 124.6120
L56.5125 124.5168
" />
<path d="M56.5125 124.5168
L56.7982 124.5168
" />
<path d="M56.7982 124.5168
L56.9887 124.6120
" />
<path d="M57.7506 126.6120
L57.8458 126.5168
" />
<path d="M57.8458 126.5168
L58.0363 126.2311
" />
<path d="M58.0363 126.2311
L58.1316 126.0406
" />
<path d="M58.1316 126.0406
L58.2268 125.7549
" />
<path d="M58.2268 125.7549
L58.3220 125.2787
" />
<path d="M58.3220 125.2787
L58.3220 124.8977
" />
<path d="M58.3220 124.8977
L58.2268 124.4215
" />
<path d="M58.2268 124.4215
L58.1316 124.1358
" />
<path d="M58.1316 124.1358
L58.0363 123.9454
" />
<path d="M58.0363 123.9454
L57.8458 123.6596
" />
<path d="M57.8458 123.6596
L57.7506 123.5644
" />
<path d="M61.3696 126.6120
L61.2744 126.5168
" />
<path d="M61.2744 126.5168
L61.0839 126.2311
" />
<path d="M61.0839 126.2311
L60.9887 126.0406
" />
<path d="M60.9887 126.0406
L60.8935 125.7549
" />
<path d="M60.8935 125.7549
L60.7982 125.2787
" />
<path d="M60.7982 125.2787
L60.7982 124.8977
" />
<path d="M60.7982 124.8977
L60.8935 124.4215
" />
<path d="M60.8935 124.4215
L60.9887 124.1358
" />
<path d="M60.9887 124.1358
L61.0839 123.9454
" />
<path d="M61.0839 123.9454
L61.2744 123.6596
" />
<path d="M61.2744 123.6596
L61.3696 123.5644
" />
<path d="M62.1316 124.5168
L62.1316 125.8501
" />
<path d="M62.1316 124.7073
L62.2268 124.6120
" />
<path d="M62.2268 124.6120
L62.4173 124.5168
" />
<path d="M62.4173 124.5168
L62.7030 124.5168
" />
<path d="M62.7030 124.5168
L62.8935 124.6120
" />
<path d="M62.8935 124.6120
L62.9887 124.8025
" />
<path d="M62.9887 124.8025
L62.9887 125.8501
" />
<path d="M64.2268 125.8501
L64.0363 125.7549
" />
<path d="M64.0363 125.7549
L63.9411 125.6596
" />
<path d="M63.9411 125.6596
L63.8458 125.4692
" />
<path d="M63.8458 125.4692
L63.8458 124.8977
" />
<path d="M63.8458 124.8977
L63.9411 124.7073
" />
<path d="M63.9411 124.7073
L64.0363 124.6120
" />
<path d="M64.0363 124.6120
L64.2268 124.5168
" />
<path d="M64.2268 124.5168
L64.5125 124.5168
" />
<path d="M64.5125 124.5168
L64.7030 124.6120
" />
<path d="M64.7030 124.6120
L64.7982 124.7073
" />
<path d="M64.7982 124.7073
L64.8935 124.8977
" />
<path d="M64.8935 124.8977
L64.8935 125.4692
" />
<path d="M64.8935 125.4692
L64.7982 125.6596
" />
<path d="M64.7982 125.6596
L64.7030 125.7549
" />
<path d="M64.7030 125.7549
L64.5125 125.8501
" />
<path d="M64.5125 125.8501
L64.2268 125.8501
" />
<path d="M65.4649 124.5168
L66.2268 124.5168
" />
<path d="M65.7506 123.8501
L65.7506 125.5644
" />
<path d="M65.7506 125.5644
L65.8458 125.7549
" />
<path d="M65.8458 125.7549
L66.0363 125.8501
" />
<path d="M66.0363 125.8501
L66.2268 125.8501
" />
<path d="M68.4173 124.5168
L68.4173 126.5168
" />
<path d="M68.4173 124.6120
L68.6077 124.5168
" />
<path d="M68.6077 124.5168
L68.9887 124.5168
" />
<path d="M68.9887 124.5168
L69.1792 124.6120
" />
<path d="M69.1792 124.6120
L69.2744 124.7073
" />
<path d="M69.2744 124.7073
L69.3696 124.8977
" />
<path d="M69.3696 124.8977
L69.3696 125.4692
" />
<path d="M69.3696 125.4692
L69.2744 125.6596
" />
<path d="M69.2744 125.6596
L69.1792 125.7549
" />
<path d="M69.1792 125.7549
L68.9887 125.8501
" />
<path d="M68.9887 125.8501
L68.6077 125.8501
" />
<path d="M68.6077 125.8501
L68.4173 125.7549
" />
<path d="M70.5125 125.8501
L70.3220 125.7549
" />
<path d="M70.3220 125.7549
L70.2268 125.5644
" />
<path d="M70.2268 125.5644
L70.2268 123.8501
" />
<path d="M72.1315 125.8501
L72.1315 124.8025
" />
<path d="M72.1315 124.8025
L72.0363 124.6120
" />
<path d="M72.0363 124.6120
L71.8458 124.5168
" />
<path d="M71.8458 124.5168
L71.4649 124.5168
" />
<path d="M71.4649 124.5168
L71.2744 124.6120
" />
<path d="M72.1315 125.7549
L71.9411 125.8501
" />
<path d="M71.9411 125.8501
L71.4649 125.8501
" />
<path d="M71.4649 125.8501
L71.2744 125.7549
" />
<path d="M71.2744 125.7549
L71.1792 125.5644
" />
<path d="M71.1792 125.5644
L71.1792 125.3739
" />
<path d="M71.1792 125.3739
L71.2744 125.1834
" />
<path d="M71.2744 125.1834
L71.4649 125.0882
" />
<path d="M71.4649 125.0882
L71.9411 125.0882
" />
<path d="M71.9411 125.0882
L72.1315 124.9930
" />
<path d="M72.7982 124.5168
L73.5601 124.5168
" />
<path d="M73.0839 123.8501
L73.0839 125.5644
" />
<path d="M73.0839 125.5644
L73.1792 125.7549
" />
<path d="M73.1792 125.7549
L73.3696 125.8501
" />
<path d="M73.3696 125.8501
L73.5601 125.8501
" />
<path d="M74.9887 125.7549
L74.7982 125.8501
" />
<path d="M74.7982 125.8501
L74.4173 125.8501
" />
<path d="M74.4173 125.8501
L74.2268 125.7549
" />
<path d="M74.2268 125.7549
L74.1315 125.5644
" />
<path d="M74.1315 125.5644
L74.1315 124.8025
" />
<path d="M74.1315 124.8025
L74.2268 124.6120
" />
<path d="M74.2268 124.6120
L74.4173 124.5168
" />
<path d="M74.4173 124.5168
L74.7982 124.5168
" />
<path d="M74.7982 124.5168
L74.9887 124.6120
" />
<path d="M74.9887 124.6120
L75.0839 124.8025
" />
<path d="M75.0839 124.8025
L75.0839 124.9930
" />
<path d="M75.0839 124.9930
L74.1315 125.1834
" />
<path d="M76.7982 125.8501
L76.7982 123.8501
" />
<path d="M76.7982 125.7549
L76.6077 125.8501
" />
<path d="M76.6077 125.8501
L76.2268 125.8501
" />
<path d="M76.2268 125.8501
L76.0363 125.7549
" />
<path d="M76.0363 125.7549
L75.9411 125.6596
" />
<path d="M75.9411 125.6596
L75.8458 125.4692
" />
<path d="M75.8458 125.4692
L75.8458 124.8977
" />
<path d="M75.8458 124.8977
L75.9411 124.7073
" />
<path d="M75.9411 124.7073
L76.0363 124.6120
" />
<path d="M76.0363 124.6120
L76.2268 124.5168
" />
<path d="M76.2268 124.5168
L76.6077 124.5168
" />
<path d="M76.6077 124.5168
L76.7982 124.6120
" />
<path d="M77.5601 126.6120
L77.6554 126.5168
" />
<path d="M77.6554 126.5168
L77.8458 126.2311
" />
<path d="M77.8458 126.2311
L77.9411 126.0406
" />
<path d="M77.9411 126.0406
L78.0363 125.7549
" />
<path d="M78.0363 125.7549
L78.1315 125.2787
" />
<path d="M78.1315 125.2787
L78.1315 124.8977
" />
<path d="M78.1315 124.8977
L78.0363 124.4215
" />
<path d="M78.0363 124.4215
L77.9411 124.1358
" />
<path d="M77.9411 124.1358
L77.8458 123.9454
" />
<path d="M77.8458 123.9454
L77.6554 123.6596
" />
<path d="M77.6554 123.6596
L77.5601 123.5644
" />
</g></g> 
</svg>
