%TF.GenerationSoftware,KiCad,Pcbnew,7.0.5*%
%TF.CreationDate,2023-06-27T15:21:13+05:30*%
%TF.ProjectId,NTC reader,4e544320-7265-4616-9465-722e6b696361,rev?*%
%TF.SameCoordinates,Original*%
%TF.FileFunction,Paste,Top*%
%TF.FilePolarity,Positive*%
%FSLAX46Y46*%
G04 Gerber Fmt 4.6, Leading zero omitted, Abs format (unit mm)*
G04 Created by KiCad (PCBNEW 7.0.5) date 2023-06-27 15:21:13*
%MOMM*%
%LPD*%
G01*
G04 APERTURE LIST*
G04 Aperture macros list*
%AMRoundRect*
0 Rectangle with rounded corners*
0 $1 Rounding radius*
0 $2 $3 $4 $5 $6 $7 $8 $9 X,Y pos of 4 corners*
0 Add a 4 corners polygon primitive as box body*
4,1,4,$2,$3,$4,$5,$6,$7,$8,$9,$2,$3,0*
0 Add four circle primitives for the rounded corners*
1,1,$1+$1,$2,$3*
1,1,$1+$1,$4,$5*
1,1,$1+$1,$6,$7*
1,1,$1+$1,$8,$9*
0 Add four rect primitives between the rounded corners*
20,1,$1+$1,$2,$3,$4,$5,0*
20,1,$1+$1,$4,$5,$6,$7,0*
20,1,$1+$1,$6,$7,$8,$9,0*
20,1,$1+$1,$8,$9,$2,$3,0*%
G04 Aperture macros list end*
%ADD10R,1.475000X0.450000*%
%ADD11R,1.000000X1.000000*%
%ADD12RoundRect,0.250000X-0.400000X-0.625000X0.400000X-0.625000X0.400000X0.625000X-0.400000X0.625000X0*%
%ADD13RoundRect,0.140000X-0.170000X0.140000X-0.170000X-0.140000X0.170000X-0.140000X0.170000X0.140000X0*%
%ADD14R,0.300000X1.475000*%
%ADD15R,1.475000X0.300000*%
G04 APERTURE END LIST*
D10*
%TO.C,IC2*%
X115638000Y-112735000D03*
X115638000Y-112085000D03*
X115638000Y-111435000D03*
X115638000Y-110785000D03*
X115638000Y-110135000D03*
X115638000Y-109485000D03*
X115638000Y-108835000D03*
X115638000Y-108185000D03*
X115638000Y-107535000D03*
X115638000Y-106885000D03*
X115638000Y-106235000D03*
X115638000Y-105585000D03*
X109762000Y-105585000D03*
X109762000Y-106235000D03*
X109762000Y-106885000D03*
X109762000Y-107535000D03*
X109762000Y-108185000D03*
X109762000Y-108835000D03*
X109762000Y-109485000D03*
X109762000Y-110135000D03*
X109762000Y-110785000D03*
X109762000Y-111435000D03*
X109762000Y-112085000D03*
X109762000Y-112735000D03*
%TD*%
D11*
%TO.C,R1*%
X117848000Y-111995000D03*
X117848000Y-113695000D03*
%TD*%
D12*
%TO.C,R2*%
X114120000Y-95890000D03*
X117220000Y-95890000D03*
%TD*%
D13*
%TO.C,C1*%
X119478000Y-113235000D03*
X119478000Y-112275000D03*
%TD*%
D12*
%TO.C,R3*%
X114270000Y-122570000D03*
X117370000Y-122570000D03*
%TD*%
D14*
%TO.C,IC1*%
X159930000Y-105342000D03*
X159430000Y-105342000D03*
X158930000Y-105342000D03*
X158430000Y-105342000D03*
X157930000Y-105342000D03*
X157430000Y-105342000D03*
X156930000Y-105342000D03*
X156430000Y-105342000D03*
X155930000Y-105342000D03*
X155430000Y-105342000D03*
X154930000Y-105342000D03*
X154430000Y-105342000D03*
D15*
X152942000Y-106830000D03*
X152942000Y-107330000D03*
X152942000Y-107830000D03*
X152942000Y-108330000D03*
X152942000Y-108830000D03*
X152942000Y-109330000D03*
X152942000Y-109830000D03*
X152942000Y-110330000D03*
X152942000Y-110830000D03*
X152942000Y-111330000D03*
X152942000Y-111830000D03*
X152942000Y-112330000D03*
D14*
X154430000Y-113818000D03*
X154930000Y-113818000D03*
X155430000Y-113818000D03*
X155930000Y-113818000D03*
X156430000Y-113818000D03*
X156930000Y-113818000D03*
X157430000Y-113818000D03*
X157930000Y-113818000D03*
X158430000Y-113818000D03*
X158930000Y-113818000D03*
X159430000Y-113818000D03*
X159930000Y-113818000D03*
D15*
X161418000Y-112330000D03*
X161418000Y-111830000D03*
X161418000Y-111330000D03*
X161418000Y-110830000D03*
X161418000Y-110330000D03*
X161418000Y-109830000D03*
X161418000Y-109330000D03*
X161418000Y-108830000D03*
X161418000Y-108330000D03*
X161418000Y-107830000D03*
X161418000Y-107330000D03*
X161418000Y-106830000D03*
%TD*%
M02*
