%TF.GenerationSoftware,KiCad,Pcbnew,7.0.5*%
%TF.CreationDate,2023-06-27T15:21:10+05:30*%
%TF.ProjectId,NTC reader,4e544320-7265-4616-9465-722e6b696361,rev?*%
%TF.SameCoordinates,Original*%
%TF.FileFunction,Copper,L1,Top*%
%TF.FilePolarity,Positive*%
%FSLAX46Y46*%
G04 Gerber Fmt 4.6, Leading zero omitted, Abs format (unit mm)*
G04 Created by KiCad (PCBNEW 7.0.5) date 2023-06-27 15:21:10*
%MOMM*%
%LPD*%
G01*
G04 APERTURE LIST*
G04 Aperture macros list*
%AMRoundRect*
0 Rectangle with rounded corners*
0 $1 Rounding radius*
0 $2 $3 $4 $5 $6 $7 $8 $9 X,Y pos of 4 corners*
0 Add a 4 corners polygon primitive as box body*
4,1,4,$2,$3,$4,$5,$6,$7,$8,$9,$2,$3,0*
0 Add four circle primitives for the rounded corners*
1,1,$1+$1,$2,$3*
1,1,$1+$1,$4,$5*
1,1,$1+$1,$6,$7*
1,1,$1+$1,$8,$9*
0 Add four rect primitives between the rounded corners*
20,1,$1+$1,$2,$3,$4,$5,0*
20,1,$1+$1,$4,$5,$6,$7,0*
20,1,$1+$1,$6,$7,$8,$9,0*
20,1,$1+$1,$8,$9,$2,$3,0*%
G04 Aperture macros list end*
%TA.AperFunction,ComponentPad*%
%ADD10R,1.520000X1.520000*%
%TD*%
%TA.AperFunction,ComponentPad*%
%ADD11C,1.520000*%
%TD*%
%TA.AperFunction,ComponentPad*%
%ADD12R,1.700000X1.700000*%
%TD*%
%TA.AperFunction,ComponentPad*%
%ADD13O,1.700000X1.700000*%
%TD*%
%TA.AperFunction,SMDPad,CuDef*%
%ADD14R,1.475000X0.450000*%
%TD*%
%TA.AperFunction,SMDPad,CuDef*%
%ADD15R,1.000000X1.000000*%
%TD*%
%TA.AperFunction,SMDPad,CuDef*%
%ADD16RoundRect,0.250000X-0.400000X-0.625000X0.400000X-0.625000X0.400000X0.625000X-0.400000X0.625000X0*%
%TD*%
%TA.AperFunction,SMDPad,CuDef*%
%ADD17RoundRect,0.140000X-0.170000X0.140000X-0.170000X-0.140000X0.170000X-0.140000X0.170000X0.140000X0*%
%TD*%
%TA.AperFunction,SMDPad,CuDef*%
%ADD18R,0.300000X1.475000*%
%TD*%
%TA.AperFunction,SMDPad,CuDef*%
%ADD19R,1.475000X0.300000*%
%TD*%
%TA.AperFunction,ViaPad*%
%ADD20C,0.600000*%
%TD*%
%TA.AperFunction,Conductor*%
%ADD21C,0.250000*%
%TD*%
G04 APERTURE END LIST*
D10*
%TO.P,J1,1,1*%
%TO.N,GND*%
X169761750Y-95929011D03*
D11*
%TO.P,J1,2,2*%
X172761750Y-95929011D03*
%TO.P,J1,3,3*%
X175761750Y-95929011D03*
%TO.P,J1,4,4*%
X178761750Y-95929011D03*
%TO.P,J1,5,5*%
X181761750Y-95929011D03*
%TO.P,J1,6,6*%
X184761750Y-95929011D03*
%TO.P,J1,7,7*%
X187761750Y-95929011D03*
%TO.P,J1,8,8*%
X190761750Y-95929011D03*
%TO.P,J1,9,9*%
%TO.N,/Temp_9*%
X169761750Y-98929011D03*
%TO.P,J1,10,10*%
%TO.N,/Temp_10*%
X172761750Y-98929011D03*
%TO.P,J1,11,11*%
%TO.N,/Temp_11*%
X175761750Y-98929011D03*
%TO.P,J1,12,12*%
%TO.N,/Temp_12*%
X178761750Y-98929011D03*
%TO.P,J1,13,13*%
%TO.N,/Temp_13*%
X181761750Y-98929011D03*
%TO.P,J1,14,14*%
%TO.N,/Temp_14*%
X184761750Y-98929011D03*
%TO.P,J1,15,15*%
%TO.N,/Temp_15*%
X187761750Y-98929011D03*
%TO.P,J1,16,16*%
%TO.N,/Temp_16*%
X190761750Y-98929011D03*
%TD*%
D12*
%TO.P,J4,1,Pin_1*%
%TO.N,+5V*%
X110310000Y-93350000D03*
D13*
%TO.P,J4,2,Pin_2*%
%TO.N,Net-(J4-Pin_2)*%
X110310000Y-95890000D03*
%TO.P,J4,3,Pin_3*%
%TO.N,GND*%
X110310000Y-98430000D03*
%TD*%
D14*
%TO.P,IC2,1,~{INT}*%
%TO.N,unconnected-(IC2-~{INT}-Pad1)*%
X115638000Y-112735000D03*
%TO.P,IC2,2,A1*%
%TO.N,/I_O_Expander/I2C_A1*%
X115638000Y-112085000D03*
%TO.P,IC2,3,~{RESET}*%
%TO.N,/I_O_Expander/RESET*%
X115638000Y-111435000D03*
%TO.P,IC2,4,IO0_0*%
%TO.N,/ADG_TEMP_Sense/EN*%
X115638000Y-110785000D03*
%TO.P,IC2,5,IO0_1*%
%TO.N,/ADG_TEMP_Sense/WR*%
X115638000Y-110135000D03*
%TO.P,IC2,6,IO0_2*%
%TO.N,/ADG_TEMP_Sense/CS*%
X115638000Y-109485000D03*
%TO.P,IC2,7,IO0_3*%
%TO.N,/ADG_TEMP_Sense/A4*%
X115638000Y-108835000D03*
%TO.P,IC2,8,IO0_4*%
%TO.N,/ADG_TEMP_Sense/A3*%
X115638000Y-108185000D03*
%TO.P,IC2,9,IO0_5*%
%TO.N,/ADG_TEMP_Sense/A2*%
X115638000Y-107535000D03*
%TO.P,IC2,10,IO0_6*%
%TO.N,/ADG_TEMP_Sense/A1*%
X115638000Y-106885000D03*
%TO.P,IC2,11,IO0_7*%
%TO.N,/ADG_TEMP_Sense/A0*%
X115638000Y-106235000D03*
%TO.P,IC2,12,VSS*%
%TO.N,GND*%
X115638000Y-105585000D03*
%TO.P,IC2,13,IO1_0*%
%TO.N,unconnected-(IC2-IO1_0-Pad13)*%
X109762000Y-105585000D03*
%TO.P,IC2,14,IO1_1*%
%TO.N,unconnected-(IC2-IO1_1-Pad14)*%
X109762000Y-106235000D03*
%TO.P,IC2,15,IO1_2*%
%TO.N,unconnected-(IC2-IO1_2-Pad15)*%
X109762000Y-106885000D03*
%TO.P,IC2,16,IO1_3*%
%TO.N,unconnected-(IC2-IO1_3-Pad16)*%
X109762000Y-107535000D03*
%TO.P,IC2,17,IO1_4*%
%TO.N,unconnected-(IC2-IO1_4-Pad17)*%
X109762000Y-108185000D03*
%TO.P,IC2,18,IO1_5*%
%TO.N,unconnected-(IC2-IO1_5-Pad18)*%
X109762000Y-108835000D03*
%TO.P,IC2,19,IO1_6*%
%TO.N,unconnected-(IC2-IO1_6-Pad19)*%
X109762000Y-109485000D03*
%TO.P,IC2,20,IO1_7*%
%TO.N,unconnected-(IC2-IO1_7-Pad20)*%
X109762000Y-110135000D03*
%TO.P,IC2,21,A0*%
%TO.N,/I_O_Expander/I2C_A0*%
X109762000Y-110785000D03*
%TO.P,IC2,22,SCL*%
%TO.N,/I_O_Expander/SCL*%
X109762000Y-111435000D03*
%TO.P,IC2,23,SDA*%
%TO.N,/I_O_Expander/SDA*%
X109762000Y-112085000D03*
%TO.P,IC2,24,VDD*%
%TO.N,+5V*%
X109762000Y-112735000D03*
%TD*%
D10*
%TO.P,J2,1,1*%
%TO.N,GND*%
X131855424Y-95885540D03*
D11*
%TO.P,J2,2,2*%
X134855424Y-95885540D03*
%TO.P,J2,3,3*%
X137855424Y-95885540D03*
%TO.P,J2,4,4*%
X140855424Y-95885540D03*
%TO.P,J2,5,5*%
X143855424Y-95885540D03*
%TO.P,J2,6,6*%
X146855424Y-95885540D03*
%TO.P,J2,7,7*%
X149855424Y-95885540D03*
%TO.P,J2,8,8*%
X152855424Y-95885540D03*
%TO.P,J2,9,9*%
%TO.N,/Temp_1*%
X131855424Y-98885540D03*
%TO.P,J2,10,10*%
%TO.N,/Temp_2*%
X134855424Y-98885540D03*
%TO.P,J2,11,11*%
%TO.N,/Temp_3*%
X137855424Y-98885540D03*
%TO.P,J2,12,12*%
%TO.N,/Temp_4*%
X140855424Y-98885540D03*
%TO.P,J2,13,13*%
%TO.N,/Temp_5*%
X143855424Y-98885540D03*
%TO.P,J2,14,14*%
%TO.N,/Temp_6*%
X146855424Y-98885540D03*
%TO.P,J2,15,15*%
%TO.N,/Temp_7*%
X149855424Y-98885540D03*
%TO.P,J2,16,16*%
%TO.N,/Temp_8*%
X152855424Y-98885540D03*
%TD*%
D15*
%TO.P,R1,2*%
%TO.N,/I_O_Expander/RESET*%
X117848000Y-111995000D03*
%TO.P,R1,1*%
%TO.N,+5V*%
X117848000Y-113695000D03*
%TD*%
D12*
%TO.P,J5,1,Pin_1*%
%TO.N,+5V*%
X109300000Y-125095000D03*
D13*
%TO.P,J5,2,Pin_2*%
%TO.N,Net-(J5-Pin_2)*%
X109300000Y-122555000D03*
%TO.P,J5,3,Pin_3*%
%TO.N,GND*%
X109300000Y-120015000D03*
%TD*%
D12*
%TO.P,J3,1,Pin_1*%
%TO.N,+5V*%
X102950000Y-103850000D03*
D13*
%TO.P,J3,2,Pin_2*%
%TO.N,/I_O_Expander/SCL*%
X102950000Y-106390000D03*
%TO.P,J3,3,Pin_3*%
%TO.N,/I_O_Expander/SDA*%
X102950000Y-108930000D03*
%TO.P,J3,4,Pin_4*%
%TO.N,/I{slash}O*%
X102950000Y-111470000D03*
%TO.P,J3,5,Pin_5*%
%TO.N,GND*%
X102950000Y-114010000D03*
%TD*%
D10*
%TO.P,J7,1,1*%
%TO.N,GND*%
X169761750Y-123184600D03*
D11*
%TO.P,J7,2,2*%
X172761750Y-123184600D03*
%TO.P,J7,3,3*%
X175761750Y-123184600D03*
%TO.P,J7,4,4*%
X178761750Y-123184600D03*
%TO.P,J7,5,5*%
X181761750Y-123184600D03*
%TO.P,J7,6,6*%
X184761750Y-123184600D03*
%TO.P,J7,7,7*%
X187761750Y-123184600D03*
%TO.P,J7,8,8*%
X190761750Y-123184600D03*
%TO.P,J7,9,9*%
%TO.N,/Temp_25*%
X169761750Y-120184600D03*
%TO.P,J7,10,10*%
%TO.N,/Temp_26*%
X172761750Y-120184600D03*
%TO.P,J7,11,11*%
%TO.N,/Temp_27*%
X175761750Y-120184600D03*
%TO.P,J7,12,12*%
%TO.N,/Temp_28*%
X178761750Y-120184600D03*
%TO.P,J7,13,13*%
%TO.N,/Temp_29*%
X181761750Y-120184600D03*
%TO.P,J7,14,14*%
%TO.N,/Temp_30*%
X184761750Y-120184600D03*
%TO.P,J7,15,15*%
%TO.N,/Temp_31*%
X187761750Y-120184600D03*
%TO.P,J7,16,16*%
%TO.N,/Temp_32*%
X190761750Y-120184600D03*
%TD*%
D16*
%TO.P,R2,1*%
%TO.N,Net-(J4-Pin_2)*%
X114120000Y-95890000D03*
%TO.P,R2,2*%
%TO.N,/I_O_Expander/I2C_A1*%
X117220000Y-95890000D03*
%TD*%
D17*
%TO.P,C1,2*%
%TO.N,GND*%
X119478000Y-113235000D03*
%TO.P,C1,1*%
%TO.N,/I_O_Expander/RESET*%
X119478000Y-112275000D03*
%TD*%
D16*
%TO.P,R3,1*%
%TO.N,Net-(J5-Pin_2)*%
X114270000Y-122570000D03*
%TO.P,R3,2*%
%TO.N,/I_O_Expander/I2C_A0*%
X117370000Y-122570000D03*
%TD*%
D10*
%TO.P,J6,1,1*%
%TO.N,GND*%
X132348503Y-123142361D03*
D11*
%TO.P,J6,2,2*%
X135348503Y-123142361D03*
%TO.P,J6,3,3*%
X138348503Y-123142361D03*
%TO.P,J6,4,4*%
X141348503Y-123142361D03*
%TO.P,J6,5,5*%
X144348503Y-123142361D03*
%TO.P,J6,6,6*%
X147348503Y-123142361D03*
%TO.P,J6,7,7*%
X150348503Y-123142361D03*
%TO.P,J6,8,8*%
X153348503Y-123142361D03*
%TO.P,J6,9,9*%
%TO.N,/Temp_17*%
X132348503Y-120142361D03*
%TO.P,J6,10,10*%
%TO.N,/Temp_18*%
X135348503Y-120142361D03*
%TO.P,J6,11,11*%
%TO.N,/Temp_19*%
X138348503Y-120142361D03*
%TO.P,J6,12,12*%
%TO.N,/Temp_20*%
X141348503Y-120142361D03*
%TO.P,J6,13,13*%
%TO.N,/Temp_21*%
X144348503Y-120142361D03*
%TO.P,J6,14,14*%
%TO.N,/Temp_22*%
X147348503Y-120142361D03*
%TO.P,J6,15,15*%
%TO.N,/Temp_23*%
X150348503Y-120142361D03*
%TO.P,J6,16,16*%
%TO.N,/Temp_24*%
X153348503Y-120142361D03*
%TD*%
D18*
%TO.P,IC1,1,S12*%
%TO.N,/Temp_12*%
X159930000Y-105342000D03*
%TO.P,IC1,2,S11*%
%TO.N,/Temp_11*%
X159430000Y-105342000D03*
%TO.P,IC1,3,S10*%
%TO.N,/Temp_10*%
X158930000Y-105342000D03*
%TO.P,IC1,4,S9*%
%TO.N,/Temp_9*%
X158430000Y-105342000D03*
%TO.P,IC1,5,S8*%
%TO.N,/Temp_8*%
X157930000Y-105342000D03*
%TO.P,IC1,6,S7*%
%TO.N,/Temp_7*%
X157430000Y-105342000D03*
%TO.P,IC1,7,S6*%
%TO.N,/Temp_6*%
X156930000Y-105342000D03*
%TO.P,IC1,8,S5*%
%TO.N,/Temp_5*%
X156430000Y-105342000D03*
%TO.P,IC1,9,S4*%
%TO.N,/Temp_4*%
X155930000Y-105342000D03*
%TO.P,IC1,10,S3*%
%TO.N,/Temp_3*%
X155430000Y-105342000D03*
%TO.P,IC1,11,S2*%
%TO.N,/Temp_2*%
X154930000Y-105342000D03*
%TO.P,IC1,12,S1*%
%TO.N,/Temp_1*%
X154430000Y-105342000D03*
D19*
%TO.P,IC1,13,VDD_1*%
%TO.N,+5V*%
X152942000Y-106830000D03*
%TO.P,IC1,14,VDD_2*%
X152942000Y-107330000D03*
%TO.P,IC1,15,A0*%
%TO.N,/ADG_TEMP_Sense/A0*%
X152942000Y-107830000D03*
%TO.P,IC1,16,A1*%
%TO.N,/ADG_TEMP_Sense/A1*%
X152942000Y-108330000D03*
%TO.P,IC1,17,A2*%
%TO.N,/ADG_TEMP_Sense/A2*%
X152942000Y-108830000D03*
%TO.P,IC1,18,A3*%
%TO.N,/ADG_TEMP_Sense/A3*%
X152942000Y-109330000D03*
%TO.P,IC1,19,A4*%
%TO.N,/ADG_TEMP_Sense/A4*%
X152942000Y-109830000D03*
%TO.P,IC1,20,~{CS}*%
%TO.N,/ADG_TEMP_Sense/CS*%
X152942000Y-110330000D03*
%TO.P,IC1,21,~{WR}*%
%TO.N,/ADG_TEMP_Sense/WR*%
X152942000Y-110830000D03*
%TO.P,IC1,22,~{EN}*%
%TO.N,/ADG_TEMP_Sense/EN*%
X152942000Y-111330000D03*
%TO.P,IC1,23,GND*%
%TO.N,GND*%
X152942000Y-111830000D03*
%TO.P,IC1,24,VSS*%
X152942000Y-112330000D03*
D18*
%TO.P,IC1,25,S17*%
%TO.N,/Temp_17*%
X154430000Y-113818000D03*
%TO.P,IC1,26,S18*%
%TO.N,/Temp_18*%
X154930000Y-113818000D03*
%TO.P,IC1,27,S19*%
%TO.N,/Temp_19*%
X155430000Y-113818000D03*
%TO.P,IC1,28,S20*%
%TO.N,/Temp_20*%
X155930000Y-113818000D03*
%TO.P,IC1,29,S21*%
%TO.N,/Temp_21*%
X156430000Y-113818000D03*
%TO.P,IC1,30,S22*%
%TO.N,/Temp_22*%
X156930000Y-113818000D03*
%TO.P,IC1,31,S23*%
%TO.N,/Temp_23*%
X157430000Y-113818000D03*
%TO.P,IC1,32,S24*%
%TO.N,/Temp_24*%
X157930000Y-113818000D03*
%TO.P,IC1,33,S25*%
%TO.N,/Temp_25*%
X158430000Y-113818000D03*
%TO.P,IC1,34,S26*%
%TO.N,/Temp_26*%
X158930000Y-113818000D03*
%TO.P,IC1,35,S27*%
%TO.N,/Temp_27*%
X159430000Y-113818000D03*
%TO.P,IC1,36,S28*%
%TO.N,/Temp_28*%
X159930000Y-113818000D03*
D19*
%TO.P,IC1,37,S29*%
%TO.N,/Temp_29*%
X161418000Y-112330000D03*
%TO.P,IC1,38,S30*%
%TO.N,/Temp_30*%
X161418000Y-111830000D03*
%TO.P,IC1,39,S31*%
%TO.N,/Temp_31*%
X161418000Y-111330000D03*
%TO.P,IC1,40,S32*%
%TO.N,/Temp_32*%
X161418000Y-110830000D03*
%TO.P,IC1,41,NIC_1*%
%TO.N,unconnected-(IC1-NIC_1-Pad41)*%
X161418000Y-110330000D03*
%TO.P,IC1,42,NIC_2*%
%TO.N,unconnected-(IC1-NIC_2-Pad42)*%
X161418000Y-109830000D03*
%TO.P,IC1,43,D*%
%TO.N,/I{slash}O*%
X161418000Y-109330000D03*
%TO.P,IC1,44,NIC_3*%
%TO.N,unconnected-(IC1-NIC_3-Pad44)*%
X161418000Y-108830000D03*
%TO.P,IC1,45,S16*%
%TO.N,/Temp_16*%
X161418000Y-108330000D03*
%TO.P,IC1,46,S15*%
%TO.N,/Temp_15*%
X161418000Y-107830000D03*
%TO.P,IC1,47,S14*%
%TO.N,/Temp_14*%
X161418000Y-107330000D03*
%TO.P,IC1,48,S13*%
%TO.N,/Temp_13*%
X161418000Y-106830000D03*
%TD*%
D20*
%TO.N,GND*%
X117447599Y-105575434D03*
X119454309Y-114268888D03*
X155120000Y-109750000D03*
%TO.N,/I_O_Expander/I2C_A1*%
X117300000Y-98570000D03*
X112630000Y-105800000D03*
%TO.N,/I_O_Expander/I2C_A0*%
X117510000Y-119650000D03*
X112690000Y-114530000D03*
%TD*%
D21*
%TO.N,GND*%
X117438033Y-105585000D02*
X117447599Y-105575434D01*
X115638000Y-105585000D02*
X117438033Y-105585000D01*
X119478000Y-113235000D02*
X119478000Y-114245197D01*
X119478000Y-114245197D02*
X119454309Y-114268888D01*
%TO.N,/I_O_Expander/RESET*%
X117298000Y-111995000D02*
X117848000Y-111995000D01*
X115638000Y-111435000D02*
X116738000Y-111435000D01*
X118128000Y-112275000D02*
X119478000Y-112275000D01*
X116738000Y-111435000D02*
X117298000Y-111995000D01*
X117848000Y-111995000D02*
X118128000Y-112275000D01*
%TO.N,GND*%
X155120000Y-109750000D02*
X155100000Y-109790000D01*
X152942000Y-111830000D02*
X153979500Y-111830000D01*
X155100000Y-110709500D02*
X155120000Y-109750000D01*
X153979500Y-111830000D02*
X155024750Y-110784750D01*
X155024750Y-110784750D02*
X155100000Y-110709500D01*
X152942000Y-112330000D02*
X152942000Y-111830000D01*
%TO.N,+5V*%
X152942000Y-107330000D02*
X154200000Y-107330000D01*
%TO.N,/ADG_TEMP_Sense/A0*%
X115638000Y-106235000D02*
X150309500Y-106235000D01*
X151904500Y-107830000D02*
X152942000Y-107830000D01*
X150309500Y-106235000D02*
X151904500Y-107830000D01*
%TO.N,/ADG_TEMP_Sense/A1*%
X150315000Y-106885000D02*
X151760000Y-108330000D01*
X115638000Y-106885000D02*
X150315000Y-106885000D01*
X151760000Y-108330000D02*
X152942000Y-108330000D01*
%TO.N,/ADG_TEMP_Sense/A2*%
X151623604Y-108830000D02*
X152942000Y-108830000D01*
X115638000Y-107535000D02*
X150328604Y-107535000D01*
X150328604Y-107535000D02*
X151623604Y-108830000D01*
%TO.N,/ADG_TEMP_Sense/A3*%
X150342208Y-108185000D02*
X151487208Y-109330000D01*
X151487208Y-109330000D02*
X152942000Y-109330000D01*
X115638000Y-108185000D02*
X150342208Y-108185000D01*
%TO.N,/ADG_TEMP_Sense/A4*%
X151350812Y-109830000D02*
X152942000Y-109830000D01*
X150355812Y-108835000D02*
X151350812Y-109830000D01*
X115638000Y-108835000D02*
X150355812Y-108835000D01*
%TO.N,/ADG_TEMP_Sense/CS*%
X115638000Y-109485000D02*
X150369416Y-109485000D01*
X150369416Y-109485000D02*
X151214416Y-110330000D01*
X151214416Y-110330000D02*
X152942000Y-110330000D01*
%TO.N,/ADG_TEMP_Sense/WR*%
X115638000Y-110135000D02*
X150383020Y-110135000D01*
X150383020Y-110135000D02*
X151078020Y-110830000D01*
X151078020Y-110830000D02*
X152942000Y-110830000D01*
%TO.N,/ADG_TEMP_Sense/EN*%
X115638000Y-110785000D02*
X150396624Y-110785000D01*
X150941624Y-111330000D02*
X152942000Y-111330000D01*
X150396624Y-110785000D02*
X150941624Y-111330000D01*
%TO.N,/I_O_Expander/I2C_A1*%
X112630000Y-110064500D02*
X112630000Y-105800000D01*
X115638000Y-112085000D02*
X114650500Y-112085000D01*
X117300000Y-95970000D02*
X117220000Y-95890000D01*
X117300000Y-98570000D02*
X117300000Y-95970000D01*
X114650500Y-112085000D02*
X112630000Y-110064500D01*
%TO.N,/I_O_Expander/I2C_A0*%
X109762000Y-110785000D02*
X110749500Y-110785000D01*
X117510000Y-119650000D02*
X117510000Y-122430000D01*
X112690000Y-112725500D02*
X112690000Y-114530000D01*
X110749500Y-110785000D02*
X112690000Y-112725500D01*
X117510000Y-122430000D02*
X117370000Y-122570000D01*
%TO.N,/I_O_Expander/SCL*%
X107995000Y-111435000D02*
X102950000Y-106390000D01*
X109762000Y-111435000D02*
X107995000Y-111435000D01*
%TO.N,/I_O_Expander/SDA*%
X106105000Y-112085000D02*
X102950000Y-108930000D01*
X109762000Y-112085000D02*
X106105000Y-112085000D01*
%TO.N,Net-(J4-Pin_2)*%
X114120000Y-95890000D02*
X110310000Y-95890000D01*
%TO.N,Net-(J5-Pin_2)*%
X114255000Y-122555000D02*
X109300000Y-122555000D01*
X114270000Y-122570000D02*
X114255000Y-122555000D01*
%TO.N,/Temp_12*%
X159930000Y-105342000D02*
X159930000Y-104490000D01*
X173790761Y-103900000D02*
X178761750Y-98929011D01*
X159930000Y-104490000D02*
X160520000Y-103900000D01*
X160520000Y-103900000D02*
X164900000Y-103900000D01*
X164900000Y-103900000D02*
X173790761Y-103900000D01*
%TO.N,/Temp_11*%
X171240761Y-103450000D02*
X175761750Y-98929011D01*
X160333604Y-103450000D02*
X171240761Y-103450000D01*
X159430000Y-104353604D02*
X160333604Y-103450000D01*
X159430000Y-105342000D02*
X159430000Y-104353604D01*
%TO.N,/Temp_10*%
X168690761Y-103000000D02*
X172761750Y-98929011D01*
X158930000Y-105342000D02*
X158930000Y-104217208D01*
X158930000Y-104217208D02*
X160147208Y-103000000D01*
X160147208Y-103000000D02*
X168690761Y-103000000D01*
%TO.N,/Temp_9*%
X159960812Y-102550000D02*
X166140761Y-102550000D01*
X158430000Y-105342000D02*
X158430000Y-104080812D01*
X166140761Y-102550000D02*
X169761750Y-98929011D01*
X158430000Y-104080812D02*
X159960812Y-102550000D01*
%TO.N,/Temp_8*%
X157930000Y-105342000D02*
X157930000Y-103525228D01*
X153290312Y-98885540D02*
X152855424Y-98885540D01*
X157930000Y-103525228D02*
X153290312Y-98885540D01*
%TO.N,/Temp_7*%
X157430000Y-103661624D02*
X155078376Y-101310000D01*
X152279884Y-101310000D02*
X149855424Y-98885540D01*
X157430000Y-105342000D02*
X157430000Y-103661624D01*
X155078376Y-101310000D02*
X152279884Y-101310000D01*
%TO.N,/Temp_6*%
X154891980Y-101760000D02*
X149729884Y-101760000D01*
X149729884Y-101760000D02*
X146855424Y-98885540D01*
X156930000Y-103798020D02*
X154891980Y-101760000D01*
X156930000Y-105342000D02*
X156930000Y-103798020D01*
%TO.N,/Temp_5*%
X156430000Y-103934416D02*
X154705584Y-102210000D01*
X156430000Y-105342000D02*
X156430000Y-103934416D01*
X147179884Y-102210000D02*
X143855424Y-98885540D01*
X154705584Y-102210000D02*
X147179884Y-102210000D01*
%TO.N,/Temp_4*%
X144629884Y-102660000D02*
X140855424Y-98885540D01*
X155905000Y-105317000D02*
X155905000Y-104045812D01*
X155905000Y-104045812D02*
X154519188Y-102660000D01*
X154519188Y-102660000D02*
X144629884Y-102660000D01*
X155930000Y-105342000D02*
X155905000Y-105317000D01*
%TO.N,/Temp_3*%
X155430000Y-104207208D02*
X154332792Y-103110000D01*
X154332792Y-103110000D02*
X142079884Y-103110000D01*
X142079884Y-103110000D02*
X137855424Y-98885540D01*
X155430000Y-105342000D02*
X155430000Y-104207208D01*
%TO.N,/Temp_2*%
X154930000Y-104343604D02*
X154146396Y-103560000D01*
X154930000Y-105342000D02*
X154930000Y-104343604D01*
X139529884Y-103560000D02*
X134855424Y-98885540D01*
X154146396Y-103560000D02*
X139529884Y-103560000D01*
%TO.N,/Temp_1*%
X136989884Y-104020000D02*
X131855424Y-98885540D01*
X153970000Y-104020000D02*
X136989884Y-104020000D01*
X154430000Y-105342000D02*
X154430000Y-104480000D01*
X154430000Y-104480000D02*
X153970000Y-104020000D01*
%TO.N,/Temp_17*%
X154430000Y-115230000D02*
X153850000Y-115810000D01*
X153850000Y-115810000D02*
X136680864Y-115810000D01*
X136680864Y-115810000D02*
X132348503Y-120142361D01*
X154430000Y-113818000D02*
X154430000Y-115230000D01*
%TO.N,/Temp_18*%
X154930000Y-115366396D02*
X154036396Y-116260000D01*
X154036396Y-116260000D02*
X139230864Y-116260000D01*
X154930000Y-113818000D02*
X154930000Y-115366396D01*
X139230864Y-116260000D02*
X135348503Y-120142361D01*
%TO.N,/Temp_19*%
X155430000Y-113818000D02*
X155430000Y-115502792D01*
X141770864Y-116720000D02*
X138348503Y-120142361D01*
X154212792Y-116720000D02*
X141770864Y-116720000D01*
X155430000Y-115502792D02*
X154212792Y-116720000D01*
%TO.N,/Temp_20*%
X155930000Y-115639188D02*
X154389188Y-117180000D01*
X155930000Y-113818000D02*
X155930000Y-115639188D01*
X154389188Y-117180000D02*
X144310864Y-117180000D01*
X144310864Y-117180000D02*
X141348503Y-120142361D01*
%TO.N,/Temp_21*%
X154575584Y-117630000D02*
X146860864Y-117630000D01*
X156430000Y-115775584D02*
X154575584Y-117630000D01*
X146860864Y-117630000D02*
X144348503Y-120142361D01*
X156430000Y-113818000D02*
X156430000Y-115775584D01*
%TO.N,/Temp_22*%
X154691980Y-118150000D02*
X149340864Y-118150000D01*
X156930000Y-113818000D02*
X156930000Y-115911980D01*
X149340864Y-118150000D02*
X147348503Y-120142361D01*
X156930000Y-115911980D02*
X154691980Y-118150000D01*
%TO.N,/Temp_23*%
X154421015Y-119057361D02*
X151433503Y-119057361D01*
X157430000Y-113818000D02*
X157430000Y-116048376D01*
X151433503Y-119057361D02*
X150348503Y-120142361D01*
X157430000Y-116048376D02*
X154421015Y-119057361D01*
%TO.N,/Temp_24*%
X157930000Y-116635666D02*
X154423305Y-120142361D01*
X154423305Y-120142361D02*
X153348503Y-120142361D01*
X157930000Y-113818000D02*
X157930000Y-116635666D01*
%TO.N,/Temp_25*%
X160140812Y-117120000D02*
X166697150Y-117120000D01*
X158430000Y-115409188D02*
X160140812Y-117120000D01*
X166697150Y-117120000D02*
X169761750Y-120184600D01*
X158430000Y-113818000D02*
X158430000Y-115409188D01*
%TO.N,/Temp_26*%
X160327208Y-116670000D02*
X169247150Y-116670000D01*
X158930000Y-115272792D02*
X160327208Y-116670000D01*
X169247150Y-116670000D02*
X172761750Y-120184600D01*
X158930000Y-113818000D02*
X158930000Y-115272792D01*
%TO.N,/Temp_27*%
X159430000Y-113818000D02*
X159430000Y-115136396D01*
X160493604Y-116200000D02*
X171777150Y-116200000D01*
X171777150Y-116200000D02*
X175761750Y-120184600D01*
X159430000Y-115136396D02*
X160493604Y-116200000D01*
%TO.N,/Temp_28*%
X174327150Y-115750000D02*
X178761750Y-120184600D01*
X159930000Y-115000000D02*
X160680000Y-115750000D01*
X159930000Y-113818000D02*
X159930000Y-115000000D01*
X160680000Y-115750000D02*
X174327150Y-115750000D01*
%TO.N,/Temp_29*%
X161418000Y-112330000D02*
X173907150Y-112330000D01*
X173907150Y-112330000D02*
X181761750Y-120184600D01*
%TO.N,/Temp_30*%
X176407150Y-111830000D02*
X184761750Y-120184600D01*
X161418000Y-111830000D02*
X176407150Y-111830000D01*
%TO.N,/Temp_31*%
X161418000Y-111330000D02*
X178907150Y-111330000D01*
X178907150Y-111330000D02*
X187761750Y-120184600D01*
%TO.N,/Temp_32*%
X181407150Y-110830000D02*
X190761750Y-120184600D01*
X161418000Y-110830000D02*
X181407150Y-110830000D01*
%TO.N,/I{slash}O*%
X136494468Y-115360000D02*
X151449500Y-115360000D01*
X157479500Y-109330000D02*
X161418000Y-109330000D01*
X135884468Y-115970000D02*
X136494468Y-115360000D01*
X107450000Y-115970000D02*
X135884468Y-115970000D01*
X151449500Y-115360000D02*
X157479500Y-109330000D01*
X102950000Y-111470000D02*
X107450000Y-115970000D01*
%TO.N,/Temp_16*%
X181360761Y-108330000D02*
X190761750Y-98929011D01*
X161418000Y-108330000D02*
X181360761Y-108330000D01*
%TO.N,/Temp_15*%
X178860761Y-107830000D02*
X187761750Y-98929011D01*
X161418000Y-107830000D02*
X178860761Y-107830000D01*
%TO.N,/Temp_14*%
X161418000Y-107330000D02*
X176360761Y-107330000D01*
X176360761Y-107330000D02*
X184761750Y-98929011D01*
%TO.N,/Temp_13*%
X173860761Y-106830000D02*
X181761750Y-98929011D01*
X161418000Y-106830000D02*
X173860761Y-106830000D01*
%TD*%
%TA.AperFunction,Conductor*%
%TO.N,+5V*%
G36*
X104510845Y-111375883D02*
G01*
X104517339Y-111381929D01*
X105604194Y-112468784D01*
X105614019Y-112481048D01*
X105614240Y-112480866D01*
X105619210Y-112486874D01*
X105668949Y-112533582D01*
X105670316Y-112534906D01*
X105690530Y-112555120D01*
X105695998Y-112559362D01*
X105696004Y-112559366D01*
X105700446Y-112563160D01*
X105734415Y-112595060D01*
X105734417Y-112595061D01*
X105734418Y-112595062D01*
X105751974Y-112604713D01*
X105768237Y-112615396D01*
X105784064Y-112627673D01*
X105826823Y-112646176D01*
X105832073Y-112648748D01*
X105871633Y-112670496D01*
X105872908Y-112671197D01*
X105872912Y-112671198D01*
X105892311Y-112676179D01*
X105910722Y-112682483D01*
X105929097Y-112690435D01*
X105929100Y-112690435D01*
X105929105Y-112690438D01*
X105975149Y-112697729D01*
X105980832Y-112698906D01*
X106025981Y-112710500D01*
X106046016Y-112710500D01*
X106065413Y-112712026D01*
X106085196Y-112715160D01*
X106131583Y-112710775D01*
X106137422Y-112710500D01*
X108400500Y-112710500D01*
X108467539Y-112730185D01*
X108513294Y-112782989D01*
X108524500Y-112834500D01*
X108524500Y-113007844D01*
X108530901Y-113067372D01*
X108530903Y-113067379D01*
X108581145Y-113202086D01*
X108581149Y-113202093D01*
X108667309Y-113317187D01*
X108667312Y-113317190D01*
X108782406Y-113403350D01*
X108782413Y-113403354D01*
X108917120Y-113453596D01*
X108917127Y-113453598D01*
X108976655Y-113459999D01*
X108976672Y-113460000D01*
X109537000Y-113460000D01*
X109537000Y-112934499D01*
X109556685Y-112867460D01*
X109609489Y-112821705D01*
X109660997Y-112810499D01*
X109863001Y-112810499D01*
X109930039Y-112830184D01*
X109975794Y-112882988D01*
X109987000Y-112934499D01*
X109987000Y-113460000D01*
X110547328Y-113460000D01*
X110547344Y-113459999D01*
X110606872Y-113453598D01*
X110606879Y-113453596D01*
X110741586Y-113403354D01*
X110741593Y-113403350D01*
X110856687Y-113317190D01*
X110856690Y-113317187D01*
X110942850Y-113202093D01*
X110942854Y-113202086D01*
X110993096Y-113067379D01*
X110993098Y-113067372D01*
X110999499Y-113007844D01*
X110999500Y-113007827D01*
X110999500Y-112960000D01*
X110838935Y-112960000D01*
X110771896Y-112940315D01*
X110726141Y-112887511D01*
X110716197Y-112818353D01*
X110745222Y-112754797D01*
X110764624Y-112736734D01*
X110832194Y-112686150D01*
X110857046Y-112667546D01*
X110930972Y-112568794D01*
X110937789Y-112559688D01*
X110985605Y-112523894D01*
X110999500Y-112509999D01*
X110999500Y-112462182D01*
X110999499Y-112462164D01*
X110995568Y-112425602D01*
X110995568Y-112399094D01*
X111000000Y-112357873D01*
X110999999Y-112219449D01*
X111019683Y-112152412D01*
X111072487Y-112106657D01*
X111141645Y-112096713D01*
X111205201Y-112125737D01*
X111211680Y-112131770D01*
X112028181Y-112948271D01*
X112061666Y-113009594D01*
X112064500Y-113035952D01*
X112064499Y-113985145D01*
X112045493Y-114051117D01*
X111964211Y-114180476D01*
X111904631Y-114350745D01*
X111904630Y-114350750D01*
X111884435Y-114529996D01*
X111884435Y-114530003D01*
X111904630Y-114709249D01*
X111904631Y-114709254D01*
X111964211Y-114879523D01*
X112060184Y-115032262D01*
X112160741Y-115132819D01*
X112194226Y-115194142D01*
X112189242Y-115263834D01*
X112147370Y-115319767D01*
X112081906Y-115344184D01*
X112073060Y-115344500D01*
X107760452Y-115344500D01*
X107693413Y-115324815D01*
X107672771Y-115308181D01*
X104290237Y-111925646D01*
X104256752Y-111864323D01*
X104258142Y-111805876D01*
X104285063Y-111705408D01*
X104305659Y-111470000D01*
X104305658Y-111469988D01*
X104305658Y-111469631D01*
X104305705Y-111469469D01*
X104306131Y-111464606D01*
X104307107Y-111464691D01*
X104325331Y-111402589D01*
X104378127Y-111356825D01*
X104447284Y-111346869D01*
X104510845Y-111375883D01*
G37*
%TD.AperFunction*%
%TA.AperFunction,Conductor*%
G36*
X198762539Y-89490185D02*
G01*
X198808294Y-89542989D01*
X198819500Y-89594500D01*
X198819500Y-129375500D01*
X198799815Y-129442539D01*
X198747011Y-129488294D01*
X198695500Y-129499500D01*
X188719929Y-129499500D01*
X188652890Y-129479815D01*
X188607135Y-129427011D01*
X188603799Y-129403810D01*
X188570954Y-129463479D01*
X188509517Y-129496755D01*
X188483571Y-129499500D01*
X172039929Y-129499500D01*
X171972890Y-129479815D01*
X171927135Y-129427011D01*
X171923799Y-129403810D01*
X171890954Y-129463479D01*
X171829517Y-129496755D01*
X171803571Y-129499500D01*
X98884500Y-129499500D01*
X98817461Y-129479815D01*
X98771706Y-129427011D01*
X98760500Y-129375500D01*
X98760500Y-127593548D01*
X132758003Y-127593548D01*
X132764370Y-127635787D01*
X132797107Y-127852976D01*
X132797108Y-127852978D01*
X132797109Y-127852984D01*
X132874441Y-128103687D01*
X132988270Y-128340057D01*
X132988271Y-128340058D01*
X132988273Y-128340061D01*
X132988275Y-128340065D01*
X133136070Y-128556839D01*
X133136070Y-128556840D01*
X133314517Y-128749162D01*
X133314521Y-128749165D01*
X133314522Y-128749166D01*
X133519646Y-128912747D01*
X133746860Y-129043929D01*
X133991087Y-129139781D01*
X134246873Y-129198163D01*
X134246879Y-129198163D01*
X134246882Y-129198164D01*
X134442987Y-129212860D01*
X134443006Y-129212860D01*
X134443009Y-129212861D01*
X134443011Y-129212861D01*
X134573995Y-129212861D01*
X134573997Y-129212861D01*
X134573999Y-129212860D01*
X134574018Y-129212860D01*
X134770123Y-129198164D01*
X134770125Y-129198163D01*
X134770133Y-129198163D01*
X135025919Y-129139781D01*
X135270146Y-129043929D01*
X135497360Y-128912747D01*
X135702484Y-128749166D01*
X135880936Y-128556840D01*
X136028731Y-128340065D01*
X136142566Y-128103684D01*
X136219899Y-127852976D01*
X136259002Y-127593548D01*
X149438003Y-127593548D01*
X149444370Y-127635787D01*
X149477107Y-127852976D01*
X149477108Y-127852978D01*
X149477109Y-127852984D01*
X149554441Y-128103687D01*
X149668270Y-128340057D01*
X149668271Y-128340058D01*
X149668273Y-128340061D01*
X149668275Y-128340065D01*
X149816070Y-128556839D01*
X149816070Y-128556840D01*
X149994517Y-128749162D01*
X149994521Y-128749165D01*
X149994522Y-128749166D01*
X150199646Y-128912747D01*
X150426860Y-129043929D01*
X150671087Y-129139781D01*
X150926873Y-129198163D01*
X150926879Y-129198163D01*
X150926882Y-129198164D01*
X151122987Y-129212860D01*
X151123006Y-129212860D01*
X151123009Y-129212861D01*
X151123011Y-129212861D01*
X151253995Y-129212861D01*
X151253997Y-129212861D01*
X151253999Y-129212860D01*
X151254018Y-129212860D01*
X151450123Y-129198164D01*
X151450125Y-129198163D01*
X151450133Y-129198163D01*
X151705919Y-129139781D01*
X151950146Y-129043929D01*
X152177360Y-128912747D01*
X152382484Y-128749166D01*
X152560936Y-128556840D01*
X152708731Y-128340065D01*
X152822566Y-128103684D01*
X152899899Y-127852976D01*
X152932636Y-127635787D01*
X170171250Y-127635787D01*
X170191544Y-127770423D01*
X170210354Y-127895215D01*
X170210355Y-127895217D01*
X170210356Y-127895223D01*
X170287688Y-128145926D01*
X170401517Y-128382296D01*
X170401518Y-128382297D01*
X170401520Y-128382300D01*
X170401522Y-128382304D01*
X170520519Y-128556840D01*
X170549317Y-128599079D01*
X170727764Y-128791401D01*
X170727768Y-128791404D01*
X170727769Y-128791405D01*
X170932893Y-128954986D01*
X171160107Y-129086168D01*
X171404334Y-129182020D01*
X171660120Y-129240402D01*
X171660126Y-129240402D01*
X171660129Y-129240403D01*
X171812837Y-129251847D01*
X171878218Y-129276486D01*
X171919899Y-129332561D01*
X171921046Y-129349410D01*
X171946216Y-129294297D01*
X172004994Y-129256523D01*
X172030663Y-129251847D01*
X172183370Y-129240403D01*
X172183372Y-129240402D01*
X172183380Y-129240402D01*
X172439166Y-129182020D01*
X172683393Y-129086168D01*
X172910607Y-128954986D01*
X173115731Y-128791405D01*
X173294183Y-128599079D01*
X173441978Y-128382304D01*
X173555813Y-128145923D01*
X173633146Y-127895215D01*
X173672249Y-127635787D01*
X186851250Y-127635787D01*
X186871544Y-127770423D01*
X186890354Y-127895215D01*
X186890355Y-127895217D01*
X186890356Y-127895223D01*
X186967688Y-128145926D01*
X187081517Y-128382296D01*
X187081518Y-128382297D01*
X187081520Y-128382300D01*
X187081522Y-128382304D01*
X187200519Y-128556840D01*
X187229317Y-128599079D01*
X187407764Y-128791401D01*
X187407768Y-128791404D01*
X187407769Y-128791405D01*
X187612893Y-128954986D01*
X187840107Y-129086168D01*
X188084334Y-129182020D01*
X188340120Y-129240402D01*
X188340126Y-129240402D01*
X188340129Y-129240403D01*
X188492837Y-129251847D01*
X188558218Y-129276486D01*
X188599899Y-129332561D01*
X188601046Y-129349410D01*
X188626216Y-129294297D01*
X188684994Y-129256523D01*
X188710663Y-129251847D01*
X188863370Y-129240403D01*
X188863372Y-129240402D01*
X188863380Y-129240402D01*
X189119166Y-129182020D01*
X189363393Y-129086168D01*
X189590607Y-128954986D01*
X189795731Y-128791405D01*
X189974183Y-128599079D01*
X190121978Y-128382304D01*
X190235813Y-128145923D01*
X190313146Y-127895215D01*
X190352250Y-127635782D01*
X190352250Y-127373418D01*
X190313146Y-127113985D01*
X190235813Y-126863277D01*
X190215470Y-126821034D01*
X190121982Y-126626903D01*
X190121981Y-126626902D01*
X190121980Y-126626901D01*
X190121978Y-126626896D01*
X189974183Y-126410121D01*
X189934990Y-126367881D01*
X189795735Y-126217798D01*
X189742765Y-126175556D01*
X189590607Y-126054214D01*
X189363393Y-125923032D01*
X189119166Y-125827180D01*
X189119161Y-125827178D01*
X189119152Y-125827176D01*
X188901568Y-125777514D01*
X188863380Y-125768798D01*
X188863379Y-125768797D01*
X188863375Y-125768797D01*
X188863370Y-125768796D01*
X188667265Y-125754100D01*
X188667244Y-125754100D01*
X188536256Y-125754100D01*
X188536234Y-125754100D01*
X188340129Y-125768796D01*
X188340124Y-125768797D01*
X188084347Y-125827176D01*
X188084328Y-125827182D01*
X187840106Y-125923032D01*
X187612893Y-126054214D01*
X187407764Y-126217798D01*
X187229317Y-126410120D01*
X187081518Y-126626902D01*
X187081517Y-126626903D01*
X186967688Y-126863273D01*
X186890356Y-127113976D01*
X186890355Y-127113981D01*
X186890354Y-127113985D01*
X186875603Y-127211847D01*
X186851250Y-127373412D01*
X186851250Y-127635787D01*
X173672249Y-127635787D01*
X173672250Y-127635782D01*
X173672250Y-127373418D01*
X173633146Y-127113985D01*
X173555813Y-126863277D01*
X173535470Y-126821034D01*
X173441982Y-126626903D01*
X173441981Y-126626902D01*
X173441980Y-126626901D01*
X173441978Y-126626896D01*
X173294183Y-126410121D01*
X173254990Y-126367881D01*
X173115735Y-126217798D01*
X173062765Y-126175556D01*
X172910607Y-126054214D01*
X172683393Y-125923032D01*
X172439166Y-125827180D01*
X172439161Y-125827178D01*
X172439152Y-125827176D01*
X172221568Y-125777514D01*
X172183380Y-125768798D01*
X172183379Y-125768797D01*
X172183375Y-125768797D01*
X172183370Y-125768796D01*
X171987265Y-125754100D01*
X171987244Y-125754100D01*
X171856256Y-125754100D01*
X171856234Y-125754100D01*
X171660129Y-125768796D01*
X171660124Y-125768797D01*
X171404347Y-125827176D01*
X171404328Y-125827182D01*
X171160106Y-125923032D01*
X170932893Y-126054214D01*
X170727764Y-126217798D01*
X170549317Y-126410120D01*
X170401518Y-126626902D01*
X170401517Y-126626903D01*
X170287688Y-126863273D01*
X170210356Y-127113976D01*
X170210355Y-127113981D01*
X170210354Y-127113985D01*
X170195603Y-127211847D01*
X170171250Y-127373412D01*
X170171250Y-127635787D01*
X152932636Y-127635787D01*
X152939003Y-127593543D01*
X152939003Y-127331179D01*
X152899899Y-127071746D01*
X152822566Y-126821038D01*
X152729076Y-126626903D01*
X152708735Y-126584664D01*
X152708734Y-126584663D01*
X152708733Y-126584662D01*
X152708731Y-126584657D01*
X152560936Y-126367882D01*
X152499980Y-126302187D01*
X152382488Y-126175559D01*
X152343036Y-126144097D01*
X152177360Y-126011975D01*
X151950146Y-125880793D01*
X151705919Y-125784941D01*
X151705914Y-125784939D01*
X151705905Y-125784937D01*
X151488321Y-125735275D01*
X151450133Y-125726559D01*
X151450132Y-125726558D01*
X151450128Y-125726558D01*
X151450123Y-125726557D01*
X151254018Y-125711861D01*
X151253997Y-125711861D01*
X151123009Y-125711861D01*
X151122987Y-125711861D01*
X150926882Y-125726557D01*
X150926877Y-125726558D01*
X150671100Y-125784937D01*
X150671081Y-125784943D01*
X150426859Y-125880793D01*
X150199646Y-126011975D01*
X149994517Y-126175559D01*
X149816070Y-126367881D01*
X149668271Y-126584663D01*
X149668270Y-126584664D01*
X149554441Y-126821034D01*
X149477109Y-127071737D01*
X149477108Y-127071742D01*
X149477107Y-127071746D01*
X149462356Y-127169608D01*
X149438003Y-127331173D01*
X149438003Y-127593548D01*
X136259002Y-127593548D01*
X136259003Y-127593543D01*
X136259003Y-127331179D01*
X136219899Y-127071746D01*
X136142566Y-126821038D01*
X136049076Y-126626903D01*
X136028735Y-126584664D01*
X136028734Y-126584663D01*
X136028733Y-126584662D01*
X136028731Y-126584657D01*
X135880936Y-126367882D01*
X135819980Y-126302187D01*
X135702488Y-126175559D01*
X135663036Y-126144097D01*
X135497360Y-126011975D01*
X135270146Y-125880793D01*
X135025919Y-125784941D01*
X135025914Y-125784939D01*
X135025905Y-125784937D01*
X134808321Y-125735275D01*
X134770133Y-125726559D01*
X134770132Y-125726558D01*
X134770128Y-125726558D01*
X134770123Y-125726557D01*
X134574018Y-125711861D01*
X134573997Y-125711861D01*
X134443009Y-125711861D01*
X134442987Y-125711861D01*
X134246882Y-125726557D01*
X134246877Y-125726558D01*
X133991100Y-125784937D01*
X133991081Y-125784943D01*
X133746859Y-125880793D01*
X133519646Y-126011975D01*
X133314517Y-126175559D01*
X133136070Y-126367881D01*
X132988271Y-126584663D01*
X132988270Y-126584664D01*
X132874441Y-126821034D01*
X132797109Y-127071737D01*
X132797108Y-127071742D01*
X132797107Y-127071746D01*
X132782356Y-127169608D01*
X132758003Y-127331173D01*
X132758003Y-127593548D01*
X98760500Y-127593548D01*
X98760500Y-122555000D01*
X107944341Y-122555000D01*
X107964936Y-122790403D01*
X107964938Y-122790413D01*
X108026094Y-123018655D01*
X108026096Y-123018659D01*
X108026097Y-123018663D01*
X108105877Y-123189752D01*
X108125965Y-123232830D01*
X108125967Y-123232834D01*
X108216470Y-123362085D01*
X108261501Y-123426396D01*
X108261506Y-123426402D01*
X108383818Y-123548714D01*
X108417303Y-123610037D01*
X108412319Y-123679729D01*
X108370447Y-123735662D01*
X108339471Y-123752577D01*
X108207912Y-123801646D01*
X108207906Y-123801649D01*
X108092812Y-123887809D01*
X108092809Y-123887812D01*
X108006649Y-124002906D01*
X108006645Y-124002913D01*
X107956403Y-124137620D01*
X107956401Y-124137627D01*
X107950000Y-124197155D01*
X107950000Y-124845000D01*
X108866314Y-124845000D01*
X108840507Y-124885156D01*
X108800000Y-125023111D01*
X108800000Y-125166889D01*
X108840507Y-125304844D01*
X108866314Y-125345000D01*
X107950000Y-125345000D01*
X107950000Y-125992844D01*
X107956401Y-126052372D01*
X107956403Y-126052379D01*
X108006645Y-126187086D01*
X108006649Y-126187093D01*
X108092809Y-126302187D01*
X108092812Y-126302190D01*
X108207906Y-126388350D01*
X108207913Y-126388354D01*
X108342620Y-126438596D01*
X108342627Y-126438598D01*
X108402155Y-126444999D01*
X108402172Y-126445000D01*
X109050000Y-126445000D01*
X109050000Y-125530501D01*
X109157685Y-125579680D01*
X109264237Y-125595000D01*
X109335763Y-125595000D01*
X109442315Y-125579680D01*
X109550000Y-125530501D01*
X109550000Y-126445000D01*
X110197828Y-126445000D01*
X110197844Y-126444999D01*
X110257372Y-126438598D01*
X110257379Y-126438596D01*
X110392086Y-126388354D01*
X110392093Y-126388350D01*
X110507187Y-126302190D01*
X110507190Y-126302187D01*
X110593350Y-126187093D01*
X110593354Y-126187086D01*
X110643596Y-126052379D01*
X110643598Y-126052372D01*
X110649999Y-125992844D01*
X110650000Y-125992827D01*
X110650000Y-125345000D01*
X109733686Y-125345000D01*
X109759493Y-125304844D01*
X109800000Y-125166889D01*
X109800000Y-125023111D01*
X109759493Y-124885156D01*
X109733686Y-124845000D01*
X110650000Y-124845000D01*
X110650000Y-124197172D01*
X110649999Y-124197155D01*
X110643598Y-124137627D01*
X110643596Y-124137620D01*
X110593354Y-124002913D01*
X110593350Y-124002906D01*
X110553917Y-123950231D01*
X131088003Y-123950231D01*
X131088004Y-123950237D01*
X131094411Y-124009844D01*
X131144705Y-124144689D01*
X131144709Y-124144696D01*
X131230955Y-124259905D01*
X131230958Y-124259908D01*
X131346167Y-124346154D01*
X131346174Y-124346158D01*
X131481020Y-124396452D01*
X131481019Y-124396452D01*
X131487947Y-124397196D01*
X131540630Y-124402861D01*
X133156375Y-124402860D01*
X133215986Y-124396452D01*
X133350834Y-124346157D01*
X133466049Y-124259907D01*
X133552299Y-124144692D01*
X133602594Y-124009844D01*
X133609003Y-123950234D01*
X133609003Y-123142362D01*
X134083188Y-123142362D01*
X134102410Y-123362075D01*
X134102412Y-123362085D01*
X134159493Y-123575116D01*
X134159498Y-123575130D01*
X134252706Y-123775015D01*
X134252710Y-123775023D01*
X134379215Y-123955691D01*
X134535172Y-124111648D01*
X134715840Y-124238153D01*
X134715842Y-124238154D01*
X134715845Y-124238156D01*
X134806430Y-124280396D01*
X134915733Y-124331365D01*
X134915735Y-124331365D01*
X134915740Y-124331368D01*
X135128783Y-124388453D01*
X135285725Y-124402183D01*
X135348501Y-124407676D01*
X135348503Y-124407676D01*
X135348505Y-124407676D01*
X135403562Y-124402859D01*
X135568223Y-124388453D01*
X135781266Y-124331368D01*
X135981161Y-124238156D01*
X136161832Y-124111649D01*
X136317791Y-123955690D01*
X136444298Y-123775019D01*
X136537510Y-123575124D01*
X136594595Y-123362081D01*
X136613818Y-123142362D01*
X137083188Y-123142362D01*
X137102410Y-123362075D01*
X137102412Y-123362085D01*
X137159493Y-123575116D01*
X137159498Y-123575130D01*
X137252706Y-123775015D01*
X137252710Y-123775023D01*
X137379215Y-123955691D01*
X137535172Y-124111648D01*
X137715840Y-124238153D01*
X137715842Y-124238154D01*
X137715845Y-124238156D01*
X137806430Y-124280396D01*
X137915733Y-124331365D01*
X137915735Y-124331365D01*
X137915740Y-124331368D01*
X138128783Y-124388453D01*
X138285725Y-124402183D01*
X138348501Y-124407676D01*
X138348503Y-124407676D01*
X138348505Y-124407676D01*
X138403562Y-124402859D01*
X138568223Y-124388453D01*
X138781266Y-124331368D01*
X138981161Y-124238156D01*
X139161832Y-124111649D01*
X139317791Y-123955690D01*
X139444298Y-123775019D01*
X139537510Y-123575124D01*
X139594595Y-123362081D01*
X139613818Y-123142362D01*
X140083188Y-123142362D01*
X140102410Y-123362075D01*
X140102412Y-123362085D01*
X140159493Y-123575116D01*
X140159498Y-123575130D01*
X140252706Y-123775015D01*
X140252710Y-123775023D01*
X140379215Y-123955691D01*
X140535172Y-124111648D01*
X140715840Y-124238153D01*
X140715842Y-124238154D01*
X140715845Y-124238156D01*
X140806430Y-124280396D01*
X140915733Y-124331365D01*
X140915735Y-124331365D01*
X140915740Y-124331368D01*
X141128783Y-124388453D01*
X141285725Y-124402183D01*
X141348501Y-124407676D01*
X141348503Y-124407676D01*
X141348505Y-124407676D01*
X141403562Y-124402859D01*
X141568223Y-124388453D01*
X141781266Y-124331368D01*
X141981161Y-124238156D01*
X142161832Y-124111649D01*
X142317791Y-123955690D01*
X142444298Y-123775019D01*
X142537510Y-123575124D01*
X142594595Y-123362081D01*
X142613818Y-123142362D01*
X143083188Y-123142362D01*
X143102410Y-123362075D01*
X143102412Y-123362085D01*
X143159493Y-123575116D01*
X143159498Y-123575130D01*
X143252706Y-123775015D01*
X143252710Y-123775023D01*
X143379215Y-123955691D01*
X143535172Y-124111648D01*
X143715840Y-124238153D01*
X143715842Y-124238154D01*
X143715845Y-124238156D01*
X143806430Y-124280396D01*
X143915733Y-124331365D01*
X143915735Y-124331365D01*
X143915740Y-124331368D01*
X144128783Y-124388453D01*
X144285725Y-124402183D01*
X144348501Y-124407676D01*
X144348503Y-124407676D01*
X144348505Y-124407676D01*
X144403562Y-124402859D01*
X144568223Y-124388453D01*
X144781266Y-124331368D01*
X144981161Y-124238156D01*
X145161832Y-124111649D01*
X145317791Y-123955690D01*
X145444298Y-123775019D01*
X145537510Y-123575124D01*
X145594595Y-123362081D01*
X145613818Y-123142362D01*
X146083188Y-123142362D01*
X146102410Y-123362075D01*
X146102412Y-123362085D01*
X146159493Y-123575116D01*
X146159498Y-123575130D01*
X146252706Y-123775015D01*
X146252710Y-123775023D01*
X146379215Y-123955691D01*
X146535172Y-124111648D01*
X146715840Y-124238153D01*
X146715842Y-124238154D01*
X146715845Y-124238156D01*
X146806430Y-124280396D01*
X146915733Y-124331365D01*
X146915735Y-124331365D01*
X146915740Y-124331368D01*
X147128783Y-124388453D01*
X147285725Y-124402183D01*
X147348501Y-124407676D01*
X147348503Y-124407676D01*
X147348505Y-124407676D01*
X147403562Y-124402859D01*
X147568223Y-124388453D01*
X147781266Y-124331368D01*
X147981161Y-124238156D01*
X148161832Y-124111649D01*
X148317791Y-123955690D01*
X148444298Y-123775019D01*
X148537510Y-123575124D01*
X148594595Y-123362081D01*
X148613818Y-123142362D01*
X149083188Y-123142362D01*
X149102410Y-123362075D01*
X149102412Y-123362085D01*
X149159493Y-123575116D01*
X149159498Y-123575130D01*
X149252706Y-123775015D01*
X149252710Y-123775023D01*
X149379215Y-123955691D01*
X149535172Y-124111648D01*
X149715840Y-124238153D01*
X149715842Y-124238154D01*
X149715845Y-124238156D01*
X149806430Y-124280396D01*
X149915733Y-124331365D01*
X149915735Y-124331365D01*
X149915740Y-124331368D01*
X150128783Y-124388453D01*
X150285725Y-124402183D01*
X150348501Y-124407676D01*
X150348503Y-124407676D01*
X150348505Y-124407676D01*
X150403562Y-124402859D01*
X150568223Y-124388453D01*
X150781266Y-124331368D01*
X150981161Y-124238156D01*
X151161832Y-124111649D01*
X151317791Y-123955690D01*
X151444298Y-123775019D01*
X151537510Y-123575124D01*
X151594595Y-123362081D01*
X151613818Y-123142362D01*
X152083188Y-123142362D01*
X152102410Y-123362075D01*
X152102412Y-123362085D01*
X152159493Y-123575116D01*
X152159498Y-123575130D01*
X152252706Y-123775015D01*
X152252710Y-123775023D01*
X152379215Y-123955691D01*
X152535172Y-124111648D01*
X152715840Y-124238153D01*
X152715842Y-124238154D01*
X152715845Y-124238156D01*
X152806430Y-124280396D01*
X152915733Y-124331365D01*
X152915735Y-124331365D01*
X152915740Y-124331368D01*
X153128783Y-124388453D01*
X153285725Y-124402183D01*
X153348501Y-124407676D01*
X153348503Y-124407676D01*
X153348505Y-124407676D01*
X153403562Y-124402859D01*
X153568223Y-124388453D01*
X153781266Y-124331368D01*
X153981161Y-124238156D01*
X154161832Y-124111649D01*
X154281011Y-123992470D01*
X168501250Y-123992470D01*
X168501251Y-123992476D01*
X168507658Y-124052083D01*
X168557952Y-124186928D01*
X168557956Y-124186935D01*
X168644202Y-124302144D01*
X168644205Y-124302147D01*
X168759414Y-124388393D01*
X168759421Y-124388397D01*
X168894267Y-124438691D01*
X168894266Y-124438691D01*
X168901194Y-124439435D01*
X168953877Y-124445100D01*
X170569622Y-124445099D01*
X170629233Y-124438691D01*
X170764081Y-124388396D01*
X170879296Y-124302146D01*
X170965546Y-124186931D01*
X171015841Y-124052083D01*
X171022250Y-123992473D01*
X171022250Y-123184601D01*
X171496435Y-123184601D01*
X171515657Y-123404314D01*
X171515659Y-123404324D01*
X171572740Y-123617355D01*
X171572745Y-123617369D01*
X171665953Y-123817254D01*
X171665957Y-123817262D01*
X171792462Y-123997930D01*
X171948419Y-124153887D01*
X172129087Y-124280392D01*
X172129089Y-124280393D01*
X172129092Y-124280395D01*
X172175740Y-124302147D01*
X172328980Y-124373604D01*
X172328982Y-124373604D01*
X172328987Y-124373607D01*
X172542030Y-124430692D01*
X172698972Y-124444422D01*
X172761748Y-124449915D01*
X172761750Y-124449915D01*
X172761752Y-124449915D01*
X172816809Y-124445098D01*
X172981470Y-124430692D01*
X173194513Y-124373607D01*
X173394408Y-124280395D01*
X173575079Y-124153888D01*
X173731038Y-123997929D01*
X173857545Y-123817258D01*
X173950757Y-123617363D01*
X174007842Y-123404320D01*
X174027065Y-123184601D01*
X174496435Y-123184601D01*
X174515657Y-123404314D01*
X174515659Y-123404324D01*
X174572740Y-123617355D01*
X174572745Y-123617369D01*
X174665953Y-123817254D01*
X174665957Y-123817262D01*
X174792462Y-123997930D01*
X174948419Y-124153887D01*
X175129087Y-124280392D01*
X175129089Y-124280393D01*
X175129092Y-124280395D01*
X175175740Y-124302147D01*
X175328980Y-124373604D01*
X175328982Y-124373604D01*
X175328987Y-124373607D01*
X175542030Y-124430692D01*
X175698972Y-124444422D01*
X175761748Y-124449915D01*
X175761750Y-124449915D01*
X175761752Y-124449915D01*
X175816809Y-124445098D01*
X175981470Y-124430692D01*
X176194513Y-124373607D01*
X176394408Y-124280395D01*
X176575079Y-124153888D01*
X176731038Y-123997929D01*
X176857545Y-123817258D01*
X176950757Y-123617363D01*
X177007842Y-123404320D01*
X177027065Y-123184601D01*
X177496435Y-123184601D01*
X177515657Y-123404314D01*
X177515659Y-123404324D01*
X177572740Y-123617355D01*
X177572745Y-123617369D01*
X177665953Y-123817254D01*
X177665957Y-123817262D01*
X177792462Y-123997930D01*
X177948419Y-124153887D01*
X178129087Y-124280392D01*
X178129089Y-124280393D01*
X178129092Y-124280395D01*
X178175740Y-124302147D01*
X178328980Y-124373604D01*
X178328982Y-124373604D01*
X178328987Y-124373607D01*
X178542030Y-124430692D01*
X178698972Y-124444422D01*
X178761748Y-124449915D01*
X178761750Y-124449915D01*
X178761752Y-124449915D01*
X178816809Y-124445098D01*
X178981470Y-124430692D01*
X179194513Y-124373607D01*
X179394408Y-124280395D01*
X179575079Y-124153888D01*
X179731038Y-123997929D01*
X179857545Y-123817258D01*
X179950757Y-123617363D01*
X180007842Y-123404320D01*
X180027065Y-123184601D01*
X180496435Y-123184601D01*
X180515657Y-123404314D01*
X180515659Y-123404324D01*
X180572740Y-123617355D01*
X180572745Y-123617369D01*
X180665953Y-123817254D01*
X180665957Y-123817262D01*
X180792462Y-123997930D01*
X180948419Y-124153887D01*
X181129087Y-124280392D01*
X181129089Y-124280393D01*
X181129092Y-124280395D01*
X181175740Y-124302147D01*
X181328980Y-124373604D01*
X181328982Y-124373604D01*
X181328987Y-124373607D01*
X181542030Y-124430692D01*
X181698972Y-124444422D01*
X181761748Y-124449915D01*
X181761750Y-124449915D01*
X181761752Y-124449915D01*
X181816809Y-124445098D01*
X181981470Y-124430692D01*
X182194513Y-124373607D01*
X182394408Y-124280395D01*
X182575079Y-124153888D01*
X182731038Y-123997929D01*
X182857545Y-123817258D01*
X182950757Y-123617363D01*
X183007842Y-123404320D01*
X183027065Y-123184601D01*
X183496435Y-123184601D01*
X183515657Y-123404314D01*
X183515659Y-123404324D01*
X183572740Y-123617355D01*
X183572745Y-123617369D01*
X183665953Y-123817254D01*
X183665957Y-123817262D01*
X183792462Y-123997930D01*
X183948419Y-124153887D01*
X184129087Y-124280392D01*
X184129089Y-124280393D01*
X184129092Y-124280395D01*
X184175740Y-124302147D01*
X184328980Y-124373604D01*
X184328982Y-124373604D01*
X184328987Y-124373607D01*
X184542030Y-124430692D01*
X184698972Y-124444422D01*
X184761748Y-124449915D01*
X184761750Y-124449915D01*
X184761752Y-124449915D01*
X184816809Y-124445098D01*
X184981470Y-124430692D01*
X185194513Y-124373607D01*
X185394408Y-124280395D01*
X185575079Y-124153888D01*
X185731038Y-123997929D01*
X185857545Y-123817258D01*
X185950757Y-123617363D01*
X186007842Y-123404320D01*
X186027065Y-123184601D01*
X186496435Y-123184601D01*
X186515657Y-123404314D01*
X186515659Y-123404324D01*
X186572740Y-123617355D01*
X186572745Y-123617369D01*
X186665953Y-123817254D01*
X186665957Y-123817262D01*
X186792462Y-123997930D01*
X186948419Y-124153887D01*
X187129087Y-124280392D01*
X187129089Y-124280393D01*
X187129092Y-124280395D01*
X187175740Y-124302147D01*
X187328980Y-124373604D01*
X187328982Y-124373604D01*
X187328987Y-124373607D01*
X187542030Y-124430692D01*
X187698972Y-124444422D01*
X187761748Y-124449915D01*
X187761750Y-124449915D01*
X187761752Y-124449915D01*
X187816809Y-124445098D01*
X187981470Y-124430692D01*
X188194513Y-124373607D01*
X188394408Y-124280395D01*
X188575079Y-124153888D01*
X188731038Y-123997929D01*
X188857545Y-123817258D01*
X188950757Y-123617363D01*
X189007842Y-123404320D01*
X189027065Y-123184601D01*
X189496435Y-123184601D01*
X189515657Y-123404314D01*
X189515659Y-123404324D01*
X189572740Y-123617355D01*
X189572745Y-123617369D01*
X189665953Y-123817254D01*
X189665957Y-123817262D01*
X189792462Y-123997930D01*
X189948419Y-124153887D01*
X190129087Y-124280392D01*
X190129089Y-124280393D01*
X190129092Y-124280395D01*
X190175740Y-124302147D01*
X190328980Y-124373604D01*
X190328982Y-124373604D01*
X190328987Y-124373607D01*
X190542030Y-124430692D01*
X190698972Y-124444422D01*
X190761748Y-124449915D01*
X190761750Y-124449915D01*
X190761752Y-124449915D01*
X190816809Y-124445098D01*
X190981470Y-124430692D01*
X191194513Y-124373607D01*
X191394408Y-124280395D01*
X191575079Y-124153888D01*
X191731038Y-123997929D01*
X191857545Y-123817258D01*
X191950757Y-123617363D01*
X192007842Y-123404320D01*
X192027065Y-123184600D01*
X192007842Y-122964880D01*
X191950757Y-122751837D01*
X191857545Y-122551943D01*
X191731038Y-122371271D01*
X191731036Y-122371268D01*
X191575080Y-122215312D01*
X191394412Y-122088807D01*
X191394404Y-122088803D01*
X191194519Y-121995595D01*
X191194505Y-121995590D01*
X190981474Y-121938509D01*
X190981472Y-121938508D01*
X190981470Y-121938508D01*
X190981468Y-121938507D01*
X190981464Y-121938507D01*
X190761752Y-121919285D01*
X190761748Y-121919285D01*
X190542035Y-121938507D01*
X190542025Y-121938509D01*
X190328994Y-121995590D01*
X190328985Y-121995594D01*
X190129094Y-122088804D01*
X190129092Y-122088805D01*
X189948418Y-122215313D01*
X189792463Y-122371268D01*
X189665955Y-122551942D01*
X189665954Y-122551944D01*
X189572744Y-122751835D01*
X189572740Y-122751844D01*
X189515659Y-122964875D01*
X189515657Y-122964885D01*
X189496435Y-123184598D01*
X189496435Y-123184601D01*
X189027065Y-123184601D01*
X189027065Y-123184600D01*
X189007842Y-122964880D01*
X188950757Y-122751837D01*
X188857545Y-122551943D01*
X188731038Y-122371271D01*
X188731036Y-122371268D01*
X188575080Y-122215312D01*
X188394412Y-122088807D01*
X188394404Y-122088803D01*
X188194519Y-121995595D01*
X188194505Y-121995590D01*
X187981474Y-121938509D01*
X187981472Y-121938508D01*
X187981470Y-121938508D01*
X187981468Y-121938507D01*
X187981464Y-121938507D01*
X187761752Y-121919285D01*
X187761748Y-121919285D01*
X187542035Y-121938507D01*
X187542025Y-121938509D01*
X187328994Y-121995590D01*
X187328985Y-121995594D01*
X187129094Y-122088804D01*
X187129092Y-122088805D01*
X186948418Y-122215313D01*
X186792463Y-122371268D01*
X186665955Y-122551942D01*
X186665954Y-122551944D01*
X186572744Y-122751835D01*
X186572740Y-122751844D01*
X186515659Y-122964875D01*
X186515657Y-122964885D01*
X186496435Y-123184598D01*
X186496435Y-123184601D01*
X186027065Y-123184601D01*
X186027065Y-123184600D01*
X186007842Y-122964880D01*
X185950757Y-122751837D01*
X185857545Y-122551943D01*
X185731038Y-122371271D01*
X185731036Y-122371268D01*
X185575080Y-122215312D01*
X185394412Y-122088807D01*
X185394404Y-122088803D01*
X185194519Y-121995595D01*
X185194505Y-121995590D01*
X184981474Y-121938509D01*
X184981472Y-121938508D01*
X184981470Y-121938508D01*
X184981468Y-121938507D01*
X184981464Y-121938507D01*
X184761752Y-121919285D01*
X184761748Y-121919285D01*
X184542035Y-121938507D01*
X184542025Y-121938509D01*
X184328994Y-121995590D01*
X184328985Y-121995594D01*
X184129094Y-122088804D01*
X184129092Y-122088805D01*
X183948418Y-122215313D01*
X183792463Y-122371268D01*
X183665955Y-122551942D01*
X183665954Y-122551944D01*
X183572744Y-122751835D01*
X183572740Y-122751844D01*
X183515659Y-122964875D01*
X183515657Y-122964885D01*
X183496435Y-123184598D01*
X183496435Y-123184601D01*
X183027065Y-123184601D01*
X183027065Y-123184600D01*
X183007842Y-122964880D01*
X182950757Y-122751837D01*
X182857545Y-122551943D01*
X182731038Y-122371271D01*
X182731036Y-122371268D01*
X182575080Y-122215312D01*
X182394412Y-122088807D01*
X182394404Y-122088803D01*
X182194519Y-121995595D01*
X182194505Y-121995590D01*
X181981474Y-121938509D01*
X181981472Y-121938508D01*
X181981470Y-121938508D01*
X181981468Y-121938507D01*
X181981464Y-121938507D01*
X181761752Y-121919285D01*
X181761748Y-121919285D01*
X181542035Y-121938507D01*
X181542025Y-121938509D01*
X181328994Y-121995590D01*
X181328985Y-121995594D01*
X181129094Y-122088804D01*
X181129092Y-122088805D01*
X180948418Y-122215313D01*
X180792463Y-122371268D01*
X180665955Y-122551942D01*
X180665954Y-122551944D01*
X180572744Y-122751835D01*
X180572740Y-122751844D01*
X180515659Y-122964875D01*
X180515657Y-122964885D01*
X180496435Y-123184598D01*
X180496435Y-123184601D01*
X180027065Y-123184601D01*
X180027065Y-123184600D01*
X180007842Y-122964880D01*
X179950757Y-122751837D01*
X179857545Y-122551943D01*
X179731038Y-122371271D01*
X179731036Y-122371268D01*
X179575080Y-122215312D01*
X179394412Y-122088807D01*
X179394404Y-122088803D01*
X179194519Y-121995595D01*
X179194505Y-121995590D01*
X178981474Y-121938509D01*
X178981472Y-121938508D01*
X178981470Y-121938508D01*
X178981468Y-121938507D01*
X178981464Y-121938507D01*
X178761752Y-121919285D01*
X178761748Y-121919285D01*
X178542035Y-121938507D01*
X178542025Y-121938509D01*
X178328994Y-121995590D01*
X178328985Y-121995594D01*
X178129094Y-122088804D01*
X178129092Y-122088805D01*
X177948418Y-122215313D01*
X177792463Y-122371268D01*
X177665955Y-122551942D01*
X177665954Y-122551944D01*
X177572744Y-122751835D01*
X177572740Y-122751844D01*
X177515659Y-122964875D01*
X177515657Y-122964885D01*
X177496435Y-123184598D01*
X177496435Y-123184601D01*
X177027065Y-123184601D01*
X177027065Y-123184600D01*
X177007842Y-122964880D01*
X176950757Y-122751837D01*
X176857545Y-122551943D01*
X176731038Y-122371271D01*
X176731036Y-122371268D01*
X176575080Y-122215312D01*
X176394412Y-122088807D01*
X176394404Y-122088803D01*
X176194519Y-121995595D01*
X176194505Y-121995590D01*
X175981474Y-121938509D01*
X175981472Y-121938508D01*
X175981470Y-121938508D01*
X175981468Y-121938507D01*
X175981464Y-121938507D01*
X175761752Y-121919285D01*
X175761748Y-121919285D01*
X175542035Y-121938507D01*
X175542025Y-121938509D01*
X175328994Y-121995590D01*
X175328985Y-121995594D01*
X175129094Y-122088804D01*
X175129092Y-122088805D01*
X174948418Y-122215313D01*
X174792463Y-122371268D01*
X174665955Y-122551942D01*
X174665954Y-122551944D01*
X174572744Y-122751835D01*
X174572740Y-122751844D01*
X174515659Y-122964875D01*
X174515657Y-122964885D01*
X174496435Y-123184598D01*
X174496435Y-123184601D01*
X174027065Y-123184601D01*
X174027065Y-123184600D01*
X174007842Y-122964880D01*
X173950757Y-122751837D01*
X173857545Y-122551943D01*
X173731038Y-122371271D01*
X173731036Y-122371268D01*
X173575080Y-122215312D01*
X173394412Y-122088807D01*
X173394404Y-122088803D01*
X173194519Y-121995595D01*
X173194505Y-121995590D01*
X172981474Y-121938509D01*
X172981472Y-121938508D01*
X172981470Y-121938508D01*
X172981468Y-121938507D01*
X172981464Y-121938507D01*
X172761752Y-121919285D01*
X172761748Y-121919285D01*
X172542035Y-121938507D01*
X172542025Y-121938509D01*
X172328994Y-121995590D01*
X172328985Y-121995594D01*
X172129094Y-122088804D01*
X172129092Y-122088805D01*
X171948418Y-122215313D01*
X171792463Y-122371268D01*
X171665955Y-122551942D01*
X171665954Y-122551944D01*
X171572744Y-122751835D01*
X171572740Y-122751844D01*
X171515659Y-122964875D01*
X171515657Y-122964885D01*
X171496435Y-123184598D01*
X171496435Y-123184601D01*
X171022250Y-123184601D01*
X171022249Y-122376728D01*
X171017049Y-122328357D01*
X171015841Y-122317116D01*
X170965547Y-122182271D01*
X170965543Y-122182264D01*
X170879297Y-122067055D01*
X170879294Y-122067052D01*
X170764085Y-121980806D01*
X170764078Y-121980802D01*
X170629232Y-121930508D01*
X170629233Y-121930508D01*
X170569633Y-121924101D01*
X170569631Y-121924100D01*
X170569623Y-121924100D01*
X170569614Y-121924100D01*
X168953879Y-121924100D01*
X168953873Y-121924101D01*
X168894266Y-121930508D01*
X168759421Y-121980802D01*
X168759414Y-121980806D01*
X168644205Y-122067052D01*
X168644202Y-122067055D01*
X168557956Y-122182264D01*
X168557952Y-122182271D01*
X168507658Y-122317117D01*
X168501251Y-122376716D01*
X168501251Y-122376723D01*
X168501250Y-122376735D01*
X168501250Y-123992470D01*
X154281011Y-123992470D01*
X154317791Y-123955690D01*
X154444298Y-123775019D01*
X154537510Y-123575124D01*
X154594595Y-123362081D01*
X154613818Y-123142361D01*
X154594595Y-122922641D01*
X154537510Y-122709598D01*
X154444298Y-122509704D01*
X154317791Y-122329032D01*
X154317789Y-122329029D01*
X154161833Y-122173073D01*
X153981165Y-122046568D01*
X153981157Y-122046564D01*
X153781272Y-121953356D01*
X153781258Y-121953351D01*
X153568227Y-121896270D01*
X153568225Y-121896269D01*
X153568223Y-121896269D01*
X153568221Y-121896268D01*
X153568217Y-121896268D01*
X153348505Y-121877046D01*
X153348501Y-121877046D01*
X153128788Y-121896268D01*
X153128778Y-121896270D01*
X152915747Y-121953351D01*
X152915738Y-121953355D01*
X152715847Y-122046565D01*
X152715845Y-122046566D01*
X152535171Y-122173074D01*
X152379216Y-122329029D01*
X152252708Y-122509703D01*
X152252707Y-122509705D01*
X152159497Y-122709596D01*
X152159493Y-122709605D01*
X152102412Y-122922636D01*
X152102410Y-122922646D01*
X152083188Y-123142359D01*
X152083188Y-123142362D01*
X151613818Y-123142362D01*
X151613818Y-123142361D01*
X151594595Y-122922641D01*
X151537510Y-122709598D01*
X151444298Y-122509704D01*
X151317791Y-122329032D01*
X151317789Y-122329029D01*
X151161833Y-122173073D01*
X150981165Y-122046568D01*
X150981157Y-122046564D01*
X150781272Y-121953356D01*
X150781258Y-121953351D01*
X150568227Y-121896270D01*
X150568225Y-121896269D01*
X150568223Y-121896269D01*
X150568221Y-121896268D01*
X150568217Y-121896268D01*
X150348505Y-121877046D01*
X150348501Y-121877046D01*
X150128788Y-121896268D01*
X150128778Y-121896270D01*
X149915747Y-121953351D01*
X149915738Y-121953355D01*
X149715847Y-122046565D01*
X149715845Y-122046566D01*
X149535171Y-122173074D01*
X149379216Y-122329029D01*
X149252708Y-122509703D01*
X149252707Y-122509705D01*
X149159497Y-122709596D01*
X149159493Y-122709605D01*
X149102412Y-122922636D01*
X149102410Y-122922646D01*
X149083188Y-123142359D01*
X149083188Y-123142362D01*
X148613818Y-123142362D01*
X148613818Y-123142361D01*
X148594595Y-122922641D01*
X148537510Y-122709598D01*
X148444298Y-122509704D01*
X148317791Y-122329032D01*
X148317789Y-122329029D01*
X148161833Y-122173073D01*
X147981165Y-122046568D01*
X147981157Y-122046564D01*
X147781272Y-121953356D01*
X147781258Y-121953351D01*
X147568227Y-121896270D01*
X147568225Y-121896269D01*
X147568223Y-121896269D01*
X147568221Y-121896268D01*
X147568217Y-121896268D01*
X147348505Y-121877046D01*
X147348501Y-121877046D01*
X147128788Y-121896268D01*
X147128778Y-121896270D01*
X146915747Y-121953351D01*
X146915738Y-121953355D01*
X146715847Y-122046565D01*
X146715845Y-122046566D01*
X146535171Y-122173074D01*
X146379216Y-122329029D01*
X146252708Y-122509703D01*
X146252707Y-122509705D01*
X146159497Y-122709596D01*
X146159493Y-122709605D01*
X146102412Y-122922636D01*
X146102410Y-122922646D01*
X146083188Y-123142359D01*
X146083188Y-123142362D01*
X145613818Y-123142362D01*
X145613818Y-123142361D01*
X145594595Y-122922641D01*
X145537510Y-122709598D01*
X145444298Y-122509704D01*
X145317791Y-122329032D01*
X145317789Y-122329029D01*
X145161833Y-122173073D01*
X144981165Y-122046568D01*
X144981157Y-122046564D01*
X144781272Y-121953356D01*
X144781258Y-121953351D01*
X144568227Y-121896270D01*
X144568225Y-121896269D01*
X144568223Y-121896269D01*
X144568221Y-121896268D01*
X144568217Y-121896268D01*
X144348505Y-121877046D01*
X144348501Y-121877046D01*
X144128788Y-121896268D01*
X144128778Y-121896270D01*
X143915747Y-121953351D01*
X143915738Y-121953355D01*
X143715847Y-122046565D01*
X143715845Y-122046566D01*
X143535171Y-122173074D01*
X143379216Y-122329029D01*
X143252708Y-122509703D01*
X143252707Y-122509705D01*
X143159497Y-122709596D01*
X143159493Y-122709605D01*
X143102412Y-122922636D01*
X143102410Y-122922646D01*
X143083188Y-123142359D01*
X143083188Y-123142362D01*
X142613818Y-123142362D01*
X142613818Y-123142361D01*
X142594595Y-122922641D01*
X142537510Y-122709598D01*
X142444298Y-122509704D01*
X142317791Y-122329032D01*
X142317789Y-122329029D01*
X142161833Y-122173073D01*
X141981165Y-122046568D01*
X141981157Y-122046564D01*
X141781272Y-121953356D01*
X141781258Y-121953351D01*
X141568227Y-121896270D01*
X141568225Y-121896269D01*
X141568223Y-121896269D01*
X141568221Y-121896268D01*
X141568217Y-121896268D01*
X141348505Y-121877046D01*
X141348501Y-121877046D01*
X141128788Y-121896268D01*
X141128778Y-121896270D01*
X140915747Y-121953351D01*
X140915738Y-121953355D01*
X140715847Y-122046565D01*
X140715845Y-122046566D01*
X140535171Y-122173074D01*
X140379216Y-122329029D01*
X140252708Y-122509703D01*
X140252707Y-122509705D01*
X140159497Y-122709596D01*
X140159493Y-122709605D01*
X140102412Y-122922636D01*
X140102410Y-122922646D01*
X140083188Y-123142359D01*
X140083188Y-123142362D01*
X139613818Y-123142362D01*
X139613818Y-123142361D01*
X139594595Y-122922641D01*
X139537510Y-122709598D01*
X139444298Y-122509704D01*
X139317791Y-122329032D01*
X139317789Y-122329029D01*
X139161833Y-122173073D01*
X138981165Y-122046568D01*
X138981157Y-122046564D01*
X138781272Y-121953356D01*
X138781258Y-121953351D01*
X138568227Y-121896270D01*
X138568225Y-121896269D01*
X138568223Y-121896269D01*
X138568221Y-121896268D01*
X138568217Y-121896268D01*
X138348505Y-121877046D01*
X138348501Y-121877046D01*
X138128788Y-121896268D01*
X138128778Y-121896270D01*
X137915747Y-121953351D01*
X137915738Y-121953355D01*
X137715847Y-122046565D01*
X137715845Y-122046566D01*
X137535171Y-122173074D01*
X137379216Y-122329029D01*
X137252708Y-122509703D01*
X137252707Y-122509705D01*
X137159497Y-122709596D01*
X137159493Y-122709605D01*
X137102412Y-122922636D01*
X137102410Y-122922646D01*
X137083188Y-123142359D01*
X137083188Y-123142362D01*
X136613818Y-123142362D01*
X136613818Y-123142361D01*
X136594595Y-122922641D01*
X136537510Y-122709598D01*
X136444298Y-122509704D01*
X136317791Y-122329032D01*
X136317789Y-122329029D01*
X136161833Y-122173073D01*
X135981165Y-122046568D01*
X135981157Y-122046564D01*
X135781272Y-121953356D01*
X135781258Y-121953351D01*
X135568227Y-121896270D01*
X135568225Y-121896269D01*
X135568223Y-121896269D01*
X135568221Y-121896268D01*
X135568217Y-121896268D01*
X135348505Y-121877046D01*
X135348501Y-121877046D01*
X135128788Y-121896268D01*
X135128778Y-121896270D01*
X134915747Y-121953351D01*
X134915738Y-121953355D01*
X134715847Y-122046565D01*
X134715845Y-122046566D01*
X134535171Y-122173074D01*
X134379216Y-122329029D01*
X134252708Y-122509703D01*
X134252707Y-122509705D01*
X134159497Y-122709596D01*
X134159493Y-122709605D01*
X134102412Y-122922636D01*
X134102410Y-122922646D01*
X134083188Y-123142359D01*
X134083188Y-123142362D01*
X133609003Y-123142362D01*
X133609002Y-122334489D01*
X133602594Y-122274878D01*
X133580377Y-122215312D01*
X133552300Y-122140032D01*
X133552296Y-122140025D01*
X133466050Y-122024816D01*
X133466047Y-122024813D01*
X133350838Y-121938567D01*
X133350831Y-121938563D01*
X133215985Y-121888269D01*
X133215986Y-121888269D01*
X133156386Y-121881862D01*
X133156384Y-121881861D01*
X133156376Y-121881861D01*
X133156367Y-121881861D01*
X131540632Y-121881861D01*
X131540626Y-121881862D01*
X131481019Y-121888269D01*
X131346174Y-121938563D01*
X131346167Y-121938567D01*
X131230958Y-122024813D01*
X131230955Y-122024816D01*
X131144709Y-122140025D01*
X131144705Y-122140032D01*
X131094411Y-122274878D01*
X131088004Y-122334477D01*
X131088004Y-122334484D01*
X131088003Y-122334496D01*
X131088003Y-123950231D01*
X110553917Y-123950231D01*
X110507190Y-123887812D01*
X110507187Y-123887809D01*
X110392093Y-123801649D01*
X110392088Y-123801646D01*
X110260528Y-123752577D01*
X110204595Y-123710705D01*
X110180178Y-123645241D01*
X110195030Y-123576968D01*
X110216175Y-123548720D01*
X110338495Y-123426401D01*
X110473651Y-123233377D01*
X110528229Y-123189752D01*
X110575227Y-123180500D01*
X113000933Y-123180500D01*
X113067972Y-123200185D01*
X113113727Y-123252989D01*
X113124291Y-123291899D01*
X113130000Y-123347796D01*
X113130001Y-123347799D01*
X113156048Y-123426402D01*
X113185186Y-123514334D01*
X113277288Y-123663656D01*
X113401344Y-123787712D01*
X113550666Y-123879814D01*
X113717203Y-123934999D01*
X113819991Y-123945500D01*
X114720008Y-123945499D01*
X114720016Y-123945498D01*
X114720019Y-123945498D01*
X114776302Y-123939748D01*
X114822797Y-123934999D01*
X114989334Y-123879814D01*
X115138656Y-123787712D01*
X115262712Y-123663656D01*
X115354814Y-123514334D01*
X115409999Y-123347797D01*
X115420500Y-123245009D01*
X115420500Y-123245001D01*
X116219500Y-123245001D01*
X116219501Y-123245018D01*
X116230000Y-123347796D01*
X116230001Y-123347799D01*
X116256048Y-123426402D01*
X116285186Y-123514334D01*
X116377288Y-123663656D01*
X116501344Y-123787712D01*
X116650666Y-123879814D01*
X116817203Y-123934999D01*
X116919991Y-123945500D01*
X117820008Y-123945499D01*
X117820016Y-123945498D01*
X117820019Y-123945498D01*
X117876302Y-123939748D01*
X117922797Y-123934999D01*
X118089334Y-123879814D01*
X118238656Y-123787712D01*
X118362712Y-123663656D01*
X118454814Y-123514334D01*
X118509999Y-123347797D01*
X118520500Y-123245009D01*
X118520499Y-121894992D01*
X118509999Y-121792203D01*
X118454814Y-121625666D01*
X118362712Y-121476344D01*
X118238656Y-121352288D01*
X118238655Y-121352287D01*
X118194402Y-121324991D01*
X118147678Y-121273042D01*
X118135500Y-121219453D01*
X118135500Y-120710787D01*
X118135500Y-120194850D01*
X118154504Y-120128884D01*
X118235789Y-119999522D01*
X118295368Y-119829255D01*
X118297445Y-119810821D01*
X118315565Y-119650003D01*
X118315565Y-119649996D01*
X118295369Y-119470750D01*
X118295368Y-119470745D01*
X118278380Y-119422195D01*
X118235789Y-119300478D01*
X118235480Y-119299987D01*
X118168035Y-119192649D01*
X118139816Y-119147738D01*
X118012262Y-119020184D01*
X118012261Y-119020184D01*
X117859523Y-118924211D01*
X117689254Y-118864631D01*
X117689249Y-118864630D01*
X117510004Y-118844435D01*
X117509996Y-118844435D01*
X117330750Y-118864630D01*
X117330745Y-118864631D01*
X117160476Y-118924211D01*
X117007737Y-119020184D01*
X116880184Y-119147737D01*
X116784211Y-119300476D01*
X116724631Y-119470745D01*
X116724630Y-119470750D01*
X116704435Y-119649996D01*
X116704435Y-119650003D01*
X116724630Y-119829249D01*
X116724631Y-119829254D01*
X116784211Y-119999524D01*
X116865493Y-120128881D01*
X116884500Y-120194854D01*
X116884500Y-121093160D01*
X116864815Y-121160199D01*
X116812011Y-121205954D01*
X116799504Y-121210866D01*
X116650668Y-121260185D01*
X116650663Y-121260187D01*
X116501342Y-121352289D01*
X116377289Y-121476342D01*
X116285187Y-121625663D01*
X116285185Y-121625668D01*
X116265989Y-121683599D01*
X116230001Y-121792203D01*
X116230001Y-121792204D01*
X116230000Y-121792204D01*
X116219500Y-121894983D01*
X116219500Y-123245001D01*
X115420500Y-123245001D01*
X115420499Y-121894992D01*
X115409999Y-121792203D01*
X115354814Y-121625666D01*
X115262712Y-121476344D01*
X115138656Y-121352288D01*
X115010177Y-121273042D01*
X114989336Y-121260187D01*
X114989331Y-121260185D01*
X114987862Y-121259698D01*
X114822797Y-121205001D01*
X114822795Y-121205000D01*
X114720010Y-121194500D01*
X113819998Y-121194500D01*
X113819980Y-121194501D01*
X113717203Y-121205000D01*
X113717200Y-121205001D01*
X113550668Y-121260185D01*
X113550663Y-121260187D01*
X113401342Y-121352289D01*
X113277289Y-121476342D01*
X113185187Y-121625663D01*
X113185185Y-121625668D01*
X113165989Y-121683599D01*
X113130001Y-121792203D01*
X113130001Y-121792204D01*
X113130000Y-121792204D01*
X113127355Y-121818103D01*
X113100959Y-121882794D01*
X113043778Y-121922946D01*
X113003997Y-121929500D01*
X110575227Y-121929500D01*
X110508188Y-121909815D01*
X110473652Y-121876623D01*
X110338494Y-121683597D01*
X110171402Y-121516506D01*
X110171401Y-121516505D01*
X110048845Y-121430690D01*
X109985841Y-121386574D01*
X109942216Y-121331997D01*
X109935024Y-121262498D01*
X109966546Y-121200144D01*
X109985836Y-121183428D01*
X110171401Y-121053495D01*
X110338495Y-120886401D01*
X110474035Y-120692830D01*
X110573903Y-120478663D01*
X110635063Y-120250408D01*
X110655659Y-120015000D01*
X110635063Y-119779592D01*
X110588626Y-119606285D01*
X110573905Y-119551344D01*
X110573904Y-119551343D01*
X110573903Y-119551337D01*
X110474035Y-119337171D01*
X110448343Y-119300478D01*
X110338494Y-119143597D01*
X110171402Y-118976506D01*
X110171395Y-118976501D01*
X109977834Y-118840967D01*
X109977830Y-118840965D01*
X109915324Y-118811818D01*
X109763663Y-118741097D01*
X109763659Y-118741096D01*
X109763655Y-118741094D01*
X109535413Y-118679938D01*
X109535403Y-118679936D01*
X109300001Y-118659341D01*
X109299999Y-118659341D01*
X109064596Y-118679936D01*
X109064586Y-118679938D01*
X108836344Y-118741094D01*
X108836335Y-118741098D01*
X108622171Y-118840964D01*
X108622169Y-118840965D01*
X108428597Y-118976505D01*
X108261505Y-119143597D01*
X108125965Y-119337169D01*
X108125964Y-119337171D01*
X108026098Y-119551335D01*
X108026094Y-119551344D01*
X107964938Y-119779586D01*
X107964936Y-119779596D01*
X107944341Y-120014999D01*
X107944341Y-120015000D01*
X107964936Y-120250403D01*
X107964938Y-120250413D01*
X108026094Y-120478655D01*
X108026096Y-120478659D01*
X108026097Y-120478663D01*
X108090774Y-120617363D01*
X108125965Y-120692830D01*
X108125967Y-120692834D01*
X108261501Y-120886395D01*
X108261506Y-120886402D01*
X108428597Y-121053493D01*
X108428603Y-121053498D01*
X108614158Y-121183425D01*
X108657783Y-121238002D01*
X108664977Y-121307500D01*
X108633454Y-121369855D01*
X108614158Y-121386575D01*
X108428597Y-121516505D01*
X108261505Y-121683597D01*
X108125965Y-121877169D01*
X108125964Y-121877171D01*
X108026098Y-122091335D01*
X108026094Y-122091344D01*
X107964938Y-122319586D01*
X107964936Y-122319596D01*
X107944341Y-122554999D01*
X107944341Y-122555000D01*
X98760500Y-122555000D01*
X98760500Y-114010000D01*
X101594341Y-114010000D01*
X101614936Y-114245403D01*
X101614938Y-114245413D01*
X101676094Y-114473655D01*
X101676096Y-114473659D01*
X101676097Y-114473663D01*
X101736587Y-114603383D01*
X101775965Y-114687830D01*
X101775967Y-114687834D01*
X101854603Y-114800137D01*
X101911505Y-114881401D01*
X102078599Y-115048495D01*
X102159032Y-115104815D01*
X102272165Y-115184032D01*
X102272167Y-115184033D01*
X102272170Y-115184035D01*
X102486337Y-115283903D01*
X102714592Y-115345063D01*
X102902918Y-115361539D01*
X102949999Y-115365659D01*
X102950000Y-115365659D01*
X102950001Y-115365659D01*
X102989234Y-115362226D01*
X103185408Y-115345063D01*
X103413663Y-115283903D01*
X103627830Y-115184035D01*
X103821401Y-115048495D01*
X103988495Y-114881401D01*
X104124035Y-114687830D01*
X104223903Y-114473663D01*
X104285063Y-114245408D01*
X104305659Y-114010000D01*
X104305659Y-114009999D01*
X104305659Y-114009612D01*
X104305707Y-114009446D01*
X104306131Y-114004606D01*
X104307103Y-114004691D01*
X104325344Y-113942573D01*
X104378148Y-113896818D01*
X104447306Y-113886874D01*
X104510862Y-113915899D01*
X104517340Y-113921931D01*
X106949197Y-116353788D01*
X106959022Y-116366051D01*
X106959243Y-116365869D01*
X106964211Y-116371874D01*
X107013932Y-116418566D01*
X107015332Y-116419923D01*
X107035523Y-116440115D01*
X107035527Y-116440118D01*
X107035529Y-116440120D01*
X107041011Y-116444373D01*
X107045443Y-116448157D01*
X107079418Y-116480062D01*
X107096976Y-116489714D01*
X107113233Y-116500393D01*
X107129064Y-116512673D01*
X107148737Y-116521186D01*
X107171833Y-116531182D01*
X107177077Y-116533750D01*
X107217908Y-116556197D01*
X107230523Y-116559435D01*
X107237305Y-116561177D01*
X107255719Y-116567481D01*
X107274104Y-116575438D01*
X107320157Y-116582732D01*
X107325826Y-116583906D01*
X107370981Y-116595500D01*
X107391016Y-116595500D01*
X107410413Y-116597026D01*
X107430196Y-116600160D01*
X107476583Y-116595775D01*
X107482422Y-116595500D01*
X134711412Y-116595500D01*
X134778451Y-116615185D01*
X134824206Y-116667989D01*
X134834150Y-116737147D01*
X134805125Y-116800703D01*
X134799093Y-116807181D01*
X132730665Y-118875607D01*
X132669342Y-118909092D01*
X132610893Y-118907701D01*
X132568234Y-118896271D01*
X132568217Y-118896268D01*
X132348505Y-118877046D01*
X132348501Y-118877046D01*
X132128788Y-118896268D01*
X132128778Y-118896270D01*
X131915747Y-118953351D01*
X131915740Y-118953353D01*
X131915740Y-118953354D01*
X131904882Y-118958417D01*
X131715847Y-119046565D01*
X131715845Y-119046566D01*
X131535171Y-119173074D01*
X131379216Y-119329029D01*
X131252708Y-119509703D01*
X131252707Y-119509705D01*
X131159497Y-119709596D01*
X131159493Y-119709605D01*
X131102412Y-119922636D01*
X131102410Y-119922646D01*
X131083188Y-120142359D01*
X131083188Y-120142362D01*
X131102410Y-120362075D01*
X131102412Y-120362085D01*
X131159493Y-120575116D01*
X131159498Y-120575130D01*
X131252706Y-120775015D01*
X131252710Y-120775023D01*
X131379215Y-120955691D01*
X131535172Y-121111648D01*
X131715840Y-121238153D01*
X131715842Y-121238154D01*
X131715845Y-121238156D01*
X131806430Y-121280396D01*
X131915733Y-121331365D01*
X131915735Y-121331365D01*
X131915740Y-121331368D01*
X132128783Y-121388453D01*
X132285725Y-121402183D01*
X132348501Y-121407676D01*
X132348503Y-121407676D01*
X132348505Y-121407676D01*
X132403432Y-121402870D01*
X132568223Y-121388453D01*
X132781266Y-121331368D01*
X132981161Y-121238156D01*
X133161832Y-121111649D01*
X133317791Y-120955690D01*
X133444298Y-120775019D01*
X133537510Y-120575124D01*
X133594595Y-120362081D01*
X133613818Y-120142361D01*
X133594595Y-119922641D01*
X133594479Y-119922208D01*
X133583162Y-119879973D01*
X133584823Y-119810123D01*
X133615253Y-119760199D01*
X134154304Y-119221148D01*
X134215625Y-119187665D01*
X134285317Y-119192649D01*
X134341250Y-119234521D01*
X134365667Y-119299985D01*
X134350815Y-119368258D01*
X134343559Y-119379953D01*
X134252707Y-119509705D01*
X134159497Y-119709596D01*
X134159493Y-119709605D01*
X134102412Y-119922636D01*
X134102410Y-119922646D01*
X134083188Y-120142359D01*
X134083188Y-120142362D01*
X134102410Y-120362075D01*
X134102412Y-120362085D01*
X134159493Y-120575116D01*
X134159498Y-120575130D01*
X134252706Y-120775015D01*
X134252710Y-120775023D01*
X134379215Y-120955691D01*
X134535172Y-121111648D01*
X134715840Y-121238153D01*
X134715842Y-121238154D01*
X134715845Y-121238156D01*
X134806430Y-121280396D01*
X134915733Y-121331365D01*
X134915735Y-121331365D01*
X134915740Y-121331368D01*
X135128783Y-121388453D01*
X135285725Y-121402183D01*
X135348501Y-121407676D01*
X135348503Y-121407676D01*
X135348505Y-121407676D01*
X135403432Y-121402870D01*
X135568223Y-121388453D01*
X135781266Y-121331368D01*
X135981161Y-121238156D01*
X136161832Y-121111649D01*
X136317791Y-120955690D01*
X136444298Y-120775019D01*
X136537510Y-120575124D01*
X136594595Y-120362081D01*
X136613818Y-120142361D01*
X136594595Y-119922641D01*
X136594479Y-119922208D01*
X136583162Y-119879973D01*
X136584823Y-119810123D01*
X136615253Y-119760199D01*
X137154304Y-119221148D01*
X137215625Y-119187665D01*
X137285317Y-119192649D01*
X137341250Y-119234521D01*
X137365667Y-119299985D01*
X137350815Y-119368258D01*
X137343559Y-119379953D01*
X137252707Y-119509705D01*
X137159497Y-119709596D01*
X137159493Y-119709605D01*
X137102412Y-119922636D01*
X137102410Y-119922646D01*
X137083188Y-120142359D01*
X137083188Y-120142362D01*
X137102410Y-120362075D01*
X137102412Y-120362085D01*
X137159493Y-120575116D01*
X137159498Y-120575130D01*
X137252706Y-120775015D01*
X137252710Y-120775023D01*
X137379215Y-120955691D01*
X137535172Y-121111648D01*
X137715840Y-121238153D01*
X137715842Y-121238154D01*
X137715845Y-121238156D01*
X137806430Y-121280396D01*
X137915733Y-121331365D01*
X137915735Y-121331365D01*
X137915740Y-121331368D01*
X138128783Y-121388453D01*
X138285725Y-121402183D01*
X138348501Y-121407676D01*
X138348503Y-121407676D01*
X138348505Y-121407676D01*
X138403432Y-121402870D01*
X138568223Y-121388453D01*
X138781266Y-121331368D01*
X138981161Y-121238156D01*
X139161832Y-121111649D01*
X139317791Y-120955690D01*
X139444298Y-120775019D01*
X139537510Y-120575124D01*
X139594595Y-120362081D01*
X139613818Y-120142361D01*
X139594595Y-119922641D01*
X139594479Y-119922208D01*
X139583162Y-119879973D01*
X139584823Y-119810123D01*
X139615253Y-119760199D01*
X140154303Y-119221150D01*
X140215625Y-119187666D01*
X140285317Y-119192650D01*
X140341250Y-119234522D01*
X140365667Y-119299986D01*
X140350815Y-119368259D01*
X140343558Y-119379955D01*
X140252708Y-119509703D01*
X140252707Y-119509705D01*
X140159497Y-119709596D01*
X140159493Y-119709605D01*
X140102412Y-119922636D01*
X140102410Y-119922646D01*
X140083188Y-120142359D01*
X140083188Y-120142362D01*
X140102410Y-120362075D01*
X140102412Y-120362085D01*
X140159493Y-120575116D01*
X140159498Y-120575130D01*
X140252706Y-120775015D01*
X140252710Y-120775023D01*
X140379215Y-120955691D01*
X140535172Y-121111648D01*
X140715840Y-121238153D01*
X140715842Y-121238154D01*
X140715845Y-121238156D01*
X140806430Y-121280396D01*
X140915733Y-121331365D01*
X140915735Y-121331365D01*
X140915740Y-121331368D01*
X141128783Y-121388453D01*
X141285725Y-121402183D01*
X141348501Y-121407676D01*
X141348503Y-121407676D01*
X141348505Y-121407676D01*
X141403432Y-121402870D01*
X141568223Y-121388453D01*
X141781266Y-121331368D01*
X141981161Y-121238156D01*
X142161832Y-121111649D01*
X142317791Y-120955690D01*
X142444298Y-120775019D01*
X142537510Y-120575124D01*
X142594595Y-120362081D01*
X142613818Y-120142361D01*
X142594595Y-119922641D01*
X142594479Y-119922208D01*
X142583162Y-119879973D01*
X142584823Y-119810123D01*
X142615253Y-119760199D01*
X143154303Y-119221150D01*
X143215625Y-119187666D01*
X143285317Y-119192650D01*
X143341250Y-119234522D01*
X143365667Y-119299986D01*
X143350815Y-119368259D01*
X143343558Y-119379955D01*
X143252708Y-119509703D01*
X143252707Y-119509705D01*
X143159497Y-119709596D01*
X143159493Y-119709605D01*
X143102412Y-119922636D01*
X143102410Y-119922646D01*
X143083188Y-120142359D01*
X143083188Y-120142362D01*
X143102410Y-120362075D01*
X143102412Y-120362085D01*
X143159493Y-120575116D01*
X143159498Y-120575130D01*
X143252706Y-120775015D01*
X143252710Y-120775023D01*
X143379215Y-120955691D01*
X143535172Y-121111648D01*
X143715840Y-121238153D01*
X143715842Y-121238154D01*
X143715845Y-121238156D01*
X143806430Y-121280396D01*
X143915733Y-121331365D01*
X143915735Y-121331365D01*
X143915740Y-121331368D01*
X144128783Y-121388453D01*
X144285725Y-121402183D01*
X144348501Y-121407676D01*
X144348503Y-121407676D01*
X144348505Y-121407676D01*
X144403432Y-121402870D01*
X144568223Y-121388453D01*
X144781266Y-121331368D01*
X144981161Y-121238156D01*
X145161832Y-121111649D01*
X145317791Y-120955690D01*
X145444298Y-120775019D01*
X145537510Y-120575124D01*
X145594595Y-120362081D01*
X145613818Y-120142361D01*
X145594595Y-119922641D01*
X145594479Y-119922208D01*
X145583162Y-119879973D01*
X145584823Y-119810123D01*
X145615253Y-119760199D01*
X146154302Y-119221151D01*
X146215624Y-119187667D01*
X146285316Y-119192651D01*
X146341249Y-119234523D01*
X146365666Y-119299987D01*
X146350814Y-119368260D01*
X146343558Y-119379955D01*
X146252707Y-119509705D01*
X146159497Y-119709596D01*
X146159493Y-119709605D01*
X146102412Y-119922636D01*
X146102410Y-119922646D01*
X146083188Y-120142359D01*
X146083188Y-120142362D01*
X146102410Y-120362075D01*
X146102412Y-120362085D01*
X146159493Y-120575116D01*
X146159498Y-120575130D01*
X146252706Y-120775015D01*
X146252710Y-120775023D01*
X146379215Y-120955691D01*
X146535172Y-121111648D01*
X146715840Y-121238153D01*
X146715842Y-121238154D01*
X146715845Y-121238156D01*
X146806430Y-121280396D01*
X146915733Y-121331365D01*
X146915735Y-121331365D01*
X146915740Y-121331368D01*
X147128783Y-121388453D01*
X147285725Y-121402183D01*
X147348501Y-121407676D01*
X147348503Y-121407676D01*
X147348505Y-121407676D01*
X147403432Y-121402870D01*
X147568223Y-121388453D01*
X147781266Y-121331368D01*
X147981161Y-121238156D01*
X148161832Y-121111649D01*
X148317791Y-120955690D01*
X148444298Y-120775019D01*
X148537510Y-120575124D01*
X148594595Y-120362081D01*
X148613818Y-120142361D01*
X148594595Y-119922641D01*
X148594479Y-119922208D01*
X148583162Y-119879973D01*
X148584823Y-119810123D01*
X148615253Y-119760199D01*
X149154302Y-119221151D01*
X149215623Y-119187668D01*
X149285315Y-119192652D01*
X149341248Y-119234524D01*
X149365665Y-119299988D01*
X149350813Y-119368261D01*
X149343557Y-119379956D01*
X149252707Y-119509705D01*
X149159497Y-119709596D01*
X149159493Y-119709605D01*
X149102412Y-119922636D01*
X149102410Y-119922646D01*
X149083188Y-120142359D01*
X149083188Y-120142362D01*
X149102410Y-120362075D01*
X149102412Y-120362085D01*
X149159493Y-120575116D01*
X149159498Y-120575130D01*
X149252706Y-120775015D01*
X149252710Y-120775023D01*
X149379215Y-120955691D01*
X149535172Y-121111648D01*
X149715840Y-121238153D01*
X149715842Y-121238154D01*
X149715845Y-121238156D01*
X149806430Y-121280396D01*
X149915733Y-121331365D01*
X149915735Y-121331365D01*
X149915740Y-121331368D01*
X150128783Y-121388453D01*
X150285725Y-121402183D01*
X150348501Y-121407676D01*
X150348503Y-121407676D01*
X150348505Y-121407676D01*
X150403432Y-121402870D01*
X150568223Y-121388453D01*
X150781266Y-121331368D01*
X150981161Y-121238156D01*
X151161832Y-121111649D01*
X151317791Y-120955690D01*
X151444298Y-120775019D01*
X151537510Y-120575124D01*
X151594595Y-120362081D01*
X151613818Y-120142361D01*
X151594595Y-119922641D01*
X151583162Y-119879973D01*
X151584823Y-119810125D01*
X151615257Y-119760196D01*
X151656277Y-119719178D01*
X151717601Y-119685694D01*
X151743956Y-119682861D01*
X152005060Y-119682861D01*
X152072099Y-119702546D01*
X152117854Y-119755350D01*
X152127798Y-119824508D01*
X152124835Y-119838955D01*
X152102411Y-119922639D01*
X152102410Y-119922646D01*
X152083188Y-120142359D01*
X152083188Y-120142362D01*
X152102410Y-120362075D01*
X152102412Y-120362085D01*
X152159493Y-120575116D01*
X152159498Y-120575130D01*
X152252706Y-120775015D01*
X152252710Y-120775023D01*
X152379215Y-120955691D01*
X152535172Y-121111648D01*
X152715840Y-121238153D01*
X152715842Y-121238154D01*
X152715845Y-121238156D01*
X152806430Y-121280396D01*
X152915733Y-121331365D01*
X152915735Y-121331365D01*
X152915740Y-121331368D01*
X153128783Y-121388453D01*
X153285725Y-121402183D01*
X153348501Y-121407676D01*
X153348503Y-121407676D01*
X153348505Y-121407676D01*
X153403432Y-121402870D01*
X153568223Y-121388453D01*
X153781266Y-121331368D01*
X153981161Y-121238156D01*
X154161832Y-121111649D01*
X154317791Y-120955690D01*
X154414058Y-120818205D01*
X154468635Y-120774581D01*
X154511740Y-120765390D01*
X154521932Y-120765070D01*
X154541174Y-120759478D01*
X154560217Y-120755535D01*
X154580097Y-120753025D01*
X154623427Y-120735868D01*
X154628951Y-120733978D01*
X154632701Y-120732888D01*
X154673695Y-120720979D01*
X154690934Y-120710783D01*
X154708408Y-120702223D01*
X154727032Y-120694849D01*
X154727032Y-120694848D01*
X154727037Y-120694847D01*
X154764754Y-120667443D01*
X154769610Y-120664253D01*
X154809725Y-120640531D01*
X154823894Y-120626360D01*
X154838684Y-120613729D01*
X154854892Y-120601955D01*
X154884604Y-120566037D01*
X154888517Y-120561737D01*
X158313786Y-117136468D01*
X158326048Y-117126646D01*
X158325865Y-117126425D01*
X158331873Y-117121454D01*
X158331877Y-117121452D01*
X158378649Y-117071643D01*
X158379891Y-117070363D01*
X158400120Y-117050136D01*
X158404373Y-117044652D01*
X158408150Y-117040229D01*
X158440062Y-117006248D01*
X158449714Y-116988689D01*
X158460389Y-116972438D01*
X158472674Y-116956602D01*
X158491186Y-116913818D01*
X158493742Y-116908601D01*
X158516197Y-116867758D01*
X158521180Y-116848346D01*
X158527477Y-116829957D01*
X158535438Y-116811561D01*
X158542729Y-116765519D01*
X158543908Y-116759828D01*
X158555500Y-116714685D01*
X158555500Y-116714679D01*
X158556478Y-116706943D01*
X158558846Y-116707242D01*
X158575185Y-116651601D01*
X158627989Y-116605846D01*
X158697147Y-116595902D01*
X158760703Y-116624927D01*
X158767181Y-116630959D01*
X159640006Y-117503784D01*
X159649831Y-117516048D01*
X159650052Y-117515866D01*
X159655022Y-117521874D01*
X159704761Y-117568582D01*
X159706128Y-117569906D01*
X159726342Y-117590120D01*
X159731816Y-117594366D01*
X159736254Y-117598156D01*
X159770230Y-117630062D01*
X159770234Y-117630064D01*
X159787785Y-117639713D01*
X159804043Y-117650392D01*
X159819876Y-117662674D01*
X159841827Y-117672172D01*
X159862649Y-117681183D01*
X159867893Y-117683752D01*
X159908720Y-117706197D01*
X159928124Y-117711179D01*
X159946522Y-117717478D01*
X159964917Y-117725438D01*
X160010941Y-117732726D01*
X160016644Y-117733907D01*
X160061793Y-117745500D01*
X160081828Y-117745500D01*
X160101225Y-117747026D01*
X160121008Y-117750160D01*
X160167395Y-117745775D01*
X160173234Y-117745500D01*
X166386698Y-117745500D01*
X166453737Y-117765185D01*
X166474379Y-117781819D01*
X168494997Y-119802437D01*
X168528482Y-119863760D01*
X168527091Y-119922211D01*
X168515659Y-119964874D01*
X168515657Y-119964885D01*
X168496435Y-120184598D01*
X168496435Y-120184601D01*
X168515657Y-120404314D01*
X168515659Y-120404324D01*
X168572740Y-120617355D01*
X168572745Y-120617369D01*
X168665953Y-120817254D01*
X168665957Y-120817262D01*
X168792462Y-120997930D01*
X168948419Y-121153887D01*
X169129087Y-121280392D01*
X169129089Y-121280393D01*
X169129092Y-121280395D01*
X169224729Y-121324991D01*
X169328980Y-121373604D01*
X169328982Y-121373604D01*
X169328987Y-121373607D01*
X169542030Y-121430692D01*
X169698972Y-121444422D01*
X169761748Y-121449915D01*
X169761750Y-121449915D01*
X169761752Y-121449915D01*
X169816680Y-121445109D01*
X169981470Y-121430692D01*
X170194513Y-121373607D01*
X170394408Y-121280395D01*
X170575079Y-121153888D01*
X170731038Y-120997929D01*
X170857545Y-120817258D01*
X170950757Y-120617363D01*
X171007842Y-120404320D01*
X171027065Y-120184600D01*
X171007842Y-119964880D01*
X170950757Y-119751837D01*
X170857545Y-119551943D01*
X170766694Y-119422194D01*
X170744368Y-119355989D01*
X170761378Y-119288222D01*
X170812327Y-119240409D01*
X170881036Y-119227731D01*
X170945693Y-119254213D01*
X170955951Y-119263391D01*
X171494997Y-119802437D01*
X171528482Y-119863760D01*
X171527091Y-119922211D01*
X171515659Y-119964874D01*
X171515657Y-119964885D01*
X171496435Y-120184598D01*
X171496435Y-120184601D01*
X171515657Y-120404314D01*
X171515659Y-120404324D01*
X171572740Y-120617355D01*
X171572745Y-120617369D01*
X171665953Y-120817254D01*
X171665957Y-120817262D01*
X171792462Y-120997930D01*
X171948419Y-121153887D01*
X172129087Y-121280392D01*
X172129089Y-121280393D01*
X172129092Y-121280395D01*
X172224729Y-121324991D01*
X172328980Y-121373604D01*
X172328982Y-121373604D01*
X172328987Y-121373607D01*
X172542030Y-121430692D01*
X172698972Y-121444422D01*
X172761748Y-121449915D01*
X172761750Y-121449915D01*
X172761752Y-121449915D01*
X172816679Y-121445109D01*
X172981470Y-121430692D01*
X173194513Y-121373607D01*
X173394408Y-121280395D01*
X173575079Y-121153888D01*
X173731038Y-120997929D01*
X173857545Y-120817258D01*
X173950757Y-120617363D01*
X174007842Y-120404320D01*
X174027065Y-120184600D01*
X174007842Y-119964880D01*
X173950757Y-119751837D01*
X173857545Y-119551943D01*
X173766694Y-119422194D01*
X173744368Y-119355989D01*
X173761378Y-119288222D01*
X173812327Y-119240409D01*
X173881036Y-119227731D01*
X173945693Y-119254213D01*
X173955951Y-119263391D01*
X174494997Y-119802437D01*
X174528482Y-119863760D01*
X174527091Y-119922211D01*
X174515659Y-119964874D01*
X174515657Y-119964885D01*
X174496435Y-120184598D01*
X174496435Y-120184601D01*
X174515657Y-120404314D01*
X174515659Y-120404324D01*
X174572740Y-120617355D01*
X174572745Y-120617369D01*
X174665953Y-120817254D01*
X174665957Y-120817262D01*
X174792462Y-120997930D01*
X174948419Y-121153887D01*
X175129087Y-121280392D01*
X175129089Y-121280393D01*
X175129092Y-121280395D01*
X175224729Y-121324991D01*
X175328980Y-121373604D01*
X175328982Y-121373604D01*
X175328987Y-121373607D01*
X175542030Y-121430692D01*
X175698972Y-121444422D01*
X175761748Y-121449915D01*
X175761750Y-121449915D01*
X175761752Y-121449915D01*
X175816680Y-121445109D01*
X175981470Y-121430692D01*
X176194513Y-121373607D01*
X176394408Y-121280395D01*
X176575079Y-121153888D01*
X176731038Y-120997929D01*
X176857545Y-120817258D01*
X176950757Y-120617363D01*
X177007842Y-120404320D01*
X177027065Y-120184600D01*
X177007842Y-119964880D01*
X176950757Y-119751837D01*
X176857545Y-119551943D01*
X176766694Y-119422194D01*
X176744368Y-119355989D01*
X176761378Y-119288222D01*
X176812327Y-119240409D01*
X176881036Y-119227731D01*
X176945693Y-119254213D01*
X176955951Y-119263391D01*
X177494997Y-119802437D01*
X177528482Y-119863760D01*
X177527091Y-119922211D01*
X177515659Y-119964874D01*
X177515657Y-119964885D01*
X177496435Y-120184598D01*
X177496435Y-120184601D01*
X177515657Y-120404314D01*
X177515659Y-120404324D01*
X177572740Y-120617355D01*
X177572745Y-120617369D01*
X177665953Y-120817254D01*
X177665957Y-120817262D01*
X177792462Y-120997930D01*
X177948419Y-121153887D01*
X178129087Y-121280392D01*
X178129089Y-121280393D01*
X178129092Y-121280395D01*
X178224729Y-121324991D01*
X178328980Y-121373604D01*
X178328982Y-121373604D01*
X178328987Y-121373607D01*
X178542030Y-121430692D01*
X178698972Y-121444422D01*
X178761748Y-121449915D01*
X178761750Y-121449915D01*
X178761752Y-121449915D01*
X178816679Y-121445109D01*
X178981470Y-121430692D01*
X179194513Y-121373607D01*
X179394408Y-121280395D01*
X179575079Y-121153888D01*
X179731038Y-120997929D01*
X179857545Y-120817258D01*
X179950757Y-120617363D01*
X180007842Y-120404320D01*
X180027065Y-120184600D01*
X180007842Y-119964880D01*
X179950757Y-119751837D01*
X179857545Y-119551943D01*
X179766696Y-119422197D01*
X179744370Y-119355991D01*
X179761382Y-119288224D01*
X179812330Y-119240412D01*
X179881040Y-119227734D01*
X179945696Y-119254216D01*
X179955945Y-119263386D01*
X180243894Y-119551335D01*
X180494996Y-119802437D01*
X180528481Y-119863760D01*
X180527091Y-119922208D01*
X180515659Y-119964876D01*
X180515657Y-119964886D01*
X180496435Y-120184598D01*
X180496435Y-120184601D01*
X180515657Y-120404314D01*
X180515659Y-120404324D01*
X180572740Y-120617355D01*
X180572745Y-120617369D01*
X180665953Y-120817254D01*
X180665957Y-120817262D01*
X180792462Y-120997930D01*
X180948419Y-121153887D01*
X181129087Y-121280392D01*
X181129089Y-121280393D01*
X181129092Y-121280395D01*
X181224729Y-121324991D01*
X181328980Y-121373604D01*
X181328982Y-121373604D01*
X181328987Y-121373607D01*
X181542030Y-121430692D01*
X181698972Y-121444422D01*
X181761748Y-121449915D01*
X181761750Y-121449915D01*
X181761752Y-121449915D01*
X181816680Y-121445109D01*
X181981470Y-121430692D01*
X182194513Y-121373607D01*
X182394408Y-121280395D01*
X182575079Y-121153888D01*
X182731038Y-120997929D01*
X182857545Y-120817258D01*
X182950757Y-120617363D01*
X183007842Y-120404320D01*
X183027065Y-120184600D01*
X183007842Y-119964880D01*
X182950757Y-119751837D01*
X182857545Y-119551943D01*
X182766694Y-119422194D01*
X182744368Y-119355989D01*
X182761378Y-119288222D01*
X182812327Y-119240409D01*
X182881036Y-119227731D01*
X182945693Y-119254213D01*
X182955951Y-119263391D01*
X183494997Y-119802437D01*
X183528482Y-119863760D01*
X183527091Y-119922211D01*
X183515659Y-119964874D01*
X183515657Y-119964885D01*
X183496435Y-120184598D01*
X183496435Y-120184601D01*
X183515657Y-120404314D01*
X183515659Y-120404324D01*
X183572740Y-120617355D01*
X183572745Y-120617369D01*
X183665953Y-120817254D01*
X183665957Y-120817262D01*
X183792462Y-120997930D01*
X183948419Y-121153887D01*
X184129087Y-121280392D01*
X184129089Y-121280393D01*
X184129092Y-121280395D01*
X184224729Y-121324991D01*
X184328980Y-121373604D01*
X184328982Y-121373604D01*
X184328987Y-121373607D01*
X184542030Y-121430692D01*
X184698972Y-121444422D01*
X184761748Y-121449915D01*
X184761750Y-121449915D01*
X184761752Y-121449915D01*
X184816679Y-121445109D01*
X184981470Y-121430692D01*
X185194513Y-121373607D01*
X185394408Y-121280395D01*
X185575079Y-121153888D01*
X185731038Y-120997929D01*
X185857545Y-120817258D01*
X185950757Y-120617363D01*
X186007842Y-120404320D01*
X186027065Y-120184600D01*
X186007842Y-119964880D01*
X185950757Y-119751837D01*
X185857545Y-119551943D01*
X185766698Y-119422199D01*
X185744371Y-119355993D01*
X185761381Y-119288225D01*
X185812330Y-119240413D01*
X185881040Y-119227735D01*
X185945696Y-119254217D01*
X185955954Y-119263395D01*
X186494996Y-119802437D01*
X186528481Y-119863760D01*
X186527091Y-119922208D01*
X186515659Y-119964876D01*
X186515657Y-119964886D01*
X186496435Y-120184598D01*
X186496435Y-120184601D01*
X186515657Y-120404314D01*
X186515659Y-120404324D01*
X186572740Y-120617355D01*
X186572745Y-120617369D01*
X186665953Y-120817254D01*
X186665957Y-120817262D01*
X186792462Y-120997930D01*
X186948419Y-121153887D01*
X187129087Y-121280392D01*
X187129089Y-121280393D01*
X187129092Y-121280395D01*
X187224729Y-121324991D01*
X187328980Y-121373604D01*
X187328982Y-121373604D01*
X187328987Y-121373607D01*
X187542030Y-121430692D01*
X187698972Y-121444422D01*
X187761748Y-121449915D01*
X187761750Y-121449915D01*
X187761752Y-121449915D01*
X187816680Y-121445109D01*
X187981470Y-121430692D01*
X188194513Y-121373607D01*
X188394408Y-121280395D01*
X188575079Y-121153888D01*
X188731038Y-120997929D01*
X188857545Y-120817258D01*
X188950757Y-120617363D01*
X189007842Y-120404320D01*
X189027065Y-120184600D01*
X189007842Y-119964880D01*
X188950757Y-119751837D01*
X188857545Y-119551943D01*
X188766698Y-119422199D01*
X188744371Y-119355993D01*
X188761381Y-119288225D01*
X188812330Y-119240413D01*
X188881040Y-119227735D01*
X188945696Y-119254217D01*
X188955954Y-119263395D01*
X189494996Y-119802437D01*
X189528481Y-119863760D01*
X189527091Y-119922208D01*
X189515659Y-119964876D01*
X189515657Y-119964886D01*
X189496435Y-120184598D01*
X189496435Y-120184601D01*
X189515657Y-120404314D01*
X189515659Y-120404324D01*
X189572740Y-120617355D01*
X189572745Y-120617369D01*
X189665953Y-120817254D01*
X189665957Y-120817262D01*
X189792462Y-120997930D01*
X189948419Y-121153887D01*
X190129087Y-121280392D01*
X190129089Y-121280393D01*
X190129092Y-121280395D01*
X190224729Y-121324991D01*
X190328980Y-121373604D01*
X190328982Y-121373604D01*
X190328987Y-121373607D01*
X190542030Y-121430692D01*
X190698972Y-121444422D01*
X190761748Y-121449915D01*
X190761750Y-121449915D01*
X190761752Y-121449915D01*
X190816679Y-121445109D01*
X190981470Y-121430692D01*
X191194513Y-121373607D01*
X191394408Y-121280395D01*
X191575079Y-121153888D01*
X191731038Y-120997929D01*
X191857545Y-120817258D01*
X191950757Y-120617363D01*
X192007842Y-120404320D01*
X192027065Y-120184600D01*
X192007842Y-119964880D01*
X191950757Y-119751837D01*
X191857545Y-119551943D01*
X191731038Y-119371271D01*
X191731036Y-119371268D01*
X191575080Y-119215312D01*
X191394412Y-119088807D01*
X191394404Y-119088803D01*
X191194519Y-118995595D01*
X191194505Y-118995590D01*
X190981474Y-118938509D01*
X190981472Y-118938508D01*
X190981470Y-118938508D01*
X190981468Y-118938507D01*
X190981464Y-118938507D01*
X190761752Y-118919285D01*
X190761748Y-118919285D01*
X190542036Y-118938507D01*
X190542031Y-118938507D01*
X190542030Y-118938508D01*
X190542027Y-118938508D01*
X190542026Y-118938509D01*
X190499358Y-118949941D01*
X190429508Y-118948276D01*
X190379587Y-118917846D01*
X181907953Y-110446212D01*
X181898130Y-110433950D01*
X181897909Y-110434134D01*
X181892936Y-110428122D01*
X181843216Y-110381432D01*
X181841816Y-110380075D01*
X181821626Y-110359884D01*
X181816136Y-110355625D01*
X181811711Y-110351847D01*
X181777732Y-110319938D01*
X181777730Y-110319936D01*
X181777727Y-110319935D01*
X181760179Y-110310288D01*
X181743913Y-110299604D01*
X181728083Y-110287325D01*
X181685318Y-110268818D01*
X181680072Y-110266248D01*
X181639243Y-110243803D01*
X181639242Y-110243802D01*
X181619843Y-110238822D01*
X181601431Y-110232518D01*
X181583048Y-110224562D01*
X181583042Y-110224560D01*
X181537024Y-110217272D01*
X181531302Y-110216087D01*
X181486171Y-110204500D01*
X181486169Y-110204500D01*
X181466134Y-110204500D01*
X181446736Y-110202973D01*
X181439312Y-110201797D01*
X181426955Y-110199840D01*
X181426954Y-110199840D01*
X181380566Y-110204225D01*
X181374728Y-110204500D01*
X162775164Y-110204500D01*
X162708125Y-110184815D01*
X162662370Y-110132011D01*
X162651899Y-110093978D01*
X162651844Y-110093475D01*
X162651820Y-110066747D01*
X162656000Y-110027873D01*
X162655999Y-109632128D01*
X162655998Y-109632111D01*
X162651820Y-109593253D01*
X162651820Y-109566747D01*
X162656000Y-109527873D01*
X162655999Y-109132128D01*
X162655998Y-109132111D01*
X162651820Y-109093253D01*
X162651834Y-109066607D01*
X162651888Y-109066106D01*
X162678699Y-109001585D01*
X162736137Y-108961802D01*
X162775163Y-108955500D01*
X181278018Y-108955500D01*
X181293638Y-108957224D01*
X181293665Y-108956939D01*
X181301427Y-108957673D01*
X181301427Y-108957672D01*
X181301428Y-108957673D01*
X181304760Y-108957568D01*
X181369608Y-108955531D01*
X181371555Y-108955500D01*
X181400108Y-108955500D01*
X181400111Y-108955500D01*
X181406989Y-108954630D01*
X181412802Y-108954172D01*
X181459388Y-108952709D01*
X181478630Y-108947117D01*
X181497673Y-108943174D01*
X181517553Y-108940664D01*
X181560883Y-108923507D01*
X181566407Y-108921617D01*
X181570157Y-108920527D01*
X181611151Y-108908618D01*
X181628390Y-108898422D01*
X181645864Y-108889862D01*
X181664488Y-108882488D01*
X181664488Y-108882487D01*
X181664493Y-108882486D01*
X181702210Y-108855082D01*
X181707066Y-108851892D01*
X181747181Y-108828170D01*
X181761350Y-108813999D01*
X181776140Y-108801368D01*
X181792348Y-108789594D01*
X181822060Y-108753676D01*
X181825973Y-108749376D01*
X190379589Y-100195761D01*
X190440910Y-100162278D01*
X190499361Y-100163669D01*
X190542030Y-100175103D01*
X190698972Y-100188833D01*
X190761748Y-100194326D01*
X190761750Y-100194326D01*
X190761752Y-100194326D01*
X190816679Y-100189520D01*
X190981470Y-100175103D01*
X191194513Y-100118018D01*
X191394408Y-100024806D01*
X191575079Y-99898299D01*
X191731038Y-99742340D01*
X191857545Y-99561669D01*
X191950757Y-99361774D01*
X192007842Y-99148731D01*
X192027065Y-98929011D01*
X192007842Y-98709291D01*
X191950757Y-98496248D01*
X191857545Y-98296354D01*
X191731038Y-98115682D01*
X191731036Y-98115679D01*
X191575080Y-97959723D01*
X191394412Y-97833218D01*
X191394404Y-97833214D01*
X191194519Y-97740006D01*
X191194505Y-97740001D01*
X190981474Y-97682920D01*
X190981472Y-97682919D01*
X190981470Y-97682919D01*
X190981468Y-97682918D01*
X190981464Y-97682918D01*
X190761752Y-97663696D01*
X190761748Y-97663696D01*
X190542035Y-97682918D01*
X190542025Y-97682920D01*
X190328994Y-97740001D01*
X190328985Y-97740005D01*
X190129094Y-97833215D01*
X190129092Y-97833216D01*
X189948418Y-97959724D01*
X189792463Y-98115679D01*
X189665955Y-98296353D01*
X189665954Y-98296355D01*
X189572744Y-98496246D01*
X189572740Y-98496255D01*
X189515659Y-98709286D01*
X189515657Y-98709296D01*
X189496435Y-98929009D01*
X189496435Y-98929012D01*
X189515657Y-99148724D01*
X189515660Y-99148741D01*
X189527090Y-99191400D01*
X189525426Y-99261250D01*
X189494996Y-99311172D01*
X188955957Y-99850211D01*
X188894634Y-99883696D01*
X188824942Y-99878712D01*
X188769009Y-99836840D01*
X188744592Y-99771376D01*
X188759444Y-99703103D01*
X188766690Y-99691422D01*
X188857545Y-99561669D01*
X188950757Y-99361774D01*
X189007842Y-99148731D01*
X189027065Y-98929011D01*
X189007842Y-98709291D01*
X188950757Y-98496248D01*
X188857545Y-98296354D01*
X188731038Y-98115682D01*
X188731036Y-98115679D01*
X188575080Y-97959723D01*
X188394412Y-97833218D01*
X188394404Y-97833214D01*
X188194519Y-97740006D01*
X188194505Y-97740001D01*
X187981474Y-97682920D01*
X187981472Y-97682919D01*
X187981470Y-97682919D01*
X187981468Y-97682918D01*
X187981464Y-97682918D01*
X187761752Y-97663696D01*
X187761748Y-97663696D01*
X187542035Y-97682918D01*
X187542025Y-97682920D01*
X187328994Y-97740001D01*
X187328985Y-97740005D01*
X187129094Y-97833215D01*
X187129092Y-97833216D01*
X186948418Y-97959724D01*
X186792463Y-98115679D01*
X186665955Y-98296353D01*
X186665954Y-98296355D01*
X186572744Y-98496246D01*
X186572740Y-98496255D01*
X186515659Y-98709286D01*
X186515657Y-98709296D01*
X186496435Y-98929009D01*
X186496435Y-98929012D01*
X186515657Y-99148724D01*
X186515660Y-99148741D01*
X186527090Y-99191400D01*
X186525426Y-99261250D01*
X186494996Y-99311172D01*
X185955957Y-99850211D01*
X185894634Y-99883696D01*
X185824942Y-99878712D01*
X185769009Y-99836840D01*
X185744592Y-99771376D01*
X185759444Y-99703103D01*
X185766690Y-99691422D01*
X185857545Y-99561669D01*
X185950757Y-99361774D01*
X186007842Y-99148731D01*
X186027065Y-98929011D01*
X186007842Y-98709291D01*
X185950757Y-98496248D01*
X185857545Y-98296354D01*
X185731038Y-98115682D01*
X185731036Y-98115679D01*
X185575080Y-97959723D01*
X185394412Y-97833218D01*
X185394404Y-97833214D01*
X185194519Y-97740006D01*
X185194505Y-97740001D01*
X184981474Y-97682920D01*
X184981472Y-97682919D01*
X184981470Y-97682919D01*
X184981468Y-97682918D01*
X184981464Y-97682918D01*
X184761752Y-97663696D01*
X184761748Y-97663696D01*
X184542035Y-97682918D01*
X184542025Y-97682920D01*
X184328994Y-97740001D01*
X184328985Y-97740005D01*
X184129094Y-97833215D01*
X184129092Y-97833216D01*
X183948418Y-97959724D01*
X183792463Y-98115679D01*
X183665955Y-98296353D01*
X183665954Y-98296355D01*
X183572744Y-98496246D01*
X183572740Y-98496255D01*
X183515659Y-98709286D01*
X183515657Y-98709296D01*
X183496435Y-98929009D01*
X183496435Y-98929012D01*
X183515657Y-99148725D01*
X183515660Y-99148742D01*
X183527090Y-99191401D01*
X183525426Y-99261251D01*
X183494996Y-99311173D01*
X182955955Y-99850214D01*
X182894632Y-99883699D01*
X182824940Y-99878715D01*
X182769007Y-99836843D01*
X182744590Y-99771379D01*
X182759442Y-99703106D01*
X182766689Y-99691424D01*
X182857545Y-99561669D01*
X182950757Y-99361774D01*
X183007842Y-99148731D01*
X183027065Y-98929011D01*
X183007842Y-98709291D01*
X182950757Y-98496248D01*
X182857545Y-98296354D01*
X182731038Y-98115682D01*
X182731036Y-98115679D01*
X182575080Y-97959723D01*
X182394412Y-97833218D01*
X182394404Y-97833214D01*
X182194519Y-97740006D01*
X182194505Y-97740001D01*
X181981474Y-97682920D01*
X181981472Y-97682919D01*
X181981470Y-97682919D01*
X181981468Y-97682918D01*
X181981464Y-97682918D01*
X181761752Y-97663696D01*
X181761748Y-97663696D01*
X181542035Y-97682918D01*
X181542025Y-97682920D01*
X181328994Y-97740001D01*
X181328985Y-97740005D01*
X181129094Y-97833215D01*
X181129092Y-97833216D01*
X180948418Y-97959724D01*
X180792463Y-98115679D01*
X180665955Y-98296353D01*
X180665954Y-98296355D01*
X180572744Y-98496246D01*
X180572740Y-98496255D01*
X180515659Y-98709286D01*
X180515657Y-98709296D01*
X180496435Y-98929009D01*
X180496435Y-98929012D01*
X180515657Y-99148725D01*
X180515660Y-99148742D01*
X180527090Y-99191401D01*
X180525426Y-99261251D01*
X180494996Y-99311173D01*
X179955955Y-99850214D01*
X179894632Y-99883699D01*
X179824940Y-99878715D01*
X179769007Y-99836843D01*
X179744590Y-99771379D01*
X179759442Y-99703106D01*
X179766689Y-99691424D01*
X179857545Y-99561669D01*
X179950757Y-99361774D01*
X180007842Y-99148731D01*
X180027065Y-98929011D01*
X180007842Y-98709291D01*
X179950757Y-98496248D01*
X179857545Y-98296354D01*
X179731038Y-98115682D01*
X179731036Y-98115679D01*
X179575080Y-97959723D01*
X179394412Y-97833218D01*
X179394404Y-97833214D01*
X179194519Y-97740006D01*
X179194505Y-97740001D01*
X178981474Y-97682920D01*
X178981472Y-97682919D01*
X178981470Y-97682919D01*
X178981468Y-97682918D01*
X178981464Y-97682918D01*
X178761752Y-97663696D01*
X178761748Y-97663696D01*
X178542035Y-97682918D01*
X178542025Y-97682920D01*
X178328994Y-97740001D01*
X178328985Y-97740005D01*
X178129094Y-97833215D01*
X178129092Y-97833216D01*
X177948418Y-97959724D01*
X177792463Y-98115679D01*
X177665955Y-98296353D01*
X177665954Y-98296355D01*
X177572744Y-98496246D01*
X177572740Y-98496255D01*
X177515659Y-98709286D01*
X177515657Y-98709296D01*
X177496435Y-98929009D01*
X177496435Y-98929012D01*
X177515657Y-99148725D01*
X177515660Y-99148742D01*
X177527090Y-99191401D01*
X177525426Y-99261251D01*
X177494996Y-99311173D01*
X176955955Y-99850214D01*
X176894632Y-99883699D01*
X176824940Y-99878715D01*
X176769007Y-99836843D01*
X176744590Y-99771379D01*
X176759442Y-99703106D01*
X176766689Y-99691424D01*
X176857545Y-99561669D01*
X176950757Y-99361774D01*
X177007842Y-99148731D01*
X177027065Y-98929011D01*
X177007842Y-98709291D01*
X176950757Y-98496248D01*
X176857545Y-98296354D01*
X176731038Y-98115682D01*
X176731036Y-98115679D01*
X176575080Y-97959723D01*
X176394412Y-97833218D01*
X176394404Y-97833214D01*
X176194519Y-97740006D01*
X176194505Y-97740001D01*
X175981474Y-97682920D01*
X175981472Y-97682919D01*
X175981470Y-97682919D01*
X175981468Y-97682918D01*
X175981464Y-97682918D01*
X175761752Y-97663696D01*
X175761748Y-97663696D01*
X175542035Y-97682918D01*
X175542025Y-97682920D01*
X175328994Y-97740001D01*
X175328985Y-97740005D01*
X175129094Y-97833215D01*
X175129092Y-97833216D01*
X174948418Y-97959724D01*
X174792463Y-98115679D01*
X174665955Y-98296353D01*
X174665954Y-98296355D01*
X174572744Y-98496246D01*
X174572740Y-98496255D01*
X174515659Y-98709286D01*
X174515657Y-98709296D01*
X174496435Y-98929009D01*
X174496435Y-98929012D01*
X174515657Y-99148725D01*
X174515660Y-99148742D01*
X174527090Y-99191401D01*
X174525426Y-99261251D01*
X174494996Y-99311173D01*
X173955955Y-99850214D01*
X173894632Y-99883699D01*
X173824940Y-99878715D01*
X173769007Y-99836843D01*
X173744590Y-99771379D01*
X173759442Y-99703106D01*
X173766689Y-99691424D01*
X173857545Y-99561669D01*
X173950757Y-99361774D01*
X174007842Y-99148731D01*
X174027065Y-98929011D01*
X174007842Y-98709291D01*
X173950757Y-98496248D01*
X173857545Y-98296354D01*
X173731038Y-98115682D01*
X173731036Y-98115679D01*
X173575080Y-97959723D01*
X173394412Y-97833218D01*
X173394404Y-97833214D01*
X173194519Y-97740006D01*
X173194505Y-97740001D01*
X172981474Y-97682920D01*
X172981472Y-97682919D01*
X172981470Y-97682919D01*
X172981468Y-97682918D01*
X172981464Y-97682918D01*
X172761752Y-97663696D01*
X172761748Y-97663696D01*
X172542035Y-97682918D01*
X172542025Y-97682920D01*
X172328994Y-97740001D01*
X172328985Y-97740005D01*
X172129094Y-97833215D01*
X172129092Y-97833216D01*
X171948418Y-97959724D01*
X171792463Y-98115679D01*
X171665955Y-98296353D01*
X171665954Y-98296355D01*
X171572744Y-98496246D01*
X171572740Y-98496255D01*
X171515659Y-98709286D01*
X171515657Y-98709296D01*
X171496435Y-98929009D01*
X171496435Y-98929012D01*
X171515657Y-99148725D01*
X171515660Y-99148742D01*
X171527090Y-99191401D01*
X171525426Y-99261251D01*
X171494996Y-99311173D01*
X170955955Y-99850214D01*
X170894632Y-99883699D01*
X170824940Y-99878715D01*
X170769007Y-99836843D01*
X170744590Y-99771379D01*
X170759442Y-99703106D01*
X170766689Y-99691424D01*
X170857545Y-99561669D01*
X170950757Y-99361774D01*
X171007842Y-99148731D01*
X171027065Y-98929011D01*
X171007842Y-98709291D01*
X170950757Y-98496248D01*
X170857545Y-98296354D01*
X170731038Y-98115682D01*
X170731036Y-98115679D01*
X170575080Y-97959723D01*
X170394412Y-97833218D01*
X170394404Y-97833214D01*
X170194519Y-97740006D01*
X170194505Y-97740001D01*
X169981474Y-97682920D01*
X169981472Y-97682919D01*
X169981470Y-97682919D01*
X169981468Y-97682918D01*
X169981464Y-97682918D01*
X169761752Y-97663696D01*
X169761748Y-97663696D01*
X169542035Y-97682918D01*
X169542025Y-97682920D01*
X169328994Y-97740001D01*
X169328985Y-97740005D01*
X169129094Y-97833215D01*
X169129092Y-97833216D01*
X168948418Y-97959724D01*
X168792463Y-98115679D01*
X168665955Y-98296353D01*
X168665954Y-98296355D01*
X168572744Y-98496246D01*
X168572740Y-98496255D01*
X168515659Y-98709286D01*
X168515657Y-98709296D01*
X168496435Y-98929009D01*
X168496435Y-98929012D01*
X168515657Y-99148725D01*
X168515660Y-99148742D01*
X168527090Y-99191401D01*
X168525426Y-99261251D01*
X168494996Y-99311173D01*
X165917989Y-101888181D01*
X165856666Y-101921666D01*
X165830308Y-101924500D01*
X160043550Y-101924500D01*
X160027933Y-101922776D01*
X160027906Y-101923062D01*
X160020144Y-101922327D01*
X159951984Y-101924469D01*
X159950037Y-101924500D01*
X159921462Y-101924500D01*
X159920741Y-101924590D01*
X159914569Y-101925369D01*
X159908757Y-101925826D01*
X159862185Y-101927290D01*
X159862184Y-101927290D01*
X159842941Y-101932881D01*
X159823891Y-101936825D01*
X159804023Y-101939334D01*
X159760696Y-101956488D01*
X159755170Y-101958379D01*
X159710426Y-101971379D01*
X159710422Y-101971381D01*
X159693178Y-101981579D01*
X159675717Y-101990133D01*
X159657086Y-101997510D01*
X159657074Y-101997517D01*
X159619382Y-102024902D01*
X159614499Y-102028109D01*
X159574392Y-102051829D01*
X159560226Y-102065995D01*
X159545436Y-102078627D01*
X159529226Y-102090404D01*
X159529223Y-102090407D01*
X159499522Y-102126309D01*
X159495589Y-102130631D01*
X158547628Y-103078592D01*
X158486305Y-103112077D01*
X158416613Y-103107093D01*
X158380909Y-103086456D01*
X158353687Y-103063936D01*
X158349365Y-103060003D01*
X154147458Y-98858096D01*
X154113973Y-98796773D01*
X154111612Y-98781230D01*
X154101516Y-98665820D01*
X154044431Y-98452777D01*
X153951219Y-98252883D01*
X153824712Y-98072211D01*
X153824710Y-98072208D01*
X153668754Y-97916252D01*
X153488086Y-97789747D01*
X153488078Y-97789743D01*
X153288193Y-97696535D01*
X153288179Y-97696530D01*
X153075148Y-97639449D01*
X153075146Y-97639448D01*
X153075144Y-97639448D01*
X153075142Y-97639447D01*
X153075138Y-97639447D01*
X152855426Y-97620225D01*
X152855422Y-97620225D01*
X152635709Y-97639447D01*
X152635699Y-97639449D01*
X152422668Y-97696530D01*
X152422659Y-97696534D01*
X152222768Y-97789744D01*
X152222766Y-97789745D01*
X152042092Y-97916253D01*
X151886137Y-98072208D01*
X151759629Y-98252882D01*
X151759628Y-98252884D01*
X151666418Y-98452775D01*
X151666414Y-98452784D01*
X151609333Y-98665815D01*
X151609331Y-98665825D01*
X151590109Y-98885538D01*
X151590109Y-98885541D01*
X151609331Y-99105254D01*
X151609333Y-99105264D01*
X151666414Y-99318295D01*
X151666419Y-99318309D01*
X151759627Y-99518194D01*
X151759631Y-99518202D01*
X151850474Y-99647939D01*
X151872801Y-99714145D01*
X151855791Y-99781912D01*
X151804843Y-99829725D01*
X151736133Y-99842403D01*
X151671476Y-99815921D01*
X151661218Y-99806743D01*
X151122177Y-99267702D01*
X151088692Y-99206379D01*
X151090083Y-99147927D01*
X151100827Y-99107830D01*
X151101516Y-99105260D01*
X151120739Y-98885540D01*
X151101516Y-98665820D01*
X151044431Y-98452777D01*
X150951219Y-98252883D01*
X150824712Y-98072211D01*
X150824710Y-98072208D01*
X150668754Y-97916252D01*
X150488086Y-97789747D01*
X150488078Y-97789743D01*
X150288193Y-97696535D01*
X150288179Y-97696530D01*
X150075148Y-97639449D01*
X150075146Y-97639448D01*
X150075144Y-97639448D01*
X150075142Y-97639447D01*
X150075138Y-97639447D01*
X149855426Y-97620225D01*
X149855422Y-97620225D01*
X149635709Y-97639447D01*
X149635699Y-97639449D01*
X149422668Y-97696530D01*
X149422659Y-97696534D01*
X149222768Y-97789744D01*
X149222766Y-97789745D01*
X149042092Y-97916253D01*
X148886137Y-98072208D01*
X148759629Y-98252882D01*
X148759628Y-98252884D01*
X148666418Y-98452775D01*
X148666414Y-98452784D01*
X148609333Y-98665815D01*
X148609331Y-98665825D01*
X148590109Y-98885538D01*
X148590109Y-98885541D01*
X148609331Y-99105254D01*
X148609333Y-99105264D01*
X148666414Y-99318295D01*
X148666419Y-99318309D01*
X148759627Y-99518194D01*
X148759631Y-99518202D01*
X148850474Y-99647939D01*
X148872801Y-99714145D01*
X148855791Y-99781912D01*
X148804843Y-99829725D01*
X148736133Y-99842403D01*
X148671476Y-99815921D01*
X148661218Y-99806743D01*
X148122177Y-99267702D01*
X148088692Y-99206379D01*
X148090083Y-99147927D01*
X148100827Y-99107830D01*
X148101516Y-99105260D01*
X148120739Y-98885540D01*
X148101516Y-98665820D01*
X148044431Y-98452777D01*
X147951219Y-98252883D01*
X147824712Y-98072211D01*
X147824710Y-98072208D01*
X147668754Y-97916252D01*
X147488086Y-97789747D01*
X147488078Y-97789743D01*
X147288193Y-97696535D01*
X147288179Y-97696530D01*
X147075148Y-97639449D01*
X147075146Y-97639448D01*
X147075144Y-97639448D01*
X147075142Y-97639447D01*
X147075138Y-97639447D01*
X146855426Y-97620225D01*
X146855422Y-97620225D01*
X146635709Y-97639447D01*
X146635699Y-97639449D01*
X146422668Y-97696530D01*
X146422659Y-97696534D01*
X146222768Y-97789744D01*
X146222766Y-97789745D01*
X146042092Y-97916253D01*
X145886137Y-98072208D01*
X145759629Y-98252882D01*
X145759628Y-98252884D01*
X145666418Y-98452775D01*
X145666414Y-98452784D01*
X145609333Y-98665815D01*
X145609331Y-98665825D01*
X145590109Y-98885538D01*
X145590109Y-98885541D01*
X145609331Y-99105254D01*
X145609333Y-99105264D01*
X145666414Y-99318295D01*
X145666419Y-99318309D01*
X145759627Y-99518194D01*
X145759631Y-99518202D01*
X145850474Y-99647939D01*
X145872801Y-99714145D01*
X145855791Y-99781912D01*
X145804843Y-99829725D01*
X145736133Y-99842403D01*
X145671476Y-99815921D01*
X145661218Y-99806743D01*
X145122177Y-99267702D01*
X145088692Y-99206379D01*
X145090083Y-99147927D01*
X145100827Y-99107830D01*
X145101516Y-99105260D01*
X145120739Y-98885540D01*
X145101516Y-98665820D01*
X145044431Y-98452777D01*
X144951219Y-98252883D01*
X144824712Y-98072211D01*
X144824710Y-98072208D01*
X144668754Y-97916252D01*
X144488086Y-97789747D01*
X144488078Y-97789743D01*
X144288193Y-97696535D01*
X144288179Y-97696530D01*
X144075148Y-97639449D01*
X144075146Y-97639448D01*
X144075144Y-97639448D01*
X144075142Y-97639447D01*
X144075138Y-97639447D01*
X143855426Y-97620225D01*
X143855422Y-97620225D01*
X143635709Y-97639447D01*
X143635699Y-97639449D01*
X143422668Y-97696530D01*
X143422659Y-97696534D01*
X143222768Y-97789744D01*
X143222766Y-97789745D01*
X143042092Y-97916253D01*
X142886137Y-98072208D01*
X142759629Y-98252882D01*
X142759628Y-98252884D01*
X142666418Y-98452775D01*
X142666414Y-98452784D01*
X142609333Y-98665815D01*
X142609331Y-98665825D01*
X142590109Y-98885538D01*
X142590109Y-98885541D01*
X142609331Y-99105254D01*
X142609333Y-99105264D01*
X142666414Y-99318295D01*
X142666419Y-99318309D01*
X142759627Y-99518194D01*
X142759631Y-99518202D01*
X142850476Y-99647942D01*
X142872803Y-99714148D01*
X142855793Y-99781915D01*
X142804845Y-99829728D01*
X142736135Y-99842406D01*
X142671478Y-99815924D01*
X142661220Y-99806746D01*
X142122176Y-99267702D01*
X142088691Y-99206379D01*
X142090082Y-99147927D01*
X142101516Y-99105260D01*
X142120739Y-98885540D01*
X142101516Y-98665820D01*
X142044431Y-98452777D01*
X141951219Y-98252883D01*
X141824712Y-98072211D01*
X141824710Y-98072208D01*
X141668754Y-97916252D01*
X141488086Y-97789747D01*
X141488078Y-97789743D01*
X141288193Y-97696535D01*
X141288179Y-97696530D01*
X141075148Y-97639449D01*
X141075146Y-97639448D01*
X141075144Y-97639448D01*
X141075142Y-97639447D01*
X141075138Y-97639447D01*
X140855426Y-97620225D01*
X140855422Y-97620225D01*
X140635709Y-97639447D01*
X140635699Y-97639449D01*
X140422668Y-97696530D01*
X140422659Y-97696534D01*
X140222768Y-97789744D01*
X140222766Y-97789745D01*
X140042092Y-97916253D01*
X139886137Y-98072208D01*
X139759629Y-98252882D01*
X139759628Y-98252884D01*
X139666418Y-98452775D01*
X139666414Y-98452784D01*
X139609333Y-98665815D01*
X139609331Y-98665825D01*
X139590109Y-98885538D01*
X139590109Y-98885541D01*
X139609331Y-99105254D01*
X139609333Y-99105264D01*
X139666414Y-99318295D01*
X139666419Y-99318309D01*
X139759627Y-99518194D01*
X139759631Y-99518202D01*
X139850476Y-99647942D01*
X139872803Y-99714148D01*
X139855793Y-99781915D01*
X139804845Y-99829728D01*
X139736135Y-99842406D01*
X139671478Y-99815924D01*
X139661220Y-99806746D01*
X139122176Y-99267702D01*
X139088691Y-99206379D01*
X139090082Y-99147927D01*
X139101516Y-99105260D01*
X139120739Y-98885540D01*
X139101516Y-98665820D01*
X139044431Y-98452777D01*
X138951219Y-98252883D01*
X138824712Y-98072211D01*
X138824710Y-98072208D01*
X138668754Y-97916252D01*
X138488086Y-97789747D01*
X138488078Y-97789743D01*
X138288193Y-97696535D01*
X138288179Y-97696530D01*
X138075148Y-97639449D01*
X138075146Y-97639448D01*
X138075144Y-97639448D01*
X138075142Y-97639447D01*
X138075138Y-97639447D01*
X137855426Y-97620225D01*
X137855422Y-97620225D01*
X137635709Y-97639447D01*
X137635699Y-97639449D01*
X137422668Y-97696530D01*
X137422659Y-97696534D01*
X137222768Y-97789744D01*
X137222766Y-97789745D01*
X137042092Y-97916253D01*
X136886137Y-98072208D01*
X136759629Y-98252882D01*
X136759628Y-98252884D01*
X136666418Y-98452775D01*
X136666414Y-98452784D01*
X136609333Y-98665815D01*
X136609331Y-98665825D01*
X136590109Y-98885538D01*
X136590109Y-98885541D01*
X136609331Y-99105254D01*
X136609333Y-99105264D01*
X136666414Y-99318295D01*
X136666419Y-99318309D01*
X136759627Y-99518194D01*
X136759631Y-99518202D01*
X136850476Y-99647942D01*
X136872803Y-99714148D01*
X136855793Y-99781915D01*
X136804845Y-99829728D01*
X136736135Y-99842406D01*
X136671478Y-99815924D01*
X136661220Y-99806746D01*
X136122176Y-99267702D01*
X136088691Y-99206379D01*
X136090082Y-99147927D01*
X136101516Y-99105260D01*
X136120739Y-98885540D01*
X136101516Y-98665820D01*
X136044431Y-98452777D01*
X135951219Y-98252883D01*
X135824712Y-98072211D01*
X135824710Y-98072208D01*
X135668754Y-97916252D01*
X135488086Y-97789747D01*
X135488078Y-97789743D01*
X135288193Y-97696535D01*
X135288179Y-97696530D01*
X135075148Y-97639449D01*
X135075146Y-97639448D01*
X135075144Y-97639448D01*
X135075142Y-97639447D01*
X135075138Y-97639447D01*
X134855426Y-97620225D01*
X134855422Y-97620225D01*
X134635709Y-97639447D01*
X134635699Y-97639449D01*
X134422668Y-97696530D01*
X134422659Y-97696534D01*
X134222768Y-97789744D01*
X134222766Y-97789745D01*
X134042092Y-97916253D01*
X133886137Y-98072208D01*
X133759629Y-98252882D01*
X133759628Y-98252884D01*
X133666418Y-98452775D01*
X133666414Y-98452784D01*
X133609333Y-98665815D01*
X133609331Y-98665825D01*
X133590109Y-98885538D01*
X133590109Y-98885541D01*
X133609331Y-99105254D01*
X133609333Y-99105264D01*
X133666414Y-99318295D01*
X133666419Y-99318309D01*
X133759627Y-99518194D01*
X133759631Y-99518202D01*
X133850476Y-99647942D01*
X133872803Y-99714148D01*
X133855793Y-99781915D01*
X133804845Y-99829728D01*
X133736135Y-99842406D01*
X133671478Y-99815924D01*
X133661220Y-99806746D01*
X133122176Y-99267702D01*
X133088691Y-99206379D01*
X133090082Y-99147927D01*
X133101516Y-99105260D01*
X133120739Y-98885540D01*
X133101516Y-98665820D01*
X133044431Y-98452777D01*
X132951219Y-98252883D01*
X132824712Y-98072211D01*
X132824710Y-98072208D01*
X132668754Y-97916252D01*
X132488086Y-97789747D01*
X132488078Y-97789743D01*
X132288193Y-97696535D01*
X132288179Y-97696530D01*
X132075148Y-97639449D01*
X132075146Y-97639448D01*
X132075144Y-97639448D01*
X132075142Y-97639447D01*
X132075138Y-97639447D01*
X131855426Y-97620225D01*
X131855422Y-97620225D01*
X131635709Y-97639447D01*
X131635699Y-97639449D01*
X131422668Y-97696530D01*
X131422659Y-97696534D01*
X131222768Y-97789744D01*
X131222766Y-97789745D01*
X131042092Y-97916253D01*
X130886137Y-98072208D01*
X130759629Y-98252882D01*
X130759628Y-98252884D01*
X130666418Y-98452775D01*
X130666414Y-98452784D01*
X130609333Y-98665815D01*
X130609331Y-98665825D01*
X130590109Y-98885538D01*
X130590109Y-98885541D01*
X130609331Y-99105254D01*
X130609333Y-99105264D01*
X130666414Y-99318295D01*
X130666419Y-99318309D01*
X130759627Y-99518194D01*
X130759631Y-99518202D01*
X130886136Y-99698870D01*
X131042093Y-99854827D01*
X131222761Y-99981332D01*
X131222763Y-99981333D01*
X131222766Y-99981335D01*
X131315993Y-100024807D01*
X131422654Y-100074544D01*
X131422656Y-100074544D01*
X131422661Y-100074547D01*
X131422666Y-100074548D01*
X131422668Y-100074549D01*
X131442060Y-100079745D01*
X131635704Y-100131632D01*
X131790101Y-100145140D01*
X131855422Y-100150855D01*
X131855424Y-100150855D01*
X131855426Y-100150855D01*
X131885878Y-100148190D01*
X132075144Y-100131632D01*
X132117810Y-100120199D01*
X132187658Y-100121860D01*
X132237585Y-100152291D01*
X134387304Y-102302011D01*
X136489081Y-104403788D01*
X136498906Y-104416051D01*
X136499127Y-104415869D01*
X136504095Y-104421874D01*
X136504097Y-104421876D01*
X136504098Y-104421877D01*
X136507528Y-104425098D01*
X136553816Y-104468566D01*
X136555216Y-104469923D01*
X136575407Y-104490115D01*
X136575411Y-104490118D01*
X136575413Y-104490120D01*
X136580895Y-104494373D01*
X136585327Y-104498157D01*
X136619302Y-104530062D01*
X136636860Y-104539714D01*
X136653117Y-104550393D01*
X136668948Y-104562673D01*
X136688621Y-104571186D01*
X136711717Y-104581182D01*
X136716961Y-104583750D01*
X136757792Y-104606197D01*
X136770407Y-104609435D01*
X136777189Y-104611177D01*
X136795603Y-104617481D01*
X136813988Y-104625438D01*
X136860041Y-104632732D01*
X136865710Y-104633906D01*
X136910865Y-104645500D01*
X136930900Y-104645500D01*
X136950297Y-104647026D01*
X136970080Y-104650160D01*
X137016467Y-104645775D01*
X137022306Y-104645500D01*
X153655500Y-104645500D01*
X153722539Y-104665185D01*
X153768294Y-104717989D01*
X153779500Y-104769500D01*
X153779501Y-106056000D01*
X153759816Y-106123039D01*
X153707013Y-106168794D01*
X153655501Y-106180000D01*
X153092000Y-106180000D01*
X153092000Y-106680000D01*
X154179500Y-106680000D01*
X154189476Y-106670023D01*
X154199185Y-106636960D01*
X154251989Y-106591205D01*
X154303496Y-106579999D01*
X154627872Y-106579999D01*
X154627885Y-106579998D01*
X154666744Y-106575820D01*
X154693252Y-106575820D01*
X154732127Y-106580000D01*
X155127872Y-106579999D01*
X155127873Y-106579998D01*
X155127885Y-106579998D01*
X155166744Y-106575820D01*
X155193252Y-106575820D01*
X155232127Y-106580000D01*
X155627872Y-106579999D01*
X155627873Y-106579998D01*
X155627885Y-106579998D01*
X155666744Y-106575820D01*
X155693252Y-106575820D01*
X155732127Y-106580000D01*
X156127872Y-106579999D01*
X156127873Y-106579998D01*
X156127885Y-106579998D01*
X156166744Y-106575820D01*
X156193252Y-106575820D01*
X156232127Y-106580000D01*
X156627872Y-106579999D01*
X156627873Y-106579998D01*
X156627885Y-106579998D01*
X156666744Y-106575820D01*
X156693252Y-106575820D01*
X156732127Y-106580000D01*
X157127872Y-106579999D01*
X157127873Y-106579998D01*
X157127885Y-106579998D01*
X157166744Y-106575820D01*
X157193252Y-106575820D01*
X157232127Y-106580000D01*
X157627872Y-106579999D01*
X157627873Y-106579998D01*
X157627885Y-106579998D01*
X157666744Y-106575820D01*
X157693252Y-106575820D01*
X157732127Y-106580000D01*
X158127872Y-106579999D01*
X158127873Y-106579998D01*
X158127885Y-106579998D01*
X158166744Y-106575820D01*
X158193252Y-106575820D01*
X158232127Y-106580000D01*
X158627872Y-106579999D01*
X158627873Y-106579998D01*
X158627885Y-106579998D01*
X158666744Y-106575820D01*
X158693252Y-106575820D01*
X158732127Y-106580000D01*
X159127872Y-106579999D01*
X159127873Y-106579998D01*
X159127885Y-106579998D01*
X159166744Y-106575820D01*
X159193252Y-106575820D01*
X159232127Y-106580000D01*
X159627872Y-106579999D01*
X159627873Y-106579998D01*
X159627885Y-106579998D01*
X159666744Y-106575820D01*
X159693252Y-106575820D01*
X159732127Y-106580000D01*
X160056000Y-106579999D01*
X160123039Y-106599683D01*
X160168794Y-106652487D01*
X160180000Y-106703999D01*
X160180000Y-107027868D01*
X160180001Y-107027878D01*
X160184179Y-107066745D01*
X160184179Y-107093250D01*
X160180000Y-107132122D01*
X160180000Y-107527869D01*
X160180001Y-107527878D01*
X160184179Y-107566745D01*
X160184179Y-107593250D01*
X160180000Y-107632122D01*
X160180000Y-108027869D01*
X160180001Y-108027878D01*
X160184179Y-108066745D01*
X160184179Y-108093250D01*
X160180000Y-108132122D01*
X160180000Y-108527869D01*
X160180001Y-108527878D01*
X160184179Y-108566745D01*
X160184181Y-108593233D01*
X160184127Y-108593736D01*
X160157398Y-108658291D01*
X160100012Y-108698148D01*
X160060835Y-108704500D01*
X157562243Y-108704500D01*
X157546622Y-108702775D01*
X157546596Y-108703061D01*
X157538833Y-108702326D01*
X157470653Y-108704469D01*
X157468706Y-108704500D01*
X157440149Y-108704500D01*
X157433266Y-108705369D01*
X157427449Y-108705826D01*
X157380873Y-108707290D01*
X157361629Y-108712881D01*
X157342579Y-108716825D01*
X157322711Y-108719334D01*
X157279384Y-108736488D01*
X157273858Y-108738379D01*
X157229114Y-108751379D01*
X157229110Y-108751381D01*
X157211866Y-108761579D01*
X157194405Y-108770133D01*
X157175774Y-108777510D01*
X157175762Y-108777517D01*
X157138070Y-108804902D01*
X157133187Y-108808109D01*
X157093080Y-108831829D01*
X157078914Y-108845995D01*
X157064124Y-108858627D01*
X157047914Y-108870404D01*
X157047911Y-108870407D01*
X157018210Y-108906309D01*
X157014277Y-108910631D01*
X156132886Y-109792022D01*
X156071563Y-109825507D01*
X156001871Y-109820523D01*
X155945938Y-109778651D01*
X155921985Y-109718224D01*
X155905369Y-109570750D01*
X155905368Y-109570745D01*
X155853754Y-109423242D01*
X155845789Y-109400478D01*
X155841507Y-109393664D01*
X155789553Y-109310979D01*
X155749816Y-109247738D01*
X155622262Y-109120184D01*
X155558310Y-109080000D01*
X155469523Y-109024211D01*
X155299254Y-108964631D01*
X155299249Y-108964630D01*
X155120004Y-108944435D01*
X155119996Y-108944435D01*
X154940750Y-108964630D01*
X154940745Y-108964631D01*
X154770476Y-109024211D01*
X154617737Y-109120184D01*
X154490182Y-109247739D01*
X154408992Y-109376952D01*
X154356657Y-109423242D01*
X154287604Y-109433890D01*
X154223756Y-109405515D01*
X154185384Y-109347125D01*
X154179999Y-109310979D01*
X154179999Y-109132128D01*
X154179998Y-109132111D01*
X154175820Y-109093253D01*
X154175820Y-109066747D01*
X154180000Y-109027873D01*
X154179999Y-108632128D01*
X154179999Y-108632127D01*
X154179998Y-108632111D01*
X154175820Y-108593253D01*
X154175820Y-108566745D01*
X154180000Y-108527873D01*
X154179999Y-108132128D01*
X154179999Y-108132127D01*
X154179998Y-108132111D01*
X154175820Y-108093253D01*
X154175820Y-108066745D01*
X154180000Y-108027873D01*
X154179999Y-107632128D01*
X154175567Y-107590898D01*
X154175568Y-107564393D01*
X154179499Y-107527833D01*
X154179500Y-107527819D01*
X154179500Y-107480000D01*
X154163888Y-107464388D01*
X154150016Y-107460315D01*
X154117789Y-107430312D01*
X154078861Y-107378312D01*
X154054443Y-107312848D01*
X154069294Y-107244575D01*
X154118698Y-107195169D01*
X154178127Y-107180000D01*
X154179500Y-107180000D01*
X154179500Y-107132178D01*
X154179499Y-107132168D01*
X154175315Y-107093258D01*
X154175315Y-107066742D01*
X154179499Y-107027831D01*
X154179500Y-107027821D01*
X154179500Y-106980000D01*
X152916000Y-106980000D01*
X152848961Y-106960315D01*
X152803206Y-106907511D01*
X152792000Y-106856000D01*
X152792000Y-106180000D01*
X152156655Y-106180000D01*
X152097127Y-106186401D01*
X152097120Y-106186403D01*
X151962413Y-106236645D01*
X151962406Y-106236649D01*
X151847312Y-106322809D01*
X151847309Y-106322812D01*
X151761149Y-106437906D01*
X151761146Y-106437912D01*
X151729652Y-106522351D01*
X151687780Y-106578284D01*
X151622316Y-106602701D01*
X151554043Y-106587849D01*
X151525789Y-106566698D01*
X150810303Y-105851212D01*
X150800480Y-105838950D01*
X150800259Y-105839134D01*
X150795286Y-105833122D01*
X150745566Y-105786432D01*
X150744166Y-105785075D01*
X150723976Y-105764884D01*
X150718486Y-105760625D01*
X150714061Y-105756847D01*
X150680082Y-105724938D01*
X150680080Y-105724936D01*
X150680077Y-105724935D01*
X150662529Y-105715288D01*
X150646263Y-105704604D01*
X150630433Y-105692325D01*
X150587668Y-105673818D01*
X150582422Y-105671248D01*
X150541593Y-105648803D01*
X150541592Y-105648802D01*
X150522193Y-105643822D01*
X150503781Y-105637518D01*
X150485398Y-105629562D01*
X150485392Y-105629560D01*
X150439374Y-105622272D01*
X150433652Y-105621087D01*
X150388521Y-105609500D01*
X150388519Y-105609500D01*
X150368484Y-105609500D01*
X150349086Y-105607973D01*
X150341662Y-105606797D01*
X150329305Y-105604840D01*
X150329304Y-105604840D01*
X150282916Y-105609225D01*
X150277078Y-105609500D01*
X118367816Y-105609500D01*
X118300777Y-105589815D01*
X118255022Y-105537011D01*
X118244596Y-105499384D01*
X118232968Y-105396183D01*
X118232967Y-105396179D01*
X118217335Y-105351505D01*
X118173388Y-105225912D01*
X118077415Y-105073172D01*
X117949861Y-104945618D01*
X117903046Y-104916202D01*
X117797122Y-104849645D01*
X117626853Y-104790065D01*
X117626848Y-104790064D01*
X117447603Y-104769869D01*
X117447595Y-104769869D01*
X117268349Y-104790064D01*
X117268344Y-104790065D01*
X117098075Y-104849645D01*
X116992152Y-104916202D01*
X116954573Y-104939815D01*
X116953492Y-104940494D01*
X116887520Y-104959500D01*
X116716939Y-104959500D01*
X116649900Y-104939815D01*
X116642628Y-104934767D01*
X116617831Y-104916204D01*
X116617828Y-104916202D01*
X116482982Y-104865908D01*
X116482983Y-104865908D01*
X116423383Y-104859501D01*
X116423381Y-104859500D01*
X116423373Y-104859500D01*
X116423364Y-104859500D01*
X114852629Y-104859500D01*
X114852623Y-104859501D01*
X114793016Y-104865908D01*
X114658171Y-104916202D01*
X114658164Y-104916206D01*
X114542955Y-105002452D01*
X114542952Y-105002455D01*
X114456706Y-105117664D01*
X114456702Y-105117671D01*
X114413206Y-105234292D01*
X114406409Y-105252517D01*
X114400000Y-105312127D01*
X114400000Y-105312134D01*
X114400000Y-105312135D01*
X114400000Y-105857869D01*
X114400001Y-105857878D01*
X114404179Y-105896745D01*
X114404179Y-105923250D01*
X114400000Y-105962122D01*
X114400000Y-106507869D01*
X114400001Y-106507878D01*
X114404179Y-106546745D01*
X114404179Y-106573250D01*
X114400000Y-106612122D01*
X114400000Y-107157869D01*
X114400001Y-107157878D01*
X114404179Y-107196745D01*
X114404179Y-107223250D01*
X114400000Y-107262122D01*
X114400000Y-107807869D01*
X114400001Y-107807878D01*
X114404179Y-107846745D01*
X114404179Y-107873250D01*
X114400000Y-107912122D01*
X114400000Y-108457869D01*
X114400001Y-108457878D01*
X114404179Y-108496745D01*
X114404179Y-108523250D01*
X114400000Y-108562122D01*
X114400000Y-109107869D01*
X114400001Y-109107878D01*
X114404179Y-109146745D01*
X114404179Y-109173250D01*
X114400000Y-109212122D01*
X114400000Y-109757869D01*
X114400001Y-109757878D01*
X114404179Y-109796745D01*
X114404179Y-109823250D01*
X114400000Y-109862122D01*
X114400000Y-110407869D01*
X114400001Y-110407878D01*
X114404179Y-110446745D01*
X114404179Y-110473251D01*
X114400000Y-110512123D01*
X114400000Y-110650547D01*
X114380315Y-110717586D01*
X114327511Y-110763341D01*
X114258353Y-110773285D01*
X114194797Y-110744260D01*
X114188319Y-110738228D01*
X113291819Y-109841728D01*
X113258334Y-109780405D01*
X113255500Y-109754047D01*
X113255500Y-106344854D01*
X113274507Y-106278881D01*
X113355788Y-106149524D01*
X113363539Y-106127373D01*
X113415368Y-105979255D01*
X113417298Y-105962127D01*
X113435565Y-105800003D01*
X113435565Y-105799996D01*
X113415369Y-105620750D01*
X113415368Y-105620745D01*
X113379626Y-105518600D01*
X113355789Y-105450478D01*
X113259816Y-105297738D01*
X113132262Y-105170184D01*
X112979523Y-105074211D01*
X112809254Y-105014631D01*
X112809249Y-105014630D01*
X112630004Y-104994435D01*
X112629996Y-104994435D01*
X112450750Y-105014630D01*
X112450745Y-105014631D01*
X112280476Y-105074211D01*
X112127737Y-105170184D01*
X112000184Y-105297737D01*
X111904211Y-105450476D01*
X111844631Y-105620745D01*
X111844630Y-105620750D01*
X111824435Y-105799996D01*
X111824435Y-105800003D01*
X111844630Y-105979249D01*
X111844631Y-105979254D01*
X111904211Y-106149524D01*
X111985493Y-106278881D01*
X112004500Y-106344854D01*
X112004500Y-109981755D01*
X112002775Y-109997372D01*
X112003061Y-109997399D01*
X112002326Y-110005166D01*
X112004469Y-110073346D01*
X112004500Y-110075293D01*
X112004500Y-110103843D01*
X112004501Y-110103860D01*
X112005368Y-110110731D01*
X112005826Y-110116550D01*
X112007290Y-110163124D01*
X112007291Y-110163127D01*
X112012880Y-110182367D01*
X112016824Y-110201411D01*
X112019336Y-110221292D01*
X112032525Y-110254604D01*
X112036490Y-110264619D01*
X112038382Y-110270147D01*
X112050142Y-110310625D01*
X112051382Y-110314890D01*
X112054365Y-110319935D01*
X112061580Y-110332134D01*
X112070138Y-110349603D01*
X112077514Y-110368232D01*
X112104898Y-110405923D01*
X112108106Y-110410807D01*
X112131827Y-110450916D01*
X112131833Y-110450924D01*
X112145990Y-110465080D01*
X112158627Y-110479875D01*
X112170406Y-110496087D01*
X112189790Y-110512123D01*
X112206309Y-110525788D01*
X112210620Y-110529710D01*
X113208779Y-111527869D01*
X114149694Y-112468784D01*
X114159519Y-112481048D01*
X114159740Y-112480866D01*
X114164710Y-112486874D01*
X114214449Y-112533582D01*
X114215816Y-112534906D01*
X114236030Y-112555120D01*
X114241504Y-112559366D01*
X114245942Y-112563156D01*
X114279918Y-112595062D01*
X114279922Y-112595064D01*
X114297473Y-112604713D01*
X114313731Y-112615392D01*
X114325130Y-112624234D01*
X114329565Y-112627675D01*
X114336277Y-112631644D01*
X114334953Y-112633882D01*
X114378955Y-112670496D01*
X114399975Y-112737129D01*
X114400000Y-112739607D01*
X114400000Y-113007869D01*
X114400001Y-113007876D01*
X114406408Y-113067483D01*
X114456702Y-113202328D01*
X114456706Y-113202335D01*
X114542952Y-113317544D01*
X114542955Y-113317547D01*
X114658164Y-113403793D01*
X114658171Y-113403797D01*
X114793017Y-113454091D01*
X114793016Y-113454091D01*
X114799944Y-113454835D01*
X114852627Y-113460500D01*
X116423372Y-113460499D01*
X116482983Y-113454091D01*
X116617831Y-113403796D01*
X116649688Y-113379947D01*
X116715151Y-113355529D01*
X116783424Y-113370379D01*
X116832831Y-113419784D01*
X116836274Y-113433274D01*
X116848000Y-113445000D01*
X117974000Y-113445000D01*
X118041039Y-113464685D01*
X118086794Y-113517489D01*
X118098000Y-113569000D01*
X118098000Y-114695000D01*
X118395828Y-114695000D01*
X118395844Y-114694999D01*
X118455372Y-114688598D01*
X118455379Y-114688596D01*
X118590086Y-114638354D01*
X118597872Y-114634103D01*
X118599345Y-114636801D01*
X118650471Y-114617716D01*
X118718749Y-114632549D01*
X118764344Y-114675424D01*
X118824493Y-114771150D01*
X118952047Y-114898704D01*
X119104787Y-114994677D01*
X119140656Y-115007228D01*
X119275054Y-115054256D01*
X119275059Y-115054257D01*
X119454305Y-115074453D01*
X119454309Y-115074453D01*
X119454313Y-115074453D01*
X119633558Y-115054257D01*
X119633561Y-115054256D01*
X119633564Y-115054256D01*
X119803831Y-114994677D01*
X119956571Y-114898704D01*
X120084125Y-114771150D01*
X120180098Y-114618410D01*
X120239677Y-114448143D01*
X120240923Y-114437086D01*
X120259874Y-114268891D01*
X120259874Y-114268884D01*
X120239678Y-114089638D01*
X120239675Y-114089625D01*
X120188218Y-113942573D01*
X120180098Y-113919366D01*
X120163702Y-113893273D01*
X120144702Y-113826039D01*
X120161963Y-113764183D01*
X120240494Y-113631395D01*
X120285643Y-113475993D01*
X120288500Y-113439690D01*
X120288500Y-113030310D01*
X120285643Y-112994007D01*
X120285007Y-112991819D01*
X120240495Y-112838609D01*
X120240495Y-112838608D01*
X120240494Y-112838607D01*
X120240494Y-112838605D01*
X120228379Y-112818120D01*
X120211196Y-112750399D01*
X120228379Y-112691880D01*
X120240494Y-112671395D01*
X120285643Y-112515993D01*
X120288500Y-112479690D01*
X120288500Y-112070310D01*
X120285643Y-112034007D01*
X120283862Y-112027878D01*
X120240495Y-111878609D01*
X120240494Y-111878606D01*
X120240494Y-111878605D01*
X120158117Y-111739313D01*
X120158115Y-111739311D01*
X120158112Y-111739307D01*
X120040986Y-111622181D01*
X120007501Y-111560858D01*
X120012485Y-111491166D01*
X120054357Y-111435233D01*
X120119821Y-111410816D01*
X120128667Y-111410500D01*
X150086172Y-111410500D01*
X150153211Y-111430185D01*
X150173852Y-111446818D01*
X150320283Y-111593250D01*
X150440821Y-111713788D01*
X150450646Y-111726051D01*
X150450867Y-111725869D01*
X150455835Y-111731874D01*
X150455837Y-111731876D01*
X150455838Y-111731877D01*
X150463759Y-111739315D01*
X150505556Y-111778566D01*
X150506956Y-111779923D01*
X150527147Y-111800115D01*
X150527151Y-111800118D01*
X150527153Y-111800120D01*
X150532635Y-111804373D01*
X150537067Y-111808157D01*
X150571042Y-111840062D01*
X150588600Y-111849714D01*
X150604859Y-111860395D01*
X150620688Y-111872673D01*
X150663462Y-111891182D01*
X150668680Y-111893738D01*
X150709532Y-111916197D01*
X150728940Y-111921180D01*
X150747341Y-111927480D01*
X150765728Y-111935437D01*
X150809112Y-111942308D01*
X150811743Y-111942725D01*
X150817463Y-111943909D01*
X150862605Y-111955500D01*
X150882640Y-111955500D01*
X150902038Y-111957026D01*
X150921818Y-111960159D01*
X150921819Y-111960160D01*
X150921819Y-111960159D01*
X150921820Y-111960160D01*
X150968207Y-111955775D01*
X150974046Y-111955500D01*
X151584836Y-111955500D01*
X151651875Y-111975185D01*
X151697630Y-112027989D01*
X151708137Y-112066351D01*
X151708190Y-112066848D01*
X151708179Y-112093250D01*
X151704000Y-112132122D01*
X151704000Y-112527870D01*
X151704001Y-112527876D01*
X151710408Y-112587483D01*
X151760702Y-112722328D01*
X151760706Y-112722335D01*
X151846952Y-112837544D01*
X151846955Y-112837547D01*
X151962164Y-112923793D01*
X151962171Y-112923797D01*
X152097017Y-112974091D01*
X152097016Y-112974091D01*
X152103944Y-112974835D01*
X152156627Y-112980500D01*
X152645047Y-112980499D01*
X152712085Y-113000183D01*
X152757840Y-113052987D01*
X152767784Y-113122146D01*
X152738759Y-113185702D01*
X152732727Y-113192180D01*
X151226728Y-114698181D01*
X151165405Y-114731666D01*
X151139047Y-114734500D01*
X136577205Y-114734500D01*
X136561588Y-114732776D01*
X136561561Y-114733062D01*
X136553799Y-114732327D01*
X136485639Y-114734469D01*
X136483692Y-114734500D01*
X136455118Y-114734500D01*
X136454397Y-114734590D01*
X136448225Y-114735369D01*
X136442413Y-114735826D01*
X136395841Y-114737290D01*
X136395840Y-114737290D01*
X136376597Y-114742881D01*
X136357547Y-114746825D01*
X136337679Y-114749334D01*
X136337677Y-114749335D01*
X136294352Y-114766488D01*
X136288825Y-114768380D01*
X136244078Y-114781381D01*
X136244077Y-114781382D01*
X136226835Y-114791579D01*
X136209367Y-114800137D01*
X136190737Y-114807513D01*
X136190735Y-114807514D01*
X136153044Y-114834898D01*
X136148162Y-114838105D01*
X136108047Y-114861830D01*
X136093876Y-114876000D01*
X136079091Y-114888628D01*
X136065224Y-114898704D01*
X136062880Y-114900407D01*
X136033177Y-114936310D01*
X136029244Y-114940631D01*
X135830580Y-115139297D01*
X135661696Y-115308181D01*
X135600373Y-115341666D01*
X135574015Y-115344500D01*
X113306940Y-115344500D01*
X113239901Y-115324815D01*
X113194146Y-115272011D01*
X113184202Y-115202853D01*
X113213227Y-115139297D01*
X113219259Y-115132819D01*
X113263897Y-115088181D01*
X113319816Y-115032262D01*
X113415789Y-114879522D01*
X113475368Y-114709255D01*
X113476974Y-114695000D01*
X113495565Y-114530003D01*
X113495565Y-114529996D01*
X113475369Y-114350750D01*
X113475368Y-114350745D01*
X113415788Y-114180475D01*
X113358702Y-114089625D01*
X113334505Y-114051116D01*
X113315500Y-113985148D01*
X113315500Y-113945000D01*
X116848000Y-113945000D01*
X116848000Y-114242844D01*
X116854401Y-114302372D01*
X116854403Y-114302379D01*
X116904645Y-114437086D01*
X116904649Y-114437093D01*
X116990809Y-114552187D01*
X116990812Y-114552190D01*
X117105906Y-114638350D01*
X117105913Y-114638354D01*
X117240620Y-114688596D01*
X117240627Y-114688598D01*
X117300155Y-114694999D01*
X117300172Y-114695000D01*
X117598000Y-114695000D01*
X117598000Y-113945000D01*
X116848000Y-113945000D01*
X113315500Y-113945000D01*
X113315500Y-112808236D01*
X113317224Y-112792623D01*
X113316938Y-112792596D01*
X113317672Y-112784833D01*
X113315531Y-112716670D01*
X113315500Y-112714723D01*
X113315500Y-112686151D01*
X113315500Y-112686150D01*
X113314629Y-112679259D01*
X113314172Y-112673445D01*
X113314107Y-112671391D01*
X113312709Y-112626872D01*
X113307120Y-112607637D01*
X113303174Y-112588584D01*
X113302798Y-112585604D01*
X113300664Y-112568708D01*
X113283501Y-112525359D01*
X113281614Y-112519846D01*
X113278030Y-112507511D01*
X113268617Y-112475110D01*
X113264876Y-112468784D01*
X113258421Y-112457869D01*
X113249860Y-112440393D01*
X113242486Y-112421769D01*
X113242486Y-112421767D01*
X113232474Y-112407988D01*
X113215083Y-112384050D01*
X113211900Y-112379205D01*
X113188170Y-112339079D01*
X113188165Y-112339073D01*
X113174005Y-112324913D01*
X113161370Y-112310120D01*
X113149593Y-112293912D01*
X113113693Y-112264213D01*
X113109381Y-112260290D01*
X111250303Y-110401212D01*
X111240480Y-110388950D01*
X111240259Y-110389134D01*
X111235286Y-110383122D01*
X111185566Y-110336432D01*
X111184166Y-110335075D01*
X111163976Y-110314884D01*
X111158486Y-110310625D01*
X111154061Y-110306847D01*
X111120082Y-110274938D01*
X111120080Y-110274936D01*
X111120077Y-110274935D01*
X111102529Y-110265288D01*
X111086263Y-110254604D01*
X111072337Y-110243802D01*
X111070436Y-110242327D01*
X111070435Y-110242326D01*
X111070432Y-110242324D01*
X111063719Y-110238354D01*
X111065042Y-110236116D01*
X111021039Y-110199496D01*
X111000024Y-110132861D01*
X110999999Y-110130393D01*
X110999999Y-109862128D01*
X110999998Y-109862111D01*
X110995820Y-109823253D01*
X110995820Y-109796745D01*
X111000000Y-109757873D01*
X110999999Y-109212128D01*
X110999999Y-109212127D01*
X110999998Y-109212111D01*
X110995820Y-109173253D01*
X110995820Y-109146745D01*
X111000000Y-109107873D01*
X110999999Y-108562128D01*
X110999999Y-108562127D01*
X110999998Y-108562111D01*
X110995820Y-108523253D01*
X110995820Y-108496745D01*
X111000000Y-108457873D01*
X110999999Y-107912128D01*
X110999999Y-107912127D01*
X110999998Y-107912111D01*
X110995820Y-107873253D01*
X110995820Y-107846745D01*
X111000000Y-107807873D01*
X110999999Y-107262128D01*
X110999999Y-107262127D01*
X110999998Y-107262111D01*
X110995820Y-107223253D01*
X110995820Y-107196745D01*
X111000000Y-107157873D01*
X110999999Y-106612128D01*
X110999999Y-106612127D01*
X110999998Y-106612111D01*
X110995820Y-106573253D01*
X110995820Y-106546745D01*
X111000000Y-106507873D01*
X110999999Y-105962128D01*
X110999999Y-105962127D01*
X110999998Y-105962111D01*
X110995820Y-105923253D01*
X110995820Y-105896745D01*
X111000000Y-105857873D01*
X110999999Y-105312128D01*
X110993591Y-105252517D01*
X110983667Y-105225910D01*
X110943297Y-105117671D01*
X110943293Y-105117664D01*
X110857047Y-105002455D01*
X110857044Y-105002452D01*
X110741835Y-104916206D01*
X110741828Y-104916202D01*
X110606982Y-104865908D01*
X110606983Y-104865908D01*
X110547383Y-104859501D01*
X110547381Y-104859500D01*
X110547373Y-104859500D01*
X110547364Y-104859500D01*
X108976629Y-104859500D01*
X108976623Y-104859501D01*
X108917016Y-104865908D01*
X108782171Y-104916202D01*
X108782164Y-104916206D01*
X108666955Y-105002452D01*
X108666952Y-105002455D01*
X108580706Y-105117664D01*
X108580702Y-105117671D01*
X108537206Y-105234292D01*
X108530409Y-105252517D01*
X108524000Y-105312127D01*
X108524000Y-105312134D01*
X108524000Y-105312135D01*
X108524000Y-105857869D01*
X108524001Y-105857878D01*
X108528179Y-105896745D01*
X108528179Y-105923250D01*
X108524000Y-105962122D01*
X108524000Y-106507869D01*
X108524001Y-106507878D01*
X108528179Y-106546745D01*
X108528179Y-106573250D01*
X108524000Y-106612122D01*
X108524000Y-107157869D01*
X108524001Y-107157878D01*
X108528179Y-107196745D01*
X108528179Y-107223250D01*
X108524000Y-107262122D01*
X108524000Y-107807869D01*
X108524001Y-107807878D01*
X108528179Y-107846745D01*
X108528179Y-107873250D01*
X108524000Y-107912122D01*
X108524000Y-108457869D01*
X108524001Y-108457878D01*
X108528179Y-108496745D01*
X108528179Y-108523250D01*
X108524000Y-108562122D01*
X108524000Y-109107869D01*
X108524001Y-109107878D01*
X108528179Y-109146745D01*
X108528179Y-109173250D01*
X108524000Y-109212122D01*
X108524000Y-109757869D01*
X108524001Y-109757878D01*
X108528179Y-109796745D01*
X108528179Y-109823250D01*
X108524000Y-109862122D01*
X108524000Y-110407869D01*
X108524001Y-110407878D01*
X108528179Y-110446745D01*
X108528179Y-110473250D01*
X108524000Y-110512122D01*
X108524000Y-110512123D01*
X108524000Y-110512127D01*
X108524000Y-110650547D01*
X108524001Y-110685499D01*
X108504317Y-110752539D01*
X108451513Y-110798294D01*
X108400001Y-110809500D01*
X108305453Y-110809500D01*
X108238414Y-110789815D01*
X108217772Y-110773181D01*
X104290237Y-106845646D01*
X104256752Y-106784323D01*
X104258142Y-106725876D01*
X104285063Y-106625408D01*
X104305659Y-106390000D01*
X104285063Y-106154592D01*
X104233491Y-105962122D01*
X104223905Y-105926344D01*
X104223904Y-105926343D01*
X104223903Y-105926337D01*
X104124035Y-105712171D01*
X104122924Y-105710585D01*
X103988496Y-105518600D01*
X103969280Y-105499384D01*
X103866179Y-105396283D01*
X103832696Y-105334963D01*
X103837680Y-105265271D01*
X103879551Y-105209337D01*
X103910529Y-105192422D01*
X104042086Y-105143354D01*
X104042093Y-105143350D01*
X104157187Y-105057190D01*
X104157190Y-105057187D01*
X104243350Y-104942093D01*
X104243354Y-104942086D01*
X104293596Y-104807379D01*
X104293598Y-104807372D01*
X104299999Y-104747844D01*
X104300000Y-104747827D01*
X104300000Y-104100000D01*
X103383686Y-104100000D01*
X103409493Y-104059844D01*
X103450000Y-103921889D01*
X103450000Y-103778111D01*
X103409493Y-103640156D01*
X103383686Y-103600000D01*
X104300000Y-103600000D01*
X104300000Y-102952172D01*
X104299999Y-102952155D01*
X104293598Y-102892627D01*
X104293596Y-102892620D01*
X104243354Y-102757913D01*
X104243350Y-102757906D01*
X104157190Y-102642812D01*
X104157187Y-102642809D01*
X104042093Y-102556649D01*
X104042086Y-102556645D01*
X103907379Y-102506403D01*
X103907372Y-102506401D01*
X103847844Y-102500000D01*
X103200000Y-102500000D01*
X103200000Y-103414498D01*
X103092315Y-103365320D01*
X102985763Y-103350000D01*
X102914237Y-103350000D01*
X102807685Y-103365320D01*
X102700000Y-103414498D01*
X102700000Y-102500000D01*
X102052155Y-102500000D01*
X101992627Y-102506401D01*
X101992620Y-102506403D01*
X101857913Y-102556645D01*
X101857906Y-102556649D01*
X101742812Y-102642809D01*
X101742809Y-102642812D01*
X101656649Y-102757906D01*
X101656645Y-102757913D01*
X101606403Y-102892620D01*
X101606401Y-102892627D01*
X101600000Y-102952155D01*
X101600000Y-103600000D01*
X102516314Y-103600000D01*
X102490507Y-103640156D01*
X102450000Y-103778111D01*
X102450000Y-103921889D01*
X102490507Y-104059844D01*
X102516314Y-104100000D01*
X101600000Y-104100000D01*
X101600000Y-104747844D01*
X101606401Y-104807372D01*
X101606403Y-104807379D01*
X101656645Y-104942086D01*
X101656649Y-104942093D01*
X101742809Y-105057187D01*
X101742812Y-105057190D01*
X101857906Y-105143350D01*
X101857913Y-105143354D01*
X101989470Y-105192421D01*
X102045403Y-105234292D01*
X102069821Y-105299756D01*
X102054970Y-105368029D01*
X102033819Y-105396284D01*
X101911503Y-105518600D01*
X101775965Y-105712169D01*
X101775964Y-105712171D01*
X101676098Y-105926335D01*
X101676094Y-105926344D01*
X101614938Y-106154586D01*
X101614936Y-106154596D01*
X101594341Y-106389999D01*
X101594341Y-106390000D01*
X101614936Y-106625403D01*
X101614938Y-106625413D01*
X101676094Y-106853655D01*
X101676096Y-106853659D01*
X101676097Y-106853663D01*
X101757313Y-107027831D01*
X101775965Y-107067830D01*
X101775967Y-107067834D01*
X101911501Y-107261395D01*
X101911506Y-107261402D01*
X102078597Y-107428493D01*
X102078603Y-107428498D01*
X102264158Y-107558425D01*
X102307783Y-107613002D01*
X102314977Y-107682500D01*
X102283454Y-107744855D01*
X102264158Y-107761575D01*
X102078597Y-107891505D01*
X101911505Y-108058597D01*
X101775965Y-108252169D01*
X101775964Y-108252171D01*
X101676098Y-108466335D01*
X101676094Y-108466344D01*
X101614938Y-108694586D01*
X101614936Y-108694596D01*
X101594341Y-108929999D01*
X101594341Y-108930000D01*
X101614936Y-109165403D01*
X101614938Y-109165413D01*
X101676094Y-109393655D01*
X101676096Y-109393659D01*
X101676097Y-109393663D01*
X101758672Y-109570745D01*
X101775965Y-109607830D01*
X101775967Y-109607834D01*
X101853264Y-109718224D01*
X101896803Y-109780405D01*
X101911501Y-109801395D01*
X101911506Y-109801402D01*
X102078597Y-109968493D01*
X102078603Y-109968498D01*
X102264158Y-110098425D01*
X102307783Y-110153002D01*
X102314977Y-110222500D01*
X102283454Y-110284855D01*
X102264158Y-110301575D01*
X102078597Y-110431505D01*
X101911505Y-110598597D01*
X101775965Y-110792169D01*
X101775964Y-110792171D01*
X101676098Y-111006335D01*
X101676094Y-111006344D01*
X101614938Y-111234586D01*
X101614936Y-111234596D01*
X101594341Y-111469999D01*
X101594341Y-111470000D01*
X101614936Y-111705403D01*
X101614938Y-111705413D01*
X101676094Y-111933655D01*
X101676096Y-111933659D01*
X101676097Y-111933663D01*
X101739813Y-112070302D01*
X101775965Y-112147830D01*
X101775967Y-112147834D01*
X101911501Y-112341395D01*
X101911506Y-112341402D01*
X102078597Y-112508493D01*
X102078603Y-112508498D01*
X102264158Y-112638425D01*
X102307783Y-112693002D01*
X102314977Y-112762500D01*
X102283454Y-112824855D01*
X102264158Y-112841575D01*
X102078597Y-112971505D01*
X101911505Y-113138597D01*
X101775965Y-113332169D01*
X101775964Y-113332171D01*
X101676098Y-113546335D01*
X101676094Y-113546344D01*
X101614938Y-113774586D01*
X101614936Y-113774596D01*
X101594341Y-114009999D01*
X101594341Y-114010000D01*
X98760500Y-114010000D01*
X98760500Y-98430000D01*
X108954341Y-98430000D01*
X108974936Y-98665403D01*
X108974938Y-98665413D01*
X109036094Y-98893655D01*
X109036096Y-98893659D01*
X109036097Y-98893663D01*
X109052581Y-98929012D01*
X109135965Y-99107830D01*
X109135967Y-99107834D01*
X109200374Y-99199816D01*
X109271505Y-99301401D01*
X109438599Y-99468495D01*
X109509582Y-99518198D01*
X109632165Y-99604032D01*
X109632167Y-99604033D01*
X109632170Y-99604035D01*
X109846337Y-99703903D01*
X110074592Y-99765063D01*
X110262918Y-99781539D01*
X110309999Y-99785659D01*
X110310000Y-99785659D01*
X110310001Y-99785659D01*
X110352827Y-99781912D01*
X110545408Y-99765063D01*
X110773663Y-99703903D01*
X110987830Y-99604035D01*
X111181401Y-99468495D01*
X111348495Y-99301401D01*
X111484035Y-99107830D01*
X111583903Y-98893663D01*
X111645063Y-98665408D01*
X111665659Y-98430000D01*
X111645063Y-98194592D01*
X111583903Y-97966337D01*
X111484035Y-97752171D01*
X111475517Y-97740005D01*
X111348494Y-97558597D01*
X111181402Y-97391506D01*
X111181396Y-97391501D01*
X110995842Y-97261575D01*
X110952217Y-97206998D01*
X110945023Y-97137500D01*
X110976546Y-97075145D01*
X110995842Y-97058425D01*
X111043859Y-97024803D01*
X111181401Y-96928495D01*
X111348495Y-96761401D01*
X111483651Y-96568377D01*
X111538229Y-96524752D01*
X111585227Y-96515500D01*
X112852465Y-96515500D01*
X112919504Y-96535185D01*
X112965259Y-96587989D01*
X112975823Y-96626898D01*
X112980001Y-96667797D01*
X112980001Y-96667799D01*
X113022647Y-96796493D01*
X113035186Y-96834334D01*
X113127288Y-96983656D01*
X113251344Y-97107712D01*
X113400666Y-97199814D01*
X113567203Y-97254999D01*
X113669991Y-97265500D01*
X114570008Y-97265499D01*
X114570016Y-97265498D01*
X114570019Y-97265498D01*
X114663340Y-97255965D01*
X114672797Y-97254999D01*
X114839334Y-97199814D01*
X114988656Y-97107712D01*
X115112712Y-96983656D01*
X115204814Y-96834334D01*
X115259999Y-96667797D01*
X115270500Y-96565009D01*
X115270500Y-96565001D01*
X116069500Y-96565001D01*
X116069501Y-96565018D01*
X116080000Y-96667796D01*
X116080001Y-96667799D01*
X116122647Y-96796493D01*
X116135186Y-96834334D01*
X116227288Y-96983656D01*
X116351344Y-97107712D01*
X116500666Y-97199814D01*
X116589504Y-97229252D01*
X116646948Y-97269023D01*
X116673772Y-97333539D01*
X116674500Y-97346957D01*
X116674500Y-98025145D01*
X116655494Y-98091117D01*
X116574211Y-98220476D01*
X116514631Y-98390745D01*
X116514630Y-98390750D01*
X116494435Y-98569996D01*
X116494435Y-98570003D01*
X116514630Y-98749249D01*
X116514631Y-98749254D01*
X116574211Y-98919523D01*
X116670183Y-99072261D01*
X116670184Y-99072262D01*
X116797738Y-99199816D01*
X116808183Y-99206379D01*
X116894395Y-99260550D01*
X116950478Y-99295789D01*
X117120744Y-99355367D01*
X117120745Y-99355368D01*
X117120750Y-99355369D01*
X117299996Y-99375565D01*
X117300000Y-99375565D01*
X117300004Y-99375565D01*
X117479249Y-99355369D01*
X117479252Y-99355368D01*
X117479255Y-99355368D01*
X117649522Y-99295789D01*
X117802262Y-99199816D01*
X117929816Y-99072262D01*
X118025789Y-98919522D01*
X118085368Y-98749255D01*
X118085369Y-98749249D01*
X118105565Y-98570003D01*
X118105565Y-98569996D01*
X118085369Y-98390750D01*
X118085368Y-98390745D01*
X118085367Y-98390744D01*
X118025789Y-98220478D01*
X117959939Y-98115679D01*
X117944505Y-98091115D01*
X117925499Y-98025143D01*
X117925499Y-97639447D01*
X117925499Y-97277549D01*
X117945184Y-97210514D01*
X117984401Y-97172016D01*
X118088656Y-97107712D01*
X118212712Y-96983656D01*
X118304814Y-96834334D01*
X118351512Y-96693410D01*
X130594924Y-96693410D01*
X130594925Y-96693416D01*
X130601332Y-96753023D01*
X130651626Y-96887868D01*
X130651630Y-96887875D01*
X130737876Y-97003084D01*
X130737879Y-97003087D01*
X130853088Y-97089333D01*
X130853095Y-97089337D01*
X130987941Y-97139631D01*
X130987940Y-97139631D01*
X130994868Y-97140375D01*
X131047551Y-97146040D01*
X132663296Y-97146039D01*
X132722907Y-97139631D01*
X132857755Y-97089336D01*
X132972970Y-97003086D01*
X133059220Y-96887871D01*
X133109515Y-96753023D01*
X133115924Y-96693413D01*
X133115924Y-95885541D01*
X133590109Y-95885541D01*
X133609331Y-96105254D01*
X133609333Y-96105264D01*
X133666414Y-96318295D01*
X133666419Y-96318309D01*
X133759627Y-96518194D01*
X133759631Y-96518202D01*
X133886136Y-96698870D01*
X134042093Y-96854827D01*
X134222761Y-96981332D01*
X134222763Y-96981333D01*
X134222766Y-96981335D01*
X134315993Y-97024807D01*
X134422654Y-97074544D01*
X134422656Y-97074544D01*
X134422661Y-97074547D01*
X134422666Y-97074548D01*
X134422668Y-97074549D01*
X134456430Y-97083595D01*
X134635704Y-97131632D01*
X134792646Y-97145362D01*
X134855422Y-97150855D01*
X134855424Y-97150855D01*
X134855426Y-97150855D01*
X134910483Y-97146038D01*
X135075144Y-97131632D01*
X135288187Y-97074547D01*
X135488082Y-96981335D01*
X135668753Y-96854828D01*
X135824712Y-96698869D01*
X135951219Y-96518198D01*
X136044431Y-96318303D01*
X136101516Y-96105260D01*
X136120739Y-95885541D01*
X136590109Y-95885541D01*
X136609331Y-96105254D01*
X136609333Y-96105264D01*
X136666414Y-96318295D01*
X136666419Y-96318309D01*
X136759627Y-96518194D01*
X136759631Y-96518202D01*
X136886136Y-96698870D01*
X137042093Y-96854827D01*
X137222761Y-96981332D01*
X137222763Y-96981333D01*
X137222766Y-96981335D01*
X137315993Y-97024807D01*
X137422654Y-97074544D01*
X137422656Y-97074544D01*
X137422661Y-97074547D01*
X137422666Y-97074548D01*
X137422668Y-97074549D01*
X137456430Y-97083595D01*
X137635704Y-97131632D01*
X137792646Y-97145362D01*
X137855422Y-97150855D01*
X137855424Y-97150855D01*
X137855426Y-97150855D01*
X137910483Y-97146038D01*
X138075144Y-97131632D01*
X138288187Y-97074547D01*
X138488082Y-96981335D01*
X138668753Y-96854828D01*
X138824712Y-96698869D01*
X138951219Y-96518198D01*
X139044431Y-96318303D01*
X139101516Y-96105260D01*
X139120739Y-95885541D01*
X139590109Y-95885541D01*
X139609331Y-96105254D01*
X139609333Y-96105264D01*
X139666414Y-96318295D01*
X139666419Y-96318309D01*
X139759627Y-96518194D01*
X139759631Y-96518202D01*
X139886136Y-96698870D01*
X140042093Y-96854827D01*
X140222761Y-96981332D01*
X140222763Y-96981333D01*
X140222766Y-96981335D01*
X140315993Y-97024807D01*
X140422654Y-97074544D01*
X140422656Y-97074544D01*
X140422661Y-97074547D01*
X140422666Y-97074548D01*
X140422668Y-97074549D01*
X140456430Y-97083595D01*
X140635704Y-97131632D01*
X140792646Y-97145362D01*
X140855422Y-97150855D01*
X140855424Y-97150855D01*
X140855426Y-97150855D01*
X140910483Y-97146038D01*
X141075144Y-97131632D01*
X141288187Y-97074547D01*
X141488082Y-96981335D01*
X141668753Y-96854828D01*
X141824712Y-96698869D01*
X141951219Y-96518198D01*
X142044431Y-96318303D01*
X142101516Y-96105260D01*
X142120739Y-95885541D01*
X142590109Y-95885541D01*
X142609331Y-96105254D01*
X142609333Y-96105264D01*
X142666414Y-96318295D01*
X142666419Y-96318309D01*
X142759627Y-96518194D01*
X142759631Y-96518202D01*
X142886136Y-96698870D01*
X143042093Y-96854827D01*
X143222761Y-96981332D01*
X143222763Y-96981333D01*
X143222766Y-96981335D01*
X143315993Y-97024807D01*
X143422654Y-97074544D01*
X143422656Y-97074544D01*
X143422661Y-97074547D01*
X143422666Y-97074548D01*
X143422668Y-97074549D01*
X143456430Y-97083595D01*
X143635704Y-97131632D01*
X143792646Y-97145362D01*
X143855422Y-97150855D01*
X143855424Y-97150855D01*
X143855426Y-97150855D01*
X143910483Y-97146038D01*
X144075144Y-97131632D01*
X144288187Y-97074547D01*
X144488082Y-96981335D01*
X144668753Y-96854828D01*
X144824712Y-96698869D01*
X144951219Y-96518198D01*
X145044431Y-96318303D01*
X145101516Y-96105260D01*
X145120739Y-95885541D01*
X145590109Y-95885541D01*
X145609331Y-96105254D01*
X145609333Y-96105264D01*
X145666414Y-96318295D01*
X145666419Y-96318309D01*
X145759627Y-96518194D01*
X145759631Y-96518202D01*
X145886136Y-96698870D01*
X146042093Y-96854827D01*
X146222761Y-96981332D01*
X146222763Y-96981333D01*
X146222766Y-96981335D01*
X146315993Y-97024807D01*
X146422654Y-97074544D01*
X146422656Y-97074544D01*
X146422661Y-97074547D01*
X146422666Y-97074548D01*
X146422668Y-97074549D01*
X146456430Y-97083595D01*
X146635704Y-97131632D01*
X146792646Y-97145362D01*
X146855422Y-97150855D01*
X146855424Y-97150855D01*
X146855426Y-97150855D01*
X146910483Y-97146038D01*
X147075144Y-97131632D01*
X147288187Y-97074547D01*
X147488082Y-96981335D01*
X147668753Y-96854828D01*
X147824712Y-96698869D01*
X147951219Y-96518198D01*
X148044431Y-96318303D01*
X148101516Y-96105260D01*
X148120739Y-95885541D01*
X148590109Y-95885541D01*
X148609331Y-96105254D01*
X148609333Y-96105264D01*
X148666414Y-96318295D01*
X148666419Y-96318309D01*
X148759627Y-96518194D01*
X148759631Y-96518202D01*
X148886136Y-96698870D01*
X149042093Y-96854827D01*
X149222761Y-96981332D01*
X149222763Y-96981333D01*
X149222766Y-96981335D01*
X149315993Y-97024807D01*
X149422654Y-97074544D01*
X149422656Y-97074544D01*
X149422661Y-97074547D01*
X149422666Y-97074548D01*
X149422668Y-97074549D01*
X149456430Y-97083595D01*
X149635704Y-97131632D01*
X149792646Y-97145362D01*
X149855422Y-97150855D01*
X149855424Y-97150855D01*
X149855426Y-97150855D01*
X149910483Y-97146038D01*
X150075144Y-97131632D01*
X150288187Y-97074547D01*
X150488082Y-96981335D01*
X150668753Y-96854828D01*
X150824712Y-96698869D01*
X150951219Y-96518198D01*
X151044431Y-96318303D01*
X151101516Y-96105260D01*
X151120739Y-95885541D01*
X151590109Y-95885541D01*
X151609331Y-96105254D01*
X151609333Y-96105264D01*
X151666414Y-96318295D01*
X151666419Y-96318309D01*
X151759627Y-96518194D01*
X151759631Y-96518202D01*
X151886136Y-96698870D01*
X152042093Y-96854827D01*
X152222761Y-96981332D01*
X152222763Y-96981333D01*
X152222766Y-96981335D01*
X152315993Y-97024807D01*
X152422654Y-97074544D01*
X152422656Y-97074544D01*
X152422661Y-97074547D01*
X152422666Y-97074548D01*
X152422668Y-97074549D01*
X152456430Y-97083595D01*
X152635704Y-97131632D01*
X152792646Y-97145362D01*
X152855422Y-97150855D01*
X152855424Y-97150855D01*
X152855426Y-97150855D01*
X152910483Y-97146038D01*
X153075144Y-97131632D01*
X153288187Y-97074547D01*
X153488082Y-96981335D01*
X153668753Y-96854828D01*
X153786700Y-96736881D01*
X168501250Y-96736881D01*
X168501251Y-96736887D01*
X168507658Y-96796494D01*
X168557952Y-96931339D01*
X168557956Y-96931346D01*
X168644202Y-97046555D01*
X168644205Y-97046558D01*
X168759414Y-97132804D01*
X168759421Y-97132808D01*
X168894267Y-97183102D01*
X168894266Y-97183102D01*
X168901194Y-97183846D01*
X168953877Y-97189511D01*
X170569622Y-97189510D01*
X170629233Y-97183102D01*
X170764081Y-97132807D01*
X170879296Y-97046557D01*
X170965546Y-96931342D01*
X171015841Y-96796494D01*
X171022250Y-96736884D01*
X171022250Y-95929012D01*
X171496435Y-95929012D01*
X171515657Y-96148725D01*
X171515659Y-96148735D01*
X171572740Y-96361766D01*
X171572745Y-96361780D01*
X171665953Y-96561665D01*
X171665957Y-96561673D01*
X171792462Y-96742341D01*
X171948419Y-96898298D01*
X172129087Y-97024803D01*
X172129089Y-97024804D01*
X172129092Y-97024806D01*
X172235756Y-97074544D01*
X172328980Y-97118015D01*
X172328982Y-97118015D01*
X172328987Y-97118018D01*
X172542030Y-97175103D01*
X172698972Y-97188833D01*
X172761748Y-97194326D01*
X172761750Y-97194326D01*
X172761752Y-97194326D01*
X172816809Y-97189509D01*
X172981470Y-97175103D01*
X173194513Y-97118018D01*
X173394408Y-97024806D01*
X173575079Y-96898299D01*
X173731038Y-96742340D01*
X173857545Y-96561669D01*
X173950757Y-96361774D01*
X174007842Y-96148731D01*
X174027065Y-95929012D01*
X174496435Y-95929012D01*
X174515657Y-96148725D01*
X174515659Y-96148735D01*
X174572740Y-96361766D01*
X174572745Y-96361780D01*
X174665953Y-96561665D01*
X174665957Y-96561673D01*
X174792462Y-96742341D01*
X174948419Y-96898298D01*
X175129087Y-97024803D01*
X175129089Y-97024804D01*
X175129092Y-97024806D01*
X175235756Y-97074544D01*
X175328980Y-97118015D01*
X175328982Y-97118015D01*
X175328987Y-97118018D01*
X175542030Y-97175103D01*
X175698972Y-97188833D01*
X175761748Y-97194326D01*
X175761750Y-97194326D01*
X175761752Y-97194326D01*
X175816809Y-97189509D01*
X175981470Y-97175103D01*
X176194513Y-97118018D01*
X176394408Y-97024806D01*
X176575079Y-96898299D01*
X176731038Y-96742340D01*
X176857545Y-96561669D01*
X176950757Y-96361774D01*
X177007842Y-96148731D01*
X177027065Y-95929012D01*
X177496435Y-95929012D01*
X177515657Y-96148725D01*
X177515659Y-96148735D01*
X177572740Y-96361766D01*
X177572745Y-96361780D01*
X177665953Y-96561665D01*
X177665957Y-96561673D01*
X177792462Y-96742341D01*
X177948419Y-96898298D01*
X178129087Y-97024803D01*
X178129089Y-97024804D01*
X178129092Y-97024806D01*
X178235756Y-97074544D01*
X178328980Y-97118015D01*
X178328982Y-97118015D01*
X178328987Y-97118018D01*
X178542030Y-97175103D01*
X178698972Y-97188833D01*
X178761748Y-97194326D01*
X178761750Y-97194326D01*
X178761752Y-97194326D01*
X178816809Y-97189509D01*
X178981470Y-97175103D01*
X179194513Y-97118018D01*
X179394408Y-97024806D01*
X179575079Y-96898299D01*
X179731038Y-96742340D01*
X179857545Y-96561669D01*
X179950757Y-96361774D01*
X180007842Y-96148731D01*
X180027065Y-95929012D01*
X180496435Y-95929012D01*
X180515657Y-96148725D01*
X180515659Y-96148735D01*
X180572740Y-96361766D01*
X180572745Y-96361780D01*
X180665953Y-96561665D01*
X180665957Y-96561673D01*
X180792462Y-96742341D01*
X180948419Y-96898298D01*
X181129087Y-97024803D01*
X181129089Y-97024804D01*
X181129092Y-97024806D01*
X181235756Y-97074544D01*
X181328980Y-97118015D01*
X181328982Y-97118015D01*
X181328987Y-97118018D01*
X181542030Y-97175103D01*
X181698972Y-97188833D01*
X181761748Y-97194326D01*
X181761750Y-97194326D01*
X181761752Y-97194326D01*
X181816809Y-97189509D01*
X181981470Y-97175103D01*
X182194513Y-97118018D01*
X182394408Y-97024806D01*
X182575079Y-96898299D01*
X182731038Y-96742340D01*
X182857545Y-96561669D01*
X182950757Y-96361774D01*
X183007842Y-96148731D01*
X183027065Y-95929012D01*
X183496435Y-95929012D01*
X183515657Y-96148725D01*
X183515659Y-96148735D01*
X183572740Y-96361766D01*
X183572745Y-96361780D01*
X183665953Y-96561665D01*
X183665957Y-96561673D01*
X183792462Y-96742341D01*
X183948419Y-96898298D01*
X184129087Y-97024803D01*
X184129089Y-97024804D01*
X184129092Y-97024806D01*
X184235756Y-97074544D01*
X184328980Y-97118015D01*
X184328982Y-97118015D01*
X184328987Y-97118018D01*
X184542030Y-97175103D01*
X184698972Y-97188833D01*
X184761748Y-97194326D01*
X184761750Y-97194326D01*
X184761752Y-97194326D01*
X184816809Y-97189509D01*
X184981470Y-97175103D01*
X185194513Y-97118018D01*
X185394408Y-97024806D01*
X185575079Y-96898299D01*
X185731038Y-96742340D01*
X185857545Y-96561669D01*
X185950757Y-96361774D01*
X186007842Y-96148731D01*
X186027065Y-95929012D01*
X186496435Y-95929012D01*
X186515657Y-96148725D01*
X186515659Y-96148735D01*
X186572740Y-96361766D01*
X186572745Y-96361780D01*
X186665953Y-96561665D01*
X186665957Y-96561673D01*
X186792462Y-96742341D01*
X186948419Y-96898298D01*
X187129087Y-97024803D01*
X187129089Y-97024804D01*
X187129092Y-97024806D01*
X187235756Y-97074544D01*
X187328980Y-97118015D01*
X187328982Y-97118015D01*
X187328987Y-97118018D01*
X187542030Y-97175103D01*
X187698972Y-97188833D01*
X187761748Y-97194326D01*
X187761750Y-97194326D01*
X187761752Y-97194326D01*
X187816809Y-97189509D01*
X187981470Y-97175103D01*
X188194513Y-97118018D01*
X188394408Y-97024806D01*
X188575079Y-96898299D01*
X188731038Y-96742340D01*
X188857545Y-96561669D01*
X188950757Y-96361774D01*
X189007842Y-96148731D01*
X189027065Y-95929012D01*
X189496435Y-95929012D01*
X189515657Y-96148725D01*
X189515659Y-96148735D01*
X189572740Y-96361766D01*
X189572745Y-96361780D01*
X189665953Y-96561665D01*
X189665957Y-96561673D01*
X189792462Y-96742341D01*
X189948419Y-96898298D01*
X190129087Y-97024803D01*
X190129089Y-97024804D01*
X190129092Y-97024806D01*
X190235756Y-97074544D01*
X190328980Y-97118015D01*
X190328982Y-97118015D01*
X190328987Y-97118018D01*
X190542030Y-97175103D01*
X190698972Y-97188833D01*
X190761748Y-97194326D01*
X190761750Y-97194326D01*
X190761752Y-97194326D01*
X190816809Y-97189509D01*
X190981470Y-97175103D01*
X191194513Y-97118018D01*
X191394408Y-97024806D01*
X191575079Y-96898299D01*
X191731038Y-96742340D01*
X191857545Y-96561669D01*
X191950757Y-96361774D01*
X192007842Y-96148731D01*
X192027065Y-95929011D01*
X192007842Y-95709291D01*
X191950757Y-95496248D01*
X191857545Y-95296354D01*
X191731038Y-95115682D01*
X191731036Y-95115679D01*
X191575080Y-94959723D01*
X191394412Y-94833218D01*
X191394404Y-94833214D01*
X191194519Y-94740006D01*
X191194505Y-94740001D01*
X190981474Y-94682920D01*
X190981472Y-94682919D01*
X190981470Y-94682919D01*
X190981468Y-94682918D01*
X190981464Y-94682918D01*
X190761752Y-94663696D01*
X190761748Y-94663696D01*
X190542035Y-94682918D01*
X190542025Y-94682920D01*
X190328994Y-94740001D01*
X190328985Y-94740005D01*
X190129094Y-94833215D01*
X190129092Y-94833216D01*
X189948418Y-94959724D01*
X189792463Y-95115679D01*
X189665955Y-95296353D01*
X189665954Y-95296355D01*
X189572744Y-95496246D01*
X189572740Y-95496255D01*
X189515659Y-95709286D01*
X189515657Y-95709296D01*
X189496435Y-95929009D01*
X189496435Y-95929012D01*
X189027065Y-95929012D01*
X189027065Y-95929011D01*
X189007842Y-95709291D01*
X188950757Y-95496248D01*
X188857545Y-95296354D01*
X188731038Y-95115682D01*
X188731036Y-95115679D01*
X188575080Y-94959723D01*
X188394412Y-94833218D01*
X188394404Y-94833214D01*
X188194519Y-94740006D01*
X188194505Y-94740001D01*
X187981474Y-94682920D01*
X187981472Y-94682919D01*
X187981470Y-94682919D01*
X187981468Y-94682918D01*
X187981464Y-94682918D01*
X187761752Y-94663696D01*
X187761748Y-94663696D01*
X187542035Y-94682918D01*
X187542025Y-94682920D01*
X187328994Y-94740001D01*
X187328985Y-94740005D01*
X187129094Y-94833215D01*
X187129092Y-94833216D01*
X186948418Y-94959724D01*
X186792463Y-95115679D01*
X186665955Y-95296353D01*
X186665954Y-95296355D01*
X186572744Y-95496246D01*
X186572740Y-95496255D01*
X186515659Y-95709286D01*
X186515657Y-95709296D01*
X186496435Y-95929009D01*
X186496435Y-95929012D01*
X186027065Y-95929012D01*
X186027065Y-95929011D01*
X186007842Y-95709291D01*
X185950757Y-95496248D01*
X185857545Y-95296354D01*
X185731038Y-95115682D01*
X185731036Y-95115679D01*
X185575080Y-94959723D01*
X185394412Y-94833218D01*
X185394404Y-94833214D01*
X185194519Y-94740006D01*
X185194505Y-94740001D01*
X184981474Y-94682920D01*
X184981472Y-94682919D01*
X184981470Y-94682919D01*
X184981468Y-94682918D01*
X184981464Y-94682918D01*
X184761752Y-94663696D01*
X184761748Y-94663696D01*
X184542035Y-94682918D01*
X184542025Y-94682920D01*
X184328994Y-94740001D01*
X184328985Y-94740005D01*
X184129094Y-94833215D01*
X184129092Y-94833216D01*
X183948418Y-94959724D01*
X183792463Y-95115679D01*
X183665955Y-95296353D01*
X183665954Y-95296355D01*
X183572744Y-95496246D01*
X183572740Y-95496255D01*
X183515659Y-95709286D01*
X183515657Y-95709296D01*
X183496435Y-95929009D01*
X183496435Y-95929012D01*
X183027065Y-95929012D01*
X183027065Y-95929011D01*
X183007842Y-95709291D01*
X182950757Y-95496248D01*
X182857545Y-95296354D01*
X182731038Y-95115682D01*
X182731036Y-95115679D01*
X182575080Y-94959723D01*
X182394412Y-94833218D01*
X182394404Y-94833214D01*
X182194519Y-94740006D01*
X182194505Y-94740001D01*
X181981474Y-94682920D01*
X181981472Y-94682919D01*
X181981470Y-94682919D01*
X181981468Y-94682918D01*
X181981464Y-94682918D01*
X181761752Y-94663696D01*
X181761748Y-94663696D01*
X181542035Y-94682918D01*
X181542025Y-94682920D01*
X181328994Y-94740001D01*
X181328985Y-94740005D01*
X181129094Y-94833215D01*
X181129092Y-94833216D01*
X180948418Y-94959724D01*
X180792463Y-95115679D01*
X180665955Y-95296353D01*
X180665954Y-95296355D01*
X180572744Y-95496246D01*
X180572740Y-95496255D01*
X180515659Y-95709286D01*
X180515657Y-95709296D01*
X180496435Y-95929009D01*
X180496435Y-95929012D01*
X180027065Y-95929012D01*
X180027065Y-95929011D01*
X180007842Y-95709291D01*
X179950757Y-95496248D01*
X179857545Y-95296354D01*
X179731038Y-95115682D01*
X179731036Y-95115679D01*
X179575080Y-94959723D01*
X179394412Y-94833218D01*
X179394404Y-94833214D01*
X179194519Y-94740006D01*
X179194505Y-94740001D01*
X178981474Y-94682920D01*
X178981472Y-94682919D01*
X178981470Y-94682919D01*
X178981468Y-94682918D01*
X178981464Y-94682918D01*
X178761752Y-94663696D01*
X178761748Y-94663696D01*
X178542035Y-94682918D01*
X178542025Y-94682920D01*
X178328994Y-94740001D01*
X178328985Y-94740005D01*
X178129094Y-94833215D01*
X178129092Y-94833216D01*
X177948418Y-94959724D01*
X177792463Y-95115679D01*
X177665955Y-95296353D01*
X177665954Y-95296355D01*
X177572744Y-95496246D01*
X177572740Y-95496255D01*
X177515659Y-95709286D01*
X177515657Y-95709296D01*
X177496435Y-95929009D01*
X177496435Y-95929012D01*
X177027065Y-95929012D01*
X177027065Y-95929011D01*
X177007842Y-95709291D01*
X176950757Y-95496248D01*
X176857545Y-95296354D01*
X176731038Y-95115682D01*
X176731036Y-95115679D01*
X176575080Y-94959723D01*
X176394412Y-94833218D01*
X176394404Y-94833214D01*
X176194519Y-94740006D01*
X176194505Y-94740001D01*
X175981474Y-94682920D01*
X175981472Y-94682919D01*
X175981470Y-94682919D01*
X175981468Y-94682918D01*
X175981464Y-94682918D01*
X175761752Y-94663696D01*
X175761748Y-94663696D01*
X175542035Y-94682918D01*
X175542025Y-94682920D01*
X175328994Y-94740001D01*
X175328985Y-94740005D01*
X175129094Y-94833215D01*
X175129092Y-94833216D01*
X174948418Y-94959724D01*
X174792463Y-95115679D01*
X174665955Y-95296353D01*
X174665954Y-95296355D01*
X174572744Y-95496246D01*
X174572740Y-95496255D01*
X174515659Y-95709286D01*
X174515657Y-95709296D01*
X174496435Y-95929009D01*
X174496435Y-95929012D01*
X174027065Y-95929012D01*
X174027065Y-95929011D01*
X174007842Y-95709291D01*
X173950757Y-95496248D01*
X173857545Y-95296354D01*
X173731038Y-95115682D01*
X173731036Y-95115679D01*
X173575080Y-94959723D01*
X173394412Y-94833218D01*
X173394404Y-94833214D01*
X173194519Y-94740006D01*
X173194505Y-94740001D01*
X172981474Y-94682920D01*
X172981472Y-94682919D01*
X172981470Y-94682919D01*
X172981468Y-94682918D01*
X172981464Y-94682918D01*
X172761752Y-94663696D01*
X172761748Y-94663696D01*
X172542035Y-94682918D01*
X172542025Y-94682920D01*
X172328994Y-94740001D01*
X172328985Y-94740005D01*
X172129094Y-94833215D01*
X172129092Y-94833216D01*
X171948418Y-94959724D01*
X171792463Y-95115679D01*
X171665955Y-95296353D01*
X171665954Y-95296355D01*
X171572744Y-95496246D01*
X171572740Y-95496255D01*
X171515659Y-95709286D01*
X171515657Y-95709296D01*
X171496435Y-95929009D01*
X171496435Y-95929012D01*
X171022250Y-95929012D01*
X171022249Y-95121139D01*
X171015841Y-95061528D01*
X170999627Y-95018057D01*
X170965547Y-94926682D01*
X170965543Y-94926675D01*
X170879297Y-94811466D01*
X170879294Y-94811463D01*
X170764085Y-94725217D01*
X170764078Y-94725213D01*
X170629232Y-94674919D01*
X170629233Y-94674919D01*
X170569633Y-94668512D01*
X170569631Y-94668511D01*
X170569623Y-94668511D01*
X170569614Y-94668511D01*
X168953879Y-94668511D01*
X168953873Y-94668512D01*
X168894266Y-94674919D01*
X168759421Y-94725213D01*
X168759414Y-94725217D01*
X168644205Y-94811463D01*
X168644202Y-94811466D01*
X168557956Y-94926675D01*
X168557952Y-94926682D01*
X168507658Y-95061528D01*
X168501251Y-95121127D01*
X168501251Y-95121134D01*
X168501250Y-95121146D01*
X168501250Y-96736881D01*
X153786700Y-96736881D01*
X153824712Y-96698869D01*
X153951219Y-96518198D01*
X154044431Y-96318303D01*
X154101516Y-96105260D01*
X154120739Y-95885540D01*
X154101516Y-95665820D01*
X154044431Y-95452777D01*
X153951219Y-95252883D01*
X153824712Y-95072211D01*
X153824710Y-95072208D01*
X153668754Y-94916252D01*
X153488086Y-94789747D01*
X153488078Y-94789743D01*
X153288193Y-94696535D01*
X153288179Y-94696530D01*
X153075148Y-94639449D01*
X153075146Y-94639448D01*
X153075144Y-94639448D01*
X153075142Y-94639447D01*
X153075138Y-94639447D01*
X152855426Y-94620225D01*
X152855422Y-94620225D01*
X152635709Y-94639447D01*
X152635699Y-94639449D01*
X152422668Y-94696530D01*
X152422659Y-94696534D01*
X152222768Y-94789744D01*
X152222766Y-94789745D01*
X152042092Y-94916253D01*
X151886137Y-95072208D01*
X151759629Y-95252882D01*
X151759628Y-95252884D01*
X151666418Y-95452775D01*
X151666414Y-95452784D01*
X151609333Y-95665815D01*
X151609331Y-95665825D01*
X151590109Y-95885538D01*
X151590109Y-95885541D01*
X151120739Y-95885541D01*
X151120739Y-95885540D01*
X151101516Y-95665820D01*
X151044431Y-95452777D01*
X150951219Y-95252883D01*
X150824712Y-95072211D01*
X150824710Y-95072208D01*
X150668754Y-94916252D01*
X150488086Y-94789747D01*
X150488078Y-94789743D01*
X150288193Y-94696535D01*
X150288179Y-94696530D01*
X150075148Y-94639449D01*
X150075146Y-94639448D01*
X150075144Y-94639448D01*
X150075142Y-94639447D01*
X150075138Y-94639447D01*
X149855426Y-94620225D01*
X149855422Y-94620225D01*
X149635709Y-94639447D01*
X149635699Y-94639449D01*
X149422668Y-94696530D01*
X149422659Y-94696534D01*
X149222768Y-94789744D01*
X149222766Y-94789745D01*
X149042092Y-94916253D01*
X148886137Y-95072208D01*
X148759629Y-95252882D01*
X148759628Y-95252884D01*
X148666418Y-95452775D01*
X148666414Y-95452784D01*
X148609333Y-95665815D01*
X148609331Y-95665825D01*
X148590109Y-95885538D01*
X148590109Y-95885541D01*
X148120739Y-95885541D01*
X148120739Y-95885540D01*
X148101516Y-95665820D01*
X148044431Y-95452777D01*
X147951219Y-95252883D01*
X147824712Y-95072211D01*
X147824710Y-95072208D01*
X147668754Y-94916252D01*
X147488086Y-94789747D01*
X147488078Y-94789743D01*
X147288193Y-94696535D01*
X147288179Y-94696530D01*
X147075148Y-94639449D01*
X147075146Y-94639448D01*
X147075144Y-94639448D01*
X147075142Y-94639447D01*
X147075138Y-94639447D01*
X146855426Y-94620225D01*
X146855422Y-94620225D01*
X146635709Y-94639447D01*
X146635699Y-94639449D01*
X146422668Y-94696530D01*
X146422659Y-94696534D01*
X146222768Y-94789744D01*
X146222766Y-94789745D01*
X146042092Y-94916253D01*
X145886137Y-95072208D01*
X145759629Y-95252882D01*
X145759628Y-95252884D01*
X145666418Y-95452775D01*
X145666414Y-95452784D01*
X145609333Y-95665815D01*
X145609331Y-95665825D01*
X145590109Y-95885538D01*
X145590109Y-95885541D01*
X145120739Y-95885541D01*
X145120739Y-95885540D01*
X145101516Y-95665820D01*
X145044431Y-95452777D01*
X144951219Y-95252883D01*
X144824712Y-95072211D01*
X144824710Y-95072208D01*
X144668754Y-94916252D01*
X144488086Y-94789747D01*
X144488078Y-94789743D01*
X144288193Y-94696535D01*
X144288179Y-94696530D01*
X144075148Y-94639449D01*
X144075146Y-94639448D01*
X144075144Y-94639448D01*
X144075142Y-94639447D01*
X144075138Y-94639447D01*
X143855426Y-94620225D01*
X143855422Y-94620225D01*
X143635709Y-94639447D01*
X143635699Y-94639449D01*
X143422668Y-94696530D01*
X143422659Y-94696534D01*
X143222768Y-94789744D01*
X143222766Y-94789745D01*
X143042092Y-94916253D01*
X142886137Y-95072208D01*
X142759629Y-95252882D01*
X142759628Y-95252884D01*
X142666418Y-95452775D01*
X142666414Y-95452784D01*
X142609333Y-95665815D01*
X142609331Y-95665825D01*
X142590109Y-95885538D01*
X142590109Y-95885541D01*
X142120739Y-95885541D01*
X142120739Y-95885540D01*
X142101516Y-95665820D01*
X142044431Y-95452777D01*
X141951219Y-95252883D01*
X141824712Y-95072211D01*
X141824710Y-95072208D01*
X141668754Y-94916252D01*
X141488086Y-94789747D01*
X141488078Y-94789743D01*
X141288193Y-94696535D01*
X141288179Y-94696530D01*
X141075148Y-94639449D01*
X141075146Y-94639448D01*
X141075144Y-94639448D01*
X141075142Y-94639447D01*
X141075138Y-94639447D01*
X140855426Y-94620225D01*
X140855422Y-94620225D01*
X140635709Y-94639447D01*
X140635699Y-94639449D01*
X140422668Y-94696530D01*
X140422659Y-94696534D01*
X140222768Y-94789744D01*
X140222766Y-94789745D01*
X140042092Y-94916253D01*
X139886137Y-95072208D01*
X139759629Y-95252882D01*
X139759628Y-95252884D01*
X139666418Y-95452775D01*
X139666414Y-95452784D01*
X139609333Y-95665815D01*
X139609331Y-95665825D01*
X139590109Y-95885538D01*
X139590109Y-95885541D01*
X139120739Y-95885541D01*
X139120739Y-95885540D01*
X139101516Y-95665820D01*
X139044431Y-95452777D01*
X138951219Y-95252883D01*
X138824712Y-95072211D01*
X138824710Y-95072208D01*
X138668754Y-94916252D01*
X138488086Y-94789747D01*
X138488078Y-94789743D01*
X138288193Y-94696535D01*
X138288179Y-94696530D01*
X138075148Y-94639449D01*
X138075146Y-94639448D01*
X138075144Y-94639448D01*
X138075142Y-94639447D01*
X138075138Y-94639447D01*
X137855426Y-94620225D01*
X137855422Y-94620225D01*
X137635709Y-94639447D01*
X137635699Y-94639449D01*
X137422668Y-94696530D01*
X137422659Y-94696534D01*
X137222768Y-94789744D01*
X137222766Y-94789745D01*
X137042092Y-94916253D01*
X136886137Y-95072208D01*
X136759629Y-95252882D01*
X136759628Y-95252884D01*
X136666418Y-95452775D01*
X136666414Y-95452784D01*
X136609333Y-95665815D01*
X136609331Y-95665825D01*
X136590109Y-95885538D01*
X136590109Y-95885541D01*
X136120739Y-95885541D01*
X136120739Y-95885540D01*
X136101516Y-95665820D01*
X136044431Y-95452777D01*
X135951219Y-95252883D01*
X135824712Y-95072211D01*
X135824710Y-95072208D01*
X135668754Y-94916252D01*
X135488086Y-94789747D01*
X135488078Y-94789743D01*
X135288193Y-94696535D01*
X135288179Y-94696530D01*
X135075148Y-94639449D01*
X135075146Y-94639448D01*
X135075144Y-94639448D01*
X135075142Y-94639447D01*
X135075138Y-94639447D01*
X134855426Y-94620225D01*
X134855422Y-94620225D01*
X134635709Y-94639447D01*
X134635699Y-94639449D01*
X134422668Y-94696530D01*
X134422659Y-94696534D01*
X134222768Y-94789744D01*
X134222766Y-94789745D01*
X134042092Y-94916253D01*
X133886137Y-95072208D01*
X133759629Y-95252882D01*
X133759628Y-95252884D01*
X133666418Y-95452775D01*
X133666414Y-95452784D01*
X133609333Y-95665815D01*
X133609331Y-95665825D01*
X133590109Y-95885538D01*
X133590109Y-95885541D01*
X133115924Y-95885541D01*
X133115923Y-95077668D01*
X133109515Y-95018057D01*
X133087758Y-94959724D01*
X133059221Y-94883211D01*
X133059217Y-94883204D01*
X132972971Y-94767995D01*
X132972968Y-94767992D01*
X132857759Y-94681746D01*
X132857752Y-94681742D01*
X132722906Y-94631448D01*
X132722907Y-94631448D01*
X132663307Y-94625041D01*
X132663305Y-94625040D01*
X132663297Y-94625040D01*
X132663288Y-94625040D01*
X131047553Y-94625040D01*
X131047547Y-94625041D01*
X130987940Y-94631448D01*
X130853095Y-94681742D01*
X130853088Y-94681746D01*
X130737879Y-94767992D01*
X130737876Y-94767995D01*
X130651630Y-94883204D01*
X130651626Y-94883211D01*
X130601332Y-95018057D01*
X130594925Y-95077656D01*
X130594925Y-95077663D01*
X130594924Y-95077675D01*
X130594924Y-96693410D01*
X118351512Y-96693410D01*
X118359999Y-96667797D01*
X118370500Y-96565009D01*
X118370499Y-95214992D01*
X118359999Y-95112203D01*
X118304814Y-94945666D01*
X118212712Y-94796344D01*
X118088656Y-94672288D01*
X117939334Y-94580186D01*
X117772797Y-94525001D01*
X117772795Y-94525000D01*
X117670010Y-94514500D01*
X116769998Y-94514500D01*
X116769980Y-94514501D01*
X116667203Y-94525000D01*
X116667200Y-94525001D01*
X116500668Y-94580185D01*
X116500663Y-94580187D01*
X116351342Y-94672289D01*
X116227289Y-94796342D01*
X116135187Y-94945663D01*
X116135185Y-94945668D01*
X116111198Y-95018056D01*
X116080001Y-95112203D01*
X116080001Y-95112204D01*
X116080000Y-95112204D01*
X116069500Y-95214983D01*
X116069500Y-96565001D01*
X115270500Y-96565001D01*
X115270499Y-95214992D01*
X115259999Y-95112203D01*
X115204814Y-94945666D01*
X115112712Y-94796344D01*
X114988656Y-94672288D01*
X114839334Y-94580186D01*
X114672797Y-94525001D01*
X114672795Y-94525000D01*
X114570010Y-94514500D01*
X113669998Y-94514500D01*
X113669980Y-94514501D01*
X113567203Y-94525000D01*
X113567200Y-94525001D01*
X113400668Y-94580185D01*
X113400663Y-94580187D01*
X113251342Y-94672289D01*
X113127289Y-94796342D01*
X113035187Y-94945663D01*
X113035185Y-94945668D01*
X113011198Y-95018056D01*
X112991443Y-95077675D01*
X112980001Y-95112204D01*
X112980000Y-95112205D01*
X112975823Y-95153102D01*
X112949427Y-95217793D01*
X112892247Y-95257945D01*
X112852465Y-95264500D01*
X111585227Y-95264500D01*
X111518188Y-95244815D01*
X111483652Y-95211623D01*
X111348496Y-95018600D01*
X111289619Y-94959723D01*
X111226179Y-94896283D01*
X111192696Y-94834963D01*
X111197680Y-94765271D01*
X111239551Y-94709337D01*
X111270529Y-94692422D01*
X111402086Y-94643354D01*
X111402093Y-94643350D01*
X111517187Y-94557190D01*
X111517190Y-94557187D01*
X111603350Y-94442093D01*
X111603354Y-94442086D01*
X111653596Y-94307379D01*
X111653598Y-94307372D01*
X111659999Y-94247844D01*
X111660000Y-94247827D01*
X111660000Y-93600000D01*
X110743686Y-93600000D01*
X110769493Y-93559844D01*
X110810000Y-93421889D01*
X110810000Y-93278111D01*
X110769493Y-93140156D01*
X110743686Y-93100000D01*
X111660000Y-93100000D01*
X111660000Y-92452172D01*
X111659999Y-92452155D01*
X111653598Y-92392627D01*
X111653596Y-92392620D01*
X111603354Y-92257913D01*
X111603350Y-92257906D01*
X111517190Y-92142812D01*
X111517187Y-92142809D01*
X111402093Y-92056649D01*
X111402086Y-92056645D01*
X111267379Y-92006403D01*
X111267372Y-92006401D01*
X111207844Y-92000000D01*
X110560000Y-92000000D01*
X110560000Y-92914498D01*
X110452315Y-92865320D01*
X110345763Y-92850000D01*
X110274237Y-92850000D01*
X110167685Y-92865320D01*
X110060000Y-92914498D01*
X110060000Y-92000000D01*
X109412155Y-92000000D01*
X109352627Y-92006401D01*
X109352620Y-92006403D01*
X109217913Y-92056645D01*
X109217906Y-92056649D01*
X109102812Y-92142809D01*
X109102809Y-92142812D01*
X109016649Y-92257906D01*
X109016645Y-92257913D01*
X108966403Y-92392620D01*
X108966401Y-92392627D01*
X108960000Y-92452155D01*
X108960000Y-92452172D01*
X108959999Y-93099999D01*
X108960000Y-93100000D01*
X109876314Y-93100000D01*
X109850507Y-93140156D01*
X109810000Y-93278111D01*
X109810000Y-93421889D01*
X109850507Y-93559844D01*
X109876314Y-93600000D01*
X108960000Y-93600000D01*
X108960000Y-94247844D01*
X108966401Y-94307372D01*
X108966403Y-94307379D01*
X109016645Y-94442086D01*
X109016649Y-94442093D01*
X109102809Y-94557187D01*
X109102812Y-94557190D01*
X109217906Y-94643350D01*
X109217913Y-94643354D01*
X109349470Y-94692421D01*
X109405403Y-94734292D01*
X109429821Y-94799756D01*
X109414970Y-94868029D01*
X109393819Y-94896284D01*
X109271503Y-95018600D01*
X109135965Y-95212169D01*
X109135964Y-95212171D01*
X109036098Y-95426335D01*
X109036094Y-95426344D01*
X108974938Y-95654586D01*
X108974936Y-95654596D01*
X108954341Y-95889999D01*
X108954341Y-95890000D01*
X108974936Y-96125403D01*
X108974938Y-96125413D01*
X109036094Y-96353655D01*
X109036096Y-96353659D01*
X109036097Y-96353663D01*
X109111563Y-96515500D01*
X109135965Y-96567830D01*
X109135967Y-96567834D01*
X109227720Y-96698870D01*
X109271501Y-96761396D01*
X109271506Y-96761402D01*
X109438597Y-96928493D01*
X109438603Y-96928498D01*
X109624158Y-97058425D01*
X109667783Y-97113002D01*
X109674977Y-97182500D01*
X109643454Y-97244855D01*
X109624158Y-97261575D01*
X109438597Y-97391505D01*
X109271505Y-97558597D01*
X109135965Y-97752169D01*
X109135964Y-97752171D01*
X109036098Y-97966335D01*
X109036094Y-97966344D01*
X108974938Y-98194586D01*
X108974936Y-98194596D01*
X108954341Y-98429999D01*
X108954341Y-98430000D01*
X98760500Y-98430000D01*
X98760500Y-91696727D01*
X132264924Y-91696727D01*
X132271476Y-91740193D01*
X132304028Y-91956155D01*
X132304029Y-91956157D01*
X132304030Y-91956163D01*
X132381362Y-92206866D01*
X132495191Y-92443236D01*
X132495192Y-92443237D01*
X132495194Y-92443240D01*
X132495196Y-92443244D01*
X132642991Y-92660019D01*
X132821438Y-92852341D01*
X132821442Y-92852344D01*
X132821443Y-92852345D01*
X133026567Y-93015926D01*
X133253781Y-93147108D01*
X133498008Y-93242960D01*
X133753794Y-93301342D01*
X133753800Y-93301342D01*
X133753803Y-93301343D01*
X133949908Y-93316039D01*
X133949927Y-93316039D01*
X133949930Y-93316040D01*
X133949932Y-93316040D01*
X134080916Y-93316040D01*
X134080918Y-93316040D01*
X134080920Y-93316039D01*
X134080939Y-93316039D01*
X134277044Y-93301343D01*
X134277046Y-93301342D01*
X134277054Y-93301342D01*
X134532840Y-93242960D01*
X134777067Y-93147108D01*
X135004281Y-93015926D01*
X135209405Y-92852345D01*
X135387857Y-92660019D01*
X135535652Y-92443244D01*
X135649487Y-92206863D01*
X135726820Y-91956155D01*
X135765923Y-91696727D01*
X148944924Y-91696727D01*
X148951476Y-91740193D01*
X148984028Y-91956155D01*
X148984029Y-91956157D01*
X148984030Y-91956163D01*
X149061362Y-92206866D01*
X149175191Y-92443236D01*
X149175192Y-92443237D01*
X149175194Y-92443240D01*
X149175196Y-92443244D01*
X149322991Y-92660018D01*
X149322991Y-92660019D01*
X149501438Y-92852341D01*
X149501442Y-92852344D01*
X149501443Y-92852345D01*
X149706567Y-93015926D01*
X149933781Y-93147108D01*
X150178008Y-93242960D01*
X150433794Y-93301342D01*
X150433800Y-93301342D01*
X150433803Y-93301343D01*
X150629908Y-93316039D01*
X150629927Y-93316039D01*
X150629930Y-93316040D01*
X150629932Y-93316040D01*
X150760916Y-93316040D01*
X150760918Y-93316040D01*
X150760920Y-93316039D01*
X150760939Y-93316039D01*
X150957044Y-93301343D01*
X150957046Y-93301342D01*
X150957054Y-93301342D01*
X151212840Y-93242960D01*
X151457067Y-93147108D01*
X151684281Y-93015926D01*
X151889405Y-92852345D01*
X152067857Y-92660019D01*
X152215652Y-92443244D01*
X152329487Y-92206863D01*
X152406820Y-91956155D01*
X152439371Y-91740198D01*
X170171250Y-91740198D01*
X170191544Y-91874834D01*
X170210354Y-91999626D01*
X170210355Y-91999628D01*
X170210356Y-91999634D01*
X170287688Y-92250337D01*
X170401517Y-92486707D01*
X170401518Y-92486708D01*
X170401520Y-92486711D01*
X170401522Y-92486715D01*
X170519679Y-92660019D01*
X170549317Y-92703490D01*
X170727764Y-92895812D01*
X170727768Y-92895815D01*
X170727769Y-92895816D01*
X170932893Y-93059397D01*
X171160107Y-93190579D01*
X171404334Y-93286431D01*
X171660120Y-93344813D01*
X171660126Y-93344813D01*
X171660129Y-93344814D01*
X171856234Y-93359510D01*
X171856253Y-93359510D01*
X171856256Y-93359511D01*
X171856258Y-93359511D01*
X171987242Y-93359511D01*
X171987244Y-93359511D01*
X171987246Y-93359510D01*
X171987265Y-93359510D01*
X172183370Y-93344814D01*
X172183372Y-93344813D01*
X172183380Y-93344813D01*
X172439166Y-93286431D01*
X172683393Y-93190579D01*
X172910607Y-93059397D01*
X173115731Y-92895816D01*
X173294183Y-92703490D01*
X173441978Y-92486715D01*
X173555813Y-92250334D01*
X173633146Y-91999626D01*
X173672249Y-91740198D01*
X186851250Y-91740198D01*
X186871544Y-91874834D01*
X186890354Y-91999626D01*
X186890355Y-91999628D01*
X186890356Y-91999634D01*
X186967688Y-92250337D01*
X187081517Y-92486707D01*
X187081518Y-92486708D01*
X187081520Y-92486711D01*
X187081522Y-92486715D01*
X187199679Y-92660019D01*
X187229317Y-92703490D01*
X187407764Y-92895812D01*
X187407768Y-92895815D01*
X187407769Y-92895816D01*
X187612893Y-93059397D01*
X187840107Y-93190579D01*
X188084334Y-93286431D01*
X188340120Y-93344813D01*
X188340126Y-93344813D01*
X188340129Y-93344814D01*
X188536234Y-93359510D01*
X188536253Y-93359510D01*
X188536256Y-93359511D01*
X188536258Y-93359511D01*
X188667242Y-93359511D01*
X188667244Y-93359511D01*
X188667246Y-93359510D01*
X188667265Y-93359510D01*
X188863370Y-93344814D01*
X188863372Y-93344813D01*
X188863380Y-93344813D01*
X189119166Y-93286431D01*
X189363393Y-93190579D01*
X189590607Y-93059397D01*
X189795731Y-92895816D01*
X189974183Y-92703490D01*
X190121978Y-92486715D01*
X190235813Y-92250334D01*
X190313146Y-91999626D01*
X190352250Y-91740193D01*
X190352250Y-91477829D01*
X190313146Y-91218396D01*
X190235813Y-90967688D01*
X190223871Y-90942891D01*
X190121982Y-90731314D01*
X190121981Y-90731313D01*
X190121980Y-90731312D01*
X190121978Y-90731307D01*
X189974183Y-90514532D01*
X189933847Y-90471060D01*
X189795735Y-90322209D01*
X189741220Y-90278735D01*
X189590607Y-90158625D01*
X189363393Y-90027443D01*
X189119166Y-89931591D01*
X189119161Y-89931589D01*
X189119152Y-89931587D01*
X188901568Y-89881925D01*
X188863380Y-89873209D01*
X188863379Y-89873208D01*
X188863375Y-89873208D01*
X188863370Y-89873207D01*
X188667265Y-89858511D01*
X188667244Y-89858511D01*
X188536256Y-89858511D01*
X188536234Y-89858511D01*
X188340129Y-89873207D01*
X188340124Y-89873208D01*
X188084347Y-89931587D01*
X188084328Y-89931593D01*
X187840106Y-90027443D01*
X187612893Y-90158625D01*
X187407764Y-90322209D01*
X187229317Y-90514531D01*
X187081518Y-90731313D01*
X187081517Y-90731314D01*
X186967688Y-90967684D01*
X186890356Y-91218387D01*
X186890355Y-91218392D01*
X186890354Y-91218396D01*
X186875603Y-91316258D01*
X186851250Y-91477823D01*
X186851250Y-91740198D01*
X173672249Y-91740198D01*
X173672250Y-91740193D01*
X173672250Y-91477829D01*
X173633146Y-91218396D01*
X173555813Y-90967688D01*
X173543871Y-90942891D01*
X173441982Y-90731314D01*
X173441981Y-90731313D01*
X173441980Y-90731312D01*
X173441978Y-90731307D01*
X173294183Y-90514532D01*
X173253847Y-90471060D01*
X173115735Y-90322209D01*
X173061220Y-90278735D01*
X172910607Y-90158625D01*
X172683393Y-90027443D01*
X172439166Y-89931591D01*
X172439161Y-89931589D01*
X172439152Y-89931587D01*
X172221568Y-89881925D01*
X172183380Y-89873209D01*
X172183379Y-89873208D01*
X172183375Y-89873208D01*
X172183370Y-89873207D01*
X171987265Y-89858511D01*
X171987244Y-89858511D01*
X171856256Y-89858511D01*
X171856234Y-89858511D01*
X171660129Y-89873207D01*
X171660124Y-89873208D01*
X171404347Y-89931587D01*
X171404328Y-89931593D01*
X171160106Y-90027443D01*
X170932893Y-90158625D01*
X170727764Y-90322209D01*
X170549317Y-90514531D01*
X170401518Y-90731313D01*
X170401517Y-90731314D01*
X170287688Y-90967684D01*
X170210356Y-91218387D01*
X170210355Y-91218392D01*
X170210354Y-91218396D01*
X170195603Y-91316258D01*
X170171250Y-91477823D01*
X170171250Y-91740198D01*
X152439371Y-91740198D01*
X152445924Y-91696722D01*
X152445924Y-91434358D01*
X152406820Y-91174925D01*
X152329487Y-90924217D01*
X152236590Y-90731314D01*
X152215656Y-90687843D01*
X152215655Y-90687842D01*
X152215654Y-90687841D01*
X152215652Y-90687836D01*
X152067857Y-90471061D01*
X152057865Y-90460293D01*
X151889409Y-90278738D01*
X151849957Y-90247276D01*
X151684281Y-90115154D01*
X151457067Y-89983972D01*
X151212840Y-89888120D01*
X151212835Y-89888118D01*
X151212826Y-89888116D01*
X150995242Y-89838454D01*
X150957054Y-89829738D01*
X150957053Y-89829737D01*
X150957049Y-89829737D01*
X150957044Y-89829736D01*
X150760939Y-89815040D01*
X150760918Y-89815040D01*
X150629930Y-89815040D01*
X150629908Y-89815040D01*
X150433803Y-89829736D01*
X150433798Y-89829737D01*
X150178021Y-89888116D01*
X150178002Y-89888122D01*
X149933780Y-89983972D01*
X149706567Y-90115154D01*
X149501438Y-90278738D01*
X149322991Y-90471060D01*
X149175192Y-90687842D01*
X149175191Y-90687843D01*
X149061362Y-90924213D01*
X148984030Y-91174916D01*
X148984029Y-91174921D01*
X148984028Y-91174925D01*
X148977477Y-91218387D01*
X148944924Y-91434352D01*
X148944924Y-91696727D01*
X135765923Y-91696727D01*
X135765924Y-91696722D01*
X135765924Y-91434358D01*
X135726820Y-91174925D01*
X135649487Y-90924217D01*
X135556590Y-90731314D01*
X135535656Y-90687843D01*
X135535655Y-90687842D01*
X135535654Y-90687841D01*
X135535652Y-90687836D01*
X135387857Y-90471061D01*
X135377865Y-90460293D01*
X135209409Y-90278738D01*
X135169957Y-90247276D01*
X135004281Y-90115154D01*
X134777067Y-89983972D01*
X134532840Y-89888120D01*
X134532835Y-89888118D01*
X134532826Y-89888116D01*
X134315242Y-89838454D01*
X134277054Y-89829738D01*
X134277053Y-89829737D01*
X134277049Y-89829737D01*
X134277044Y-89829736D01*
X134080939Y-89815040D01*
X134080918Y-89815040D01*
X133949930Y-89815040D01*
X133949908Y-89815040D01*
X133753803Y-89829736D01*
X133753798Y-89829737D01*
X133498021Y-89888116D01*
X133498002Y-89888122D01*
X133253780Y-89983972D01*
X133026567Y-90115154D01*
X132821438Y-90278738D01*
X132642991Y-90471060D01*
X132495192Y-90687842D01*
X132495191Y-90687843D01*
X132381362Y-90924213D01*
X132304030Y-91174916D01*
X132304029Y-91174921D01*
X132304028Y-91174925D01*
X132297477Y-91218387D01*
X132264924Y-91434352D01*
X132264924Y-91696727D01*
X98760500Y-91696727D01*
X98760500Y-89594500D01*
X98780185Y-89527461D01*
X98832989Y-89481706D01*
X98884500Y-89470500D01*
X198695500Y-89470500D01*
X198762539Y-89490185D01*
G37*
%TD.AperFunction*%
%TD*%
M02*
