%TF.GenerationSoftware,KiCad,Pcbnew,7.0.5*%
%TF.CreationDate,2023-06-27T15:21:13+05:30*%
%TF.ProjectId,NTC reader,4e544320-7265-4616-9465-722e6b696361,rev?*%
%TF.SameCoordinates,Original*%
%TF.FileFunction,Legend,Top*%
%TF.FilePolarity,Positive*%
%FSLAX46Y46*%
G04 Gerber Fmt 4.6, Leading zero omitted, Abs format (unit mm)*
G04 Created by KiCad (PCBNEW 7.0.5) date 2023-06-27 15:21:13*
%MOMM*%
%LPD*%
G01*
G04 APERTURE LIST*
%ADD10C,0.150000*%
%ADD11C,0.254000*%
%ADD12C,0.127000*%
%ADD13C,0.120000*%
%ADD14C,0.200000*%
%ADD15C,0.250000*%
G04 APERTURE END LIST*
D10*
X105501097Y-113597305D02*
X105405859Y-113549686D01*
X105405859Y-113549686D02*
X105263002Y-113549686D01*
X105263002Y-113549686D02*
X105120145Y-113597305D01*
X105120145Y-113597305D02*
X105024907Y-113692543D01*
X105024907Y-113692543D02*
X104977288Y-113787781D01*
X104977288Y-113787781D02*
X104929669Y-113978257D01*
X104929669Y-113978257D02*
X104929669Y-114121114D01*
X104929669Y-114121114D02*
X104977288Y-114311590D01*
X104977288Y-114311590D02*
X105024907Y-114406828D01*
X105024907Y-114406828D02*
X105120145Y-114502067D01*
X105120145Y-114502067D02*
X105263002Y-114549686D01*
X105263002Y-114549686D02*
X105358240Y-114549686D01*
X105358240Y-114549686D02*
X105501097Y-114502067D01*
X105501097Y-114502067D02*
X105548716Y-114454447D01*
X105548716Y-114454447D02*
X105548716Y-114121114D01*
X105548716Y-114121114D02*
X105358240Y-114121114D01*
X105977288Y-114549686D02*
X105977288Y-113549686D01*
X105977288Y-113549686D02*
X106548716Y-114549686D01*
X106548716Y-114549686D02*
X106548716Y-113549686D01*
X107024907Y-114549686D02*
X107024907Y-113549686D01*
X107024907Y-113549686D02*
X107263002Y-113549686D01*
X107263002Y-113549686D02*
X107405859Y-113597305D01*
X107405859Y-113597305D02*
X107501097Y-113692543D01*
X107501097Y-113692543D02*
X107548716Y-113787781D01*
X107548716Y-113787781D02*
X107596335Y-113978257D01*
X107596335Y-113978257D02*
X107596335Y-114121114D01*
X107596335Y-114121114D02*
X107548716Y-114311590D01*
X107548716Y-114311590D02*
X107501097Y-114406828D01*
X107501097Y-114406828D02*
X107405859Y-114502067D01*
X107405859Y-114502067D02*
X107263002Y-114549686D01*
X107263002Y-114549686D02*
X107024907Y-114549686D01*
X104977288Y-112359865D02*
X104977288Y-111359865D01*
X106167763Y-111312246D02*
X105310621Y-112597960D01*
X106691573Y-111359865D02*
X106882049Y-111359865D01*
X106882049Y-111359865D02*
X106977287Y-111407484D01*
X106977287Y-111407484D02*
X107072525Y-111502722D01*
X107072525Y-111502722D02*
X107120144Y-111693198D01*
X107120144Y-111693198D02*
X107120144Y-112026531D01*
X107120144Y-112026531D02*
X107072525Y-112217007D01*
X107072525Y-112217007D02*
X106977287Y-112312246D01*
X106977287Y-112312246D02*
X106882049Y-112359865D01*
X106882049Y-112359865D02*
X106691573Y-112359865D01*
X106691573Y-112359865D02*
X106596335Y-112312246D01*
X106596335Y-112312246D02*
X106501097Y-112217007D01*
X106501097Y-112217007D02*
X106453478Y-112026531D01*
X106453478Y-112026531D02*
X106453478Y-111693198D01*
X106453478Y-111693198D02*
X106501097Y-111502722D01*
X106501097Y-111502722D02*
X106596335Y-111407484D01*
X106596335Y-111407484D02*
X106691573Y-111359865D01*
X104950446Y-109610691D02*
X105093303Y-109658310D01*
X105093303Y-109658310D02*
X105331398Y-109658310D01*
X105331398Y-109658310D02*
X105426636Y-109610691D01*
X105426636Y-109610691D02*
X105474255Y-109563071D01*
X105474255Y-109563071D02*
X105521874Y-109467833D01*
X105521874Y-109467833D02*
X105521874Y-109372595D01*
X105521874Y-109372595D02*
X105474255Y-109277357D01*
X105474255Y-109277357D02*
X105426636Y-109229738D01*
X105426636Y-109229738D02*
X105331398Y-109182119D01*
X105331398Y-109182119D02*
X105140922Y-109134500D01*
X105140922Y-109134500D02*
X105045684Y-109086881D01*
X105045684Y-109086881D02*
X104998065Y-109039262D01*
X104998065Y-109039262D02*
X104950446Y-108944024D01*
X104950446Y-108944024D02*
X104950446Y-108848786D01*
X104950446Y-108848786D02*
X104998065Y-108753548D01*
X104998065Y-108753548D02*
X105045684Y-108705929D01*
X105045684Y-108705929D02*
X105140922Y-108658310D01*
X105140922Y-108658310D02*
X105379017Y-108658310D01*
X105379017Y-108658310D02*
X105521874Y-108705929D01*
X105950446Y-109658310D02*
X105950446Y-108658310D01*
X105950446Y-108658310D02*
X106188541Y-108658310D01*
X106188541Y-108658310D02*
X106331398Y-108705929D01*
X106331398Y-108705929D02*
X106426636Y-108801167D01*
X106426636Y-108801167D02*
X106474255Y-108896405D01*
X106474255Y-108896405D02*
X106521874Y-109086881D01*
X106521874Y-109086881D02*
X106521874Y-109229738D01*
X106521874Y-109229738D02*
X106474255Y-109420214D01*
X106474255Y-109420214D02*
X106426636Y-109515452D01*
X106426636Y-109515452D02*
X106331398Y-109610691D01*
X106331398Y-109610691D02*
X106188541Y-109658310D01*
X106188541Y-109658310D02*
X105950446Y-109658310D01*
X106902827Y-109372595D02*
X107379017Y-109372595D01*
X106807589Y-109658310D02*
X107140922Y-108658310D01*
X107140922Y-108658310D02*
X107474255Y-109658310D01*
X104920449Y-106850918D02*
X105063306Y-106898537D01*
X105063306Y-106898537D02*
X105301401Y-106898537D01*
X105301401Y-106898537D02*
X105396639Y-106850918D01*
X105396639Y-106850918D02*
X105444258Y-106803298D01*
X105444258Y-106803298D02*
X105491877Y-106708060D01*
X105491877Y-106708060D02*
X105491877Y-106612822D01*
X105491877Y-106612822D02*
X105444258Y-106517584D01*
X105444258Y-106517584D02*
X105396639Y-106469965D01*
X105396639Y-106469965D02*
X105301401Y-106422346D01*
X105301401Y-106422346D02*
X105110925Y-106374727D01*
X105110925Y-106374727D02*
X105015687Y-106327108D01*
X105015687Y-106327108D02*
X104968068Y-106279489D01*
X104968068Y-106279489D02*
X104920449Y-106184251D01*
X104920449Y-106184251D02*
X104920449Y-106089013D01*
X104920449Y-106089013D02*
X104968068Y-105993775D01*
X104968068Y-105993775D02*
X105015687Y-105946156D01*
X105015687Y-105946156D02*
X105110925Y-105898537D01*
X105110925Y-105898537D02*
X105349020Y-105898537D01*
X105349020Y-105898537D02*
X105491877Y-105946156D01*
X106491877Y-106803298D02*
X106444258Y-106850918D01*
X106444258Y-106850918D02*
X106301401Y-106898537D01*
X106301401Y-106898537D02*
X106206163Y-106898537D01*
X106206163Y-106898537D02*
X106063306Y-106850918D01*
X106063306Y-106850918D02*
X105968068Y-106755679D01*
X105968068Y-106755679D02*
X105920449Y-106660441D01*
X105920449Y-106660441D02*
X105872830Y-106469965D01*
X105872830Y-106469965D02*
X105872830Y-106327108D01*
X105872830Y-106327108D02*
X105920449Y-106136632D01*
X105920449Y-106136632D02*
X105968068Y-106041394D01*
X105968068Y-106041394D02*
X106063306Y-105946156D01*
X106063306Y-105946156D02*
X106206163Y-105898537D01*
X106206163Y-105898537D02*
X106301401Y-105898537D01*
X106301401Y-105898537D02*
X106444258Y-105946156D01*
X106444258Y-105946156D02*
X106491877Y-105993775D01*
X107396639Y-106898537D02*
X106920449Y-106898537D01*
X106920449Y-106898537D02*
X106920449Y-105898537D01*
X105474255Y-103348746D02*
X104998065Y-103348746D01*
X104998065Y-103348746D02*
X104950446Y-103824936D01*
X104950446Y-103824936D02*
X104998065Y-103777317D01*
X104998065Y-103777317D02*
X105093303Y-103729698D01*
X105093303Y-103729698D02*
X105331398Y-103729698D01*
X105331398Y-103729698D02*
X105426636Y-103777317D01*
X105426636Y-103777317D02*
X105474255Y-103824936D01*
X105474255Y-103824936D02*
X105521874Y-103920174D01*
X105521874Y-103920174D02*
X105521874Y-104158269D01*
X105521874Y-104158269D02*
X105474255Y-104253507D01*
X105474255Y-104253507D02*
X105426636Y-104301127D01*
X105426636Y-104301127D02*
X105331398Y-104348746D01*
X105331398Y-104348746D02*
X105093303Y-104348746D01*
X105093303Y-104348746D02*
X104998065Y-104301127D01*
X104998065Y-104301127D02*
X104950446Y-104253507D01*
X105807589Y-103348746D02*
X106140922Y-104348746D01*
X106140922Y-104348746D02*
X106474255Y-103348746D01*
D11*
%TO.C,J1*%
X166136667Y-101387929D02*
X166136667Y-102295072D01*
X166136667Y-102295072D02*
X166076190Y-102476500D01*
X166076190Y-102476500D02*
X165955238Y-102597453D01*
X165955238Y-102597453D02*
X165773809Y-102657929D01*
X165773809Y-102657929D02*
X165652857Y-102657929D01*
X167406667Y-102657929D02*
X166680952Y-102657929D01*
X167043809Y-102657929D02*
X167043809Y-101387929D01*
X167043809Y-101387929D02*
X166922857Y-101569357D01*
X166922857Y-101569357D02*
X166801905Y-101690310D01*
X166801905Y-101690310D02*
X166680952Y-101750786D01*
D10*
%TO.C,J4*%
X109976666Y-90474819D02*
X109976666Y-91189104D01*
X109976666Y-91189104D02*
X109929047Y-91331961D01*
X109929047Y-91331961D02*
X109833809Y-91427200D01*
X109833809Y-91427200D02*
X109690952Y-91474819D01*
X109690952Y-91474819D02*
X109595714Y-91474819D01*
X110881428Y-90808152D02*
X110881428Y-91474819D01*
X110643333Y-90427200D02*
X110405238Y-91141485D01*
X110405238Y-91141485D02*
X111024285Y-91141485D01*
D11*
%TO.C,IC2*%
X111460237Y-109734318D02*
X111460237Y-108464318D01*
X112790714Y-109613365D02*
X112730238Y-109673842D01*
X112730238Y-109673842D02*
X112548809Y-109734318D01*
X112548809Y-109734318D02*
X112427857Y-109734318D01*
X112427857Y-109734318D02*
X112246428Y-109673842D01*
X112246428Y-109673842D02*
X112125476Y-109552889D01*
X112125476Y-109552889D02*
X112064999Y-109431937D01*
X112064999Y-109431937D02*
X112004523Y-109190032D01*
X112004523Y-109190032D02*
X112004523Y-109008603D01*
X112004523Y-109008603D02*
X112064999Y-108766699D01*
X112064999Y-108766699D02*
X112125476Y-108645746D01*
X112125476Y-108645746D02*
X112246428Y-108524794D01*
X112246428Y-108524794D02*
X112427857Y-108464318D01*
X112427857Y-108464318D02*
X112548809Y-108464318D01*
X112548809Y-108464318D02*
X112730238Y-108524794D01*
X112730238Y-108524794D02*
X112790714Y-108585270D01*
X113274523Y-108585270D02*
X113334999Y-108524794D01*
X113334999Y-108524794D02*
X113455952Y-108464318D01*
X113455952Y-108464318D02*
X113758333Y-108464318D01*
X113758333Y-108464318D02*
X113879285Y-108524794D01*
X113879285Y-108524794D02*
X113939761Y-108585270D01*
X113939761Y-108585270D02*
X114000238Y-108706222D01*
X114000238Y-108706222D02*
X114000238Y-108827175D01*
X114000238Y-108827175D02*
X113939761Y-109008603D01*
X113939761Y-109008603D02*
X113214047Y-109734318D01*
X113214047Y-109734318D02*
X114000238Y-109734318D01*
%TO.C,J2*%
X128310341Y-101184458D02*
X128310341Y-102091601D01*
X128310341Y-102091601D02*
X128249864Y-102273029D01*
X128249864Y-102273029D02*
X128128912Y-102393982D01*
X128128912Y-102393982D02*
X127947483Y-102454458D01*
X127947483Y-102454458D02*
X127826531Y-102454458D01*
X128854626Y-101305410D02*
X128915102Y-101244934D01*
X128915102Y-101244934D02*
X129036055Y-101184458D01*
X129036055Y-101184458D02*
X129338436Y-101184458D01*
X129338436Y-101184458D02*
X129459388Y-101244934D01*
X129459388Y-101244934D02*
X129519864Y-101305410D01*
X129519864Y-101305410D02*
X129580341Y-101426362D01*
X129580341Y-101426362D02*
X129580341Y-101547315D01*
X129580341Y-101547315D02*
X129519864Y-101728743D01*
X129519864Y-101728743D02*
X128794150Y-102454458D01*
X128794150Y-102454458D02*
X129580341Y-102454458D01*
D10*
%TO.C,R1*%
X117719666Y-115257902D02*
X117502999Y-114948378D01*
X117348237Y-115257902D02*
X117348237Y-114607902D01*
X117348237Y-114607902D02*
X117595856Y-114607902D01*
X117595856Y-114607902D02*
X117657761Y-114638854D01*
X117657761Y-114638854D02*
X117688714Y-114669807D01*
X117688714Y-114669807D02*
X117719666Y-114731711D01*
X117719666Y-114731711D02*
X117719666Y-114824569D01*
X117719666Y-114824569D02*
X117688714Y-114886473D01*
X117688714Y-114886473D02*
X117657761Y-114917426D01*
X117657761Y-114917426D02*
X117595856Y-114948378D01*
X117595856Y-114948378D02*
X117348237Y-114948378D01*
X118338714Y-115257902D02*
X117967285Y-115257902D01*
X118152999Y-115257902D02*
X118152999Y-114607902D01*
X118152999Y-114607902D02*
X118091095Y-114700759D01*
X118091095Y-114700759D02*
X118029190Y-114762664D01*
X118029190Y-114762664D02*
X117967285Y-114793616D01*
X116809771Y-114617143D02*
X116809771Y-114960000D01*
X116809771Y-114788571D02*
X116209771Y-114788571D01*
X116209771Y-114788571D02*
X116295485Y-114845714D01*
X116295485Y-114845714D02*
X116352628Y-114902857D01*
X116352628Y-114902857D02*
X116381200Y-114960000D01*
X116209771Y-114245714D02*
X116209771Y-114188571D01*
X116209771Y-114188571D02*
X116238342Y-114131428D01*
X116238342Y-114131428D02*
X116266914Y-114102857D01*
X116266914Y-114102857D02*
X116324057Y-114074285D01*
X116324057Y-114074285D02*
X116438342Y-114045714D01*
X116438342Y-114045714D02*
X116581200Y-114045714D01*
X116581200Y-114045714D02*
X116695485Y-114074285D01*
X116695485Y-114074285D02*
X116752628Y-114102857D01*
X116752628Y-114102857D02*
X116781200Y-114131428D01*
X116781200Y-114131428D02*
X116809771Y-114188571D01*
X116809771Y-114188571D02*
X116809771Y-114245714D01*
X116809771Y-114245714D02*
X116781200Y-114302857D01*
X116781200Y-114302857D02*
X116752628Y-114331428D01*
X116752628Y-114331428D02*
X116695485Y-114359999D01*
X116695485Y-114359999D02*
X116581200Y-114388571D01*
X116581200Y-114388571D02*
X116438342Y-114388571D01*
X116438342Y-114388571D02*
X116324057Y-114359999D01*
X116324057Y-114359999D02*
X116266914Y-114331428D01*
X116266914Y-114331428D02*
X116238342Y-114302857D01*
X116238342Y-114302857D02*
X116209771Y-114245714D01*
X116809771Y-113788570D02*
X116209771Y-113788570D01*
X116581200Y-113731428D02*
X116809771Y-113559999D01*
X116409771Y-113559999D02*
X116638342Y-113788570D01*
%TO.C,J5*%
X108966666Y-126879819D02*
X108966666Y-127594104D01*
X108966666Y-127594104D02*
X108919047Y-127736961D01*
X108919047Y-127736961D02*
X108823809Y-127832200D01*
X108823809Y-127832200D02*
X108680952Y-127879819D01*
X108680952Y-127879819D02*
X108585714Y-127879819D01*
X109919047Y-126879819D02*
X109442857Y-126879819D01*
X109442857Y-126879819D02*
X109395238Y-127356009D01*
X109395238Y-127356009D02*
X109442857Y-127308390D01*
X109442857Y-127308390D02*
X109538095Y-127260771D01*
X109538095Y-127260771D02*
X109776190Y-127260771D01*
X109776190Y-127260771D02*
X109871428Y-127308390D01*
X109871428Y-127308390D02*
X109919047Y-127356009D01*
X109919047Y-127356009D02*
X109966666Y-127451247D01*
X109966666Y-127451247D02*
X109966666Y-127689342D01*
X109966666Y-127689342D02*
X109919047Y-127784580D01*
X109919047Y-127784580D02*
X109871428Y-127832200D01*
X109871428Y-127832200D02*
X109776190Y-127879819D01*
X109776190Y-127879819D02*
X109538095Y-127879819D01*
X109538095Y-127879819D02*
X109442857Y-127832200D01*
X109442857Y-127832200D02*
X109395238Y-127784580D01*
%TO.C,J3*%
X99696666Y-101014819D02*
X99696666Y-101729104D01*
X99696666Y-101729104D02*
X99649047Y-101871961D01*
X99649047Y-101871961D02*
X99553809Y-101967200D01*
X99553809Y-101967200D02*
X99410952Y-102014819D01*
X99410952Y-102014819D02*
X99315714Y-102014819D01*
X100077619Y-101014819D02*
X100696666Y-101014819D01*
X100696666Y-101014819D02*
X100363333Y-101395771D01*
X100363333Y-101395771D02*
X100506190Y-101395771D01*
X100506190Y-101395771D02*
X100601428Y-101443390D01*
X100601428Y-101443390D02*
X100649047Y-101491009D01*
X100649047Y-101491009D02*
X100696666Y-101586247D01*
X100696666Y-101586247D02*
X100696666Y-101824342D01*
X100696666Y-101824342D02*
X100649047Y-101919580D01*
X100649047Y-101919580D02*
X100601428Y-101967200D01*
X100601428Y-101967200D02*
X100506190Y-102014819D01*
X100506190Y-102014819D02*
X100220476Y-102014819D01*
X100220476Y-102014819D02*
X100125238Y-101967200D01*
X100125238Y-101967200D02*
X100077619Y-101919580D01*
D11*
%TO.C,J7*%
X166798417Y-116138918D02*
X166798417Y-117046061D01*
X166798417Y-117046061D02*
X166737940Y-117227489D01*
X166737940Y-117227489D02*
X166616988Y-117348442D01*
X166616988Y-117348442D02*
X166435559Y-117408918D01*
X166435559Y-117408918D02*
X166314607Y-117408918D01*
X167282226Y-116138918D02*
X168128893Y-116138918D01*
X168128893Y-116138918D02*
X167584607Y-117408918D01*
D10*
%TO.C,R2*%
X115503333Y-94524819D02*
X115170000Y-94048628D01*
X114931905Y-94524819D02*
X114931905Y-93524819D01*
X114931905Y-93524819D02*
X115312857Y-93524819D01*
X115312857Y-93524819D02*
X115408095Y-93572438D01*
X115408095Y-93572438D02*
X115455714Y-93620057D01*
X115455714Y-93620057D02*
X115503333Y-93715295D01*
X115503333Y-93715295D02*
X115503333Y-93858152D01*
X115503333Y-93858152D02*
X115455714Y-93953390D01*
X115455714Y-93953390D02*
X115408095Y-94001009D01*
X115408095Y-94001009D02*
X115312857Y-94048628D01*
X115312857Y-94048628D02*
X114931905Y-94048628D01*
X115884286Y-93620057D02*
X115931905Y-93572438D01*
X115931905Y-93572438D02*
X116027143Y-93524819D01*
X116027143Y-93524819D02*
X116265238Y-93524819D01*
X116265238Y-93524819D02*
X116360476Y-93572438D01*
X116360476Y-93572438D02*
X116408095Y-93620057D01*
X116408095Y-93620057D02*
X116455714Y-93715295D01*
X116455714Y-93715295D02*
X116455714Y-93810533D01*
X116455714Y-93810533D02*
X116408095Y-93953390D01*
X116408095Y-93953390D02*
X115836667Y-94524819D01*
X115836667Y-94524819D02*
X116455714Y-94524819D01*
%TO.C,C1*%
X120997580Y-112921666D02*
X121045200Y-112969285D01*
X121045200Y-112969285D02*
X121092819Y-113112142D01*
X121092819Y-113112142D02*
X121092819Y-113207380D01*
X121092819Y-113207380D02*
X121045200Y-113350237D01*
X121045200Y-113350237D02*
X120949961Y-113445475D01*
X120949961Y-113445475D02*
X120854723Y-113493094D01*
X120854723Y-113493094D02*
X120664247Y-113540713D01*
X120664247Y-113540713D02*
X120521390Y-113540713D01*
X120521390Y-113540713D02*
X120330914Y-113493094D01*
X120330914Y-113493094D02*
X120235676Y-113445475D01*
X120235676Y-113445475D02*
X120140438Y-113350237D01*
X120140438Y-113350237D02*
X120092819Y-113207380D01*
X120092819Y-113207380D02*
X120092819Y-113112142D01*
X120092819Y-113112142D02*
X120140438Y-112969285D01*
X120140438Y-112969285D02*
X120188057Y-112921666D01*
X121092819Y-111969285D02*
X121092819Y-112540713D01*
X121092819Y-112254999D02*
X120092819Y-112254999D01*
X120092819Y-112254999D02*
X120235676Y-112350237D01*
X120235676Y-112350237D02*
X120330914Y-112445475D01*
X120330914Y-112445475D02*
X120378533Y-112540713D01*
%TO.C,R3*%
X115653333Y-121204819D02*
X115320000Y-120728628D01*
X115081905Y-121204819D02*
X115081905Y-120204819D01*
X115081905Y-120204819D02*
X115462857Y-120204819D01*
X115462857Y-120204819D02*
X115558095Y-120252438D01*
X115558095Y-120252438D02*
X115605714Y-120300057D01*
X115605714Y-120300057D02*
X115653333Y-120395295D01*
X115653333Y-120395295D02*
X115653333Y-120538152D01*
X115653333Y-120538152D02*
X115605714Y-120633390D01*
X115605714Y-120633390D02*
X115558095Y-120681009D01*
X115558095Y-120681009D02*
X115462857Y-120728628D01*
X115462857Y-120728628D02*
X115081905Y-120728628D01*
X115986667Y-120204819D02*
X116605714Y-120204819D01*
X116605714Y-120204819D02*
X116272381Y-120585771D01*
X116272381Y-120585771D02*
X116415238Y-120585771D01*
X116415238Y-120585771D02*
X116510476Y-120633390D01*
X116510476Y-120633390D02*
X116558095Y-120681009D01*
X116558095Y-120681009D02*
X116605714Y-120776247D01*
X116605714Y-120776247D02*
X116605714Y-121014342D01*
X116605714Y-121014342D02*
X116558095Y-121109580D01*
X116558095Y-121109580D02*
X116510476Y-121157200D01*
X116510476Y-121157200D02*
X116415238Y-121204819D01*
X116415238Y-121204819D02*
X116129524Y-121204819D01*
X116129524Y-121204819D02*
X116034286Y-121157200D01*
X116034286Y-121157200D02*
X115986667Y-121109580D01*
D11*
%TO.C,J6*%
X128816667Y-116104318D02*
X128816667Y-117011461D01*
X128816667Y-117011461D02*
X128756190Y-117192889D01*
X128756190Y-117192889D02*
X128635238Y-117313842D01*
X128635238Y-117313842D02*
X128453809Y-117374318D01*
X128453809Y-117374318D02*
X128332857Y-117374318D01*
X129965714Y-116104318D02*
X129723809Y-116104318D01*
X129723809Y-116104318D02*
X129602857Y-116164794D01*
X129602857Y-116164794D02*
X129542381Y-116225270D01*
X129542381Y-116225270D02*
X129421428Y-116406699D01*
X129421428Y-116406699D02*
X129360952Y-116648603D01*
X129360952Y-116648603D02*
X129360952Y-117132413D01*
X129360952Y-117132413D02*
X129421428Y-117253365D01*
X129421428Y-117253365D02*
X129481905Y-117313842D01*
X129481905Y-117313842D02*
X129602857Y-117374318D01*
X129602857Y-117374318D02*
X129844762Y-117374318D01*
X129844762Y-117374318D02*
X129965714Y-117313842D01*
X129965714Y-117313842D02*
X130026190Y-117253365D01*
X130026190Y-117253365D02*
X130086667Y-117132413D01*
X130086667Y-117132413D02*
X130086667Y-116830032D01*
X130086667Y-116830032D02*
X130026190Y-116709080D01*
X130026190Y-116709080D02*
X129965714Y-116648603D01*
X129965714Y-116648603D02*
X129844762Y-116588127D01*
X129844762Y-116588127D02*
X129602857Y-116588127D01*
X129602857Y-116588127D02*
X129481905Y-116648603D01*
X129481905Y-116648603D02*
X129421428Y-116709080D01*
X129421428Y-116709080D02*
X129360952Y-116830032D01*
%TO.C,IC1*%
X165374318Y-110819762D02*
X164104318Y-110819762D01*
X165253365Y-109489285D02*
X165313842Y-109549761D01*
X165313842Y-109549761D02*
X165374318Y-109731190D01*
X165374318Y-109731190D02*
X165374318Y-109852142D01*
X165374318Y-109852142D02*
X165313842Y-110033571D01*
X165313842Y-110033571D02*
X165192889Y-110154523D01*
X165192889Y-110154523D02*
X165071937Y-110215000D01*
X165071937Y-110215000D02*
X164830032Y-110275476D01*
X164830032Y-110275476D02*
X164648603Y-110275476D01*
X164648603Y-110275476D02*
X164406699Y-110215000D01*
X164406699Y-110215000D02*
X164285746Y-110154523D01*
X164285746Y-110154523D02*
X164164794Y-110033571D01*
X164164794Y-110033571D02*
X164104318Y-109852142D01*
X164104318Y-109852142D02*
X164104318Y-109731190D01*
X164104318Y-109731190D02*
X164164794Y-109549761D01*
X164164794Y-109549761D02*
X164225270Y-109489285D01*
X165374318Y-108279761D02*
X165374318Y-109005476D01*
X165374318Y-108642619D02*
X164104318Y-108642619D01*
X164104318Y-108642619D02*
X164285746Y-108763571D01*
X164285746Y-108763571D02*
X164406699Y-108884523D01*
X164406699Y-108884523D02*
X164467175Y-109005476D01*
D12*
%TO.C,J1*%
X194086750Y-87209011D02*
X194086750Y-99449011D01*
X166436750Y-99449011D02*
X166436750Y-87209011D01*
X166436750Y-87209011D02*
X194086750Y-87209011D01*
X165761750Y-95929011D02*
X164761750Y-96429011D01*
X164761750Y-96429011D02*
X164761750Y-95429011D01*
X164761750Y-95429011D02*
X165761750Y-95929011D01*
D13*
%TO.C,J4*%
X108980000Y-92020000D02*
X110310000Y-92020000D01*
X108980000Y-93350000D02*
X108980000Y-92020000D01*
X108980000Y-94620000D02*
X108980000Y-99760000D01*
X108980000Y-94620000D02*
X111640000Y-94620000D01*
X108980000Y-99760000D02*
X111640000Y-99760000D01*
X111640000Y-94620000D02*
X111640000Y-99760000D01*
D14*
%TO.C,IC2*%
X116375000Y-113310000D02*
X114900000Y-113310000D01*
X114550000Y-113060000D02*
X110850000Y-113060000D01*
X114550000Y-105260000D02*
X114550000Y-113060000D01*
X110850000Y-113060000D02*
X110850000Y-105260000D01*
X110850000Y-105260000D02*
X114550000Y-105260000D01*
D12*
%TO.C,J2*%
X156180424Y-87165540D02*
X156180424Y-99405540D01*
X128530424Y-99405540D02*
X128530424Y-87165540D01*
X128530424Y-87165540D02*
X156180424Y-87165540D01*
X127855424Y-95885540D02*
X126855424Y-96385540D01*
X126855424Y-96385540D02*
X126855424Y-95385540D01*
X126855424Y-95385540D02*
X127855424Y-95885540D01*
D10*
%TO.C,R1*%
X118548000Y-111995000D02*
X118548000Y-113695000D01*
X117148000Y-113695000D02*
X117148000Y-111995000D01*
D13*
%TO.C,J5*%
X110630000Y-126425000D02*
X109300000Y-126425000D01*
X110630000Y-125095000D02*
X110630000Y-126425000D01*
X110630000Y-123825000D02*
X110630000Y-118685000D01*
X110630000Y-123825000D02*
X107970000Y-123825000D01*
X110630000Y-118685000D02*
X107970000Y-118685000D01*
X107970000Y-123825000D02*
X107970000Y-118685000D01*
%TO.C,J3*%
X104220000Y-103850000D02*
X104220000Y-102580000D01*
X104220000Y-102580000D02*
X102950000Y-102580000D01*
X101907071Y-114390000D02*
X101510000Y-114390000D01*
X101907071Y-113630000D02*
X101510000Y-113630000D01*
X101907071Y-111850000D02*
X101510000Y-111850000D01*
X101907071Y-111090000D02*
X101510000Y-111090000D01*
X101907071Y-109310000D02*
X101510000Y-109310000D01*
X101907071Y-108550000D02*
X101510000Y-108550000D01*
X101907071Y-106770000D02*
X101510000Y-106770000D01*
X101907071Y-106010000D02*
X101510000Y-106010000D01*
X101840000Y-104230000D02*
X101510000Y-104230000D01*
X101840000Y-103470000D02*
X101510000Y-103470000D01*
X101510000Y-115340000D02*
X98850000Y-115340000D01*
X101510000Y-112740000D02*
X98850000Y-112740000D01*
X101510000Y-110200000D02*
X98850000Y-110200000D01*
X101510000Y-107660000D02*
X98850000Y-107660000D01*
X101510000Y-105120000D02*
X98850000Y-105120000D01*
X101510000Y-102520000D02*
X101510000Y-115340000D01*
X98850000Y-115340000D02*
X98850000Y-102520000D01*
X98850000Y-113630000D02*
X92850000Y-113630000D01*
X98850000Y-111090000D02*
X92850000Y-111090000D01*
X98850000Y-108550000D02*
X92850000Y-108550000D01*
X98850000Y-106010000D02*
X92850000Y-106010000D01*
X98850000Y-104130000D02*
X92850000Y-104130000D01*
X98850000Y-104010000D02*
X92850000Y-104010000D01*
X98850000Y-103890000D02*
X92850000Y-103890000D01*
X98850000Y-103770000D02*
X92850000Y-103770000D01*
X98850000Y-103650000D02*
X92850000Y-103650000D01*
X98850000Y-103530000D02*
X92850000Y-103530000D01*
X98850000Y-103470000D02*
X92850000Y-103470000D01*
X98850000Y-102520000D02*
X101510000Y-102520000D01*
X92850000Y-114390000D02*
X98850000Y-114390000D01*
X92850000Y-113630000D02*
X92850000Y-114390000D01*
X92850000Y-111850000D02*
X98850000Y-111850000D01*
X92850000Y-111090000D02*
X92850000Y-111850000D01*
X92850000Y-109310000D02*
X98850000Y-109310000D01*
X92850000Y-108550000D02*
X92850000Y-109310000D01*
X92850000Y-106770000D02*
X98850000Y-106770000D01*
X92850000Y-106010000D02*
X92850000Y-106770000D01*
X92850000Y-104230000D02*
X98850000Y-104230000D01*
X92850000Y-103470000D02*
X92850000Y-104230000D01*
D12*
%TO.C,J7*%
X164761750Y-122684600D02*
X164761750Y-123684600D01*
X164761750Y-123684600D02*
X165761750Y-123184600D01*
X165761750Y-123184600D02*
X164761750Y-122684600D01*
X166436750Y-119664600D02*
X166436750Y-131904600D01*
X166436750Y-131904600D02*
X194086750Y-131904600D01*
X194086750Y-131904600D02*
X194086750Y-119664600D01*
D13*
%TO.C,R2*%
X114942936Y-94980000D02*
X116397064Y-94980000D01*
X114942936Y-96800000D02*
X116397064Y-96800000D01*
%TO.C,C1*%
X119118000Y-112647164D02*
X119118000Y-112862836D01*
X119838000Y-112647164D02*
X119838000Y-112862836D01*
%TO.C,R3*%
X115092936Y-121660000D02*
X116547064Y-121660000D01*
X115092936Y-123480000D02*
X116547064Y-123480000D01*
D12*
%TO.C,J6*%
X127348503Y-122642361D02*
X127348503Y-123642361D01*
X127348503Y-123642361D02*
X128348503Y-123142361D01*
X128348503Y-123142361D02*
X127348503Y-122642361D01*
X129023503Y-119622361D02*
X129023503Y-131862361D01*
X129023503Y-131862361D02*
X156673503Y-131862361D01*
X156673503Y-131862361D02*
X156673503Y-119622361D01*
D14*
%TO.C,IC1*%
X160330000Y-106430000D02*
X160330000Y-112730000D01*
X154030000Y-106430000D02*
X160330000Y-106430000D01*
X160330000Y-112730000D02*
X154030000Y-112730000D01*
X154030000Y-112730000D02*
X154030000Y-106430000D01*
D15*
X160805000Y-104855000D02*
G75*
G03*
X160805000Y-104855000I-125000J0D01*
G01*
%TD*%
M02*
