%TF.GenerationSoftware,KiCad,Pcbnew,7.0.5*%
%TF.CreationDate,2023-06-27T15:21:13+05:30*%
%TF.ProjectId,NTC reader,4e544320-7265-4616-9465-722e6b696361,rev?*%
%TF.SameCoordinates,Original*%
%TF.FileFunction,Soldermask,Bot*%
%TF.FilePolarity,Negative*%
%FSLAX46Y46*%
G04 Gerber Fmt 4.6, Leading zero omitted, Abs format (unit mm)*
G04 Created by KiCad (PCBNEW 7.0.5) date 2023-06-27 15:21:13*
%MOMM*%
%LPD*%
G01*
G04 APERTURE LIST*
%ADD10C,3.000000*%
%ADD11R,1.520000X1.520000*%
%ADD12C,1.520000*%
%ADD13R,1.700000X1.700000*%
%ADD14O,1.700000X1.700000*%
G04 APERTURE END LIST*
D10*
%TO.C,J1*%
X188601750Y-91609011D03*
X171921750Y-91609011D03*
D11*
X169761750Y-95929011D03*
D12*
X172761750Y-95929011D03*
X175761750Y-95929011D03*
X178761750Y-95929011D03*
X181761750Y-95929011D03*
X184761750Y-95929011D03*
X187761750Y-95929011D03*
X190761750Y-95929011D03*
X169761750Y-98929011D03*
X172761750Y-98929011D03*
X175761750Y-98929011D03*
X178761750Y-98929011D03*
X181761750Y-98929011D03*
X184761750Y-98929011D03*
X187761750Y-98929011D03*
X190761750Y-98929011D03*
%TD*%
D13*
%TO.C,J4*%
X110310000Y-93350000D03*
D14*
X110310000Y-95890000D03*
X110310000Y-98430000D03*
%TD*%
D10*
%TO.C,J2*%
X150695424Y-91565540D03*
X134015424Y-91565540D03*
D11*
X131855424Y-95885540D03*
D12*
X134855424Y-95885540D03*
X137855424Y-95885540D03*
X140855424Y-95885540D03*
X143855424Y-95885540D03*
X146855424Y-95885540D03*
X149855424Y-95885540D03*
X152855424Y-95885540D03*
X131855424Y-98885540D03*
X134855424Y-98885540D03*
X137855424Y-98885540D03*
X140855424Y-98885540D03*
X143855424Y-98885540D03*
X146855424Y-98885540D03*
X149855424Y-98885540D03*
X152855424Y-98885540D03*
%TD*%
D13*
%TO.C,J5*%
X109300000Y-125095000D03*
D14*
X109300000Y-122555000D03*
X109300000Y-120015000D03*
%TD*%
D13*
%TO.C,J3*%
X102950000Y-103850000D03*
D14*
X102950000Y-106390000D03*
X102950000Y-108930000D03*
X102950000Y-111470000D03*
X102950000Y-114010000D03*
%TD*%
D10*
%TO.C,J7*%
X171921750Y-127504600D03*
X188601750Y-127504600D03*
D11*
X169761750Y-123184600D03*
D12*
X172761750Y-123184600D03*
X175761750Y-123184600D03*
X178761750Y-123184600D03*
X181761750Y-123184600D03*
X184761750Y-123184600D03*
X187761750Y-123184600D03*
X190761750Y-123184600D03*
X169761750Y-120184600D03*
X172761750Y-120184600D03*
X175761750Y-120184600D03*
X178761750Y-120184600D03*
X181761750Y-120184600D03*
X184761750Y-120184600D03*
X187761750Y-120184600D03*
X190761750Y-120184600D03*
%TD*%
D10*
%TO.C,J6*%
X134508503Y-127462361D03*
X151188503Y-127462361D03*
D11*
X132348503Y-123142361D03*
D12*
X135348503Y-123142361D03*
X138348503Y-123142361D03*
X141348503Y-123142361D03*
X144348503Y-123142361D03*
X147348503Y-123142361D03*
X150348503Y-123142361D03*
X153348503Y-123142361D03*
X132348503Y-120142361D03*
X135348503Y-120142361D03*
X138348503Y-120142361D03*
X141348503Y-120142361D03*
X144348503Y-120142361D03*
X147348503Y-120142361D03*
X150348503Y-120142361D03*
X153348503Y-120142361D03*
%TD*%
M02*
